<?xml version="1.0" encoding="UTF-8" standalone="no"?>
<!-- Generator: Adobe Illustrator 19.1.0, SVG Export Plug-In . SVG Version: 6.00 Build 0)  -->

<svg
   version="1.1"
   id="Layer_1"
   x="0px"
   y="0px"
   width="300"
   height="200"
   viewBox="0 0 804.55469 536.27907"
   enable-background="new 0 0 394.5 115.3"
   xml:space="preserve"
   sodipodi:docname="monashLogoPlain.svg"
   inkscape:version="1.2.1 (9c6d41e410, 2022-07-14)"
   xmlns:inkscape="http://www.inkscape.org/namespaces/inkscape"
   xmlns:sodipodi="http://sodipodi.sourceforge.net/DTD/sodipodi-0.dtd"
   xmlns:xlink="http://www.w3.org/1999/xlink"
   xmlns="http://www.w3.org/2000/svg"
   xmlns:svg="http://www.w3.org/2000/svg"><defs
   id="defs120" /><sodipodi:namedview
   id="namedview118"
   pagecolor="#505050"
   bordercolor="#ffffff"
   borderopacity="1"
   inkscape:showpageshadow="0"
   inkscape:pageopacity="0"
   inkscape:pagecheckerboard="1"
   inkscape:deskcolor="#505050"
   showgrid="false"
   inkscape:zoom="2.1651937"
   inkscape:cx="68.123235"
   inkscape:cy="102.53124"
   inkscape:window-width="1920"
   inkscape:window-height="1009"
   inkscape:window-x="1912"
   inkscape:window-y="-8"
   inkscape:window-maximized="1"
   inkscape:current-layer="Layer_1" />


<g
   id="g305"
   transform="matrix(1.6953841,-0.11855281,0.11855281,1.6953841,61.04807,194.06847)"><g
     id="g91"
     style="stroke:none">
	<path
   d="m 150,56.2 v 28.2 c 0,11.6 -4.8,17 -15,17 -11.8,0 -14.3,-9.2 -14.3,-17 V 56.2 h -3.5 v 28.2 c 0,13.3 6,20.1 17.8,20.1 12.2,0 18.4,-6.7 18.4,-20.1 V 56.2 Z"
   id="path69"
   style="stroke:none" />
	<path
   d="m 175.8,68.4 c -5.3,0 -9.9,2.8 -11.8,7.2 0,-1.6 0,-6.4 0,-6.4 h -3.1 v 34.1 H 164 V 84.9 c 0,-8.3 4.6,-13.7 11.8,-13.7 9.2,0 9.2,8 9.2,10.7 v 21.5 h 3.1 v -21 c -0.1,-3.9 -0.1,-14 -12.3,-14 z"
   id="path71"
   style="stroke:none" />
	<polygon
   points="195.6,69.2 195.6,103.3 198.6,103.3 198.6,69.2 198.3,69.2 "
   id="polygon73"
   style="stroke:none" />
	<polygon
   points="195.6,58.8 195.6,63.4 198.6,63.4 198.6,58.8 198.3,58.8 "
   id="polygon75"
   style="stroke:none" />
	<path
   d="m 229,69.2 c 0,0 -10.8,29.3 -11.2,30.3 -0.4,-1 -12,-30.3 -12,-30.3 h -3.5 l 13.7,34.1 h 3.5 L 232.4,69.2 H 232 Z"
   id="path77"
   style="stroke:none" />
	<path
   d="m 249,68.4 c -4,0 -7.4,1.4 -10,4 -3.3,3.3 -5.1,8.6 -5.1,14.4 -0.1,5.4 1.6,10 4.7,13.2 2.6,2.7 6.3,4.1 10.4,4.1 8.2,0 13.4,-4.4 14.8,-12.4 l 0.1,-0.3 h -3.1 v 0.2 c -1.2,6.1 -5.5,9.7 -11.7,9.7 -3.2,0 -5.9,-1.1 -8,-3.2 -2.6,-2.6 -4,-6.7 -4,-11.2 0,0 0,0 0,-0.1 0.6,0 27.1,0 27.1,0 v -0.3 c 0,-0.4 0,-0.9 0,-1.3 0,-5.2 -1.6,-9.7 -4.4,-12.7 -2.8,-2.7 -6.4,-4.1 -10.8,-4.1 z m 0,2.8 c 7.6,0 11.7,6.5 12,13 -0.6,0 -23.3,0 -23.9,0 0.6,-6.6 4.8,-13 11.9,-13 z"
   id="path79"
   style="stroke:none" />
	<path
   d="m 272.6,76 c 0,-1.5 0,-6.8 0,-6.8 h -3.1 v 34.1 h 3.1 V 84.7 c 0.3,-5.1 1.4,-7 3.7,-9.5 3.6,-3.5 7.8,-3.3 9,-3.2 h 0.3 v -3 h -0.3 c -5.5,-0.2 -10.9,2.8 -12.7,7 z"
   id="path81"
   style="stroke:none" />
	<path
   d="m 301.8,84.4 c 0,0 -1,-0.2 -1,-0.2 -5.1,-1.1 -9.9,-2.1 -9.9,-6.9 0,-4.5 4.8,-6.2 9.4,-6.2 3.6,0 9.6,1.1 9.6,8.3 v 0.3 h 3.1 v -0.3 c 0,-7.1 -4.5,-11 -12.7,-11 -2.9,0 -12.4,0.6 -12.4,8.9 0,7.4 6.8,8.8 11.8,9.8 l 0.9,0.2 c 5.3,1.1 10.4,2.1 10.4,7.2 0,6.2 -7.2,6.8 -10.3,6.8 -6.2,0 -10.4,-3.7 -10.8,-9.5 v -0.3 h -3 v 0.3 c 0.2,7.5 5.5,12.2 13.9,12.2 3.1,0 13.4,-0.7 13.4,-9.6 -0.3,-7.1 -5.8,-8.7 -12.4,-10 z"
   id="path83"
   style="stroke:none" />
	<polygon
   points="320.2,69.2 320.2,103.3 323.3,103.3 323.3,69.2 323,69.2 "
   id="polygon85"
   style="stroke:none" />
	<path
   d="m 370.9,69.2 c 0,0 -10.8,28.8 -11.3,30.1 -0.5,-1.3 -12.3,-30.1 -12.3,-30.1 0,0 -10.4,0 -10.9,0 0,-0.5 0,-10.4 0,-10.4 h -0.3 -2.8 c 0,0 0,9.9 0,10.4 -0.5,0 -6.2,0 -6.2,0 v 2.7 c 0,0 5.7,0 6.2,0 0,0.6 0,23.1 0,23.1 0,0.2 0,0.4 0,0.6 0,2.6 0.6,4.5 2,5.8 2,2 5.4,2 8.1,1.9 h 0.3 v -2.7 h -0.3 c -2.8,0.1 -4.6,-0.1 -5.7,-1.2 -0.9,-0.8 -1.3,-2.2 -1.3,-4.4 0,0 0,-22.6 0,-23.1 0.5,0 8.2,0 8.5,0 0.1,0.4 12.9,30.7 13,30.9 -1.5,4.3 -2.4,6.7 -3.4,7.7 -1.6,1.6 -3.2,2.1 -6.8,2.1 h -0.3 v 2.7 h 0.3 c 3.7,0 6.1,-0.1 8,-1.6 1.4,-1.1 2.5,-3.5 4,-7 0,0 14.5,-37.5 14.5,-37.5 z"
   id="path87"
   style="stroke:none" />
	<polygon
   points="320.2,58.8 320.2,63.4 323.3,63.4 323.3,58.8 323,58.8 "
   id="polygon89"
   style="stroke:none" />
</g><g
     id="g105"
     style="stroke:none">
	<path
   d="m 194.7,48.9 c -13.6,-0.3 -25,-10.7 -24.7,-25.2 0.4,-11.4 9.5,-24.3 26.1,-23.8 11.6,0.2 24.5,8.9 24.2,24.9 -0.4,16.1 -13.9,24.5 -25.6,24.1 z m 0.5,-46 c -10.4,0 -17.6,7.6 -17.6,20.5 0,15.4 9.1,22.3 17.7,22.3 10.4,0 17.3,-8 17.3,-20.6 0.1,-13.5 -6.9,-22.2 -17.4,-22.2 z"
   id="path93"
   style="stroke:none" />
	<path
   d="M 394.5,1.3 V 0.6 h -13.6 v 0.7 c 2.7,0.2 3.4,0.7 3.4,4.5 V 22.4 H 359.9 V 5.8 c 0,-3.8 0.7,-4.4 3.4,-4.5 V 0.6 h -13.6 v 0.7 c 2.7,0.2 3.4,0.7 3.4,4.5 V 43 c 0,3.8 -0.7,4.4 -3.4,4.5 v 0.7 h 13.6 v -0.7 c -2.7,-0.2 -3.4,-0.7 -3.4,-4.5 V 25.3 h 24.4 v 17.8 c 0,3.8 -0.7,4.4 -3.4,4.5 v 0.7 h 13.6 v -0.7 c -2.7,-0.2 -3.4,-0.7 -3.4,-4.5 V 5.9 c 0,-3.9 0.7,-4.4 3.4,-4.6 z"
   id="path95"
   style="stroke:none" />
	<path
   d="m 223.9,0.6 v 0.7 c 2.6,0.1 3.4,0.4 3.4,3.2 v 38.6 c 0,3.8 -0.7,4.4 -3.4,4.5 v 0.7 h 10.3 v -0.7 c -2.7,-0.2 -3.4,-0.7 -3.4,-4.5 V 8.4 c 0,0.6 26.5,32.9 32.3,39.9 h 1.1 V 4.5 c 0,-2.8 0.7,-3 3.4,-3.2 V 0.6 h -10.1 v 0.7 c 2.6,0.1 3.4,0.4 3.4,3.2 v 30.3 l -28,-34.2 z"
   id="path97"
   style="stroke:none" />
	<path
   d="m 290.7,0.6 h -0.9 c -2.4,5.7 -13.6,32.1 -17.4,41.2 -0.7,1.6 -1.8,4.1 -2.6,5 -0.6,0.7 -1.2,0.7 -1.8,0.8 v 0.7 h 9.1 v -0.7 c -0.7,0 -2.3,0 -2.4,-1.4 0,-0.4 0.1,-0.9 0.3,-1.4 0.3,-0.8 2.1,-5.5 4.4,-10.7 h 18.1 c 1.8,4.4 3.4,8.2 4.2,9.9 v 0 c 0.2,0.5 0.7,1.7 0.7,2.2 0,1.3 -1.2,1.4 -2.5,1.4 v 0.7 h 12.7 v -0.7 c -1.6,-0.1 -2.1,-0.5 -3.2,-3.1 z m -10.2,30.5 c 3.1,-7.6 7.8,-19.6 7.8,-19.6 0,0 4.3,10.8 7.9,19.6 z"
   id="path99"
   style="stroke:none" />
	<path
   d="m 114.5,0.6 v 0.7 c 1.5,0.1 2.3,0.2 2.8,0.8 0.1,0.2 0.3,0.5 0.4,0.7 0,0 0,0 0,0 0.1,0.2 0.1,0.5 0.1,0.8 0,0.3 0,0.6 0,0.9 v 38.6 c 0,3.8 -0.7,4.4 -3.4,4.5 v 0.7 h 10.2 v -0.7 c -2.7,-0.2 -3.4,-0.7 -3.4,-4.5 V 10 c 0,-0.6 -0.1,-1.8 -0.1,-1.8 l 0.6,1.8 16.5,38.1 h 1 L 156,8.9 156.5,7.3 c 0,0 -0.1,0.8 -0.1,1.5 v 34.3 c 0,3.8 -0.7,4.4 -3.4,4.5 v 0.7 h 13.6 v -0.7 c -2.7,-0.2 -3.4,-0.7 -3.4,-4.5 V 4.5 c 0,-2.8 0.7,-3 3.4,-3.2 V 0.6 H 156 l -15.2,36 -15.4,-36 z"
   id="path101"
   style="stroke:none" />
	<path
   d="m 314.9,45.1 c 3.2,1.9 7.9,3.9 13,3.9 0.1,0 0.2,0 0.3,0 7.4,-0.1 15.3,-5.6 15.3,-14.3 0,-9.4 -6.6,-11.6 -13.2,-15 -6.7,-3.3 -9.5,-5 -9.5,-9.4 0,-3 1.8,-7.4 7.8,-7.4 1.9,0 3.6,0.5 5,1.2 4.8,2.7 5.1,6.5 5.7,8.9 H 340 L 339.6,2.4 c -3.1,-1.3 -5.5,-1.9 -7.2,-2.1 -1,-0.1 -2,-0.2 -2.8,-0.2 -6.7,0 -14.5,4 -14.5,12.4 0,5.7 3.4,9.3 10.2,12.7 6.7,3.4 11.8,4.8 11.8,11.5 0,3.4 -2,9.4 -9.5,9.4 -3,0 -5.4,-1 -7.3,-2.6 -4.5,-4.2 -4.4,-7.6 -4.7,-8.9 h -0.7 v 10.5"
   id="path103"
   style="stroke:none" />
</g><g
     id="g115">
	<defs
   id="defs108">
		<path
   id="SVGID_1_"
   d="M 70.1,23.5 H 69.3 V 6.7 c 0.7,1.7 0.8,3.4 0.8,4.8 z M 38.3,16.8 c 1,0.3 2.1,0.5 3.3,0.6 v -0.8 c -1,-0.1 -2.1,-0.3 -3.1,-0.6 -1.3,-0.3 -2.5,-0.6 -3.7,-0.6 -0.6,0 -1.2,0.1 -1.7,0.3 v 0.9 c 0.4,-0.2 1,-0.3 1.7,-0.3 1.1,-0.1 2.3,0.2 3.5,0.5 z m -9.7,-0.6 c 0.7,0 1.3,0.1 1.7,0.3 v -0.9 c -0.5,-0.2 -1.1,-0.3 -1.7,-0.3 -1.2,0 -2.4,0.3 -3.7,0.6 -1,0.3 -2,0.5 -3.1,0.6 v 0.8 c 1.1,-0.1 2.2,-0.3 3.3,-0.6 1.3,-0.2 2.4,-0.5 3.5,-0.5 z m 0,-2 c 0.7,0 1.3,0.2 1.7,0.3 v -0.9 c -0.5,-0.2 -1.1,-0.2 -1.7,-0.3 -1.2,0 -2.4,0.3 -3.7,0.6 -1,0.3 -2,0.5 -3.1,0.6 v 0.8 C 23,15.2 24,15 25.1,14.7 c 1.3,-0.3 2.4,-0.6 3.5,-0.5 z m 0,4.1 c 0.7,0 1.3,0.1 1.7,0.3 v -0.9 c -0.5,-0.2 -1.1,-0.2 -1.7,-0.3 -1.2,0 -2.4,0.3 -3.7,0.6 -1,0.3 -2,0.5 -3.1,0.6 v 0.8 C 23,19.3 24,19 25.1,18.8 c 1.3,-0.3 2.4,-0.6 3.5,-0.5 z m 0,-6.2 c 0.7,0 1.3,0.2 1.7,0.3 v -0.9 c -0.5,-0.2 -1.1,-0.3 -1.7,-0.3 -1.2,0 -2.4,0.3 -3.7,0.6 -1,0.3 -2,0.5 -3.1,0.6 v 0.8 c 1.1,-0.1 2.2,-0.3 3.3,-0.6 1.3,-0.2 2.4,-0.5 3.5,-0.5 z M 23.2,73.3 C 13.3,57 13.5,41.1 13.5,39.1 V 0.6 h 75 v 38.5 c 0,2 0.2,17.9 -9.7,34.2 C 70,88.1 56.7,94.6 51,96.6 45.4,94.6 32.1,88.1 23.2,73.3 Z m 20,-3 -2,-1.6 1.1,-2.4 -2.6,0.5 -1.1,-2.3 -1.2,2.3 -2.5,-0.5 1.1,2.4 -2,1.6 2.5,0.6 v 2.6 l 2.1,-1.6 2,1.6 v -2.6 z m 10.7,16.3 2.5,-1.2 -2.5,-1.1 0.9,-2.6 -2.6,1 -1.1,-2.5 -1.1,2.4 -2.6,-1 1,2.6 -2.5,1.1 2.5,1.2 -1,2.6 2.6,-1 1.1,2.5 1.1,-2.5 2.6,1 z m -5.5,-29.9 -2,1.7 2.5,0.6 v 2.6 l 2,-1.6 2.1,1.6 0.1,-2.6 2.5,-0.6 -2,-1.7 1.1,-2.4 -2.6,0.5 -1.1,-2.2 -1.1,2.3 -2.6,-0.5 z m 8.8,16.5 1.5,-1.6 -2.2,-0.4 -1,-2 -1,2 -2.2,0.4 1.6,1.6 -0.4,2.2 2,-1 2,1 z m 7.4,-7.9 1.2,-2 h -2.3 l -1.1,-2 -1.1,2 H 59 l 1.2,2 -1.2,2 h 2.3 l 1.1,2 1.1,-2 h 2.3 z M 82.2,17.1 c -0.6,0.3 -1.1,0.8 -1.4,1.4 -0.3,0.5 -0.4,1 -0.4,1.5 0,0.1 0,0.2 0,0.4 0.3,-0.2 0.6,-0.4 0.9,-0.6 0.2,-0.2 0.4,-0.5 0.6,-0.7 0.2,-0.4 0.3,-1 0.3,-1.5 0,-0.2 0,-0.4 0,-0.5 z m -7.8,11.5 c 0.6,0.3 1.3,0.4 2,0.3 0.7,-0.1 1.2,-0.4 1.7,-0.9 -0.6,-0.3 -1.2,-0.4 -1.9,-0.3 -0.7,0.1 -1.3,0.4 -1.8,0.9 z m 0,-1.1 c 0.3,-0.5 0.5,-1.1 0.5,-1.7 0,-0.1 0,-0.1 0,-0.2 -0.6,0.3 -1.1,0.7 -1.5,1.2 v 0 c -0.3,0.5 -0.5,1.1 -0.5,1.7 0,0.1 0,0.1 0,0.2 0.7,-0.2 1.2,-0.6 1.5,-1.2 z m 0.8,-0.2 c 0,0 0,0.1 0,0 0.2,0 0.3,0 0.4,-0.1 0.4,-0.3 0.6,-0.7 0.8,-1.2 0.1,-0.3 0.2,-0.7 0.2,-1 0,-0.3 -0.1,-0.6 -0.2,-0.9 -0.4,0.3 -0.7,0.6 -0.9,1 0,0.9 -0.1,1.6 -0.3,2.2 z m 1.9,-1.6 c 0,0 0,0.1 0,0 0.2,0 0.3,-0.1 0.4,-0.2 0.3,-0.4 0.4,-0.8 0.5,-1.3 0,-0.1 0,-0.2 0,-0.3 0,-0.5 -0.2,-1.1 -0.5,-1.6 -0.3,0.4 -0.6,0.8 -0.7,1.2 0.3,0.8 0.4,1.5 0.3,2.2 z m 1.4,-2 c 0,0 0,0.1 0,0 0.2,0 0.3,-0.1 0.4,-0.3 0.1,-0.3 0.2,-0.6 0.2,-1 0,-0.1 0,-0.3 0,-0.4 -0.1,-0.6 -0.4,-1.2 -0.9,-1.7 -0.2,0.4 -0.3,0.9 -0.3,1.3 0.3,0.8 0.5,1.4 0.6,2.1 z m 1,-2.3 c 0,0 0,0.1 0,0 0.2,-0.1 0.2,-0.2 0.3,-0.4 0,-0.1 0,-0.1 0,-0.2 0,-0.4 -0.1,-0.8 -0.2,-1.2 -0.2,-0.6 -0.7,-1 -1.3,-1.4 -0.1,0.2 -0.1,0.5 -0.1,0.7 0,0.2 0,0.4 0.1,0.6 0.6,0.7 1,1.3 1.2,1.9 z M 79.9,19 c 0,0 0,0 0,0 0.1,-0.1 0.2,-0.3 0.2,-0.4 -0.1,-0.5 -0.2,-0.9 -0.5,-1.3 -0.4,-0.5 -0.9,-0.9 -1.6,-1.1 0,0.5 0.1,1 0.3,1.4 0.7,0.3 1.2,0.8 1.6,1.4 z m -0.1,-2.9 c -0.2,-0.5 -0.4,-0.9 -0.8,-1.2 -0.5,-0.4 -1,-0.6 -1.7,-0.7 0.1,0.5 0.3,0.9 0.6,1.2 0.7,0.2 1.3,0.6 1.8,1 0,0 0.1,0 0.1,0 0,0 0,-0.1 0,-0.3 z M 79,14.2 C 79,14 78.9,13.9 78.9,13.7 78.6,13.3 78.3,13 77.9,12.8 77.3,12.5 76.7,12.4 76,12.5 c 0.3,0.4 0.5,0.8 0.9,1.1 0.8,0 1.5,0.2 2.1,0.6 0,0 0,0 0,0 z M 78.6,27 c 0.6,-0.2 1.1,-0.7 1.5,-1.3 -0.7,-0.1 -1.4,-0.1 -2,0.1 -0.5,0.2 -1,0.7 -1.4,1.2 0.3,0 0.7,0.1 1,0.2 0.3,0 0.6,0 0.9,-0.2 z m 1.7,-2.3 c 0.5,-0.4 0.9,-1 1.2,-1.7 -0.7,0 -1.4,0.2 -1.9,0.6 v 0 c -0.5,0.4 -0.9,0.9 -1.1,1.5 0.3,-0.1 0.7,-0.1 1,-0.1 0.3,0 0.6,-0.2 0.8,-0.3 z m 1.8,-4.6 c -0.6,0.2 -1.2,0.5 -1.7,1 -0.4,0.5 -0.6,1.1 -0.7,1.8 0.3,-0.1 0.6,-0.2 1,-0.3 0.3,-0.2 0.5,-0.4 0.7,-0.6 0.5,-0.6 0.7,-1.2 0.7,-1.9 z m -0.6,-6 c -0.5,0.5 -0.9,1 -1.1,1.7 -0.1,0.2 -0.1,0.5 -0.1,0.8 0,0.4 0.1,0.8 0.2,1.1 0.2,-0.3 0.5,-0.5 0.7,-0.7 0.2,-0.3 0.3,-0.6 0.4,-0.9 0.1,-0.2 0.1,-0.5 0.1,-0.7 0.1,-0.4 0,-0.9 -0.2,-1.3 z m -2,-0.8 c 0,0.6 0.2,1.2 0.6,1.8 0.1,-0.3 0.3,-0.6 0.5,-0.9 0.1,-0.3 0.2,-0.6 0.2,-0.9 0,0 0,0 0,0 0,-0.7 -0.2,-1.3 -0.6,-1.9 -0.4,0.6 -0.7,1.2 -0.7,1.9 0,0 0,0 0,0 z m -1.6,-2.9 c 0,0.2 0,0.5 0.1,0.7 0.1,0.6 0.5,1.1 1,1.6 0.1,-0.3 0.2,-0.7 0.3,-1 0,-0.1 0,-0.1 0,-0.2 0,-0.2 0,-0.4 -0.1,-0.7 C 79,10.2 78.7,9.6 78.1,9.1 78,9.5 77.9,9.9 77.9,10.4 Z m -0.3,1.2 c -0.4,-0.3 -0.8,-0.5 -1.2,-0.7 -0.6,-0.2 -1.3,-0.1 -1.9,0.1 0.3,0.4 0.7,0.7 1.1,0.9 0.7,-0.1 1.5,-0.1 2.1,0.1 0,0 0.1,0 0.1,0 -0.1,-0.1 -0.1,-0.2 -0.2,-0.4 z M 75.7,7.8 c 0,0.5 0.1,1 0.3,1.5 0.3,0.6 0.8,1 1.4,1.3 0,-0.4 0,-0.7 0.1,-1.1 C 77.4,9.2 77.4,8.9 77.2,8.7 76.9,8.1 76.4,7.6 75.8,7.3 75.7,7.5 75.7,7.6 75.7,7.8 Z M 73.1,8 c 0.2,0.7 0.6,1.3 1.1,1.6 0.5,0.3 1.1,0.5 1.7,0.6 C 75.7,10 75.6,9.8 75.4,9.5 v 0 C 75.3,9.3 75.2,9 75.1,8.8 75,8.7 75,8.7 74.9,8.6 74.5,8.2 73.9,8 73.1,8 Z m -7.8,15.7 c 0,0.5 0.4,1.1 1.3,1.1 h 1.7 c -0.2,0.6 -0.4,1.5 -0.4,2.4 0,1.2 0.2,2.2 0.6,2.9 -1.3,-0.2 -2.2,-0.5 -3.1,-1 h -0.1 l -0.2,0.5 h 0.1 c 0.8,0.4 1.5,0.6 2.4,0.9 0,0 0.7,0.1 1.2,0.2 -0.1,0.1 -0.2,0.3 -0.2,0.5 0,0.4 0.3,0.7 0.7,0.7 0.4,0 0.7,-0.3 0.7,-0.7 0,-0.2 -0.1,-0.4 -0.2,-0.5 0.5,-0.1 1.1,-0.2 1.1,-0.2 0.9,-0.2 1.7,-0.4 2.5,-0.9 h 0.1 L 73.3,29 h -0.1 c -0.9,0.5 -1.8,0.8 -3.1,1 0.3,-0.7 0.6,-1.7 0.6,-2.9 0,-0.9 -0.1,-1.8 -0.4,-2.4 H 72 c 0.9,0 1.3,-0.5 1.3,-1.1 0,-0.4 -0.3,-0.8 -0.8,-0.8 -0.4,0 -0.8,0.3 -0.8,0.8 0,0.1 0,0.2 0.1,0.3 0.1,0.1 0.1,0.3 -0.2,0.3 h -1 V 11.5 C 70.6,9.8 70.5,7.7 69.5,5.7 L 69.2,5.1 68.9,5.7 c -1,2 -1.1,4.1 -1.1,5.8 v 12.7 h -1 c -0.3,0 -0.2,-0.2 -0.2,-0.3 0,-0.1 0.1,-0.2 0.1,-0.3 0,-0.4 -0.3,-0.8 -0.7,-0.8 -0.3,0.1 -0.7,0.5 -0.7,0.9 z m -2.1,1.5 c -0.2,-0.4 -0.5,-0.7 -0.9,-1 -0.1,0.3 -0.2,0.6 -0.2,0.9 0,0.3 0.1,0.7 0.2,1 0.1,0.5 0.4,0.8 0.7,1.2 0.1,0 0.3,0.1 0.4,0.1 0,0 0,-0.1 0,-0.1 C 63.2,26.7 63.1,26 63.2,25.2 Z M 62.6,12.5 c -0.6,-0.1 -1.3,0 -1.9,0.3 -0.4,0.2 -0.8,0.5 -1,0.9 0,0.2 0,0.3 -0.1,0.5 0,0 0.1,0 0.1,0 0.6,-0.4 1.3,-0.6 2.1,-0.6 0.3,-0.3 0.6,-0.7 0.8,-1.1 z m -0.7,11.1 c -0.1,-0.4 -0.4,-0.8 -0.7,-1.2 -0.3,0.5 -0.5,1 -0.5,1.6 0,0.1 0,0.2 0,0.3 0,0.5 0.2,0.9 0.5,1.3 0.1,0.1 0.3,0.2 0.4,0.3 0,0 0,-0.1 0,-0.1 -0.1,-0.8 0,-1.5 0.3,-2.2 z m -2.3,-1.1 c 0,0.3 0.1,0.6 0.2,1 0.1,0.1 0.2,0.2 0.3,0.3 0,0 0,-0.1 0.1,-0.1 0.1,-0.7 0.3,-1.4 0.7,-2 0,-0.5 -0.2,-0.9 -0.4,-1.3 -0.5,0.5 -0.8,1.1 -0.9,1.7 0,0.1 0,0.3 0,0.4 z m 0.8,-2.8 c 0.1,-0.2 0.1,-0.4 0.1,-0.6 0,-0.2 -0.1,-0.5 -0.1,-0.7 -0.6,0.4 -1,0.8 -1.3,1.4 -0.2,0.4 -0.2,0.8 -0.2,1.2 0,0.1 0,0.1 0,0.2 0.1,0.1 0.2,0.3 0.2,0.4 0,0 0.1,0 0.1,-0.1 0.2,-0.7 0.6,-1.3 1.2,-1.8 z m -1.5,-3.6 c 0,0.1 0,0.3 0,0.4 0,0 0.1,0 0.1,0 0.5,-0.5 1.1,-0.8 1.8,-1 0.3,-0.4 0.5,-0.8 0.6,-1.2 -0.7,0.1 -1.3,0.3 -1.8,0.7 -0.3,0.2 -0.6,0.6 -0.7,1.1 z m -0.3,2.5 c 0.1,0.1 0.1,0.3 0.1,0.5 0,0 0,0 0.1,0 0.4,-0.6 0.9,-1.1 1.6,-1.4 0.2,-0.4 0.3,-0.9 0.3,-1.4 -0.7,0.2 -1.2,0.6 -1.6,1.1 -0.3,0.3 -0.5,0.7 -0.5,1.2 z m -0.4,2.5 c -0.4,-0.5 -1,-0.8 -1.7,-1 0.1,0.7 0.3,1.3 0.7,1.8 0.2,0.2 0.5,0.4 0.7,0.6 0.3,0.1 0.6,0.2 0.9,0.3 0,-0.6 -0.2,-1.2 -0.6,-1.7 z m -1,1.9 c 0.2,0.7 0.6,1.3 1.1,1.7 0.2,0.2 0.5,0.3 0.8,0.4 0.4,0 0.7,0 1,0.1 C 59.8,24.6 59.5,24 59,23.7 v 0 C 58.6,23.2 57.9,23 57.2,23 Z m 1.4,2.8 c 0.4,0.6 0.8,1 1.5,1.3 0.3,0.1 0.6,0.2 0.9,0.2 0.3,-0.1 0.7,-0.1 1,-0.2 -0.4,-0.5 -0.9,-1 -1.4,-1.2 -0.6,-0.3 -1.3,-0.3 -2,-0.1 z m 2,2.2 c 0.5,0.5 1.1,0.8 1.8,0.9 0.6,0.1 1.3,-0.1 1.9,-0.3 -0.5,-0.5 -1.1,-0.8 -1.8,-0.9 v 0 c -0.6,-0.1 -1.3,0 -1.9,0.3 z m 5.2,0.7 c 0,-0.1 0,-0.1 0,-0.2 0,-0.6 -0.2,-1.2 -0.5,-1.7 v 0 c -0.4,-0.5 -0.9,-0.9 -1.5,-1.2 0,0.1 0,0.1 0,0.2 0,0.6 0.2,1.2 0.5,1.7 0.3,0.6 0.8,1 1.5,1.2 z M 63.2,9.5 c -0.1,0.2 -0.3,0.5 -0.5,0.7 0.6,0 1.2,-0.2 1.7,-0.6 0.5,-0.4 0.9,-1 1.2,-1.6 -0.7,0 -1.4,0.2 -1.9,0.6 -0.1,0.1 -0.1,0.1 -0.2,0.2 -0.1,0.2 -0.2,0.5 -0.3,0.7 z m -2,0 c 0.1,0.4 0.1,0.7 0.1,1.1 0.6,-0.3 1.1,-0.8 1.3,-1.3 C 62.9,8.8 63,8.3 63,7.8 63,7.6 63,7.5 62.9,7.3 62.3,7.6 61.8,8.1 61.5,8.7 61.4,9 61.3,9.2 61.2,9.5 Z M 60.9,12 c 0,0.1 0.1,0.1 0,0 0.8,-0.2 1.5,-0.2 2.2,-0.1 0.4,-0.2 0.8,-0.5 1.1,-0.9 -0.6,-0.2 -1.3,-0.3 -1.9,-0.1 -0.5,0.1 -0.9,0.3 -1.2,0.7 C 61,11.8 61,11.9 60.9,12 Z m -1.6,-0.6 c 0,0.1 0,0.1 0,0.2 0.2,0.3 0.3,0.7 0.3,1 0.5,-0.5 0.8,-1 1,-1.6 0.1,-0.2 0.1,-0.5 0.1,-0.7 0,-0.4 -0.1,-0.9 -0.3,-1.3 -0.5,0.5 -0.9,1 -1.1,1.7 0.1,0.3 0,0.5 0,0.7 z m -1.4,1.9 c 0,0.3 0.1,0.6 0.2,0.9 0.2,0.3 0.4,0.6 0.5,0.9 0.3,-0.5 0.6,-1.1 0.6,-1.8 0,0 0,0 0,0 0,-0.6 -0.3,-1.3 -0.6,-1.9 -0.4,0.6 -0.7,1.2 -0.7,1.9 0,0 0,0 0,0 z m -1,2.1 c 0,0.3 0,0.5 0.1,0.7 0.1,0.3 0.2,0.6 0.4,0.9 0.3,0.2 0.5,0.4 0.7,0.7 0.1,-0.4 0.2,-0.8 0.2,-1.1 0,-0.3 0,-0.5 -0.1,-0.8 C 58,15.2 57.6,14.6 57.1,14.1 57,14.5 56.9,15 56.9,15.4 Z m -0.5,2.1 c 0,0.5 0.1,1.1 0.4,1.5 0.1,0.3 0.3,0.5 0.6,0.7 0.3,0.1 0.6,0.3 0.9,0.5 0,-0.1 0,-0.3 0,-0.4 0,-0.5 -0.1,-1 -0.4,-1.5 -0.3,-0.6 -0.8,-1.1 -1.5,-1.4 0,0.3 0,0.5 0,0.6 z m -24.3,7.9 c 0.7,-0.5 1.6,-0.7 2.7,-0.7 1.2,0 2.4,0.2 3.7,0.6 1.3,0.3 2.8,0.7 4.2,0.6 0,-0.7 0,-14.7 0,-17.3 0,-0.2 0,-0.3 0,-0.4 C 41.2,8.3 39.7,7.9 38.3,7.6 37.1,7.3 35.9,7 34.9,7 33.4,7 32.6,7.5 32.1,7.9 v 0.6 z m -11.3,0.4 c 1.4,0.1 2.8,-0.2 4.2,-0.6 1.3,-0.3 2.5,-0.6 3.7,-0.6 1.1,0 2,0.3 2.7,0.7 V 8.6 7.9 C 30.8,7.5 30,7.1 28.6,7 c -1.1,0 -2.2,0.2 -3.4,0.5 -1.4,0.4 -2.8,0.7 -4.4,0.6 0,0.1 0,0.2 0,0.4 0,2.6 0,16.6 0,17.3 z m -2.7,2.8 c 0,0 11.7,0 12.1,0 0.3,0.5 0.8,0.9 1.5,0.9 0.7,0 1.3,-0.4 1.5,-0.9 0.4,0 12.1,0 12.1,0 V 8.6 H 44.9 43.8 L 43.9,9 c 0,0 0,0.1 0,0.1 v 18.1 c -0.9,0 -10.7,0 -11.2,0 -0.2,0.3 -0.4,0.4 -1,0.4 -0.5,0 -0.7,-0.1 -0.9,-0.4 -0.5,0 -9.5,0 -11.3,0 V 9.1 c 0,0 0,-0.1 0,-0.1 L 19.6,8.6 H 18.1 Z M 22.5,68.7 51,43 79.6,68.7 c 1.9,-3.6 3.2,-7.1 4.3,-10.4 L 51,28.8 18.2,58.3 c 1,3.3 2.4,6.8 4.3,10.4 z m 6.1,-48.4 c 0.7,0 1.3,0.1 1.7,0.3 v -0.9 c -0.5,-0.2 -1.1,-0.2 -1.7,-0.3 -1.2,0 -2.4,0.3 -3.7,0.6 -1,0.3 -2,0.5 -3.1,0.6 v 0.8 c 1.1,-0.1 2.2,-0.4 3.3,-0.6 1.3,-0.2 2.4,-0.5 3.5,-0.5 z m 0,2.1 c 0.7,0 1.3,0.1 1.7,0.3 v -0.9 c -0.5,-0.2 -1.1,-0.3 -1.7,-0.3 -1.2,0 -2.4,0.3 -3.7,0.6 -1,0.3 -2,0.5 -3.1,0.6 v 0.8 c 1.1,-0.1 2.2,-0.4 3.3,-0.6 1.3,-0.3 2.4,-0.6 3.5,-0.5 z m 0,-12.3 c 0.7,0 1.3,0.2 1.7,0.3 V 9.5 C 29.8,9.3 29.2,9.3 28.6,9.2 c -1.2,0 -2.4,0.3 -3.7,0.6 -1,0.3 -2,0.5 -3.1,0.6 v 0.8 c 1.1,-0.1 2.2,-0.3 3.3,-0.6 1.3,-0.3 2.4,-0.6 3.5,-0.5 z m 9.7,4.6 c 1,0.3 2.1,0.5 3.3,0.6 v -0.8 c -1,-0.1 -2.1,-0.3 -3.1,-0.6 -1.3,-0.3 -2.5,-0.6 -3.7,-0.6 -0.6,0 -1.2,0.1 -1.7,0.3 v 0.9 c 0.4,-0.2 1,-0.3 1.7,-0.3 1.1,-0.1 2.3,0.2 3.5,0.5 z m 0,-4.1 c 1,0.3 2.1,0.5 3.3,0.6 V 10.4 C 40.6,10.3 39.5,10.1 38.5,9.8 37.2,9.5 36,9.2 34.8,9.2 c -0.6,0 -1.2,0.1 -1.7,0.3 v 0.9 c 0.4,-0.2 1,-0.3 1.7,-0.3 1.1,-0.1 2.3,0.2 3.5,0.5 z m 0,8.2 c 1,0.2 2.2,0.5 3.3,0.6 V 18.6 C 40.5,18.5 39.5,18.3 38.5,18 37.2,17.7 36,17.4 34.9,17.4 c -0.6,0 -1.2,0.1 -1.7,0.2 v 0.9 c 0.4,-0.2 1,-0.3 1.7,-0.3 1,0 2.2,0.3 3.4,0.6 z m 0,-6.1 c 1,0.3 2.1,0.5 3.3,0.6 v -0.8 c -1,-0.1 -2.1,-0.3 -3.1,-0.6 -1.3,-0.3 -2.5,-0.6 -3.7,-0.6 -0.6,0 -1.2,0.1 -1.7,0.3 v 0.9 c 0.4,-0.2 1,-0.3 1.7,-0.3 1.1,-0.1 2.3,0.2 3.5,0.5 z m 0,8.2 c 1,0.3 2.1,0.5 3.3,0.6 v -0.8 c -1,-0.1 -2.1,-0.4 -3.1,-0.6 -1.3,-0.3 -2.5,-0.6 -3.7,-0.6 -0.6,0 -1.2,0.1 -1.7,0.3 v 0.9 c 0.4,-0.2 1,-0.3 1.7,-0.3 1.1,-0.1 2.3,0.2 3.5,0.5 z m 0,2 c 1,0.3 2.1,0.5 3.3,0.6 v -0.8 c -1,-0.1 -2.1,-0.3 -3.1,-0.6 -1.3,-0.3 -2.5,-0.6 -3.7,-0.6 -0.6,0 -1.2,0.1 -1.7,0.3 v 0.9 c 0.4,-0.2 1,-0.3 1.7,-0.3 1.1,-0.1 2.3,0.2 3.5,0.5 z m 63.8,42.4 -0.2,0.5 c -1.9,6.3 -5.1,12.6 -7.4,16.7 l -0.5,0.9 -3.3,-3 c -0.1,0.2 -0.3,0.5 -0.4,0.7 -8.4,13.4 -20.2,23.1 -34.3,28.3 l -5,1.8 -5,-1.8 C 32,104.3 20.1,94.5 11.8,81.1 11.7,80.9 11.6,80.6 11.4,80.4 L 8,83.4 7.5,82.5 C 5.2,78.3 2.1,72 0.1,65.8 L 0,65.3 8.1,58 l 1,-0.9 0.4,1.2 c 0.4,1.5 0.9,2.9 1.4,4.3 l 2.3,-2.1 0.9,-0.8 0.4,1.2 c 1.7,5.1 4,9.9 6.7,14.2 7.1,11.3 17,19.5 28.7,23.8 0,0 0.8,0.3 1.2,0.4 0.4,-0.1 1.2,-0.4 1.2,-0.4 C 64,94.6 74,86.4 81,75.1 83.7,70.8 86,66 87.7,60.9 l 0.4,-1.2 3.2,2.9 c 0.5,-1.4 1,-2.8 1.4,-4.3 l 0.4,-1.2 z m -95.4,12 -1.5,-9.5 4.4,-4 C 9.1,62.6 8.7,61.3 8.3,60 7,61.2 2.5,65.2 1.9,65.8 c 1.3,4.1 3,8.1 4.8,11.5 z m 3.9,1.7 c -1,-1.7 -2,-3.5 -2.8,-5.3 l 1.1,6.9 c 0.3,-0.4 1,-1 1.7,-1.6 z m 83.7,-5.3 c -0.8,1.8 -1.8,3.6 -2.8,5.3 0,0 0,0 0,0 0.7,0.6 1.3,1.2 1.7,1.6 z m 0.6,-5.5 c -0.7,-0.6 -5,-4.5 -6.2,-5.6 -1.7,4.8 -3.8,9.4 -6.4,13.5 -7.2,11.6 -17.4,20 -29.5,24.5 l -1.8,0.6 c 0,0 -1.7,-0.6 -1.7,-0.6 C 37.2,96.2 27.1,87.7 19.8,76.1 17.2,72 15.1,67.4 13.4,62.6 c -1.3,1.1 -5.5,5 -6.2,5.6 1.6,4.2 3.7,8.3 6,12 8.2,13.1 19.8,22.6 33.5,27.6 0,0 4,1.4 4.4,1.6 0.5,-0.2 4.5,-1.6 4.5,-1.6 13.7,-5 25.3,-14.6 33.5,-27.6 2.1,-3.6 4.2,-7.7 5.8,-12 z m 5.3,-2.4 C 99.6,65.2 95.1,61.2 93.8,60 93.4,61.3 93,62.6 92.5,63.8 l 4.4,4 -1.5,9.6 c 1.7,-3.5 3.5,-7.5 4.8,-11.6 z M 14,78 l 0.1,0.4 -0.3,0.2 c -0.2,-0.3 -0.3,-0.6 -0.5,-1 -0.2,-0.3 -0.4,-0.6 -0.6,-1 l 0.3,-0.1 0.3,0.3 c 0.3,-0.3 0.8,-0.7 1,-1.1 l -0.7,-1.3 -1.4,0.3 0.1,0.4 -0.2,0.1 C 12,74.9 11.8,74.7 11.7,74.4 11.6,74.2 11.5,74 11.3,73.7 l 0.3,-0.1 0.3,0.3 c 1,0 3.1,-0.4 4.4,-0.6 0.2,0.3 0.5,0.5 0.7,0.7 l 0.1,0.4 -1.3,1.6 c -0.7,0.7 -1.5,1.6 -1.8,2 z M 14.8,75.3 16,74 v 0 l -1.8,0.4 z m 7.3,7.4 0.2,-0.2 C 22.1,82.3 22,82.1 21.8,81.8 21.6,81.6 21.5,81.3 21.3,81.1 l -0.3,0.2 0.2,0.4 c -0.7,0.5 -2.3,1.8 -2.3,1.8 v 0 c 0.4,-1.2 0.9,-2.6 1.4,-3.8 -0.2,-0.2 -0.3,-0.4 -0.5,-0.6 -0.1,-0.2 -0.3,-0.4 -0.4,-0.6 l -0.2,0.2 0.2,0.4 c -0.3,0.3 -0.6,0.5 -1,0.8 l -1.1,0.8 c -0.4,0.3 -0.7,0.5 -1.1,0.7 l -0.3,-0.3 -0.2,0.2 c 0.2,0.2 0.3,0.4 0.5,0.7 0.2,0.2 0.3,0.5 0.5,0.7 L 16.9,82.5 16.6,82 c 0.7,-0.5 1.6,-1.2 2.4,-1.8 v 0 c -0.5,1.2 -0.9,2.5 -1.4,3.9 0.1,0.1 0.2,0.3 0.3,0.4 0.1,0.1 0.2,0.3 0.3,0.4 0.4,-0.3 0.8,-0.7 1.4,-1.1 L 20.7,83 c 0.4,-0.3 0.8,-0.5 1.1,-0.7 z m 0.4,3.7 c -1.1,1 -1,2.5 -0.1,3.4 0.6,0.6 1.2,1 2.3,1.1 l 0.1,-0.6 c -0.6,-0.1 -1.1,-0.3 -1.4,-0.7 -0.7,-0.7 -0.7,-1.7 0.1,-2.5 0.8,-0.8 1.7,-0.5 2.2,0.1 0.3,0.3 0.5,0.7 0.5,1.1 l -0.2,0.3 0.2,0.3 c 0.3,-0.2 0.7,-0.5 1,-0.6 -0.2,-0.6 -0.5,-1 -0.9,-1.5 -1.1,-1.2 -2.7,-1.4 -3.8,-0.4 z m 9.7,9.2 c -0.9,1.1 -2.3,1.2 -3.7,0.1 C 27.2,94.6 27,93.3 28,92 c 0.9,-1.1 2.4,-1.2 3.7,-0.1 1.3,1.1 1.5,2.5 0.5,3.7 z m -1,-3.2 c -0.7,-0.6 -1.6,-0.3 -2.3,0.4 -0.7,0.8 -0.7,1.7 0,2.3 0.7,0.6 1.6,0.3 2.3,-0.4 0.6,-0.7 0.7,-1.7 0,-2.3 z m 8,6.4 c -0.3,0.6 -1,0.7 -1.7,0.4 0.1,0.5 0.3,2.2 0.4,2.5 l 0.1,0.2 -0.2,0.3 c -0.4,-0.3 -0.9,-0.5 -1.3,-0.7 0,-0.8 -0.1,-2 -0.2,-2.7 L 36,98.6 35.8,99 c -0.3,0.4 -0.5,0.8 -0.6,1.1 l 0.3,0.3 -0.2,0.3 c -0.3,-0.2 -0.6,-0.4 -0.9,-0.6 -0.3,-0.2 -0.6,-0.4 -1,-0.6 l 0.2,-0.3 0.4,0.2 c 0.3,-0.3 0.5,-0.7 0.8,-1.1 l 0.7,-1.2 C 35.8,96.7 36,96.3 36.2,96 l -0.3,-0.3 0.2,-0.3 c 0.2,0.2 0.5,0.3 0.7,0.5 0.3,0.2 0.6,0.3 0.9,0.5 0.3,0.2 0.6,0.3 0.9,0.5 1,0.7 1,1.4 0.6,1.9 z M 37.7,97.2 C 37.4,97 37.3,97 37.1,96.9 37,97.1 36.8,97.4 36.6,97.7 L 36.4,98 c 0.1,0.1 0.2,0.2 0.3,0.3 0.6,0.4 1.1,0.4 1.4,-0.1 0.2,-0.4 0.1,-0.7 -0.4,-1 z m 7.6,5.4 c -0.1,0.9 -0.2,2.2 -0.2,2.7 l 0.3,0.2 -0.1,0.3 c -0.3,-0.2 -0.7,-0.3 -1,-0.5 -0.3,-0.2 -0.7,-0.3 -1,-0.4 l 0.1,-0.3 0.4,0.1 c 0.1,-0.4 0.2,-1 0.2,-1.4 l -1.4,-0.6 -0.9,1.1 0.3,0.2 -0.1,0.3 c -0.3,-0.1 -0.6,-0.3 -0.8,-0.4 -0.2,-0.1 -0.5,-0.2 -0.7,-0.3 l 0.1,-0.3 0.4,0.1 c 0.8,-0.6 2.2,-2.1 3.2,-3.2 0.4,0.1 0.7,0.1 1,0.2 l 0.4,0.3 z m -1,-1.8 v 0 l -1.2,1.4 1,0.5 z m 14.7,3.5 c -0.2,-0.4 -0.4,-0.7 -0.6,-1.2 l -0.5,-1.2 c -0.2,-0.5 -0.4,-0.8 -0.5,-1.2 l 0.4,-0.2 -0.1,-0.3 c -0.3,0.2 -0.7,0.3 -1,0.5 -0.3,0.1 -0.7,0.3 -1,0.4 l 0.1,0.3 0.4,-0.1 c 0.2,0.4 0.4,0.7 0.6,1.2 l 0.5,1.2 c 0.2,0.5 0.3,0.8 0.5,1.2 l -0.4,0.2 0.1,0.3 c 0.3,-0.2 0.7,-0.3 1,-0.5 0.3,-0.1 0.7,-0.3 1,-0.4 l -0.1,-0.3 z m 8.6,-4.6 C 67.4,99.4 67.1,99 66.9,98.6 L 66.2,97.4 C 65.9,97 65.7,96.6 65.6,96.3 L 65.9,96 65.7,95.7 c -0.3,0.2 -0.6,0.4 -0.8,0.5 -0.3,0.2 -0.6,0.3 -0.9,0.5 0.2,0.6 0.6,3 0.7,3.5 -0.5,-0.4 -2.3,-1.8 -2.7,-2.3 -0.3,0.2 -0.6,0.4 -0.8,0.5 -0.3,0.2 -0.6,0.3 -0.9,0.5 l 0.2,0.3 0.4,-0.1 0.3,0.6 c 0.3,0.6 1.4,2.4 1.6,2.9 l -0.3,0.3 0.2,0.3 c 0.2,-0.1 0.5,-0.3 0.7,-0.4 0.2,-0.1 0.5,-0.3 0.7,-0.4 l -0.2,-0.3 -0.4,0.2 C 63.3,102 63,101.6 62.8,101.2 l -0.4,-0.7 c -0.3,-0.6 -0.6,-1 -0.7,-1.2 v 0 c 1.7,1.5 2.7,2.2 3.1,2.6 l 0.6,-0.4 -0.8,-4 v 0 c 0.1,0.2 0.4,0.6 0.7,1.2 l 0.4,0.7 c 0.3,0.4 0.4,0.8 0.6,1.2 l -0.3,0.3 0.1,0.3 c 0.3,-0.2 0.6,-0.4 0.9,-0.6 0.3,-0.2 0.7,-0.4 1,-0.6 l -0.1,-0.3 z m 4.6,-3.5 c -0.3,-0.3 -0.6,-0.6 -0.9,-1 l -0.6,-0.8 c -0.3,-0.3 -0.6,-0.7 -0.8,-1.1 0.1,-0.1 0.2,-0.3 0.4,-0.4 0.5,-0.4 0.9,-0.3 1.2,0 0.3,0.4 0.4,0.9 -0.1,1.2 -0.1,0.1 -0.2,0.2 -0.3,0.2 l 0.2,0.6 c 0.2,-0.1 0.4,-0.3 0.6,-0.4 1,-0.8 1,-1.8 0.5,-2.5 -0.5,-0.6 -1.3,-0.7 -2.1,0 -0.2,0.2 -0.4,0.4 -0.7,0.6 -0.3,0.3 -0.6,0.5 -0.8,0.7 -0.2,0.2 -0.5,0.4 -0.8,0.6 l 0.2,0.2 0.4,-0.2 c 0.3,0.3 0.6,0.6 0.9,1 l 0.8,1.1 c 0.3,0.4 0.6,0.7 0.8,1 l -0.3,0.3 0.2,0.2 c 0.3,-0.2 0.6,-0.5 0.9,-0.7 0.3,-0.2 0.6,-0.4 1,-0.8 l -0.2,-0.2 z m 7.9,-7.2 0.2,0.2 c -0.3,0.2 -0.5,0.5 -0.8,0.8 -0.3,0.3 -0.5,0.6 -0.8,0.8 l -0.2,-0.2 0.2,-0.3 c -0.3,-0.2 -0.9,-0.5 -1.3,-0.7 l -1.1,1.1 0.7,1.2 0.3,-0.2 0.2,0.2 c -0.2,0.2 -0.4,0.4 -0.6,0.6 -0.2,0.2 -0.4,0.4 -0.5,0.6 l -0.2,-0.2 0.2,-0.3 c -0.3,-0.9 -1.3,-2.8 -1.9,-4.1 0.2,-0.3 0.4,-0.6 0.5,-0.9 l 0.4,-0.2 1.8,0.8 c 0.8,0.4 2,0.9 2.4,1 z M 77,89.3 75.3,88.5 v 0 l 0.9,1.6 z m 8.2,-6.8 0.2,0.2 c -0.3,0.4 -0.6,0.8 -0.8,1.2 -0.9,0 -2.1,-0.1 -2.8,-0.1 l -0.2,0.3 0.3,0.3 c 0.4,0.3 0.7,0.5 1.1,0.7 l 0.3,-0.3 0.3,0.2 c -0.2,0.3 -0.5,0.6 -0.7,0.9 -0.2,0.3 -0.4,0.6 -0.7,0.9 l -0.3,-0.2 0.2,-0.4 c -0.3,-0.3 -0.6,-0.5 -1,-0.8 L 80,84.6 c -0.4,-0.3 -0.7,-0.5 -1.1,-0.8 l -0.3,0.3 -0.3,-0.2 c 0.2,-0.2 0.4,-0.4 0.5,-0.7 0.2,-0.3 0.4,-0.5 0.6,-0.8 0.2,-0.3 0.4,-0.5 0.6,-0.8 0.8,-1.1 1.5,-1 2,-0.6 0.5,0.4 0.6,1.1 0.3,1.7 0.5,0 2.2,-0.1 2.5,-0.1 z m -3.7,-0.4 c -0.3,-0.3 -0.7,-0.2 -1,0.3 -0.2,0.2 -0.3,0.4 -0.4,0.5 0.2,0.1 0.4,0.4 0.8,0.6 l 0.3,0.2 c 0.1,-0.1 0.2,-0.2 0.3,-0.3 0.4,-0.5 0.4,-1 0,-1.3 z m 7.1,-4.2 c -0.9,1.5 -2.2,1.9 -3.5,1.1 -1.2,-0.7 -1.6,-2.1 -0.7,-3.6 0.9,-1.5 2.1,-1.9 3.5,-1.1 1.2,0.6 1.6,2.1 0.7,3.6 z m -1.4,-2.5 c -0.9,-0.5 -1.8,-0.4 -2.3,0.3 -0.5,0.8 -0.1,1.6 0.8,2.2 0.9,0.5 1.8,0.4 2.3,-0.3 0.5,-0.8 0.1,-1.7 -0.8,-2.2 z M 51,103.7 c -0.5,0 -1,0.5 -1,1.1 0,0.6 0.5,1.1 1,1.1 0.6,0 1.1,-0.5 1.1,-1.1 0,-0.6 -0.5,-1.1 -1.1,-1.1 z M 12,70.4 c 0.6,0 1.1,-0.5 1.1,-1 0,-0.6 -0.5,-1.1 -1.1,-1.1 -0.6,0 -1,0.5 -1,1.1 0,0.5 0.5,1 1,1 z m 78.2,0 c 0.6,0 1.1,-0.5 1.1,-1 0,-0.6 -0.5,-1.1 -1.1,-1.1 -0.5,0 -1,0.5 -1,1.1 -0.1,0.5 0.4,1 1,1 z" />
	</defs>
	<use
   xlink:href="#SVGID_1_"
   overflow="visible"
   fill="#006cab"
   id="use110"
   style="stroke:#000000;stroke-opacity:1" />
	<clipPath
   id="SVGID_2_">
		<use
   xlink:href="#SVGID_1_"
   overflow="visible"
   id="use112" />
	</clipPath>
</g></g>
<path
   id="rect1762"
   style="fill:#000000;fill-opacity:1;stroke:none;stroke-width:2.52671;stroke-dasharray:none;stroke-opacity:1"
   d="M 26.652292,163.987 44.80308,423.55537 777.9024,372.29207 759.75161,112.7237 Z m 7.105665,6.17686 719.816793,-50.33449 17.22198,246.28584 -719.816789,50.33449 z" /></svg>
