<?xml version="1.0" encoding="UTF-8"?>
<svg width="100" height="700" version="1.1" viewBox="0 0 26.458 185.21" xmlns="http://www.w3.org/2000/svg" xmlns:xlink="http://www.w3.org/1999/xlink">
	<defs>
		<mask id="mask4091" maskUnits="userSpaceOnUse">
			<path d="m9.9658 10.583v166.16h13.229v-166.16zm7.1438 3.6158a3.175 3.175 0 0 1 3.175 3.175 3.175 3.175 0 0 1-3.175 3.175 3.175 3.175 0 0 1-3.175-3.175 3.175 3.175 0 0 1 3.175-3.175z" style="fill:#d1d3d4"/>
		</mask>
		<mask id="mask4095" maskUnits="userSpaceOnUse">
			<path d="m9.9658 10.583v166.16h13.229v-166.16zm7.1438 3.6158a3.175 3.175 0 0 1 3.175 3.175 3.175 3.175 0 0 1-3.175 3.175 3.175 3.175 0 0 1-3.175-3.175 3.175 3.175 0 0 1 3.175-3.175z" style="fill:#d1d3d4"/>
		</mask>
		<linearGradient id="linearGradient4128" x1="9.9658" x2="23.195" y1="93.662" y2="93.662" gradientUnits="userSpaceOnUse">
			<stop style="stop-color:#e6e7e8" offset="0"/>
			<stop style="stop-color:#fff;stop-opacity:.5" offset=".15"/>
			<stop style="stop-color:#d1d3d4;stop-opacity:.25" offset=".75"/>
			<stop style="stop-color:#e6e7d4;stop-opacity:.12157" offset=".88"/>
			<stop style="stop-color:#fff;stop-opacity:0" offset="1"/>
		</linearGradient>
		<linearGradient id="linearGradient4165" x1="5.2917" x2="9.9658" y1="93.662" y2="93.662" gradientUnits="userSpaceOnUse">
			<stop style="stop-color:#e6e7d4" offset="0"/>
			<stop style="stop-color:#fff;stop-opacity:.49804" offset=".5"/>
			<stop style="stop-color:#d1d3d4;stop-opacity:.25" offset=".75"/>
			<stop style="stop-color:#e6e7e8;stop-opacity:.12157" offset=".88"/>
			<stop style="stop-color:#fff;stop-opacity:0" offset="1"/>
		</linearGradient>
		<linearGradient id="linearGradient5311" x1="5.2917" x2="23.087" y1="160.96" y2="160.96" gradientUnits="userSpaceOnUse">
			<stop style="stop-color:#fff;stop-opacity:.3" offset="0"/>
			<stop style="stop-color:#fff;stop-opacity:0" offset="1"/>
		</linearGradient>
		<filter id="filter10363" x="-.10441" y="-.01125" width="1.2088" height="1.0225" style="color-interpolation-filters:sRGB">
			<feGaussianBlur stdDeviation="0.77888167"/>
		</filter>
	</defs>
	<path d="m5.2917 10.583v166.16h4.6741v-166.16zm4.6741 0v166.16h13.229v-166.16zm7.1438 3.6158a3.175 3.175 0 0 1 3.175 3.175 3.175 3.175 0 0 1-3.175 3.175 3.175 3.175 0 0 1-3.175-3.175 3.175 3.175 0 0 1 3.175-3.175z" style="fill-opacity:.29665;fill:#3264ff;filter:url(#filter10363)"/>
	<path d="m9.9658 10.583v166.16h13.229v-166.16h-13.229zm7.1438 3.6158a3.175 3.175 0 0 1 3.175 3.175 3.175 3.175 0 0 1-3.175 3.175 3.175 3.175 0 0 1-3.175-3.175 3.175 3.175 0 0 1 3.175-3.175z" style="fill:url(#linearGradient4128)"/>
	<path d="m5.2917 10.583v166.16h4.6741v-166.16z" style="fill:url(#linearGradient4165)"/>
	<circle cx="17.11" cy="17.374" r="3.0427" style="fill:none;stroke-linecap:round;stroke-linejoin:round;stroke-opacity:.63158;stroke-width:.35278;stroke:#fff"/>
	<path d="m22.429 9.1847v1.7308 0.53234 1.7019 1.1668 1.2736 1.4068 2.0148 1.992c-0.01962 0.52516 0.02315 1.0471 0.06619 1.5698 0.06186 0.70638 0.05227 1.4158 0.04141 2.124-0.02089 0.92747-0.02596 1.8552-0.02561 2.7828 0.0031 0.64675 0.0084 1.2935 0.0097 1.9402 4.76e-4 0.88224-0.0014 1.7645-0.0024 2.6467-8.2e-4 0.93854-2.23e-4 1.8771 1.14e-4 2.8156 3.7e-4 0.87506 3.7e-4 1.7501 2.59e-4 2.6252-1.81e-4 1.1391-1.79e-4 2.2782-1.73e-4 3.4174 2.3e-5 1.7443 5.9e-5 3.4886 6.9e-5 5.2329-0.0193 0.99882 0.0067 1.9952 0.0656 2.9921 0.04185 0.8428 0.12019 1.6831 0.14654 2.5267 0.0059 0.59311-0.02636 1.1856-0.03723 1.7785 0.03586 1.3876 0.09211 2.7744 0.11617 4.1623 0.02532 0.82897-0.02435 1.6575-0.0076 2.4862 0.04812 1.3875 0.08726 2.7752 0.09897 4.1635-0.03512 0.50917 0.04391 1.0126 0.07652 1.5185 0.01847 1.026 6.62e-4 2.0525-0.0085 3.0787-5e-3 0.59578 0.0032 1.1903-0.04388 1.7844-0.03822 0.4244-0.0575 0.85005-0.07092 1.2758-0.0019 0.07069 0.99778 0.09712 0.99965 0.02643v0c0.01298-0.41273 0.03199-0.82529 0.06911-1.2367 0.04756-0.6135 0.04202-1.2273 0.046-1.8425 0.0093-1.0468 0.02827-2.094 7e-3 -3.1407-0.03213-0.49015-0.10965-0.9776-0.07506-1.471-0.01177-1.3919-0.05063-2.7831-0.09911-4.1742-0.01845-0.8275 0.0355-1.6551 0.0076-2.483-0.02389-1.378-0.07835-2.7548-0.11619-4.1324 0.01107-0.6068 0.04473-1.2132 0.037-1.8202-0.02675-0.85139-0.10431-1.6995-0.14742-2.55-0.05809-0.98034-0.08381-1.9601-0.06437-2.9424-1.1e-5 -1.7443-4.7e-5 -3.4886-7e-5 -5.2329-5e-6 -1.1391-7e-6 -2.2782 1.74e-4 -3.4173 1.07e-4 -0.87519 1.05e-4 -1.7504-2.6e-4 -2.6256-3.44e-4 -0.93812-9.26e-4 -1.8762-1.14e-4 -2.8144 9.79e-4 -0.88309 0.0029-1.7662 0.0024-2.6493-0.0013-0.64632-0.0066-1.2926-0.0097-1.9389-3.7e-4 -0.92328 0.0047-1.8466 0.02553-2.7697 0.0112-0.73541 0.0202-1.4721-0.04371-2.2057-0.04116-0.49991-0.08411-0.99856-0.06381-1.5009v-1.992-2.0148-1.4068-1.2736-1.1668-1.7019-0.53234-1.7308c0-0.070711-1-0.070711-1 0z" mask="url(#mask4095)" style="fill:none;stroke-linecap:round;stroke-linejoin:round;stroke-opacity:.1;stroke-width:2.6458;stroke:#fff"/>
	<path d="m23.508 177.83c-0.17146-2.386-0.26582-4.7773-0.28435-7.1693-0.05796-1.3359-0.18164-2.6676-0.22882-4.0041 0.0055-0.795 0.04459-1.5894 0.05825-2.3845 0.01794-2.0845 7e-3 -4.1692-0.0038-6.2537-0.0032-0.64203-0.01018-1.284-0.0057-1.9261 0.0061-1.0978 0.0041-2.1957 4e-3 -3.2936-0.0085-1.4308-0.03577-2.8565 0.10755-4.281 0.16005-1.2724 0.22934-2.5502 0.21279-3.8317-0.10445-1.6114 0.03798-3.2179 0.15707-4.8236 0.12031-1.7633 0.10039-3.5313 0.06152-5.2969-6e-3 -1.3999-0.11766-2.8051-0.0077-4.2026 0.1651-1.5499 0.28745-3.1031 0.30908-4.6619-0.04665-1.1752-0.08843-2.3483-0.10001-3.5249-0.01388-2.7672 0.0027-5.5344 0.01845-8.3016 0.01137-1.4347 0.0057-2.8694 0.0026-4.304-0.0033-1.3942-0.0053-2.7885-0.0041-4.1828-0.07077-0.6445-0.27541-1.2478-0.32075-1.8963-0.01358-1.4327 0.04386-2.8653 0.07562-4.2975 0.02838-1.1796 0.0079-2.3594-0.0014-3.5391-0.01108-1.6619-0.01395-3.3238-0.0094-4.9857 0.03871-1.1418-0.01036-2.2751-0.10625-3.4124-0.08801-1.7265-0.33057-3.4388-0.4609-5.1614-0.08482-0.98876 0.0083-1.9773 0.05651-2.9648 0.0553-1.216 0.07884-2.4272-0.09296-3.6337-0.20002-0.9711-0.24122-1.9493-0.22764-2.9363 0.07886-2.1148 0.13726-4.2431 0.39262-6.3462-0.31256 0.19341-0.75569 0.26088-0.93768 0.58023-0.15791 0.27709 0.04489 0.63629 0.06297 0.95471 0.02184 0.38464 0.04015 0.76948 0.05675 1.1544 0.04245 0.9838 0.06482 1.967 0.07395 2.9516-0.04846 0.75896-0.02474 1.4832 0.59716 1.9915 0.32359 1.0219 0.21572 2.1779 0.2038 3.2372-0.06468 2.1493-0.12355 4.2984-0.14112 6.4487 0.01945 0.64557 0.06665 1.2932 0.20492 1.9255 0.08145 0.37245 0.13795 0.49491 0.15708 0.89533 0.0226 2.3212-0.03926 4.6426-0.08072 6.9633-0.03505 1.4743-0.0096 2.9491-0.0011 4.4236-0.18856 5.2038-0.2682 10.41-0.3103 15.616-0.03407 5.0974 0.01694 10.195 0.06859 15.292 0.12863 1.4221-0.21436 3.0353 0.27537 4.4138 0.09397 1.4155 0.02273 2.8427-0.0014 4.2609-0.03833 2.3623-0.05288 4.725-0.04112 7.0876 0.01981 4.1322 0.02109 8.2645 0.02159 12.397 0.03947 3.3088-0.1023 6.6161-0.30219 9.918-0.02501 1.1965-0.08352 2.3897-0.14971 3.5853-0.06451 1.3194-0.14132 2.6404-0.09985 3.9617 0.10017 1.2442-0.02044 2.4833-0.12784 3.7223-0.08855 1.1601-0.04919 0.58572-0.11863 1.7231-0.0036 0.0706 0.99506 0.12184 0.99869 0.0512v0c0.06854-1.1218 0.02964-0.55447 0.11731-1.7018 0.11001-1.2718 0.23091-2.5444 0.13012-3.8214-0.04172-1.2969 0.03713-2.5935 0.09912-3.8886 0.06612-1.1941 0.12374-2.3861 0.1495-3.581 0.20073-3.3188 0.34283-6.643 0.30348-9.9688-5.03e-4 -4.1336-0.0018-8.2672-0.02161-12.401-0.01176-2.3565 0.0028-4.713 0.04103-7.0692 0.02592-1.5257 0.14284-3.0792-0.05086-4.5944-0.13051-0.22898-0.14561-0.65635-0.16394-0.88636-0.08532-1.0707-0.02722-2.1442-0.05914-3.2166-0.05159-5.0919-0.1026-10.184-0.06857-15.276 0.04212-5.2108 0.1228-10.42 0.31031-15.628-0.0084-1.4679-0.03385-2.9361 1e-3 -4.4038 0.04188-2.3444 0.1055-4.6895 0.07926-7.0343-0.01553-0.19454-0.02114-0.39012-0.04659-0.58361-0.0187-0.14214-0.08923-0.2729-0.1213-0.41263-0.13254-0.57751-0.1718-1.1713-0.19256-1.7617 0.01753-2.1494 0.07687-4.2977 0.1411-6.4462 0.01027-0.93965 0.12265-2.7765-0.27865-3.6291-0.05088-0.10809-0.12999-0.20049-0.19498-0.30073-0.03935-0.03078-0.2009-0.09931-0.23002-0.14352-0.21519-0.32683-0.04678-0.82454-0.0973-1.1724-0.01294-1.3855-0.05353-2.7699-0.1322-4.1535-0.01862-0.32747 0.1247-0.71417-0.06484-0.98185-0.23342-0.32963-0.70258-0.39868-1.0539-0.59802-0.25374 2.1333-0.32132 4.2902-0.3976 6.4351-0.01359 1.0306 0.02769 2.0535 0.2348 3.0676 0.16819 1.1526 0.13676 2.3106 0.08658 3.4728-0.04991 1.0223-0.14384 2.0456-0.05534 3.0691 0.13045 1.7252 0.3729 3.4398 0.46139 5.1688 0.09406 1.113 0.1427 2.2218 0.10375 3.3394-0.0045 1.6649-0.0017 3.3297 0.0094 4.9946 0.0092 1.1713 0.02968 2.3427 0.0015 3.5139-0.03235 1.4584-0.09227 2.9172-0.074 4.376 0.04577 0.62912 0.2042 1.2196 0.31895 1.8357-0.0012 1.3951 7.94e-4 2.7902 0.0041 4.1853 0.0031 1.4325 0.0088 2.865-0.0026 4.2974-0.01573 2.7715-0.03237 5.5431-0.01843 8.3146 0.01157 1.17 0.05116 2.3366 0.10004 3.5051-0.02094 1.5414-0.14526 3.077-0.30711 4.6097-0.10513 1.4256-0.0072 2.857 0.0059 4.2848 0.03835 1.7387 0.05873 3.4798-0.05976 5.2163-0.12084 1.63-0.26341 3.2611-0.15894 4.8968 0.01679 1.2499-0.05333 2.496-0.20935 3.737-0.14434 1.4526-0.1216 2.906-0.11105 4.3647 1.37e-4 1.0959 0.0021 2.1918-4e-3 3.2876-0.0045 0.64546 0.0024 1.2909 0.0057 1.9363 0.01078 2.0783 0.02169 4.1567 0.0039 6.2349-0.0139 0.80986-0.05513 1.6189-0.05792 2.4286 0.04696 1.3288 0.16747 2.6529 0.2284 3.981 0.01887 2.4152 0.11387 4.8296 0.28722 7.2388 0.0054 0.0705 1.0025-6e-3 0.9971-0.0761z" mask="url(#mask4091)" style="fill:none;stroke-linecap:round;stroke-linejoin:round;stroke-opacity:.1;stroke-width:2.6458;stroke:#fff"/>
	<path transform="matrix(1 -.0024916 0 1 0 0)" d="m5.2917 161.01 17.795-15.875v31.642h-17.795z" style="fill:url(#linearGradient5311)"/>
	<path d="m9.966 10.583v166.16" style="fill:none;stroke-width:.35278;stroke:#fff"/>
	<rect x="5.1136" y="10.582" width="17.731" height="166.16" style="fill:none;stroke-linecap:round;stroke-linejoin:round;stroke-width:.70203;stroke:#6d6e71"/>
	<rect x="5.6576" y="11.099" width="16.704" height="165.26" style="fill:none;stroke-linecap:round;stroke-linejoin:round;stroke-width:.35348;stroke:#fff"/>
	<circle cx="17.11" cy="17.374" r="2.6458" style="fill:none;stroke-linecap:round;stroke-linejoin:round;stroke-width:.35278;stroke:#6d6e71"/>
	<g id="g9604" transform="translate(-.018222 -1.2013)">
		<path d="m6.7651 175.23h2.3812" style="fill:none;mix-blend-mode:multiply;opacity:.48;stroke-linecap:round;stroke-width:.35278;stroke:#414042"/>
		<path d="m6.7469 175.15h2.3812" style="fill:none;stroke-linecap:round;stroke-width:.35278;stroke:#414042"/>
	</g>
	<use xlink:href="#g9604"/>
	<use transform="translate(0 -4.866)" xlink:href="#g9604"/>
	<use transform="translate(0 -9.732)" xlink:href="#g9604"/>
	<use transform="translate(0 -14.598)" xlink:href="#g9604"/>
	<use transform="translate(0 -19.464)" xlink:href="#g9604"/>
	<use transform="translate(0 -24.33)" xlink:href="#g9604"/>
	<use transform="translate(0 -29.196)" xlink:href="#g9604"/>
	<use transform="translate(0 -34.062)" xlink:href="#g9604"/>
	<use transform="translate(0 -38.928)" xlink:href="#g9604"/>
	<use transform="translate(0 -43.794)" xlink:href="#g9604"/>
	<use transform="translate(0 -48.66)" xlink:href="#g9604"/>
	<use transform="translate(0 -53.526)" xlink:href="#g9604"/>
	<use transform="translate(0 -58.392)" xlink:href="#g9604"/>
	<use transform="translate(0 -63.258)" xlink:href="#g9604"/>
	<use transform="translate(0 -68.124)" xlink:href="#g9604"/>
	<use transform="translate(0 -72.99)" xlink:href="#g9604"/>
	<use transform="translate(0 -77.856)" xlink:href="#g9604"/>
	<use transform="translate(0 -82.722)" xlink:href="#g9604"/>
	<use transform="translate(0 -87.588)" xlink:href="#g9604"/>
	<use transform="translate(0 -97.32)" xlink:href="#g9604"/>
	<use transform="translate(0 -92.454)" xlink:href="#g9604"/>
	<use transform="translate(0 -102.19)" xlink:href="#g9604"/>
	<use transform="translate(0 -107.05)" xlink:href="#g9604"/>
	<use transform="translate(0 -111.92)" xlink:href="#g9604"/>
	<use transform="translate(0 -116.78)" xlink:href="#g9604"/>
	<use transform="translate(0 -121.65)" xlink:href="#g9604"/>
	<use transform="translate(0 -126.52)" xlink:href="#g9604"/>
	<use transform="translate(0 -131.38)" xlink:href="#g9604"/>
	<use transform="translate(0 -136.25)" xlink:href="#g9604"/>
	<use transform="translate(0 -141.11)" xlink:href="#g9604"/>
	<use transform="translate(0 -145.98)" xlink:href="#g9604"/>
	<use transform="translate(0 -150.85)" xlink:href="#g9604"/>
	<use transform="translate(0 -155.71)" xlink:href="#g9604"/>
	<use transform="translate(0 -160.58)" xlink:href="#g9604"/>
	<g id="g9961" transform="translate(-.032074 -.98261)">
		<path d="m6.7607 170.97h1.3229" style="fill:none;opacity:.55102;stroke-linecap:round;stroke-width:.35278;stroke:#414042"/>
		<path d="m6.7469 170.92h1.3229" style="fill:none;stroke-linecap:round;stroke-width:.35278;stroke:#414042"/>
	</g>
	<g id="g10056" transform="translate(-.018222 -1.2013)">
		<use transform="translate(.018222 1.2013)" xlink:href="#g9961"/>
		<use transform="translate(.018222 2.2614)" xlink:href="#g9961"/>
		<use transform="translate(.018222 3.3216)" xlink:href="#g9961"/>
		<use transform="translate(.018222 4.3817)" xlink:href="#g9961"/>
	</g>
	<use xlink:href="#g10056"/>
	<use transform="translate(0 -4.8677)" xlink:href="#g10056"/>
	<use transform="translate(0 -9.7353)" xlink:href="#g10056"/>
	<use transform="translate(0 -14.603)" xlink:href="#g10056"/>
	<use transform="translate(0 -19.471)" xlink:href="#g10056"/>
	<use transform="translate(0 -24.338)" xlink:href="#g10056"/>
	<use transform="translate(0 -29.206)" xlink:href="#g10056"/>
	<use transform="translate(0 -34.074)" xlink:href="#g10056"/>
	<use transform="translate(0 -38.941)" xlink:href="#g10056"/>
	<use transform="translate(0 -43.809)" xlink:href="#g10056"/>
	<use transform="translate(0 -48.677)" xlink:href="#g10056"/>
	<use transform="translate(0 -53.544)" xlink:href="#g10056"/>
	<use transform="translate(0 -58.412)" xlink:href="#g10056"/>
	<use transform="translate(0 -63.28)" xlink:href="#g10056"/>
	<use transform="translate(0 -68.147)" xlink:href="#g10056"/>
	<use transform="translate(0 -73.015)" xlink:href="#g10056"/>
	<use transform="translate(0 -77.882)" xlink:href="#g10056"/>
	<use transform="translate(0 -82.75)" xlink:href="#g10056"/>
	<use transform="translate(0 -87.618)" xlink:href="#g10056"/>
	<use transform="translate(0 -92.485)" xlink:href="#g10056"/>
	<use transform="translate(0 -97.353)" xlink:href="#g10056"/>
	<use transform="translate(0 -102.22)" xlink:href="#g10056"/>
	<use transform="translate(0 -107.09)" xlink:href="#g10056"/>
	<use transform="translate(0 -111.96)" xlink:href="#g10056"/>
	<use transform="translate(0 -116.82)" xlink:href="#g10056"/>
	<use transform="translate(0 -121.69)" xlink:href="#g10056"/>
	<use transform="translate(0 -126.56)" xlink:href="#g10056"/>
	<use transform="translate(0 -131.43)" xlink:href="#g10056"/>
	<use transform="translate(0 -136.29)" xlink:href="#g10056"/>
	<use transform="translate(0 -141.16)" xlink:href="#g10056"/>
	<use transform="translate(0 -146.03)" xlink:href="#g10056"/>
	<use transform="translate(0 -150.9)" xlink:href="#g10056"/>
	<use transform="translate(0 -155.76)" xlink:href="#g10056"/>
</svg>
