<?xml version="1.0" encoding="UTF-8" standalone="no"?>
<!-- Created with Inkscape (http://www.inkscape.org/) -->

<svg
   width="642"
   height="82"
   viewBox="0 0 169.8625 21.695833"
   version="1.1"
   id="svg5"
   inkscape:version="1.2.1 (9c6d41e410, 2022-07-14)"
   sodipodi:docname="rulerSidebar90.svg"
   xmlns:inkscape="http://www.inkscape.org/namespaces/inkscape"
   xmlns:sodipodi="http://sodipodi.sourceforge.net/DTD/sodipodi-0.dtd"
   xmlns:xlink="http://www.w3.org/1999/xlink"
   xmlns="http://www.w3.org/2000/svg"
   xmlns:svg="http://www.w3.org/2000/svg">
  <sodipodi:namedview
     id="namedview7"
     pagecolor="#505050"
     bordercolor="#eeeeee"
     borderopacity="1"
     inkscape:showpageshadow="0"
     inkscape:pageopacity="0"
     inkscape:pagecheckerboard="0"
     inkscape:deskcolor="#505050"
     inkscape:document-units="px"
     showgrid="true"
     inkscape:zoom="1.4771225"
     inkscape:cx="273.84323"
     inkscape:cy="81.23903"
     inkscape:window-width="1920"
     inkscape:window-height="1009"
     inkscape:window-x="1912"
     inkscape:window-y="-8"
     inkscape:window-maximized="1"
     inkscape:current-layer="layer1">
    <inkscape:grid
       type="xygrid"
       id="grid132"
       originx="-8.1279132"
       originy="0.00933844" />
  </sodipodi:namedview>
  <defs
     id="defs2">
    <inkscape:path-effect
       effect="fillet_chamfer"
       id="path-effect17366"
       is_visible="true"
       lpeversion="1"
       nodesatellites_param="F,0,0,1,0,1,0,1 @ F,0,0,1,0,1,0,1 @ F,0,0,1,0,1,0,1 @ F,0,0,1,0,1,0,1 | F,0,0,1,0,1,0,1 @ F,0,0,1,0,1,0,1 @ F,0,0,1,0,1,0,1 @ F,0,0,1,0,1,0,1"
       unit="px"
       method="auto"
       mode="F"
       radius="1"
       chamfer_steps="1"
       flexible="false"
       use_knot_distance="true"
       apply_no_radius="true"
       apply_with_radius="true"
       only_selected="false"
       hide_knots="false" />
    <inkscape:path-effect
       effect="fillet_chamfer"
       id="path-effect17364"
       is_visible="true"
       lpeversion="1"
       nodesatellites_param="F,0,0,1,0,1,0,1 @ F,0,0,1,0,1,0,1 @ F,0,0,1,0,1,0,1 @ F,0,0,1,0,1,0,1"
       unit="px"
       method="auto"
       mode="F"
       radius="1"
       chamfer_steps="1"
       flexible="false"
       use_knot_distance="true"
       apply_no_radius="true"
       apply_with_radius="true"
       only_selected="false"
       hide_knots="false" />
    <inkscape:path-effect
       effect="fillet_chamfer"
       id="path-effect17362"
       is_visible="true"
       lpeversion="1"
       nodesatellites_param="F,0,0,1,0,1,0,1 @ F,0,0,1,0,1,0,1 @ F,0,0,1,0,1,0,1 @ F,0,0,1,0,1,0,1"
       unit="px"
       method="auto"
       mode="F"
       radius="1"
       chamfer_steps="1"
       flexible="false"
       use_knot_distance="true"
       apply_no_radius="true"
       apply_with_radius="true"
       only_selected="false"
       hide_knots="false" />
    <inkscape:path-effect
       effect="fillet_chamfer"
       id="path-effect17360"
       is_visible="true"
       lpeversion="1"
       nodesatellites_param="F,0,0,1,0,1,0,1 @ F,0,0,1,0,1,0,1 @ F,0,0,1,0,1,0,1 @ F,0,0,1,0,1,0,1"
       unit="px"
       method="auto"
       mode="F"
       radius="1"
       chamfer_steps="1"
       flexible="false"
       use_knot_distance="true"
       apply_no_radius="true"
       apply_with_radius="true"
       only_selected="false"
       hide_knots="false" />
    <linearGradient
       inkscape:collect="always"
       id="linearGradient5309">
      <stop
         style="stop-color:#ffffff;stop-opacity:0.30000001;"
         offset="0"
         id="stop5305" />
      <stop
         style="stop-color:#ffffff;stop-opacity:0;"
         offset="1"
         id="stop5307" />
    </linearGradient>
    <linearGradient
       inkscape:collect="always"
       id="linearGradient4163">
      <stop
         style="stop-color:#e6e7d4;stop-opacity:1;"
         offset="0"
         id="stop4159" />
      <stop
         style="stop-color:#ffffff;stop-opacity:0.49803922;"
         offset="0.5"
         id="stop4167" />
      <stop
         style="stop-color:#d1d3d4;stop-opacity:0.25;"
         offset="0.75"
         id="stop4169" />
      <stop
         style="stop-color:#e6e7e8;stop-opacity:0.12156864;"
         offset="0.88"
         id="stop4171" />
      <stop
         style="stop-color:#ffffff;stop-opacity:0;"
         offset="1"
         id="stop4161" />
    </linearGradient>
    <linearGradient
       inkscape:collect="always"
       id="linearGradient4126">
      <stop
         style="stop-color:#e6e7e8;stop-opacity:1;"
         offset="0"
         id="stop4122" />
      <stop
         style="stop-color:#ffffff;stop-opacity:0.5;"
         offset="0.15000001"
         id="stop4130" />
      <stop
         style="stop-color:#d1d3d4;stop-opacity:0.25;"
         offset="0.75"
         id="stop4132" />
      <stop
         style="stop-color:#e6e7d4;stop-opacity:0.12156864;"
         offset="0.88"
         id="stop4134" />
      <stop
         style="stop-color:#ffffff;stop-opacity:0;"
         offset="1"
         id="stop4124" />
    </linearGradient>
    <mask
       maskUnits="userSpaceOnUse"
       id="mask4091">
      <path
         id="path4093"
         style="display:inline;fill:#d1d3d4;fill-opacity:1;stroke:none;stroke-width:0.575088;stroke-linecap:round;stroke-linejoin:round"
         d="M 9.9657999,10.583333 V 176.74166 H 23.194966 V 10.583333 Z m 7.1437501,3.6158 a 3.175,3.175 0 0 1 3.175,3.175 3.175,3.175 0 0 1 -3.175,3.175 3.175,3.175 0 0 1 -3.175,-3.175 3.175,3.175 0 0 1 3.175,-3.175 z" />
    </mask>
    <mask
       maskUnits="userSpaceOnUse"
       id="mask4095">
      <path
         id="path4097"
         style="display:inline;fill:#d1d3d4;fill-opacity:1;stroke:none;stroke-width:0.575088;stroke-linecap:round;stroke-linejoin:round"
         d="M 9.9657999,10.583333 V 176.74166 H 23.194966 V 10.583333 Z m 7.1437501,3.6158 a 3.175,3.175 0 0 1 3.175,3.175 3.175,3.175 0 0 1 -3.175,3.175 3.175,3.175 0 0 1 -3.175,-3.175 3.175,3.175 0 0 1 3.175,-3.175 z" />
    </mask>
    <linearGradient
       inkscape:collect="always"
       xlink:href="#linearGradient4126"
       id="linearGradient4128"
       x1="9.9657993"
       y1="93.662498"
       x2="23.194965"
       y2="93.662498"
       gradientUnits="userSpaceOnUse" />
    <linearGradient
       inkscape:collect="always"
       xlink:href="#linearGradient4163"
       id="linearGradient4165"
       x1="5.2916665"
       y1="93.662498"
       x2="9.9657993"
       y2="93.662498"
       gradientUnits="userSpaceOnUse" />
    <linearGradient
       inkscape:collect="always"
       xlink:href="#linearGradient5309"
       id="linearGradient5311"
       x1="5.2916832"
       y1="160.95618"
       x2="23.086727"
       y2="160.95618"
       gradientUnits="userSpaceOnUse"
       gradientTransform="matrix(1.0106056,-0.00248888,0,0.99890087,-0.05613801,0.15945867)" />
    <filter
       inkscape:collect="always"
       style="color-interpolation-filters:sRGB"
       id="filter10363"
       x="-0.10441182"
       y="-0.01125021"
       width="1.2088236"
       height="1.0225004">
      <feGaussianBlur
         inkscape:collect="always"
         stdDeviation="0.77888167"
         id="feGaussianBlur10365" />
    </filter>
    <filter
       inkscape:collect="always"
       style="color-interpolation-filters:sRGB"
       id="filter16626"
       x="-0.065969229"
       y="-0.065969229"
       width="1.1319385"
       height="1.1319385">
      <feGaussianBlur
         inkscape:collect="always"
         stdDeviation="0.093775522"
         id="feGaussianBlur16628" />
    </filter>
    <filter
       inkscape:collect="always"
       style="color-interpolation-filters:sRGB"
       id="filter16630"
       x="-0.064912615"
       y="-0.064912615"
       width="1.1298252"
       height="1.1298252">
      <feGaussianBlur
         inkscape:collect="always"
         stdDeviation="0.069627879"
         id="feGaussianBlur16632" />
    </filter>
  </defs>
  <g
     inkscape:label="Layer 1"
     inkscape:groupmode="layer"
     id="layer1"
     inkscape:export-filename="rulerSidebar.png"
     inkscape:export-xdpi="96"
     inkscape:export-ydpi="96"
     transform="rotate(90,91.016661,87.594311)">
    <path
       id="path10323"
       style="display:none;fill:#3264ff;fill-opacity:0.296651;stroke:none;stroke-width:0.529167;stroke-linecap:round;stroke-linejoin:round;filter:url(#filter10363)"
       d="M 5.2916666,10.583333 V 176.74166 H 9.9657998 V 10.583333 Z m 4.6741332,0 V 176.74166 H 23.194966 V 10.583333 Z m 7.1437502,3.6158 a 3.175,3.175 0 0 1 3.175,3.175 3.175,3.175 0 0 1 -3.175,3.175 3.175,3.175 0 0 1 -3.175,-3.175 3.175,3.175 0 0 1 3.175,-3.175 z" />
    <path
       id="rect1059"
       style="display:inline;fill:url(#linearGradient4128);fill-opacity:1;stroke:none;stroke-width:0.575087;stroke-linecap:round;stroke-linejoin:round"
       d="M 9.9657998,11.583333 V 175.74166 a 1,1 45 0 0 1.0000002,1 h 11.229166 a 1,1 135 0 0 1,-1 V 11.583333 a 1,1 45 0 0 -1,-1 H 10.9658 a 1,1 135 0 0 -1.0000002,1 z m 8.1274292,2.771123 c 0.962255,0.313251 1.722678,1.073649 2.035962,2.035889 0.170291,0.523041 0.170288,1.444479 3.6e-5,1.967467 -0.313251,0.962255 -1.073649,1.722678 -2.035889,2.035962 -0.523041,0.170291 -1.444479,0.170288 -1.967467,3.6e-5 -0.962255,-0.313251 -1.722678,-1.073649 -2.035962,-2.035889 -0.170291,-0.523041 -0.170288,-1.444479 -3.6e-5,-1.967467 0.313251,-0.962255 1.073649,-1.722678 2.035889,-2.035962 0.523041,-0.170291 1.444479,-0.170288 1.967467,-3.6e-5 z"
       inkscape:path-effect="#path-effect17366"
       inkscape:original-d="M 9.9657998,10.583333 V 176.74166 H 23.194966 V 10.583333 Z m 7.1437502,3.6158 a 3.175,3.175 0 0 1 3.175,3.175 3.175,3.175 0 0 1 -3.175,3.175 3.175,3.175 0 0 1 -3.175,-3.175 3.175,3.175 0 0 1 3.175,-3.175 z" />
    <path
       id="path1170"
       style="display:inline;fill:url(#linearGradient4165);fill-opacity:1;stroke:none;stroke-width:0.529167;stroke-linecap:round;stroke-linejoin:round"
       d="M 5.2916666,11.583333 V 175.74166 a 1,1 45 0 0 1,1 l 2.6741332,0 a 1,1 135 0 0 1,-1 V 11.583333 a 1,1 45 0 0 -1,-1 H 6.2916666 a 1,1 135 0 0 -1,1 z"
       inkscape:path-effect="#path-effect17364"
       inkscape:original-d="M 5.2916666,10.583333 V 176.74166 H 9.9657998 V 10.583333 Z" />
    <circle
       style="display:inline;fill:none;fill-opacity:1;stroke:#ffffff;stroke-width:0.352778;stroke-linecap:round;stroke-linejoin:round;stroke-dasharray:none;stroke-opacity:0.507177;filter:url(#filter16626)"
       id="circle1227"
       cx="17.109722"
       cy="17.374306"
       r="3.0427084" />
    <path
       style="fill:none;fill-opacity:1;stroke:#ffffff;stroke-width:2.64583;stroke-linecap:round;stroke-linejoin:round;stroke-dasharray:none;stroke-opacity:0.1"
       id="path1287"
       d="m 22.42883,9.184747 c 0,0.5769473 0,1.153895 0,1.730842 0,0.177446 0,0.354892 0,0.532338 0,0.567284 0,1.134568 0,1.701852 0,0.388924 0,0.777847 0,1.16677 0,0.42453 0,0.84906 0,1.273589 0,0.46895 0,0.9379 0,1.40685 0,0.671609 0,1.343218 0,2.014826 0,0.663998 0,1.327996 0,1.991994 -0.01962,0.525156 0.02315,1.047059 0.06619,1.569807 0.06186,0.706383 0.05227,1.41582 0.04141,2.123951 -0.02089,0.927471 -0.02596,1.855152 -0.02561,2.782823 0.0031,0.646748 0.0084,1.293474 0.0097,1.940232 4.76e-4,0.882235 -0.0014,1.764472 -0.0024,2.646707 -8.2e-4,0.938535 -2.23e-4,1.87707 1.14e-4,2.815605 3.7e-4,0.875057 3.7e-4,1.750111 2.59e-4,2.625165 -1.81e-4,1.139121 -1.79e-4,2.278245 -1.73e-4,3.417366 2.3e-5,1.744292 5.9e-5,3.488581 6.9e-5,5.232873 -0.0193,0.998824 0.0067,1.995202 0.0656,2.992054 0.04185,0.842804 0.120191,1.683089 0.146537,2.526689 0.0059,0.593106 -0.02636,1.185608 -0.03723,1.778534 0.03586,1.387586 0.09211,2.774355 0.116174,4.162314 0.02532,0.828971 -0.02435,1.657541 -0.0076,2.486224 0.04812,1.387493 0.08726,2.775156 0.09897,4.163462 -0.03512,0.509169 0.04391,1.012629 0.07652,1.518486 0.01847,1.026038 6.62e-4,2.052547 -0.0085,3.078654 -0.005,0.595776 0.0032,1.190313 -0.04388,1.784393 -0.03822,0.424405 -0.0575,0.850053 -0.07092,1.275844 -0.0019,0.07069 0.997782,0.09712 0.999651,0.02643 v 0 c 0.01298,-0.412726 0.03199,-0.825288 0.06911,-1.236665 0.04756,-0.6135 0.04202,-1.227333 0.046,-1.842505 0.0093,-1.046777 0.02827,-2.094024 0.007,-3.1407 -0.03213,-0.490146 -0.109654,-0.977598 -0.07506,-1.471035 -0.01177,-1.391875 -0.05063,-2.783123 -0.09911,-4.174181 -0.01845,-0.8275 0.0355,-1.655146 0.0076,-2.482966 -0.02389,-1.377987 -0.07835,-2.754831 -0.116186,-4.132392 0.01107,-0.606804 0.04473,-1.213189 0.037,-1.820199 -0.02675,-0.851392 -0.104312,-1.699482 -0.147424,-2.550019 -0.05809,-0.980343 -0.08381,-1.960113 -0.06437,-2.942426 -1.1e-5,-1.744292 -4.7e-5,-3.488582 -7e-5,-5.232874 -5e-6,-1.139084 -7e-6,-2.278171 1.74e-4,-3.417258 1.07e-4,-0.875188 1.05e-4,-1.750377 -2.6e-4,-2.625569 -3.44e-4,-0.938122 -9.26e-4,-1.876245 -1.14e-4,-2.814367 9.79e-4,-0.883092 0.0029,-1.766186 0.0024,-2.649278 -0.0013,-0.646322 -0.0066,-1.292612 -0.0097,-1.938922 -3.7e-4,-0.923285 0.0047,-1.846578 0.02553,-2.769662 0.0112,-0.735414 0.0202,-1.472137 -0.04371,-2.205738 -0.04116,-0.499906 -0.08411,-0.998564 -0.06381,-1.500856 0,-0.663998 0,-1.327996 0,-1.991994 0,-0.671609 0,-1.343217 0,-2.014826 0,-0.46895 0,-0.9379 0,-1.40685 0,-0.42453 0,-0.849059 0,-1.273589 0,-0.388923 0,-0.777847 0,-1.16677 0,-0.567284 0,-1.134569 0,-1.701853 0,-0.177446 0,-0.354892 0,-0.532338 0,-0.576947 0,-1.1538941 0,-1.7308413 0,-0.070711 -1,-0.070711 -1,0 z"
       mask="url(#mask4095)"
       transform="matrix(0.91208262,0,0,0.99669013,1.8551294,0.24266718)" />
    <path
       style="display:inline;fill:none;fill-opacity:1;stroke:#ffffff;stroke-width:2.64583;stroke-linecap:round;stroke-linejoin:round;stroke-dasharray:none;stroke-opacity:0.1"
       id="path1289"
       d="m 23.508036,177.82724 c -0.171455,-2.38605 -0.265818,-4.77728 -0.284347,-7.1693 -0.05796,-1.33589 -0.181639,-2.66759 -0.228817,-4.00407 0.0055,-0.795 0.04459,-1.58935 0.05825,-2.38454 0.01794,-2.08451 0.007,-4.16918 -0.0038,-6.25371 -0.0032,-0.64203 -0.01018,-1.28405 -0.0057,-1.92609 0.0061,-1.09785 0.0041,-2.19574 0.004,-3.29361 -0.0085,-1.43081 -0.03577,-2.85647 0.107546,-4.28101 0.160051,-1.27237 0.229339,-2.55022 0.212791,-3.8317 -0.104449,-1.61135 0.03798,-3.21786 0.157074,-4.8236 0.120306,-1.7633 0.100392,-3.53131 0.06152,-5.29691 -0.006,-1.39991 -0.117659,-2.80509 -0.0077,-4.20258 0.165098,-1.54991 0.287451,-3.10312 0.309075,-4.66194 -0.04665,-1.17522 -0.08843,-2.34826 -0.100011,-3.52494 -0.01388,-2.76718 0.0027,-5.53441 0.01845,-8.30155 0.01137,-1.43466 0.0057,-2.86936 0.0026,-4.30403 -0.0033,-1.39425 -0.0053,-2.7885 -0.0041,-4.18275 -0.07077,-0.6445 -0.275413,-1.24784 -0.320746,-1.89631 -0.01358,-1.43271 0.04386,-2.86526 0.07562,-4.297537 0.02838,-1.179587 0.0079,-2.35943 -0.0014,-3.539093 -0.01108,-1.661864 -0.01395,-3.323775 -0.0094,-4.985668 0.03871,-1.141781 -0.01036,-2.275147 -0.106247,-3.412358 -0.08801,-1.726475 -0.330574,-3.438753 -0.460897,-5.161447 -0.08482,-0.988756 0.0083,-1.977316 0.05651,-2.96483 0.0553,-1.21602 0.07884,-2.427227 -0.09296,-3.633677 -0.200018,-0.9711 -0.241218,-1.949312 -0.227644,-2.936332 0.07886,-2.114781 0.13726,-4.243102 0.392624,-6.346174 -0.312559,0.193407 -0.755693,0.260881 -0.937677,0.580226 -0.157906,0.277092 0.04489,0.636293 0.06297,0.954709 0.02184,0.384638 0.04015,0.769482 0.05675,1.154382 0.04245,0.983795 0.06482,1.967005 0.07395,2.951562 -0.04846,0.758965 -0.02474,1.483199 0.597161,1.991455 0.323591,1.021858 0.215717,2.177915 0.2038,3.237196 -0.06468,2.149276 -0.123551,4.298407 -0.141117,6.448666 0.01945,0.645567 0.06665,1.293185 0.204923,1.925465 0.08145,0.372454 0.13795,0.494909 0.157075,0.895329 0.0226,2.321155 -0.03926,4.642567 -0.08072,6.96332 -0.03505,1.474338 -0.0096,2.949125 -0.0011,4.423611 -0.188555,5.203815 -0.268201,10.409605 -0.310296,15.616475 -0.03407,5.09737 0.01694,10.19463 0.06859,15.29167 0.128627,1.42212 -0.21436,3.03528 0.275368,4.41375 0.09397,1.41553 0.02273,2.84273 -0.0014,4.2609 -0.03833,2.36234 -0.05288,4.72503 -0.04112,7.08764 0.01981,4.1322 0.02109,8.26446 0.02159,12.39669 0.03947,3.30884 -0.102305,6.6161 -0.302186,9.918 -0.02501,1.19646 -0.08352,2.38971 -0.149707,3.58534 -0.06451,1.3194 -0.141315,2.64039 -0.09985,3.96167 0.100166,1.24419 -0.02044,2.48329 -0.127843,3.72228 -0.08855,1.16009 -0.04919,0.58572 -0.11863,1.72308 -0.0036,0.0706 0.995065,0.12184 0.998687,0.0512 v 0 c 0.06854,-1.12176 0.02964,-0.55447 0.117312,-1.70181 0.11001,-1.27181 0.230914,-2.54435 0.130118,-3.82144 -0.04172,-1.29687 0.03713,-2.59352 0.09912,-3.88856 0.06612,-1.1941 0.123735,-2.38614 0.149498,-3.58104 0.200731,-3.31883 0.342828,-6.64305 0.303475,-9.96884 -5.03e-4,-4.1336 -0.0018,-8.26722 -0.02161,-12.40078 -0.01176,-2.35646 0.0028,-4.713 0.04103,-7.06919 0.02592,-1.52572 0.142841,-3.07922 -0.05086,-4.59442 -0.130512,-0.22898 -0.145609,-0.65635 -0.163936,-0.88636 -0.08532,-1.07071 -0.02722,-2.14422 -0.05914,-3.21664 -0.05159,-5.09194 -0.102604,-10.1841 -0.06857,-15.27637 0.04212,-5.21075 0.122803,-10.42036 0.310307,-15.628083 -0.0084,-1.467879 -0.03385,-2.936058 0.001,-4.403791 0.04188,-2.344388 0.105499,-4.689528 0.07926,-7.034305 -0.01553,-0.194538 -0.02114,-0.39012 -0.04659,-0.58361 -0.0187,-0.14214 -0.08923,-0.272899 -0.121305,-0.412631 -0.132543,-0.577514 -0.171798,-1.171268 -0.192561,-1.761715 0.01753,-2.149441 0.07687,-4.297738 0.141097,-6.446208 0.01027,-0.939654 0.122654,-2.776503 -0.278648,-3.629088 -0.05088,-0.108093 -0.129987,-0.200486 -0.19498,-0.300731 -0.03935,-0.03078 -0.200904,-0.09931 -0.230016,-0.143521 -0.21519,-0.326831 -0.04678,-0.824542 -0.0973,-1.17244 -0.01294,-1.385538 -0.05353,-2.769946 -0.132204,-4.153463 -0.01862,-0.327467 0.124703,-0.714171 -0.06484,-0.981853 -0.233417,-0.329634 -0.702584,-0.398677 -1.053876,-0.598017 -0.253743,2.133323 -0.321316,4.290198 -0.3976,6.435135 -0.01359,1.030597 0.02769,2.053453 0.234796,3.067558 0.168186,1.15265 0.136763,2.310583 0.08658,3.472815 -0.04991,1.022268 -0.143838,2.045632 -0.05534,3.069143 0.130449,1.725179 0.372897,3.439843 0.461387,5.168757 0.09406,1.112994 0.142704,2.221767 0.103749,3.339388 -0.0045,1.664857 -0.0017,3.329731 0.0094,4.994558 0.0092,1.171253 0.02968,2.34269 0.0015,3.513868 -0.03235,1.458404 -0.09227,2.917194 -0.074,4.376044 0.04577,0.62912 0.2042,1.2196 0.318952,1.83568 -0.0012,1.39511 7.94e-4,2.79023 0.0041,4.18534 0.0031,1.43247 0.0088,2.86497 -0.0026,4.29742 -0.01573,2.77149 -0.03237,5.54307 -0.01843,8.31461 0.01157,1.17004 0.05116,2.33663 0.100042,3.50512 -0.02094,1.54145 -0.145261,3.07704 -0.307108,4.60974 -0.105133,1.42561 -0.0072,2.85699 0.0059,4.28482 0.03835,1.73871 0.05873,3.4798 -0.05976,5.21626 -0.120841,1.63003 -0.263406,3.26112 -0.158945,4.8968 0.01679,1.24993 -0.05333,2.49603 -0.209351,3.73703 -0.144342,1.45255 -0.121605,2.90595 -0.111047,4.36472 1.37e-4,1.09587 0.0021,2.19177 -0.004,3.28762 -0.0045,0.64546 0.0024,1.29089 0.0057,1.93634 0.01078,2.07827 0.02169,4.15668 0.0039,6.23494 -0.0139,0.80986 -0.05513,1.61886 -0.05792,2.4286 0.04696,1.32879 0.167468,2.65293 0.228399,3.98096 0.01887,2.41522 0.113874,4.82965 0.287224,7.23884 0.0054,0.0705 1.002481,-0.006 0.997102,-0.0761 z"
       mask="url(#mask4091)"
       transform="matrix(0.93430602,0,0,0.99712804,1.3396585,0.18606927)" />
    <path
       id="rect4981"
       style="display:inline;fill:url(#linearGradient5311);fill-opacity:1;stroke:none;stroke-width:0.10882;stroke-linecap:round;stroke-linejoin:round;stroke-opacity:0.1"
       d="m 5.2916666,160.97961 17.9837714,-15.9018 v 31.60691 l -17.9837712,0.0443 z"
       sodipodi:nodetypes="ccccc" />
    <path
       style="display:inline;fill:none;fill-opacity:0.296651;stroke:#ffffff;stroke-width:0.352425;stroke-linecap:butt;stroke-linejoin:miter;stroke-dasharray:none;stroke-opacity:1"
       d="M 10.046272,10.790971 V 176.62778"
       id="path1166" />
    <path
       style="display:inline;fill:none;fill-opacity:1;stroke:#6d6e71;stroke-width:0.702028;stroke-linecap:round;stroke-linejoin:round;stroke-dasharray:none;stroke-opacity:1"
       id="rect239"
       width="17.893826"
       height="166.27779"
       x="5.1170282"
       y="10.585084"
       inkscape:path-effect="#path-effect17360"
       d="M 6.1170282,10.585084 H 22.010854 a 1,1 45 0 1 1,1 V 175.86287 a 1,1 135 0 1 -1,1 H 6.1170282 a 1,1 45 0 1 -1,-1 V 11.585084 a 1,1 135 0 1 1,-1 z"
       sodipodi:type="rect" />
    <path
       style="display:inline;fill:none;fill-opacity:1;stroke:#ffffff;stroke-width:0.353483;stroke-linecap:round;stroke-linejoin:round;stroke-dasharray:none;stroke-opacity:1"
       id="rect6109"
       width="17.4625"
       height="165.45132"
       x="5.2837715"
       y="10.96881"
       inkscape:path-effect="#path-effect17362"
       d="m 6.2837715,10.96881 15.4624995,0 a 1,1 45 0 1 1,1 l 0,163.45132 a 1,1 135 0 1 -1,1 H 6.2837715 a 1,1 45 0 1 -1,-1 V 11.96881 a 1,1 135 0 1 1,-1 z"
       sodipodi:type="rect" />
    <circle
       style="display:inline;mix-blend-mode:normal;fill:none;fill-opacity:1;stroke:#6d6e71;stroke-width:0.352778;stroke-linecap:round;stroke-linejoin:round;stroke-dasharray:none;stroke-opacity:1;filter:url(#filter16630)"
       id="circle6945"
       cx="17.109722"
       cy="17.374306"
       r="2.6458333" />
    <g
       id="g10319">
      <g
         id="g9604"
         inkscape:tile-cx="7.9466107"
         inkscape:tile-cy="175.19061"
         inkscape:tile-w="2.7522495"
         inkscape:tile-h="0.42566799"
         inkscape:tile-x0="6.5704859"
         inkscape:tile-y0="174.97777"
         transform="translate(-0.01822152,-1.2012765)">
        <path
           style="opacity:0.48;mix-blend-mode:multiply;fill:none;fill-opacity:1;stroke:#414042;stroke-width:0.352778;stroke-linecap:round;stroke-linejoin:miter;stroke-dasharray:none;stroke-opacity:1"
           d="m 6.7650964,175.22705 h 2.38125"
           id="path8826" />
        <path
           style="fill:none;stroke:#414042;stroke-width:0.352778;stroke-linecap:round;stroke-linejoin:miter;stroke-dasharray:none;stroke-opacity:1"
           d="m 6.7468749,175.15416 h 2.38125"
           id="path7192" />
      </g>
      <use
         x="0"
         y="0"
         inkscape:tiled-clone-of="#g9604"
         xlink:href="#g9604"
         id="use9812" />
      <use
         x="0"
         y="0"
         inkscape:tiled-clone-of="#g9604"
         xlink:href="#g9604"
         transform="translate(0,-4.8659986)"
         id="use9814" />
      <use
         x="0"
         y="0"
         inkscape:tiled-clone-of="#g9604"
         xlink:href="#g9604"
         transform="translate(0,-9.7319975)"
         id="use9816" />
      <use
         x="0"
         y="0"
         inkscape:tiled-clone-of="#g9604"
         xlink:href="#g9604"
         transform="translate(0,-14.597996)"
         id="use9818" />
      <use
         x="0"
         y="0"
         inkscape:tiled-clone-of="#g9604"
         xlink:href="#g9604"
         transform="translate(0,-19.463994)"
         id="use9820" />
      <use
         x="0"
         y="0"
         inkscape:tiled-clone-of="#g9604"
         xlink:href="#g9604"
         transform="translate(0,-24.329993)"
         id="use9822" />
      <use
         x="0"
         y="0"
         inkscape:tiled-clone-of="#g9604"
         xlink:href="#g9604"
         transform="translate(0,-29.195992)"
         id="use9824" />
      <use
         x="0"
         y="0"
         inkscape:tiled-clone-of="#g9604"
         xlink:href="#g9604"
         transform="translate(0,-34.06199)"
         id="use9826" />
      <use
         x="0"
         y="0"
         inkscape:tiled-clone-of="#g9604"
         xlink:href="#g9604"
         transform="translate(0,-38.927989)"
         id="use9828" />
      <use
         x="0"
         y="0"
         inkscape:tiled-clone-of="#g9604"
         xlink:href="#g9604"
         transform="translate(0,-43.793987)"
         id="use9830" />
      <use
         x="0"
         y="0"
         inkscape:tiled-clone-of="#g9604"
         xlink:href="#g9604"
         transform="translate(0,-48.659986)"
         id="use9832" />
      <use
         x="0"
         y="0"
         inkscape:tiled-clone-of="#g9604"
         xlink:href="#g9604"
         transform="translate(0,-53.525985)"
         id="use9834" />
      <use
         x="0"
         y="0"
         inkscape:tiled-clone-of="#g9604"
         xlink:href="#g9604"
         transform="translate(0,-58.391983)"
         id="use9836" />
      <use
         x="0"
         y="0"
         inkscape:tiled-clone-of="#g9604"
         xlink:href="#g9604"
         transform="translate(0,-63.257982)"
         id="use9838" />
      <use
         x="0"
         y="0"
         inkscape:tiled-clone-of="#g9604"
         xlink:href="#g9604"
         transform="translate(0,-68.12398)"
         id="use9840" />
      <use
         x="0"
         y="0"
         inkscape:tiled-clone-of="#g9604"
         xlink:href="#g9604"
         transform="translate(0,-72.989979)"
         id="use9842" />
      <use
         x="0"
         y="0"
         inkscape:tiled-clone-of="#g9604"
         xlink:href="#g9604"
         transform="translate(0,-77.855978)"
         id="use9844" />
      <use
         x="0"
         y="0"
         inkscape:tiled-clone-of="#g9604"
         xlink:href="#g9604"
         transform="translate(0,-82.721976)"
         id="use9846" />
      <use
         x="0"
         y="0"
         inkscape:tiled-clone-of="#g9604"
         xlink:href="#g9604"
         transform="translate(0,-87.587975)"
         id="use9848" />
      <use
         x="0"
         y="0"
         inkscape:tiled-clone-of="#g9604"
         xlink:href="#g9604"
         transform="translate(0,-97.319972)"
         id="use9850" />
      <use
         x="0"
         y="0"
         inkscape:tiled-clone-of="#g9604"
         xlink:href="#g9604"
         transform="translate(0,-92.453973)"
         id="use9852" />
      <use
         x="0"
         y="0"
         inkscape:tiled-clone-of="#g9604"
         xlink:href="#g9604"
         transform="translate(0,-102.18597)"
         id="use9854" />
      <use
         x="0"
         y="0"
         inkscape:tiled-clone-of="#g9604"
         xlink:href="#g9604"
         transform="translate(0,-107.05197)"
         id="use9856" />
      <use
         x="0"
         y="0"
         inkscape:tiled-clone-of="#g9604"
         xlink:href="#g9604"
         transform="translate(0,-111.91797)"
         id="use9858" />
      <use
         x="0"
         y="0"
         inkscape:tiled-clone-of="#g9604"
         xlink:href="#g9604"
         transform="translate(0,-116.78397)"
         id="use9860" />
      <use
         x="0"
         y="0"
         inkscape:tiled-clone-of="#g9604"
         xlink:href="#g9604"
         transform="translate(0,-121.64996)"
         id="use9862" />
      <use
         x="0"
         y="0"
         inkscape:tiled-clone-of="#g9604"
         xlink:href="#g9604"
         transform="translate(0,-126.51596)"
         id="use9864" />
      <use
         x="0"
         y="0"
         inkscape:tiled-clone-of="#g9604"
         xlink:href="#g9604"
         transform="translate(0,-131.38196)"
         id="use9866" />
      <use
         x="0"
         y="0"
         inkscape:tiled-clone-of="#g9604"
         xlink:href="#g9604"
         transform="translate(0,-136.24796)"
         id="use9868" />
      <use
         x="0"
         y="0"
         inkscape:tiled-clone-of="#g9604"
         xlink:href="#g9604"
         transform="translate(0,-141.11396)"
         id="use9870" />
      <use
         x="0"
         y="0"
         inkscape:tiled-clone-of="#g9604"
         xlink:href="#g9604"
         transform="translate(0,-145.97996)"
         id="use9872" />
      <use
         x="0"
         y="0"
         inkscape:tiled-clone-of="#g9604"
         xlink:href="#g9604"
         transform="translate(0,-150.84596)"
         id="use9874" />
      <use
         x="0"
         y="0"
         inkscape:tiled-clone-of="#g9604"
         xlink:href="#g9604"
         transform="translate(0,-155.71196)"
         id="use9876" />
      <use
         x="0"
         y="0"
         inkscape:tiled-clone-of="#g9604"
         xlink:href="#g9604"
         transform="translate(0,-160.57795)"
         id="use9878" />
      <g
         id="g9961"
         inkscape:tile-cx="7.4152594"
         inkscape:tile-cy="170.94379"
         inkscape:tile-w="1.6895473"
         inkscape:tile-h="0.39869799"
         inkscape:tile-x0="6.5704857"
         inkscape:tile-y0="170.74444"
         transform="translate(-0.0320738,-0.98261253)">
        <path
           style="opacity:0.55102;fill:none;stroke:#414042;stroke-width:0.352778;stroke-linecap:round;stroke-linejoin:miter;stroke-dasharray:none;stroke-opacity:1"
           d="M 6.760727,170.96675 H 8.083644"
           id="path9956" />
        <path
           style="fill:none;stroke:#414042;stroke-width:0.352778;stroke-linecap:round;stroke-linejoin:miter;stroke-dasharray:none;stroke-opacity:1"
           d="m 6.7468747,170.92083 h 1.322917"
           id="path9954" />
      </g>
      <g
         id="g10056"
         inkscape:tile-cx="7.4014071"
         inkscape:tile-cy="172.75269"
         inkscape:tile-w="1.6895473"
         inkscape:tile-h="3.5791669"
         inkscape:tile-x0="6.5566334"
         inkscape:tile-y0="170.96311"
         transform="translate(-0.01822152,-1.2012765)">
        <use
           x="0"
           y="0"
           inkscape:tiled-clone-of="#g9961"
           xlink:href="#g9961"
           id="use9963"
           transform="translate(0.01822152,1.2012765)" />
        <use
           x="0"
           y="0"
           inkscape:tiled-clone-of="#g9961"
           xlink:href="#g9961"
           transform="translate(0.01822152,2.2614328)"
           id="use9965" />
        <use
           x="0"
           y="0"
           inkscape:tiled-clone-of="#g9961"
           xlink:href="#g9961"
           transform="translate(0.01822152,3.3215891)"
           id="use9967" />
        <use
           x="0"
           y="0"
           inkscape:tiled-clone-of="#g9961"
           xlink:href="#g9961"
           transform="translate(0.01822152,4.3817454)"
           id="use9969" />
      </g>
      <use
         x="0"
         y="0"
         inkscape:tiled-clone-of="#g10056"
         xlink:href="#g10056"
         id="use10058" />
      <use
         x="0"
         y="0"
         inkscape:tiled-clone-of="#g10056"
         xlink:href="#g10056"
         transform="translate(0,-4.8676559)"
         id="use10060" />
      <use
         x="0"
         y="0"
         inkscape:tiled-clone-of="#g10056"
         xlink:href="#g10056"
         transform="translate(0,-9.7353118)"
         id="use10062" />
      <use
         x="0"
         y="0"
         inkscape:tiled-clone-of="#g10056"
         xlink:href="#g10056"
         transform="translate(0,-14.602968)"
         id="use10064" />
      <use
         x="0"
         y="0"
         inkscape:tiled-clone-of="#g10056"
         xlink:href="#g10056"
         transform="translate(0,-19.470624)"
         id="use10066" />
      <use
         x="0"
         y="0"
         inkscape:tiled-clone-of="#g10056"
         xlink:href="#g10056"
         transform="translate(0,-24.338279)"
         id="use10068" />
      <use
         x="0"
         y="0"
         inkscape:tiled-clone-of="#g10056"
         xlink:href="#g10056"
         transform="translate(0,-29.205935)"
         id="use10070" />
      <use
         x="0"
         y="0"
         inkscape:tiled-clone-of="#g10056"
         xlink:href="#g10056"
         transform="translate(0,-34.073591)"
         id="use10072" />
      <use
         x="0"
         y="0"
         inkscape:tiled-clone-of="#g10056"
         xlink:href="#g10056"
         transform="translate(0,-38.941247)"
         id="use10074" />
      <use
         x="0"
         y="0"
         inkscape:tiled-clone-of="#g10056"
         xlink:href="#g10056"
         transform="translate(0,-43.808903)"
         id="use10076" />
      <use
         x="0"
         y="0"
         inkscape:tiled-clone-of="#g10056"
         xlink:href="#g10056"
         transform="translate(0,-48.676559)"
         id="use10078" />
      <use
         x="0"
         y="0"
         inkscape:tiled-clone-of="#g10056"
         xlink:href="#g10056"
         transform="translate(0,-53.544215)"
         id="use10080" />
      <use
         x="0"
         y="0"
         inkscape:tiled-clone-of="#g10056"
         xlink:href="#g10056"
         transform="translate(0,-58.411871)"
         id="use10082" />
      <use
         x="0"
         y="0"
         inkscape:tiled-clone-of="#g10056"
         xlink:href="#g10056"
         transform="translate(0,-63.279527)"
         id="use10084" />
      <use
         x="0"
         y="0"
         inkscape:tiled-clone-of="#g10056"
         xlink:href="#g10056"
         transform="translate(0,-68.147183)"
         id="use10086" />
      <use
         x="0"
         y="0"
         inkscape:tiled-clone-of="#g10056"
         xlink:href="#g10056"
         transform="translate(0,-73.014838)"
         id="use10088" />
      <use
         x="0"
         y="0"
         inkscape:tiled-clone-of="#g10056"
         xlink:href="#g10056"
         transform="translate(0,-77.882494)"
         id="use10090" />
      <use
         x="0"
         y="0"
         inkscape:tiled-clone-of="#g10056"
         xlink:href="#g10056"
         transform="translate(0,-82.75015)"
         id="use10092" />
      <use
         x="0"
         y="0"
         inkscape:tiled-clone-of="#g10056"
         xlink:href="#g10056"
         transform="translate(0,-87.617806)"
         id="use10094" />
      <use
         x="0"
         y="0"
         inkscape:tiled-clone-of="#g10056"
         xlink:href="#g10056"
         transform="translate(0,-92.485462)"
         id="use10096" />
      <use
         x="0"
         y="0"
         inkscape:tiled-clone-of="#g10056"
         xlink:href="#g10056"
         transform="translate(0,-97.353118)"
         id="use10098" />
      <use
         x="0"
         y="0"
         inkscape:tiled-clone-of="#g10056"
         xlink:href="#g10056"
         transform="translate(0,-102.22077)"
         id="use10100" />
      <use
         x="0"
         y="0"
         inkscape:tiled-clone-of="#g10056"
         xlink:href="#g10056"
         transform="translate(0,-107.08843)"
         id="use10102" />
      <use
         x="0"
         y="0"
         inkscape:tiled-clone-of="#g10056"
         xlink:href="#g10056"
         transform="translate(0,-111.95609)"
         id="use10104" />
      <use
         x="0"
         y="0"
         inkscape:tiled-clone-of="#g10056"
         xlink:href="#g10056"
         transform="translate(0,-116.82374)"
         id="use10106" />
      <use
         x="0"
         y="0"
         inkscape:tiled-clone-of="#g10056"
         xlink:href="#g10056"
         transform="translate(0,-121.6914)"
         id="use10108" />
      <use
         x="0"
         y="0"
         inkscape:tiled-clone-of="#g10056"
         xlink:href="#g10056"
         transform="translate(0,-126.55905)"
         id="use10110" />
      <use
         x="0"
         y="0"
         inkscape:tiled-clone-of="#g10056"
         xlink:href="#g10056"
         transform="translate(0,-131.42671)"
         id="use10112" />
      <use
         x="0"
         y="0"
         inkscape:tiled-clone-of="#g10056"
         xlink:href="#g10056"
         transform="translate(0,-136.29437)"
         id="use10114" />
      <use
         x="0"
         y="0"
         inkscape:tiled-clone-of="#g10056"
         xlink:href="#g10056"
         transform="translate(0,-141.16202)"
         id="use10116" />
      <use
         x="0"
         y="0"
         inkscape:tiled-clone-of="#g10056"
         xlink:href="#g10056"
         transform="translate(0,-146.02968)"
         id="use10118" />
      <use
         x="0"
         y="0"
         inkscape:tiled-clone-of="#g10056"
         xlink:href="#g10056"
         transform="translate(0,-150.89733)"
         id="use10120" />
      <use
         x="0"
         y="0"
         inkscape:tiled-clone-of="#g10056"
         xlink:href="#g10056"
         transform="translate(0,-155.76499)"
         id="use10122" />
    </g>
  </g>
</svg>
