<?xml version="1.0" encoding="UTF-8" standalone="no"?>
<!-- Created with Inkscape (http://www.inkscape.org/) -->

<svg
   width="300"
   height="200"
   viewBox="0 0 79.374998 52.916666"
   version="1.1"
   id="svg5"
   xml:space="preserve"
   inkscape:version="1.2.1 (9c6d41e410, 2022-07-14)"
   sodipodi:docname="stanfordLogoStampPlain.svg"
   xmlns:inkscape="http://www.inkscape.org/namespaces/inkscape"
   xmlns:sodipodi="http://sodipodi.sourceforge.net/DTD/sodipodi-0.dtd"
   xmlns="http://www.w3.org/2000/svg"
   xmlns:svg="http://www.w3.org/2000/svg"><sodipodi:namedview
     id="namedview7"
     pagecolor="#505050"
     bordercolor="#eeeeee"
     borderopacity="1"
     inkscape:showpageshadow="0"
     inkscape:pageopacity="0"
     inkscape:pagecheckerboard="0"
     inkscape:deskcolor="#505050"
     inkscape:document-units="px"
     showgrid="false"
     inkscape:zoom="2.9540685"
     inkscape:cx="123.72767"
     inkscape:cy="109.34073"
     inkscape:window-width="1920"
     inkscape:window-height="1009"
     inkscape:window-x="1912"
     inkscape:window-y="-8"
     inkscape:window-maximized="1"
     inkscape:current-layer="layer1" /><defs
     id="defs2"><inkscape:path-effect
       effect="fillet_chamfer"
       id="path-effect7735"
       is_visible="true"
       lpeversion="1"
       nodesatellites_param="F,0,0,1,0,0,0,1 @ F,0,0,1,0,0,0,1 @ F,0,0,1,0,0,0,1 @ F,0,0,1,0,0,0,1"
       unit="px"
       method="auto"
       mode="F"
       radius="0"
       chamfer_steps="1"
       flexible="false"
       use_knot_distance="true"
       apply_no_radius="true"
       apply_with_radius="true"
       only_selected="false"
       hide_knots="false" /><inkscape:path-effect
       effect="fillet_chamfer"
       id="path-effect6224"
       is_visible="true"
       lpeversion="1"
       nodesatellites_param="F,0,0,1,0,0,0,1 @ F,0,0,1,0,0,0,1 @ F,0,0,1,0,0,0,1 @ F,0,0,1,0,0,0,1"
       unit="px"
       method="auto"
       mode="F"
       radius="0"
       chamfer_steps="1"
       flexible="false"
       use_knot_distance="true"
       apply_no_radius="true"
       apply_with_radius="true"
       only_selected="false"
       hide_knots="false" /></defs><g
     inkscape:label="Layer 1"
     inkscape:groupmode="layer"
     id="layer1"><g
       id="g9186"
       transform="rotate(1.3957658,39.687499,26.458333)"><path
         id="path7731"
         style="opacity:1;fill:#000000;fill-opacity:1;stroke:none;stroke-width:0.264583;stroke-linecap:square;stroke-linejoin:miter;stroke-miterlimit:1.2;stroke-dasharray:none;stroke-opacity:1"
         d="m 3.9687499,14.552083 v 23.8125 H 75.406249 v -23.8125 z m 0.6614583,0.661458 H 74.74479 V 37.703124 H 4.6302082 Z" /><path
         style="display:inline;fill:#006a52;fill-opacity:1;stroke:none;stroke-width:0.529167;stroke-dasharray:none;stroke-opacity:1"
         d="m 11.385475,33.251057 c 0.05727,-0.107007 0.273065,-0.377707 0.479546,-0.601553 l 0.375421,-0.406994 0.02971,-1.213128 c 0.01764,-0.720048 -0.0051,-1.213128 -0.05582,-1.213128 -0.04704,0 -0.182902,0.07557 -0.301915,0.16792 -0.119014,0.09236 -0.392837,0.190938 -0.608496,0.219071 -0.21566,0.02813 -0.55251,0.157301 -0.748556,0.287038 -0.283243,0.187442 -0.356448,0.206745 -0.356448,0.09399 0,-0.264773 0.27416,-0.67364 0.54594,-0.814182 0.304145,-0.15728 0.335092,-0.276665 0.130359,-0.502891 -0.128687,-0.142199 -0.119295,-0.160205 0.113418,-0.217441 0.392297,-0.09649 0.662028,-0.30732 0.662028,-0.517473 0,-0.171274 -0.03662,-0.185117 -0.355005,-0.134205 -0.195252,0.03122 -0.42539,0.08378 -0.511418,0.116789 -0.339395,0.130238 -0.06035,-0.203154 0.364498,-0.435496 0.241135,-0.131871 0.476546,-0.30788 0.523136,-0.391131 0.09119,-0.162943 0.02453,-0.450806 -0.08862,-0.382702 -0.03778,0.02274 -0.221468,0.01512 -0.408196,-0.01693 l -0.339504,-0.05828 0.579404,-0.389306 c 0.567762,-0.381482 0.735134,-0.614755 0.59906,-0.834928 -0.05094,-0.08242 -0.115152,-0.08495 -0.255116,-0.01005 -0.102873,0.05506 -0.281595,0.0983 -0.397159,0.09609 -0.17727,-0.0034 -0.156208,-0.03246 0.134734,-0.185995 0.345482,-0.182317 0.560813,-0.514254 0.42665,-0.65769 -0.03933,-0.04205 -0.154873,-0.03184 -0.256757,0.02268 -0.101885,0.05453 -0.28092,0.09914 -0.397856,0.09914 -0.116936,0 -0.303357,0.06356 -0.414268,0.141246 -0.176106,0.12335 -0.201657,0.124099 -0.201657,0.0059 0,-0.312686 0.193519,-0.592458 0.623458,-0.901339 0.579542,-0.416359 0.803536,-0.735561 0.647826,-0.923181 -0.09804,-0.118135 -0.133892,-0.11808 -0.303124,4.54e-4 -0.105562,0.07394 -0.356375,0.133525 -0.557362,0.132415 l -0.365431,-0.002 0.226835,-0.182011 c 0.124759,-0.100105 0.460713,-0.313556 0.746565,-0.474336 0.285851,-0.160779 0.541173,-0.347048 0.567382,-0.413931 0.08384,-0.213938 -0.05401,-0.304953 -0.37163,-0.245368 -0.389894,0.07314 -0.387469,0.02397 0.01039,-0.210776 0.357642,-0.211014 0.405796,-0.368875 0.134189,-0.439902 -0.144085,-0.03768 -0.161147,-0.07475 -0.07963,-0.172974 0.05707,-0.06876 0.155003,-0.125019 0.217638,-0.125019 0.06264,0 0.166426,-0.06331 0.230647,-0.140693 0.0986,-0.118808 0.08636,-0.148646 -0.07871,-0.191812 -0.194725,-0.05092 -0.194616,-0.0518 0.02848,-0.227284 0.123177,-0.09689 0.218372,-0.24535 0.211545,-0.329909 -0.0068,-0.08456 -0.0059,-0.233 0.002,-0.32987 0.01419,-0.173886 0.016,-0.173899 0.142431,-10e-4 0.07043,0.09632 0.105023,0.212393 0.07687,0.257942 -0.02815,0.04555 0.02411,0.137867 0.116122,0.205152 0.09202,0.06729 0.118671,0.122337 0.05923,0.122337 -0.191122,0 -0.115234,0.263329 0.120378,0.417708 0.213864,0.140129 0.21821,0.157361 0.06805,0.269804 -0.150951,0.113036 -0.148063,0.12892 0.04901,0.269537 0.187783,0.133988 0.194302,0.160474 0.06311,0.256403 -0.206265,0.150825 -0.09472,0.360793 0.298549,0.561978 l 0.336264,0.172022 -0.340252,0.02983 c -0.47183,0.04136 -0.436545,0.238886 0.09073,0.50792 0.237042,0.120947 0.545388,0.340438 0.685211,0.487759 l 0.254225,0.267856 -0.462435,-0.0731 c -0.254339,-0.04021 -0.542269,-0.09844 -0.639845,-0.129408 -0.132295,-0.04199 -0.177409,-0.01374 -0.177409,0.111086 0,0.259608 0.225292,0.521688 0.723012,0.841074 0.323271,0.207443 0.478694,0.37593 0.533432,0.578272 0.04248,0.157045 0.06835,0.29718 0.05747,0.311412 -0.01088,0.01423 -0.251604,-0.06086 -0.534951,-0.166878 -0.532772,-0.199335 -0.778964,-0.186897 -0.778964,0.03936 0,0.157573 0.463562,0.562798 0.746576,0.652623 l 0.203151,0.06448 -0.197469,0.07305 c -0.108608,0.04018 -0.321746,0.03741 -0.47364,-0.0062 -0.320903,-0.09203 -0.445569,0.02329 -0.263746,0.243989 0.06668,0.08093 0.334425,0.283804 0.594998,0.45083 0.404793,0.259472 0.660407,0.528798 0.660407,0.695838 0,0.07562 -0.584646,-0.04433 -0.707035,-0.145051 -0.08239,-0.0678 -0.145785,-0.06798 -0.213165,-6.35e-4 -0.163029,0.163029 0.0065,0.460927 0.321421,0.564867 0.16494,0.05444 0.397764,0.205456 0.517386,0.335601 l 0.217494,0.236629 -0.272202,-0.06329 c -0.627425,-0.145889 -0.75275,-0.155619 -0.810058,-0.06289 -0.14461,0.233984 0.124739,0.464074 0.802547,0.685572 0.132585,0.04333 0.148769,0.08203 0.06805,0.162752 -0.181042,0.181043 -0.116992,0.422157 0.148631,0.559515 0.265366,0.137227 0.471335,0.480448 0.471335,0.78542 0,0.164929 -0.03545,0.157965 -0.48369,-0.095 -0.29842,-0.168392 -0.613494,-0.272952 -0.822572,-0.272952 -0.186384,0 -0.42305,-0.04505 -0.525923,-0.100102 -0.268771,-0.143842 -0.342579,0.02411 -0.343044,0.780608 -7.35e-4,1.198372 0.08843,1.404058 0.873789,2.015568 l 0.257999,0.200888 -1.386887,0.0033 -1.386887,0.0033 z"
         id="path430" /><path
         style="display:inline;fill:#000000;fill-opacity:1;stroke:#000000;stroke-width:0.0907341;stroke-opacity:1"
         d="M 22.735938,31.533432 C 22.420205,31.49246 22.02211,31.412811 21.851281,31.356433 l -0.310596,-0.102506 -0.0034,-0.605419 c -0.0019,-0.33298 -0.02563,-0.758532 -0.05277,-0.945671 -0.04612,-0.318057 -0.03406,-0.340253 0.184895,-0.340253 0.19058,0 0.234237,0.04312 0.234237,0.231341 0,0.736259 0.689759,1.171493 1.860049,1.173681 1.214054,0.0023 1.769314,-0.46574 1.769314,-1.491291 0,-0.817332 -0.195865,-1.037264 -2.019936,-2.268127 -1.455499,-0.982153 -1.791522,-1.461824 -1.790389,-2.55577 8.17e-4,-0.796783 0.148134,-1.165304 0.668902,-1.673392 0.636,-0.620514 1.01274,-0.721179 2.687753,-0.718173 0.723604,0.0013 1.427927,0.0327 1.565162,0.06978 l 0.249519,0.06742 v 0.950979 c 3e-6,0.871811 -0.01426,0.950979 -0.171368,0.950979 -0.12536,0 -0.188053,-0.08893 -0.233507,-0.331221 -0.097,-0.517048 -0.45245,-0.805234 -1.140556,-0.924717 -1.02296,-0.177627 -1.86205,0.06799 -2.150642,0.629547 -0.06164,0.119948 -0.112682,0.431026 -0.113418,0.691284 -0.0018,0.637595 0.267267,0.932635 1.721167,1.887291 1.778165,1.167573 2.179061,1.701489 2.179061,2.902089 0,1.082102 -0.414014,1.785884 -1.310089,2.22702 -0.826483,0.406875 -1.705312,0.512181 -2.938702,0.352131 z m 6.604419,-0.106648 c -0.283746,-0.143085 -0.472698,-0.326286 -0.631681,-0.612455 -0.222946,-0.401304 -0.22734,-0.448355 -0.256295,-2.744705 l -0.02946,-2.336403 h -0.401526 c -0.52613,0 -0.521602,-0.163446 0.01237,-0.446721 0.455253,-0.241511 1.10714,-0.916834 1.416714,-1.467646 0.117176,-0.208488 0.266671,-0.353984 0.36371,-0.353984 0.145461,0 0.16476,0.08503 0.16476,0.725872 v 0.725873 h 1.134176 1.134176 v 0.408303 0.408303 h -1.134176 -1.134176 l 0.0051,2.109568 c 0.0058,2.404399 0.05343,2.660639 0.539283,2.903349 0.376454,0.188059 0.735126,0.196199 1.208367,0.02742 0.296081,-0.105595 0.353565,-0.104848 0.395771,0.0051 0.07312,0.19056 -0.141775,0.401343 -0.65143,0.638955 -0.6267,0.292179 -1.566439,0.296197 -2.135709,0.0091 z m 4.851437,0.118942 c -0.742045,-0.177547 -1.201258,-0.708376 -1.280974,-1.480747 -0.08584,-0.831725 0.248499,-1.504436 0.924331,-1.859799 0.149711,-0.07872 0.782582,-0.313974 1.406378,-0.522787 l 1.134176,-0.379659 0.02482,-0.353769 c 0.0294,-0.419114 -0.195992,-0.901983 -0.537999,-1.152585 -0.513204,-0.376044 -1.628362,-0.156802 -1.960089,0.385358 -0.126006,0.205938 -0.187264,0.222771 -0.375952,0.103308 -0.18506,-0.117168 0.243454,-0.814053 0.688553,-1.119784 0.916847,-0.629764 2.582822,-0.532258 3.235424,0.189362 0.35631,0.393992 0.414229,0.793947 0.418377,2.889047 0.0022,1.106277 0.0292,2.077131 0.06002,2.157454 0.08709,0.226955 0.369,0.344176 0.569569,0.236835 0.127817,-0.0684 0.2007,-0.05737 0.284007,0.04301 0.09276,0.111771 0.05467,0.189166 -0.22116,0.449303 -0.607476,0.572924 -1.411869,0.626015 -1.880701,0.124128 l -0.245403,-0.262704 -0.33537,0.227588 c -0.56009,0.380087 -1.215285,0.492183 -1.908007,0.326439 z m 2.025127,-1.058128 c 0.193243,-0.124116 0.204151,-0.189794 0.204151,-1.229181 v -1.098059 l -0.294885,0.05888 c -0.523084,0.104448 -1.407495,0.572407 -1.580325,0.83618 -0.352801,0.538442 -0.110516,1.432224 0.431645,1.592321 0.299668,0.08849 0.991472,-9.07e-4 1.239414,-0.160144 z m 17.761194,0.921654 c -1.394566,-0.582352 -2.102121,-2.187055 -1.734823,-3.934501 0.07664,-0.364607 0.232271,-0.848995 0.345851,-1.076417 0.283703,-0.568062 1.049343,-1.246489 1.637444,-1.450928 0.647941,-0.22524 1.938346,-0.225861 2.584268,-0.0012 0.664204,0.230976 1.297227,0.828752 1.621308,1.531036 0.243928,0.528593 0.263509,0.650291 0.259869,1.61511 -0.0048,1.27997 -0.192867,1.841193 -0.8623,2.573659 -0.637265,0.697271 -1.148062,0.901195 -2.354505,0.939988 -0.85181,0.02739 -1.010362,0.0066 -1.497112,-0.196703 z m 2.114073,-0.631669 c 0.819919,-0.426603 1.244127,-1.724242 1.039766,-3.180607 -0.177496,-1.264902 -0.704823,-1.997677 -1.475258,-2.050025 -0.69159,-0.04699 -0.834139,-0.0015 -1.226806,0.391124 -0.504245,0.504245 -0.67861,1.081601 -0.67861,2.247014 0,1.762111 0.596175,2.712032 1.70577,2.717908 0.214569,0.0011 0.500381,-0.0553 0.635138,-0.125414 z m 10.815532,0.77367 c -0.843097,-0.276585 -1.404242,-0.778864 -1.786285,-1.598897 -0.226764,-0.486738 -0.253715,-0.645322 -0.254431,-1.497113 -0.0015,-1.804524 0.663664,-2.888309 2.127109,-3.465726 0.419932,-0.165689 0.680114,-0.197939 1.569504,-0.194546 l 1.066126,0.0041 v -1.282034 c 0,-1.4154 -0.07198,-1.650132 -0.521936,-1.7021 -0.353795,-0.04086 -0.399462,-0.34614 -0.0518,-0.346308 0.257409,-1.27e-4 1.653438,-0.228143 1.925307,-0.314468 0.132291,-0.04201 0.145546,0.381287 0.145546,4.648209 0,3.613386 0.02637,4.740535 0.11452,4.89467 0.06813,0.119129 0.242716,0.224296 0.430987,0.259616 0.228806,0.04292 0.316467,0.106839 0.316467,0.23074 0,0.137444 -0.06736,0.171474 -0.340253,0.171895 -0.301305,4.54e-4 -0.661334,0.05108 -1.723948,0.242343 -0.281478,0.05066 -0.294885,0.04009 -0.294885,-0.232524 v -0.285603 l -0.476354,0.244437 c -0.386249,0.198202 -0.622238,0.249481 -1.247594,0.271098 -0.424181,0.01466 -0.873315,-0.0068 -0.998075,-0.04776 z m 2.524604,-1.00059 c 0.194658,-0.104177 0.197419,-0.137395 0.197419,-2.375251 v -2.269594 l -0.38562,-0.17504 c -0.706147,-0.320532 -1.707887,-0.187954 -2.220819,0.293921 -0.475053,0.446289 -0.764003,1.88996 -0.570102,2.848384 0.191502,0.946568 0.647697,1.531161 1.365175,1.749411 0.381863,0.116158 1.342579,0.0734 1.613947,-0.07183 z m -30.017027,0.858016 c 0,-0.06294 0.128543,-0.151294 0.285651,-0.196352 0.157109,-0.04506 0.371468,-0.196856 0.476354,-0.337327 0.182348,-0.244214 0.190702,-0.358808 0.190702,-2.615744 v -2.360341 l -0.214203,-0.173581 c -0.117812,-0.09547 -0.311757,-0.173581 -0.430987,-0.173581 -0.150941,0 -0.216783,-0.05131 -0.216783,-0.168953 0,-0.144566 0.10012,-0.178026 0.693648,-0.231809 0.381507,-0.03457 0.861263,-0.12127 1.066125,-0.192663 0.525745,-0.183219 0.599313,-0.167962 0.599313,0.124285 v 0.256732 l 0.553113,-0.274148 c 0.47892,-0.237375 0.652352,-0.274157 1.29296,-0.274218 1.095337,-9.1e-5 1.669428,0.296894 2.084424,1.078344 0.177343,0.333943 0.19657,0.545207 0.240689,2.644603 0.05284,2.514251 0.06946,2.583896 0.647128,2.710773 0.144536,0.03175 0.262794,0.113365 0.262794,0.181377 0,0.09996 -0.321646,0.12349 -1.678581,0.122785 -1.29907,-6.35e-4 -1.67858,-0.02701 -1.67858,-0.116504 0,-0.0636 0.165165,-0.165118 0.367034,-0.225599 0.544311,-0.16308 0.576902,-0.306073 0.581215,-2.550046 0.0034,-1.790025 -0.01118,-1.976171 -0.177364,-2.258868 -0.295491,-0.502647 -0.598006,-0.673118 -1.197359,-0.674726 -0.289429,-8.17e-4 -0.701626,0.04858 -0.915995,0.109692 l -0.389761,0.111105 0.02683,2.435844 c 0.02447,2.222375 0.04156,2.452119 0.195018,2.621534 0.09251,0.102127 0.28645,0.21166 0.430986,0.243406 0.144537,0.03175 0.262794,0.112423 0.262794,0.179282 0,0.09726 -0.335617,0.121319 -1.67858,0.120344 -1.289637,-9.34e-4 -1.67858,-0.02773 -1.67858,-0.115646 z m 8.347534,-0.006 c 0,-0.06635 0.146858,-0.169097 0.32635,-0.228334 0.543564,-0.179391 0.580991,-0.377746 0.580991,-3.079144 V 25.7332 h -0.45367 c -0.612254,0 -0.621678,-0.228814 -0.02242,-0.544404 l 0.430725,-0.226835 0.06584,-0.920708 c 0.08478,-1.185619 0.310166,-1.800895 0.837876,-2.287322 0.520657,-0.479924 1.202867,-0.6856 2.083308,-0.628083 0.618821,0.04042 1.316185,0.293325 1.462747,0.530466 0.06384,0.10329 -0.559647,1.082662 -0.68924,1.082662 -0.04046,0 -0.09869,-0.07915 -0.129392,-0.17588 -0.0307,-0.09673 -0.203389,-0.305445 -0.383748,-0.463802 -0.294166,-0.258281 -0.373211,-0.283571 -0.767818,-0.245654 -0.241941,0.02325 -0.518625,0.11352 -0.614854,0.200606 -0.241351,0.218419 -0.367605,0.891401 -0.367605,1.959473 v 0.902875 h 0.77124 0.771239 v 0.408303 0.408303 h -0.771239 -0.77124 l 0.0039,2.200302 c 0.0039,2.169323 0.06311,2.893426 0.252061,3.082378 0.05293,0.05293 0.302797,0.116089 0.555254,0.140348 0.365496,0.03512 0.459011,0.07743 0.459011,0.207698 0,0.152253 -0.125803,0.163448 -1.814682,0.161489 -1.448059,-0.0017 -1.814681,-0.02648 -1.814681,-0.122734 z m 11.633448,-0.03278 c 0.01545,-0.08024 0.145773,-0.166622 0.2896,-0.191958 0.143827,-0.02534 0.347481,-0.161343 0.452563,-0.302238 0.182793,-0.24509 0.191058,-0.358271 0.191058,-2.616514 v -2.360344 l -0.214203,-0.173558 c -0.117813,-0.09545 -0.311757,-0.173556 -0.430987,-0.173556 -0.152564,0 -0.216783,-0.05112 -0.216783,-0.172559 0,-0.144594 0.0919,-0.182569 0.567088,-0.234326 0.311898,-0.03397 0.82481,-0.119641 1.139805,-0.190377 0.314996,-0.07073 0.5906,-0.12861 0.612455,-0.12861 0.02186,0 0.03974,0.119616 0.03974,0.265814 v 0.265816 l 0.405667,-0.226732 c 0.4989,-0.27884 1.235832,-0.364353 1.717731,-0.199322 0.542459,0.18577 0.592818,0.342744 0.300903,0.937948 -0.304266,0.620385 -0.45082,0.68885 -0.786375,0.36737 -0.323947,-0.310363 -0.844442,-0.43587 -1.301877,-0.313921 l -0.344458,0.09183 0.02689,2.396734 c 0.03045,2.714548 0.01577,2.660358 0.743409,2.742374 0.323798,0.0365 0.417655,0.08368 0.417655,0.209958 0,0.151451 -0.127664,0.162503 -1.818985,0.157475 -1.620511,-0.0048 -1.815921,-0.02133 -1.790891,-0.1513 z"
         id="path428" /><path
         style="fill:#9d2235;fill-opacity:1;stroke:#000000;stroke-width:0.0907341;stroke-opacity:1"
         d="M 9.0404449,32.42331 8.1120418,31.491736 v -1.019208 -1.01921 l 1.3836946,3.63e-4 c 1.3805126,3.63e-4 1.3830686,7.26e-4 1.1114926,0.166764 -0.359061,0.21953 -0.461959,0.355922 -0.571553,0.757593 -0.067243,0.246448 -0.061806,0.375374 0.02058,0.488044 0.102509,0.14019 0.144541,0.129521 0.497742,-0.126336 0.231544,-0.16773 0.555092,-0.303805 0.809275,-0.340359 0.232924,-0.0335 0.494951,-0.123482 0.582282,-0.199968 0.149999,-0.131369 0.158785,-0.08517 0.158785,0.834984 v 0.974047 l -0.340253,0.412388 c -0.753254,0.91292 -0.782887,0.934045 -1.310285,0.934045 H 9.968848 Z"
         id="path2477" /><path
         style="display:inline;fill:#9d2235;fill-opacity:1;stroke:#000000;stroke-width:0.0907341;stroke-opacity:1"
         d="M 8.7244968,32.845721 7.6583715,31.796186 V 30.35255 28.908914 h 1.4335983 c 0.8566148,0 1.4709712,-0.03737 1.5264562,-0.09286 0.05107,-0.05107 0.171522,-0.110699 0.267666,-0.132503 0.09614,-0.02181 0.27306,-0.06811 0.393147,-0.102903 0.15156,-0.04391 0.198953,-0.03189 0.154954,0.0393 -0.03486,0.05641 -0.227087,0.146641 -0.427164,0.200517 -0.200078,0.05388 -0.386459,0.157061 -0.41418,0.2293 -0.04076,0.10622 -0.300222,0.131346 -1.3563388,0.131346 H 7.9305737 v 1.252821 1.25282 l 0.9845152,0.970164 0.9845153,0.970164 h 2.7419628 2.741962 l 0.991694,-0.967076 0.991694,-0.967076 V 29.096905 26.500877 L 16.525922,25.663379 15.684927,24.825881 H 14.95169 c -0.674621,0 -0.764016,-0.02229 -1.118228,-0.278885 -0.449209,-0.325405 -0.431374,-0.46623 0.02345,-0.185136 0.254844,0.157503 0.454264,0.191819 1.114716,0.191819 h 0.804347 l 0.931574,0.928402 0.931573,0.928404 v 2.686082 2.686083 l -1.066125,1.05731 -1.066125,1.057311 -2.858124,-0.001 -2.8581228,-10e-4 -1.0661254,-1.049534 z"
         id="path432" /><path
         style="display:inline;fill:#9d2235;fill-opacity:1;stroke:#000000;stroke-width:0.0907341;stroke-opacity:1"
         d="M 8.905965,26.963738 8.1120418,26.13153 V 23.64289 21.15425 L 9.0404449,20.222676 9.968848,19.291103 h 2.679897 2.679897 l 0.928404,0.931573 0.928403,0.931574 v 1.15531 1.15531 h -1.497441 c -1.324092,0 -1.536636,-0.02101 -1.836021,-0.181468 -0.318176,-0.170532 -0.324209,-0.181468 -0.100113,-0.181468 0.483989,0 0.377266,-0.293206 -0.254009,-0.697854 -0.155221,-0.0995 -0.156001,-0.108505 -0.0098,-0.113417 0.20396,-0.0069 0.210286,-0.330434 0.0087,-0.443266 -0.09166,-0.0513 -0.127729,-0.142358 -0.09262,-0.233847 0.03497,-0.09114 -0.01075,-0.208272 -0.116704,-0.298993 -0.125882,-0.107783 -0.159964,-0.220343 -0.122872,-0.405799 0.0298,-0.148991 0.01207,-0.256644 -0.04225,-0.256644 -0.05147,0 -0.07223,-0.08166 -0.04613,-0.181468 0.02746,-0.10502 0.0028,-0.181469 -0.05858,-0.181469 -0.05832,0 -0.148737,-0.122491 -0.200926,-0.272202 -0.118125,-0.338853 -0.235591,-0.346344 -0.355672,-0.02268 -0.05092,0.137235 -0.155208,0.29721 -0.231762,0.3555 -0.10695,0.08143 -0.116922,0.147584 -0.04305,0.285611 0.07989,0.149272 0.0569,0.20534 -0.136045,0.331759 -0.150292,0.09848 -0.212765,0.202724 -0.177132,0.295583 0.03185,0.08299 -0.02652,0.230281 -0.138491,0.349465 -0.203869,0.217008 -0.171263,0.400915 0.07108,0.400915 0.08394,0 0.01537,0.08679 -0.16414,0.207766 -0.420966,0.283688 -0.405326,0.472739 0.03911,0.472739 0.271992,0 0.314563,0.0197 0.1961,0.09073 -0.960359,0.575882 -1.269384,0.829903 -1.269384,1.043442 0,0.212565 0.02569,0.225047 0.408303,0.198406 0.224567,-0.01564 0.489964,-0.04866 0.589772,-0.07338 0.18407,-0.04559 0.151912,-0.01329 -0.739245,0.742576 -0.27869,0.236381 -0.334213,0.347097 -0.372171,0.742131 -0.04925,0.512511 0.02088,0.556795 0.429031,0.270918 0.123049,-0.08619 0.326194,-0.156704 0.451434,-0.156704 0.213963,0 0.207267,0.01389 -0.110923,0.230106 -0.346068,0.23516 -0.446558,0.486773 -0.202531,0.507109 0.07486,0.0062 0.187139,0.01892 0.249519,0.02819 0.06238,0.0093 0.205286,-0.01524 0.317569,-0.05446 0.382544,-0.133628 0.206168,0.0913 -0.324253,0.413514 -0.474834,0.288446 -0.808235,0.684351 -0.682332,0.810254 0.02607,0.02607 0.176452,0.02866 0.334183,0.0058 0.15773,-0.0229 0.348028,6.35e-4 0.422883,0.05239 0.252129,0.17418 -0.09123,0.273335 -0.90734,0.262023 L 9.6998881,27.795944 8.905965,26.963737 Z"
         id="path2483" /><path
         style="display:inline;fill:#9d2235;fill-opacity:1;stroke:#000000;stroke-width:0.0907341;stroke-opacity:1"
         d="m 10.381731,28.477927 c -8.8e-4,-0.07426 -0.146832,-0.113418 -0.4227943,-0.113418 -0.4124101,0 -0.4416252,-0.01985 -1.3610111,-0.924571 L 7.6583715,26.515368 V 23.69574 20.876112 l 1.0674882,-1.064707 1.067488,-1.064707 h 2.8553973 2.855398 l 1.067488,1.064707 1.067488,1.064707 v 1.566581 1.566581 h -1.406378 c -1.027541,0 -1.406378,0.02911 -1.406378,0.108076 0,0.112952 -0.264279,-0.193435 -0.269317,-0.312227 -0.0016,-0.03743 0.629985,-0.06805 1.403493,-0.06805 h 1.406378 V 22.339231 20.94139 L 16.356668,19.980145 15.346418,19.0189 H 12.643075 9.9397325 l -1.0045794,0.962628 -1.0045794,0.962627 v 2.691122 2.69112 l 0.8846572,0.878735 c 0.8611464,0.855381 0.8967995,0.879449 1.3415421,0.905639 0.455039,0.02679 0.456419,0.02782 0.34159,0.253738 -0.06341,0.12476 -0.115896,0.175798 -0.116632,0.113418 z"
         id="path2481" /><path
         style="fill:#9d2235;fill-opacity:1;stroke:#000000;stroke-width:0.0907341;stroke-opacity:1"
         d="m 14.299409,33.259385 c -0.115163,-0.0462 -0.411183,-0.254152 -0.657823,-0.462122 L 13.19315,32.419136 v -0.875235 -0.875235 l 0.479539,0.05278 c 0.277233,0.03052 0.657264,0.156938 0.900814,0.299667 0.556694,0.326244 0.706531,0.320257 0.706531,-0.02823 0,-0.398571 -0.21144,-0.843742 -0.486278,-1.023823 -0.203816,-0.133545 -0.22306,-0.181745 -0.131255,-0.328748 0.145133,-0.232395 8.17e-4,-0.397758 -0.470198,-0.538888 -0.200208,-0.05998 -0.364015,-0.15262 -0.364015,-0.20586 0,-0.05828 0.06319,-0.06904 0.158785,-0.02704 0.08733,0.03837 0.311898,0.08785 0.499037,0.109972 0.288669,0.03412 0.340253,0.01389 0.340253,-0.133444 0,-0.2436 -0.168611,-0.431261 -0.589771,-0.65641 -0.392022,-0.209571 -0.414266,-0.204664 0.362936,-0.08006 0.145318,0.0233 0.176471,-0.01548 0.156383,-0.194649 -0.03897,-0.347586 -0.261453,-0.620814 -0.75058,-0.921777 -0.247085,-0.152032 -0.449245,-0.283235 -0.449245,-0.291559 0,-0.0083 0.204152,-0.006 0.453671,0.0051 0.398637,0.01775 0.45367,-0.0016 0.45367,-0.159676 0,-0.119175 -0.17095,-0.289235 -0.50656,-0.503921 -0.278608,-0.178223 -0.491171,-0.339431 -0.472364,-0.358238 0.01881,-0.01881 0.265311,0.05094 0.547786,0.154997 0.282475,0.104057 0.581031,0.163315 0.663456,0.131685 0.146811,-0.05634 0.144169,-0.174821 -0.01591,-0.71364 -0.04078,-0.137285 0.01841,-0.158785 0.437187,-0.158785 h 0.48436 l 0.792032,0.795718 0.792031,0.795719 v 2.404278 2.404279 l -0.931573,0.928404 c -0.909434,0.906338 -0.941241,0.928265 -1.338328,0.922651 -0.223714,-0.0032 -0.500978,-0.04355 -0.616139,-0.08975 z"
         id="path2479" /></g></g></svg>
