<?xml version="1.0" encoding="UTF-8" standalone="no"?>
<!-- Created with Inkscape (http://www.inkscape.org/) -->

<svg
   width="300"
   height="200"
   viewBox="0 0 79.374998 52.916666"
   version="1.1"
   id="svg5"
   xml:space="preserve"
   inkscape:version="1.2.1 (9c6d41e410, 2022-07-14)"
   sodipodi:docname="stanfordLogoStamp.svg"
   xmlns:inkscape="http://www.inkscape.org/namespaces/inkscape"
   xmlns:sodipodi="http://sodipodi.sourceforge.net/DTD/sodipodi-0.dtd"
   xmlns:xlink="http://www.w3.org/1999/xlink"
   xmlns="http://www.w3.org/2000/svg"
   xmlns:svg="http://www.w3.org/2000/svg"><sodipodi:namedview
     id="namedview7"
     pagecolor="#505050"
     bordercolor="#eeeeee"
     borderopacity="1"
     inkscape:showpageshadow="0"
     inkscape:pageopacity="0"
     inkscape:pagecheckerboard="0"
     inkscape:deskcolor="#505050"
     inkscape:document-units="px"
     showgrid="false"
     inkscape:zoom="2.9540685"
     inkscape:cx="123.72767"
     inkscape:cy="109.34073"
     inkscape:window-width="1920"
     inkscape:window-height="1009"
     inkscape:window-x="1912"
     inkscape:window-y="-8"
     inkscape:window-maximized="1"
     inkscape:current-layer="layer1" /><defs
     id="defs2"><linearGradient
       inkscape:collect="always"
       id="linearGradient9299"><stop
         style="stop-color:#000000;stop-opacity:1;"
         offset="0"
         id="stop9295" /><stop
         style="stop-color:#000000;stop-opacity:0.21000002;"
         offset="1"
         id="stop9297" /></linearGradient><inkscape:path-effect
       effect="fillet_chamfer"
       id="path-effect7735"
       is_visible="true"
       lpeversion="1"
       nodesatellites_param="F,0,0,1,0,0,0,1 @ F,0,0,1,0,0,0,1 @ F,0,0,1,0,0,0,1 @ F,0,0,1,0,0,0,1"
       unit="px"
       method="auto"
       mode="F"
       radius="0"
       chamfer_steps="1"
       flexible="false"
       use_knot_distance="true"
       apply_no_radius="true"
       apply_with_radius="true"
       only_selected="false"
       hide_knots="false" /><inkscape:path-effect
       effect="fillet_chamfer"
       id="path-effect6224"
       is_visible="true"
       lpeversion="1"
       nodesatellites_param="F,0,0,1,0,0,0,1 @ F,0,0,1,0,0,0,1 @ F,0,0,1,0,0,0,1 @ F,0,0,1,0,0,0,1"
       unit="px"
       method="auto"
       mode="F"
       radius="0"
       chamfer_steps="1"
       flexible="false"
       use_knot_distance="true"
       apply_no_radius="true"
       apply_with_radius="true"
       only_selected="false"
       hide_knots="false" /><linearGradient
       inkscape:collect="always"
       xlink:href="#linearGradient9299"
       id="linearGradient9301"
       x1="3.6891804"
       y1="26.458332"
       x2="75.685818"
       y2="26.458332"
       gradientUnits="userSpaceOnUse" /></defs><g
     inkscape:label="Layer 1"
     inkscape:groupmode="layer"
     id="layer1"><path
       id="path7731"
       style="fill:url(#linearGradient9301);fill-opacity:1;stroke:none;stroke-width:0.264583;stroke-linecap:square;stroke-linejoin:miter;stroke-miterlimit:1.2;stroke-dasharray:none;stroke-opacity:1"
       d="M 4.2695068 13.685469 L 4.240568 14.863175 C 4.2772311 14.84383 4.3132026 14.823315 4.350122 14.804264 C 4.503578 14.79849 4.7295236 14.790998 4.9040933 14.784627 L 4.9144286 14.362947 L 13.244669 14.566036 C 13.266437 14.551754 13.287523 14.536432 13.309265 14.522111 C 14.091945 14.502194 14.874659 14.47944 15.657442 14.464233 C 18.464696 14.409693 21.27257 14.402682 24.080183 14.371732 C 26.441809 14.417132 28.803201 14.541179 31.165022 14.507641 C 31.765603 14.499112 32.364371 14.446587 32.962328 14.384651 L 4.2695068 13.685469 z M 33.079634 14.387235 C 33.280822 14.612245 33.520441 14.834997 33.668229 15.06368 L 35.601444 15.110705 C 35.546704 15.076105 35.513099 15.044181 35.556485 15.050244 C 35.691959 15.069173 35.826987 15.093124 35.961629 15.11949 L 63.91186 15.800586 C 64.006924 15.736871 64.102314 15.65506 64.195564 15.564941 C 65.008335 15.543211 65.82069 15.521766 66.617638 15.373738 C 66.781128 15.34337 66.935442 15.284892 67.086343 15.216125 L 38.722184 14.524695 C 38.521228 14.555848 38.320869 14.588932 38.121187 14.629081 C 37.912679 14.671004 37.704643 14.723342 37.497969 14.78101 C 37.381896 14.771754 37.266196 14.758 37.150186 14.747937 C 37.193268 14.665045 37.231957 14.579963 37.262841 14.490588 C 37.262959 14.490248 37.262724 14.489895 37.262841 14.489555 L 35.947159 14.456998 C 36.09221 14.528409 36.217016 14.599343 36.310961 14.668355 C 35.701874 14.60467 35.093518 14.532309 34.486783 14.442529 C 34.46802 14.435725 34.449214 14.429206 34.430456 14.422375 C 34.427821 14.42719 34.425332 14.432022 34.422704 14.436845 C 34.094867 14.414802 33.339948 14.584593 33.384525 14.394987 L 33.079634 14.387235 z M 34.430456 14.422375 C 34.430827 14.421698 34.431119 14.420985 34.431489 14.420308 L 34.424255 14.420308 C 34.426302 14.421054 34.428409 14.42163 34.430456 14.422375 z M 4.2395344 14.90555 L 4.1863077 17.099731 C 4.4180031 16.904564 4.6436678 16.702882 4.8627522 16.493567 L 4.9009927 14.924153 C 4.6801372 14.917916 4.4561899 14.9115 4.2395344 14.90555 z M 67.213467 15.219226 C 66.743304 15.412798 66.1476 15.637378 65.604263 15.841927 L 73.615143 16.036747 C 73.593434 15.909299 73.573344 15.782504 73.578453 15.667777 C 73.417204 15.736648 73.255621 15.804679 73.094762 15.874483 C 73.066554 15.873528 73.039116 15.869236 73.010012 15.872933 C 72.854463 15.89269 72.704122 15.932435 72.556293 15.979903 C 72.577396 15.852351 72.576981 15.719846 72.550609 15.582511 C 72.705927 15.509516 72.890435 15.42406 73.023448 15.360302 L 69.583348 15.276587 C 69.577411 15.367906 69.571652 15.45948 69.565778 15.550988 C 69.406776 15.556088 69.242221 15.569523 69.126529 15.571142 C 68.98308 15.57315 68.784377 15.585646 68.585993 15.598014 C 68.692802 15.49629 68.793987 15.386188 68.90432 15.289506 C 68.882418 15.279945 68.860993 15.268512 68.839208 15.2585 L 67.213467 15.219226 z M 75.250186 15.414563 C 75.267767 16.874206 75.26412 18.335505 75.238817 19.793107 C 75.127603 20.04918 75.012421 20.303396 74.898786 20.558435 L 74.808869 24.265702 C 74.902484 24.205705 74.994147 24.147711 75.090506 24.082767 C 75.080029 24.279589 75.072597 24.477603 75.06105 24.673946 C 75.034662 25.122657 74.998766 25.570462 74.958214 26.01805 C 74.894262 26.013512 74.83042 26.008982 74.766494 26.004614 L 74.550487 34.857303 C 74.775109 34.845838 74.997484 34.833503 75.212979 34.816996 L 75.685818 15.425415 L 75.250186 15.414563 z M 4.1775227 17.449064 L 3.9630655 26.25111 C 3.9731276 26.252242 3.9788672 26.253082 3.9889037 26.254211 C 3.9831377 26.288348 3.976536 26.333921 3.970817 26.365832 C 3.9673703 26.365723 3.9639285 26.365425 3.9604817 26.365315 L 3.7413736 35.339961 C 3.7670459 35.354969 3.790101 35.370047 3.8178547 35.38492 C 3.822097 35.387193 3.8256157 35.385841 3.8297403 35.387503 C 3.7589279 35.929844 3.7680564 36.4776 3.8705647 37.007043 C 3.8135811 37.017748 3.7568884 37.030891 3.7000325 37.043216 L 3.6891804 37.491251 L 5.064807 37.524841 C 5.0645987 37.524319 5.0644984 37.523812 5.0642903 37.52329 C 5.1329513 37.488091 5.207856 37.448466 5.2735798 37.41477 C 5.3199784 37.455198 5.3659634 37.494687 5.4125894 37.533109 L 7.2460692 37.578067 C 7.2192896 37.562608 7.1920933 37.547757 7.165454 37.532075 C 7.2334499 37.332814 7.2872112 37.127378 7.329785 36.918159 L 6.3339802 36.893871 C 6.3270761 36.922043 6.3213123 36.950687 6.3138264 36.978621 C 6.2769683 36.952135 6.2456648 36.93133 6.2073729 36.902656 C 6.2133859 36.898933 6.2194586 36.89503 6.2254597 36.891288 L 4.3666584 36.845812 L 4.5098022 30.980021 C 4.4370695 30.965656 4.3665163 30.952484 4.295345 30.939196 C 4.2900582 30.707991 4.2857736 30.476258 4.2788085 30.245698 C 4.270995 29.987066 4.3020627 29.719469 4.3046467 29.457633 C 4.3831944 29.470904 4.4646529 29.484411 4.5454589 29.497941 L 4.8374307 17.533813 C 4.6174545 17.505616 4.3974971 17.477265 4.1775227 17.449064 z M 9.8164549 18.185453 L 8.8971312 19.059301 L 7.8036579 20.097481 L 7.7499144 22.305615 C 7.8406907 22.306357 7.931473 22.307447 8.0222492 22.308199 L 8.0744424 20.172412 L 9.1022866 19.234484 L 10.129614 18.296557 L 10.753349 18.311543 C 10.441142 18.269057 10.128754 18.227259 9.8164549 18.185453 z M 10.152352 18.569409 L 9.2015054 19.47788 L 8.250659 20.386869 L 8.2041502 22.309749 C 9.3280912 22.319133 10.452121 22.331678 11.576037 22.343339 C 11.701129 22.268522 11.815999 22.19806 11.974463 22.108211 C 12.094621 22.040091 12.052587 22.019209 11.780676 22.012609 C 11.336375 22.001783 11.325537 21.812603 11.753288 21.539253 C 11.935688 21.422687 12.006189 21.337131 11.922269 21.335131 C 11.680003 21.329227 11.651681 21.14455 11.860775 20.932572 C 11.975615 20.816151 12.037872 20.670597 12.008052 20.586857 C 11.974692 20.493158 12.039376 20.390192 12.19202 20.295402 C 12.387985 20.17372 12.412428 20.11843 12.336198 19.967256 C 12.265705 19.82747 12.277422 19.761319 12.386324 19.682519 C 12.464275 19.626111 12.572369 19.46914 12.626619 19.333186 C 12.754549 19.012548 12.8718 19.022564 12.981636 19.364192 C 13.030163 19.51513 13.11764 19.639778 13.17594 19.641178 C 13.23728 19.642673 13.26021 19.719793 13.2302 19.824113 C 13.20168 19.923259 13.220091 20.00523 13.271541 20.00653 C 13.325851 20.007853 13.341135 20.116175 13.307715 20.264396 C 13.266116 20.448894 13.297149 20.562338 13.420369 20.673156 C 13.524055 20.766431 13.567103 20.884687 13.529923 20.974947 C 13.492599 21.065553 13.52636 21.157071 13.61674 21.210591 C 13.81551 21.3283 13.801686 21.652075 13.597619 21.653975 C 13.45131 21.655324 13.451586 21.663897 13.604337 21.767146 C 14.136988 22.127177 14.284774 22.395141 14.011548 22.457027 C 14.970999 22.831802 16.083442 22.847051 17.27078 22.682853 L 17.293001 21.762496 L 17.321423 20.607527 L 16.416052 19.65358 L 15.720487 18.920809 C 15.700086 18.919846 15.659507 18.918142 15.639355 18.917191 C 14.900415 18.806636 14.154638 18.729119 13.409517 18.648474 L 12.831258 18.634521 L 10.152352 18.569409 z M 16.043465 18.936311 L 16.521472 19.413802 L 17.507975 20.399271 L 17.473868 21.796602 L 17.452681 22.654431 C 17.543869 22.640548 17.634584 22.627839 17.726566 22.612056 L 17.743619 21.906673 L 17.78186 20.340877 L 16.74058 19.250504 L 16.458943 18.955432 C 16.343293 18.949978 16.152925 18.941475 16.043465 18.936311 z M 12.733073 19.550744 C 12.715045 19.550428 12.709727 19.593708 12.700517 19.680452 C 12.690255 19.7771 12.685998 19.925448 12.690698 20.010148 C 12.695464 20.094848 12.596574 20.241334 12.471073 20.335192 C 12.243767 20.505195 12.24354 20.505885 12.436967 20.561535 C 12.600927 20.608709 12.612845 20.638951 12.511381 20.755322 C 12.445294 20.831115 12.339905 20.891697 12.277287 20.890197 C 12.214671 20.888672 12.115358 20.942737 12.056628 21.010087 C 11.97274 21.106299 11.988952 21.143573 12.132076 21.184753 C 12.401873 21.262375 12.349541 21.419179 11.986865 21.621419 C 11.583407 21.8464 11.579802 21.895362 11.971362 21.831742 C 12.290335 21.779911 12.426261 21.874158 12.337231 22.08599 C 12.317606 22.132691 12.179745 22.236716 12.000301 22.347473 C 12.438497 22.352173 12.876759 22.355156 13.314949 22.360392 C 13.355302 22.309957 13.457474 22.276567 13.627592 22.265824 L 13.968656 22.24412 L 13.636893 22.063769 C 13.248643 21.853065 13.142281 21.640566 13.352156 21.494812 C 13.485642 21.402107 13.479776 21.375468 13.295312 21.236946 C 13.101723 21.09157 13.099279 21.075488 13.252938 20.966162 C 13.405788 20.85741 13.401828 20.840157 13.191443 20.69486 C 12.959661 20.53479 12.88979 20.269514 13.080855 20.274214 C 13.140281 20.275662 13.115393 20.220218 13.025045 20.150708 C 12.934695 20.081201 12.88469 19.987818 12.91394 19.942968 C 12.9432 19.898118 12.911203 19.781046 12.843143 19.683036 C 12.782053 19.595057 12.751101 19.551061 12.733073 19.550744 z M 11.000362 20.767724 C 10.994519 20.833276 10.997205 20.895592 11.009147 20.954793 C 10.572872 20.924068 10.134885 20.892513 9.6991494 20.861775 C 10.133027 20.832126 10.566891 20.802946 11.000362 20.767724 z M 51.417532 21.400761 C 51.197653 21.397639 50.992289 21.415632 50.797932 21.45037 C 51.274254 21.467386 51.750478 21.484654 52.226785 21.502046 C 52.066066 21.462461 51.899781 21.432352 51.737926 21.417814 C 51.628079 21.407945 51.521459 21.402235 51.417532 21.400761 z M 24.620719 21.696866 C 23.417518 21.693295 23.056042 21.829609 22.486482 22.358842 C 22.337799 22.496998 22.221061 22.625124 22.125781 22.7552 C 22.368073 22.774281 22.69563 22.800454 22.94847 22.820312 C 23.080851 22.867968 23.213323 22.915865 23.345345 22.964489 C 23.694225 22.490078 24.491856 22.307084 25.440824 22.495784 C 25.851392 22.577425 26.138592 22.718446 26.322941 22.928833 C 26.316037 22.872466 26.309165 22.816361 26.30382 22.762434 C 26.529149 22.764271 26.754416 22.767174 26.979748 22.768119 L 27.001452 21.887552 L 26.753922 21.814172 C 26.617631 21.773758 25.914066 21.725088 25.19071 21.706168 C 24.981405 21.700692 24.792605 21.697377 24.620719 21.696866 z M 71.146044 21.934061 C 71.047371 21.948765 70.948616 21.96332 70.849938 21.977986 C 70.840767 21.976926 70.830564 21.974818 70.821516 21.973852 C 70.652219 22.004637 70.452273 22.037162 70.222069 22.06997 C 70.221669 22.070427 70.220915 22.070543 70.220519 22.071004 C 70.216036 22.071662 70.211565 22.072412 70.207083 22.073071 C 70.207098 22.072728 70.207067 22.07238 70.207083 22.072037 C 69.781996 22.132349 69.35808 22.181858 69.201459 22.183142 C 69.200949 22.194415 69.200419 22.20546 69.199909 22.216731 C 69.120898 22.227929 69.041743 22.237702 68.962714 22.248771 C 68.876166 22.338943 68.964976 22.498306 69.212312 22.532991 C 69.660871 22.595904 69.726866 22.832122 69.692386 24.247098 L 69.66138 25.528674 L 69.068651 25.512137 C 69.065506 25.600883 69.062929 25.68875 69.059866 25.777237 C 68.10617 25.758775 67.332938 25.744821 66.841914 25.727628 C 65.991072 26.080953 65.423554 26.628861 65.10972 27.416931 C 65.487975 27.425902 66.31023 27.445491 66.590766 27.452071 C 66.706823 27.118392 66.856063 26.842798 67.025882 26.690877 C 67.353704 26.397604 67.868926 26.245219 68.379804 26.254728 C 68.686332 26.260433 68.991337 26.324484 69.253136 26.451098 L 69.634508 26.635583 L 69.579214 28.904178 C 69.524703 31.141366 69.521069 31.174661 69.323933 31.274059 C 69.049108 31.41264 68.087448 31.432039 67.708527 31.306616 C 66.996581 31.070954 66.555033 30.475245 66.386644 29.524296 C 66.322007 29.159268 66.329345 28.726446 66.388711 28.305765 C 66.253977 28.314336 66.11934 28.322809 65.984602 28.331087 C 65.983392 28.330761 65.982194 28.330379 65.980984 28.330053 C 65.392197 28.171535 65.201998 28.121394 65.013601 28.06392 C 64.981906 28.063814 64.950212 28.064031 64.918517 28.06392 C 64.855774 28.370135 64.819614 28.703288 64.81103 29.067993 C 64.790997 29.919547 64.813747 30.078628 65.028588 30.570743 C 65.275574 31.136492 65.612731 31.553874 66.065734 31.858003 C 66.702257 31.890591 67.335146 31.923758 67.968977 31.957739 C 67.960188 32.025176 67.949821 32.095493 67.939521 32.166511 C 67.024707 32.1502 67.311279 32.155201 66.602135 32.14274 C 66.659587 32.166525 66.715356 32.191558 66.775768 32.21302 C 66.899493 32.25701 67.347679 32.28915 67.772089 32.28485 C 68.397786 32.278472 68.635316 32.232773 69.026276 32.044038 L 69.508417 31.811494 L 69.501183 32.096748 C 69.494542 32.369286 69.507943 32.380317 69.790571 32.336527 C 70.490196 32.228124 70.873407 32.176286 71.148111 32.153076 C 71.153342 32.148134 71.158374 32.143023 71.163614 32.138089 C 71.194137 32.139879 71.225086 32.141463 71.255598 32.143257 C 71.35479 32.137003 71.440469 32.134725 71.519664 32.136539 C 71.792483 32.142766 71.861046 32.110129 71.864346 31.972725 C 71.867364 31.848861 71.780947 31.782976 71.553254 31.734496 C 71.3659 31.694603 71.1942 31.584982 71.12899 31.464229 C 71.04458 31.307993 71.045621 30.18071 71.133641 26.568404 C 71.145542 26.079995 71.151449 25.783957 71.160513 25.391215 C 71.154578 25.395149 71.148358 25.398642 71.142426 25.402583 C 70.88648 25.572653 70.721982 25.686329 70.534711 25.813928 C 70.377788 25.809702 70.210652 25.804142 70.059288 25.800492 C 70.090527 24.898468 70.126195 23.987424 70.165742 23.065258 C 70.335648 23.040542 70.470971 23.021778 70.628246 22.998596 C 70.62731 23.034568 70.626895 23.070576 70.633413 23.106083 C 70.660259 23.252311 70.782569 23.245246 70.954324 23.16086 C 71.035951 23.184144 71.11822 23.199722 71.201337 23.209436 C 71.209183 22.361845 71.194096 21.998757 71.146044 21.934061 z M 65.013601 28.06392 C 65.245634 28.064691 65.477649 28.063946 65.709683 28.064436 C 65.449073 28.050711 65.188578 28.034004 64.927819 28.023612 C 64.926698 28.028829 64.925305 28.033881 64.924201 28.039115 C 64.941328 28.044518 64.996116 28.058585 65.013601 28.06392 z M 65.709683 28.064436 C 65.934627 28.076283 66.159897 28.08314 66.384577 28.09906 C 66.402113 28.100302 66.408165 28.100936 66.425402 28.10216 C 66.427714 28.089584 66.429715 28.076963 66.43212 28.064436 C 66.1913 28.06419 65.950502 28.064945 65.709683 28.064436 z M 49.355126 22.29993 C 49.123666 22.595166 48.967639 22.954889 48.8642 23.450765 C 48.949731 23.461357 49.086437 23.476285 49.166507 23.486421 C 49.51583 23.530642 49.864373 23.580862 50.213472 23.626981 C 50.259807 23.089132 50.347791 22.702923 50.474438 22.478214 C 50.09819 22.412879 49.722576 22.352028 49.355126 22.29993 z M 7.7421629 22.615673 L 7.7349282 22.91643 L 7.6667153 25.73538 L 8.5834552 26.682609 C 9.480529 27.609455 9.5090712 27.629606 9.921358 27.639656 C 10.197239 27.646378 10.342416 27.689421 10.341487 27.763679 C 10.340704 27.826059 10.393913 27.77627 10.460343 27.653092 C 10.483128 27.610845 10.496054 27.582986 10.507886 27.554907 C 10.366473 27.54109 10.224982 27.529468 10.083622 27.514599 C 10.229179 27.519231 10.374732 27.523895 10.520288 27.528552 C 10.552969 27.428669 10.470724 27.419875 10.12548 27.391092 C 9.6815085 27.354077 9.6462341 27.329267 8.8061807 26.453165 L 7.9431843 25.552962 L 8.0088133 22.862687 L 8.0144977 22.624458 C 7.9237374 22.621594 7.8329226 22.618557 7.7421629 22.615673 z M 8.195882 22.63066 L 8.1901976 22.874572 L 8.1292194 25.362276 L 8.9028156 26.213903 L 9.6764118 27.065014 L 10.446907 27.09447 C 11.262501 27.125658 11.608356 27.034961 11.360547 26.854691 C 11.286974 26.801121 11.097108 26.773113 10.938867 26.792163 C 10.780626 26.811173 10.630467 26.80491 10.605037 26.77821 C 10.482238 26.649277 10.825085 26.261769 11.306803 25.984977 C 11.844915 25.675784 12.026833 25.455046 11.64115 25.579317 C 11.527945 25.615787 11.384446 25.636646 11.322306 25.625826 C 11.260171 25.615036 11.148432 25.599719 11.073742 25.591719 C 10.830285 25.565445 10.936507 25.316602 11.2882 25.089941 C 11.611561 24.881536 11.618888 24.867765 11.404988 24.862565 C 11.279788 24.859514 11.074831 24.924605 10.949719 25.007775 C 10.534715 25.283625 10.465803 25.237813 10.527523 24.726656 C 10.575092 24.332664 10.633315 24.223407 10.91768 23.993884 C 11.826983 23.259938 11.859865 23.22829 11.674739 23.26938 C 11.574358 23.29166 11.308442 23.318121 11.083561 23.328291 C 10.700411 23.345604 10.674768 23.332537 10.679968 23.120035 C 10.682635 23.010601 10.768641 22.891751 10.981242 22.728328 C 10.052995 22.68967 9.1244857 22.65994 8.195882 22.63066 z M 12.06438 22.709208 C 11.766566 22.714461 11.531549 22.722018 11.335225 22.726778 C 11.191684 22.812823 11.067677 22.892082 11.001912 22.942268 L 10.770919 23.118485 L 11.135754 23.129337 C 11.336654 23.135343 11.589113 23.081831 11.696443 23.010481 C 11.868512 22.896074 11.904137 22.896711 11.999267 23.017199 C 12.150361 23.208556 11.919051 23.52252 11.329541 23.924637 C 10.892206 24.222954 10.691702 24.49778 10.684102 24.810371 C 10.681223 24.928535 10.706581 24.928362 10.88564 24.809338 C 10.99841 24.734375 11.186802 24.675797 11.303703 24.678597 C 11.420603 24.681447 11.600495 24.641226 11.703678 24.589196 C 11.80686 24.537176 11.922737 24.52967 11.961027 24.57266 C 12.091656 24.719321 11.867978 25.045802 11.51816 25.219649 C 11.223564 25.366047 11.202016 25.394367 11.37915 25.402067 C 11.494626 25.407087 11.674425 25.368307 11.778609 25.315767 C 11.920356 25.244297 11.984454 25.248663 12.033374 25.332303 C 12.164044 25.555725 11.990659 25.784871 11.413773 26.152408 L 10.825179 26.527062 L 11.163143 26.593725 C 11.349035 26.630295 11.53255 26.642407 11.57087 26.620597 C 11.68564 26.555269 11.745581 26.844913 11.650451 27.005586 C 11.601847 27.087678 11.361942 27.2579 11.117667 27.383858 C 11.023036 27.432655 10.937489 27.486386 10.861869 27.539404 C 11.875587 27.571937 12.889299 27.603843 13.903027 27.636039 C 13.601889 27.519803 13.447666 27.227325 13.611572 27.071215 C 13.680573 27.005505 13.743769 27.00711 13.824479 27.0769 C 13.944378 27.18057 14.525995 27.314764 14.527795 27.239164 C 14.531863 27.072174 14.282775 26.796317 13.884424 26.527062 C 13.627997 26.35374 13.36517 26.144505 13.30048 26.061975 C 13.124087 25.836913 13.251665 25.72496 13.570231 25.82478 C 13.721018 25.87208 13.934033 25.87987 14.043587 25.84235 L 14.242541 25.774137 L 14.041003 25.70489 C 13.760261 25.6082 13.307015 25.191656 13.310815 25.03413 C 13.316327 24.807946 13.562855 24.801724 14.090613 25.013977 C 14.371291 25.126864 14.610109 25.207771 14.621329 25.193811 C 14.632549 25.179848 14.609843 25.038684 14.571203 24.880651 C 14.52141 24.677038 14.370494 24.505246 14.052372 24.28999 C 13.562579 23.958576 13.343789 23.690658 13.350089 23.431127 C 13.353129 23.306337 13.39869 23.279474 13.529923 23.324674 C 13.626716 23.35801 13.913293 23.422978 14.166577 23.469368 L 14.627014 23.554117 L 14.379484 23.279716 C 14.243291 23.129032 13.940166 22.902555 13.70614 22.77587 C 13.697169 22.771014 13.691048 22.766724 13.682369 22.761918 C 13.111835 22.705405 12.539101 22.700834 12.06438 22.709208 z M 75.153551 22.812044 C 75.152266 22.842809 75.150209 22.873272 75.1489 22.904028 C 75.124993 22.908617 75.003416 22.928752 75.001105 22.929866 C 74.961652 22.948879 74.923607 22.970119 74.884833 22.990328 C 74.909652 22.937348 74.933966 22.884169 74.958731 22.831164 C 75.023675 22.824765 75.088607 22.818453 75.153551 22.812044 z M 52.349258 22.876123 C 52.378123 22.97085 52.432631 23.048274 52.472248 23.049239 C 52.498315 23.049874 52.548633 23.00454 52.606607 22.941752 C 52.522788 22.918637 52.434796 22.898247 52.349258 22.876123 z M 22.032246 22.892659 C 21.996459 22.952842 21.964832 23.014277 21.937679 23.078177 C 22.050887 23.144317 22.166642 23.201355 22.282877 23.259562 C 22.168184 23.256179 21.991826 23.25105 21.878251 23.247676 C 21.814594 23.460481 21.784857 23.704709 21.776965 24.015588 C 21.749186 25.10918 22.073366 25.596566 23.504508 26.613879 C 25.298052 27.888806 25.488639 28.113445 25.468729 28.930533 C 25.454272 29.523875 25.257119 29.925276 24.859464 30.152681 C 24.985042 30.141717 25.110606 30.130556 25.236185 30.119608 C 25.152162 30.164795 25.085208 30.204071 25.011393 30.245698 C 24.91904 30.235783 24.826773 30.225521 24.734407 30.215726 C 24.459252 30.336629 24.104637 30.390087 23.663671 30.378507 C 22.493786 30.347813 21.814845 29.896016 21.832775 29.159977 C 21.83736 28.971809 21.794373 28.927382 21.603849 28.922782 C 21.384961 28.917449 21.372736 28.939593 21.411096 29.258679 C 21.433716 29.446421 21.446751 29.872464 21.440551 30.205391 L 21.429183 30.810522 L 21.737174 30.920593 C 21.906579 30.981115 22.302583 31.07038 22.617224 31.11903 C 23.846345 31.309075 24.727668 31.22505 25.563814 30.838427 C 25.941841 30.663633 26.23593 30.440385 26.453682 30.161983 C 26.11011 30.114144 25.877136 29.959211 25.782405 29.670023 C 25.922472 29.639352 26.061114 29.60199 26.195817 29.548583 C 26.258196 29.523851 26.297124 29.468045 26.320874 29.399239 C 26.480579 29.403491 26.657252 29.406551 26.823168 29.410607 C 26.88591 29.179938 26.920704 28.925396 26.927555 28.644246 C 26.929248 28.574754 26.929355 28.508054 26.928072 28.442708 C 26.806712 28.43971 26.675772 28.437559 26.557552 28.43444 C 26.382247 28.360807 26.20291 28.282672 26.010815 28.191044 C 26.027527 28.148853 26.048324 28.102491 26.066625 28.058752 C 26.344945 28.071832 26.623369 28.081399 26.901717 28.093892 C 26.788426 27.245558 26.277756 26.698619 24.82019 25.689904 C 23.389978 24.700119 23.128027 24.3987 23.145357 23.76134 C 23.149911 23.593887 23.176926 23.410578 23.212019 23.26628 C 22.818591 23.151774 22.425399 23.025608 22.032246 22.892659 z M 26.429394 23.07611 C 26.481881 23.167322 26.51872 23.270142 26.543082 23.383068 C 26.639328 23.385822 26.713004 23.388006 26.811283 23.39082 C 26.859417 23.396344 26.9078 23.402111 26.955977 23.407356 C 26.960933 23.333044 26.965292 23.226573 26.968896 23.119519 C 26.78513 23.104429 26.611058 23.090913 26.429394 23.07611 z M 17.441829 23.102982 L 17.439762 23.193933 L 16.033646 23.159826 C 15.26037 23.140986 14.628393 23.156473 14.629081 23.193933 C 14.631224 23.312813 14.887764 23.625177 14.890564 23.512259 C 14.892487 23.433271 15.272029 23.413849 16.299263 23.438879 L 17.705379 23.472985 L 17.714164 23.112284 C 17.633413 23.109633 17.52363 23.105686 17.441829 23.102982 z M 29.928922 23.230623 C 29.954128 23.279478 29.978936 23.328742 30.003336 23.379451 C 30.011062 23.380076 30.018349 23.380893 30.026074 23.381518 C 30.010635 23.283337 29.981354 23.2413 29.928922 23.230623 z M 30.003336 23.379451 C 29.89472 23.370659 29.792249 23.361875 29.683459 23.353096 C 29.627048 23.41116 29.569458 23.482874 29.517578 23.570137 C 29.460823 23.665596 29.390586 23.765003 29.315523 23.864693 C 29.370445 23.973131 29.427969 24.072398 29.486572 24.16545 C 29.666037 24.179034 29.846398 24.190395 30.025557 24.204724 C 30.027214 24.204856 30.029065 24.204594 30.030725 24.204724 L 30.036926 23.955127 C 30.043941 23.667221 30.042466 23.502608 30.027624 23.395988 C 30.022123 23.395373 30.016588 23.395051 30.011087 23.394437 C 30.008622 23.389277 30.00581 23.384592 30.003336 23.379451 z M 29.486572 24.16545 C 29.355806 24.155552 29.224749 24.146546 29.093831 24.137028 C 28.976001 24.270915 28.850256 24.399162 28.721761 24.517883 C 29.078634 24.533335 29.428854 24.542871 29.773376 24.543204 C 29.673951 24.433236 29.577704 24.310152 29.486572 24.16545 z M 29.773376 24.543204 C 29.889673 24.671834 30.010111 24.782153 30.136661 24.867732 C 30.816215 24.885427 31.590888 24.902338 32.282783 24.916825 L 32.286918 24.735957 L 31.153137 24.708052 L 30.019356 24.680664 L 30.022973 24.541137 C 29.940196 24.541742 29.856076 24.543284 29.773376 24.543204 z M 30.136661 24.867732 C 29.579898 24.853235 28.951477 24.831174 28.365193 24.812955 C 28.260398 24.889423 28.158574 24.956861 28.065987 25.003125 C 27.525271 25.273307 27.51676 25.436272 28.042732 25.449092 L 28.443741 25.458911 L 28.438057 25.963789 C 29.044585 25.952263 29.537628 25.936872 29.990417 25.920898 L 29.999719 25.497151 L 31.1335 25.52454 L 32.26728 25.552445 L 32.277099 25.144201 L 32.28175 24.943697 C 32.14503 24.991503 32.010646 25.031243 31.877123 25.065136 C 31.528343 24.987187 31.177076 24.925689 30.958316 24.912174 C 30.690205 24.89561 30.422027 24.885751 30.153714 24.880135 C 30.147964 24.876343 30.142392 24.871607 30.136661 24.867732 z M 13.593485 23.574788 C 13.516694 23.574148 13.611806 23.707764 13.887524 23.917919 C 14.235381 24.183069 14.324148 24.207414 14.998567 24.223844 L 15.731856 24.241931 L 16.551961 25.099243 L 17.372583 25.957071 L 17.328658 27.749727 C 17.41943 27.752926 17.51022 27.755827 17.600993 27.759029 L 17.646985 25.873356 L 16.737996 24.922509 L 15.829524 23.971663 L 15.025439 23.952026 C 14.365184 23.935938 14.166361 23.897097 13.915429 23.733435 C 13.747491 23.623901 13.63956 23.575172 13.593485 23.574788 z M 48.72519 24.488427 L 48.658528 25.179858 L 48.222379 25.396382 C 47.615659 25.697281 47.61961 25.926142 48.23168 25.941052 L 48.685399 25.952421 L 48.659044 27.021089 C 49.245846 27.035283 49.481689 27.040984 50.112186 27.056229 L 50.136474 25.987561 L 50.907486 26.006164 L 51.678498 26.025284 L 51.688317 25.617041 L 51.698135 25.208797 L 50.927123 25.190193 L 50.156111 25.171073 L 50.166446 24.743709 C 49.729618 24.701944 49.292736 24.660135 48.855932 24.618135 C 48.836522 24.583013 48.811597 24.549567 48.772216 24.51995 C 48.756978 24.50849 48.74062 24.499463 48.72519 24.488427 z M 15.016654 24.497729 C 14.725275 24.496623 14.683672 24.527151 14.716414 24.648107 C 14.863299 25.190666 14.863004 25.309009 14.714864 25.361759 C 14.631693 25.391372 14.334813 25.32487 14.054956 25.213964 C 13.7751 25.103059 13.53058 25.027666 13.51132 25.046016 C 13.492061 25.06436 13.700675 25.230548 13.974857 25.415502 C 14.305138 25.638299 14.471784 25.812611 14.468884 25.93175 C 14.465034 26.089828 14.409633 26.107511 14.011548 26.080061 C 13.762374 26.062911 13.558031 26.055742 13.557829 26.064042 C 13.557626 26.072364 13.756871 26.208343 14.000179 26.366349 C 14.481828 26.679135 14.697293 26.957911 14.727783 27.306343 C 14.743501 27.485945 14.711259 27.523859 14.566552 27.497029 C 13.792617 27.353535 13.815433 27.349285 14.202234 27.568343 C 14.251769 27.596396 14.286317 27.622508 14.328841 27.649475 C 14.854226 27.666043 15.37957 27.683666 15.904972 27.699601 C 16.319233 27.714136 16.733531 27.728415 17.14779 27.743009 L 17.186548 26.141556 L 16.413985 25.326619 L 15.641939 24.511682 L 15.157214 24.499796 C 15.104882 24.498521 15.05828 24.497887 15.016654 24.497729 z M 35.744071 24.651208 C 35.685839 24.650409 35.627631 24.65206 35.569404 24.654309 C 36.000279 24.774267 36.40929 24.84704 36.781734 24.842411 C 36.469009 24.722202 36.109085 24.656215 35.744071 24.651208 z M 34.602538 24.850679 C 34.522935 24.882771 34.446777 24.919128 34.373612 24.9592 C 34.515365 24.961767 34.625478 24.964871 34.771004 24.967468 C 34.713938 24.92736 34.659779 24.891028 34.602538 24.850679 z M 34.771004 24.967468 C 35.072407 25.179308 35.367383 25.382183 35.661388 25.583451 C 35.74226 25.614527 35.816088 25.654088 35.87998 25.70334 C 35.970291 25.772958 36.050736 25.860101 36.120792 25.957071 C 36.147424 25.957506 36.184445 25.958185 36.211226 25.958622 C 36.379313 26.070597 36.546901 26.181564 36.71042 26.286767 C 36.64789 26.311864 36.584998 26.336947 36.521801 26.362731 C 36.456349 26.361343 36.390891 26.361199 36.325431 26.360148 C 36.380415 26.528399 36.405117 26.703789 36.389509 26.868644 L 36.35592 27.221594 L 35.212837 27.57351 C 34.584142 27.767066 33.945903 27.987319 33.794319 28.062369 C 33.110034 28.401165 32.759319 29.06538 32.824869 29.89895 C 32.829548 29.958437 32.841001 30.013821 32.850191 30.070515 C 33.050569 30.078849 33.260082 30.087148 33.457905 30.09532 C 33.205091 30.197989 33.006941 30.307482 32.933906 30.41003 C 32.962856 30.489579 32.996801 30.56566 33.036226 30.637406 C 33.036908 30.637718 33.037089 30.638128 33.037776 30.638439 C 34.128188 31.132556 35.390155 30.896591 36.615335 30.808455 C 37.309357 30.836005 38.005629 30.83476 38.702546 30.828092 C 38.737185 30.76253 38.72504 30.714845 38.679809 30.65756 C 38.598972 30.55518 38.526584 30.54268 38.397139 30.60795 C 38.194015 30.710374 37.914889 30.586327 37.833349 30.35732 C 37.804549 30.27627 37.801364 29.304795 37.826114 28.198795 C 37.873 26.104219 37.824423 25.702818 37.477815 25.300264 C 37.382263 25.189288 37.261996 25.093134 37.125899 25.009842 C 36.365806 24.996548 35.430968 24.979242 34.771004 24.967468 z M 43.345674 24.88892 C 43.003768 24.902093 42.814573 24.963087 42.451155 25.132316 L 41.891499 25.392765 L 41.898217 25.135933 C 41.899107 25.099413 41.898511 25.067382 41.89615 25.039298 C 41.61183 25.047393 41.327765 25.052776 41.043489 25.058418 C 40.807289 25.104459 40.497269 25.146244 40.231135 25.163838 C 39.636475 25.203147 39.53597 25.234289 39.53247 25.378812 C 39.529604 25.496425 39.593964 25.549262 39.74486 25.552962 C 39.864055 25.555866 40.056258 25.63862 40.171707 25.73693 L 40.381514 25.91573 L 40.324153 28.275276 C 40.269178 30.531538 40.257631 30.645753 40.069388 30.885453 C 39.961112 31.023328 39.74334 31.169794 39.58518 31.211014 C 39.427021 31.252232 39.296258 31.337747 39.294758 31.400667 C 39.294623 31.406228 39.30094 31.411009 39.30406 31.41617 C 39.343332 31.434256 39.382705 31.451895 39.421366 31.467329 C 39.51228 31.486981 39.686799 31.502371 39.908158 31.515905 C 41.398504 31.453961 42.17174 31.420225 42.606701 31.402217 C 42.560845 31.357311 42.484485 31.314649 42.39276 31.292146 C 42.249042 31.256889 42.05798 31.142765 41.96798 31.038415 C 41.818696 30.865312 41.807052 30.635042 41.836722 28.412735 L 41.853775 27.121858 C 41.534759 27.10209 41.215742 27.082238 40.896728 27.06243 C 40.911503 26.98483 40.915505 26.913028 40.897761 26.852107 C 40.906113 26.846257 40.915529 26.84107 40.923599 26.835054 C 41.019702 26.83738 41.715621 26.853842 41.857393 26.857275 L 41.869278 25.976708 L 42.261502 25.875423 C 42.477296 25.819553 42.89047 25.78019 43.179792 25.78809 C 43.778928 25.804297 44.07744 25.982227 44.360599 26.491923 C 44.426242 26.610084 44.465362 26.717467 44.486689 26.920837 C 44.888571 26.930566 45.486168 26.944788 45.969803 26.956494 C 45.950641 26.423919 45.908428 26.218707 45.808056 26.01805 C 45.412218 25.226723 44.845829 24.916026 43.750817 24.889436 C 43.590712 24.885551 43.459642 24.884529 43.345674 24.88892 z M 41.725618 24.889436 C 41.71359 24.890319 41.696897 24.894181 41.683243 24.896154 C 41.73457 24.901189 41.785912 24.906107 41.837239 24.91114 C 41.811025 24.894079 41.776813 24.885681 41.725618 24.889436 z M 54.840062 25.19071 C 54.620684 25.213512 54.420402 25.250148 54.259219 25.301814 C 53.666314 25.491867 52.884426 26.151598 52.58697 26.712581 C 52.536547 26.807675 52.477935 26.953059 52.420055 27.111523 C 53.104554 27.12806 53.196882 27.129835 53.893867 27.146663 C 54.009037 26.803037 54.183198 26.539802 54.43802 26.297102 C 54.739606 26.009895 54.895805 25.914952 55.246239 25.912113 C 55.363051 25.911167 55.50156 25.920446 55.67412 25.936401 C 56.263123 25.990863 56.699122 26.442131 56.937092 27.220043 C 57.686262 27.238099 57.837928 27.241553 58.554564 27.258801 C 58.521626 27.161821 58.480587 27.060299 58.42589 26.933756 C 58.119011 26.223788 57.500903 25.610913 56.842524 25.363826 C 56.738092 25.324626 56.612124 25.293036 56.478722 25.265124 C 56.384292 25.282315 56.297461 25.296184 56.199669 25.314733 C 56.163378 25.31338 56.122776 25.311948 56.086498 25.310599 C 55.670975 25.270815 55.255601 25.230337 54.840062 25.19071 z M 61.050536 25.503869 C 60.736582 25.559852 60.33109 25.617989 60.060416 25.640812 C 59.584109 25.680979 59.491341 25.716919 59.487841 25.86147 C 59.484883 25.982878 59.547712 26.035537 59.700231 26.039237 C 59.819426 26.042142 60.011625 26.124915 60.127078 26.223205 L 60.336884 26.402006 L 60.31518 27.301175 C 60.928055 27.315897 61.256709 27.324036 61.812247 27.337349 L 61.822582 26.553934 L 62.168814 26.470218 C 62.629082 26.359449 63.146502 26.497772 63.462792 26.815934 C 63.790415 27.14549 63.938804 27.080422 64.258092 26.467635 C 64.510199 25.983777 64.517734 25.791779 64.214684 25.627893 C 63.577779 25.602756 63.109609 25.584842 62.539851 25.562264 C 62.440995 25.596216 62.345139 25.633972 62.257697 25.680086 L 61.84687 25.897127 L 61.853071 25.63151 C 61.85398 25.594169 61.850751 25.567758 61.849454 25.535392 C 61.588789 25.525064 61.29985 25.513729 61.050536 25.503869 z M 33.666161 25.629443 C 33.598497 25.731066 33.549349 25.826437 33.520434 25.909529 C 33.687226 25.912501 33.838718 25.916385 34.010327 25.919348 C 34.115757 25.810119 34.254663 25.719171 34.412886 25.65063 C 34.16394 25.642466 33.915084 25.636192 33.666161 25.629443 z M 28.435473 26.185481 L 28.43444 26.239225 C 28.522307 26.24639 28.630999 26.254579 28.722794 26.261962 C 28.673469 26.213048 28.572727 26.189727 28.435473 26.185481 z M 28.722794 26.261962 C 28.735404 26.274468 28.744526 26.288561 28.750699 26.304337 C 28.645111 26.297745 28.539512 26.29129 28.433923 26.2847 L 28.416353 27.795719 C 28.40537 28.730159 28.399995 29.282029 28.411185 29.647285 C 28.590668 29.647841 28.770171 29.648281 28.949654 29.648836 C 28.765788 29.715162 28.591575 29.772044 28.418937 29.827636 C 28.422945 29.895931 28.428822 29.953647 28.434956 30.006953 C 28.729212 29.891823 29.01414 29.773184 29.284 29.649869 C 29.511196 29.650571 29.738416 29.651235 29.965612 29.651936 C 29.928255 29.240988 29.930912 28.621795 29.95321 27.606066 L 29.980598 26.361698 C 29.514285 26.325907 29.12322 26.294168 28.722794 26.261962 z M 14.208952 26.344645 C 14.674906 26.377635 15.140763 26.413023 15.606799 26.444897 C 15.567267 26.444602 15.525959 26.44416 15.486393 26.443863 C 15.060525 26.410921 14.634654 26.379508 14.208952 26.344645 z M 44.501159 27.268103 C 44.508001 27.580286 44.502148 28.00836 44.482555 28.754317 C 44.423584 30.997513 44.387821 31.139791 43.839701 31.289562 C 43.752285 31.313448 43.674666 31.345615 43.610774 31.378963 C 43.982305 31.380116 44.750486 31.384097 46.505688 31.376896 C 45.994969 31.243109 45.976201 31.084528 45.984272 28.668017 C 45.986213 28.088306 45.985269 27.67373 45.981172 27.339416 C 45.487747 27.317137 44.994475 27.291707 44.501159 27.268103 z M 53.817386 27.331148 C 53.319855 27.345855 52.820271 27.377401 52.32187 27.401428 C 52.281068 27.531791 52.242784 27.661948 52.2149 27.780216 C 51.88984 29.158967 52.245077 30.462481 53.093916 31.250805 C 54.501185 31.313995 55.927102 31.379855 57.352054 31.444075 C 57.474163 31.346714 57.59562 31.238377 57.722057 31.106628 C 58.409131 30.390688 58.610568 29.834316 58.646548 28.554846 C 58.6531 28.322043 58.656299 28.142324 58.655333 27.990022 C 58.122402 27.980279 57.611881 27.968117 57.090054 27.957466 C 57.092808 27.979105 57.096302 27.999592 57.098839 28.021545 C 57.267664 29.482452 56.812177 30.769371 55.982112 31.175874 C 55.845687 31.24268 55.558384 31.292245 55.343908 31.285945 C 54.621054 31.264502 54.127656 30.845102 53.882498 30.069482 C 53.558321 30.065843 53.220896 30.061682 52.905297 30.058113 C 52.897871 30.04011 52.885815 30.022472 52.86964 30.005403 C 53.194287 30.013707 53.547656 30.021766 53.870613 30.030208 C 53.748033 29.622511 53.690768 29.121245 53.705248 28.52694 C 53.717265 28.03374 53.76068 27.650895 53.842707 27.331148 C 53.834248 27.331387 53.825847 27.330898 53.817386 27.331148 z M 48.951016 27.422098 C 48.864944 27.422035 48.738527 27.423143 48.649226 27.423132 L 48.627522 28.313517 C 48.561721 31.014107 48.519519 31.211315 47.971748 31.377412 C 47.914744 31.394697 47.863296 31.416742 47.816202 31.440458 C 48.519117 31.56185 49.260718 31.776125 49.744766 31.339172 C 49.816459 31.274455 49.844583 31.198695 49.843468 31.117997 C 49.957848 31.121991 50.072219 31.125904 50.1866 31.129882 C 50.069455 30.803986 50.045806 30.00693 50.086864 28.187426 L 50.103918 27.426749 C 49.717305 27.424959 49.522604 27.422518 48.951016 27.422098 z M 10.802441 27.582295 C 10.578122 27.752818 10.496102 27.897915 10.742497 27.810188 C 10.829302 27.77928 11.060723 27.732252 11.256677 27.705802 C 11.576208 27.662661 11.612794 27.677723 11.608594 27.848946 C 11.603475 28.059035 11.328747 28.26278 10.934216 28.34969 C 10.700178 28.40124 10.690175 28.419373 10.81536 28.564664 C 10.816778 28.566309 10.817584 28.567681 10.818978 28.569315 C 10.879641 28.573407 10.950932 28.575691 11.009664 28.580167 C 11.650157 28.628981 12.291201 28.671352 12.932027 28.715559 C 12.766761 29.044209 12.3235 29.48066 12.61215 29.633333 C 12.692748 29.675963 12.825402 29.719005 12.979569 29.762524 C 13.029951 29.738336 13.093288 29.749703 13.176973 29.797147 C 13.206827 29.814071 13.250018 29.829898 13.298413 29.844689 C 13.379885 29.863104 13.475297 29.881579 13.566614 29.899983 C 13.61221 29.905413 13.657826 29.909289 13.700455 29.910318 C 13.909471 29.91541 14.222198 30.027713 14.516426 30.203324 C 14.958369 30.467132 14.993534 30.474657 14.997534 30.309777 C 15.004962 30.004897 14.80731 29.657093 14.545365 29.513443 C 14.283166 29.369658 14.225092 29.126749 14.41049 28.95017 C 14.493147 28.871438 14.477902 28.832389 14.346411 28.785839 C 13.674202 28.547899 13.410662 28.311365 13.560929 28.080973 C 13.620479 27.989664 13.745464 28.002526 14.369148 28.163655 L 14.639416 28.233418 L 14.42806 27.991573 C 14.383263 27.940387 14.319842 27.886786 14.251843 27.83551 C 13.276256 27.770781 12.300905 27.705112 11.325923 27.631905 C 11.151252 27.618789 10.97698 27.598144 10.802441 27.582295 z M 14.607894 27.860314 C 14.726427 27.981315 14.779158 28.1017 14.775842 28.238586 C 14.772253 28.385872 14.719944 28.404783 14.432194 28.363643 C 14.245649 28.336968 14.02247 28.282176 13.9361 28.241686 C 13.841554 28.197368 13.77782 28.206681 13.77642 28.264941 C 13.775123 28.318166 13.936884 28.414558 14.135571 28.479398 C 14.603014 28.631959 14.743141 28.800962 14.592391 29.029752 C 14.497032 29.174476 14.514878 29.223045 14.715381 29.361515 C 14.985749 29.548237 15.186551 29.998659 15.176851 30.39711 C 15.168362 30.745492 15.018498 30.747669 14.469918 30.407962 C 14.229917 30.259345 13.852839 30.123795 13.576432 30.086535 L 13.098425 30.02194 L 13.077238 30.896822 L 13.05605 31.77222 L 13.494783 32.160827 C 13.736284 32.374743 14.027253 32.589844 14.141255 32.638834 C 14.255256 32.687826 14.531603 32.735137 14.755171 32.743737 C 15.106999 32.757288 15.206475 32.706545 15.865698 32.08693 C 15.516787 32.057686 15.167759 32.030054 14.818733 32.00218 C 14.622826 31.838743 14.402207 31.688267 14.161409 31.549495 C 14.28872 31.413624 14.38522 31.251573 14.431677 31.049784 C 14.445634 31.04863 14.459578 31.04732 14.473535 31.046166 C 14.559292 31.053417 14.645119 31.059668 14.730884 31.066837 C 15.362784 31.15997 16.073377 31.266824 16.645495 31.350541 L 17.069242 30.948498 L 17.128153 28.545027 L 17.140556 28.027229 C 16.296367 27.971113 15.452116 27.915944 14.607894 27.860314 z M 11.331091 27.868066 C 11.30593 27.871405 11.274153 27.878167 11.236006 27.88822 C 11.115109 27.92008 10.937322 27.961777 10.840682 27.981237 C 10.744035 28.000693 10.62168 28.057518 10.56938 28.107328 C 10.512562 28.161478 9.8976675 28.184008 9.0413084 28.163138 L 7.608321 28.127998 L 7.601603 28.395165 C 7.693917 28.402103 7.7817785 28.406052 7.8734211 28.412219 L 7.8734211 28.406534 L 9.1792845 28.438574 C 10.235085 28.464298 10.495035 28.445584 10.538375 28.340388 C 10.567847 28.268848 10.756656 28.17027 10.957987 28.12128 C 11.159317 28.072293 11.353782 27.986651 11.390002 27.931111 C 11.424292 27.878544 11.406575 27.858047 11.331091 27.868066 z M 60.29761 28.022062 L 60.279524 28.761551 C 60.224517 31.01912 60.213468 31.132198 60.024759 31.372761 C 59.972273 31.43967 59.896356 31.504301 59.815986 31.556213 C 60.61282 31.592878 61.393468 31.627356 62.191035 31.66525 C 61.748389 31.56411 61.760715 31.2592 61.791059 28.950687 L 61.802945 28.041182 C 61.30114 28.03569 60.799383 28.029925 60.29761 28.022062 z M 17.321423 28.039115 L 17.309021 28.552262 L 17.245975 31.147452 L 16.975191 31.399116 C 17.119207 31.420166 17.162675 31.426426 17.301269 31.446659 L 17.515726 31.244087 L 17.581355 28.558463 L 17.593758 28.056685 C 17.502996 28.050578 17.412188 28.045175 17.321423 28.039115 z M 25.711092 28.043766 C 25.738654 28.044732 25.766211 28.0459 25.793774 28.046866 C 25.805657 28.047433 25.817548 28.047851 25.829431 28.048417 C 25.801328 28.052359 25.773676 28.056757 25.745715 28.060819 C 25.734125 28.055094 25.722719 28.049532 25.711092 28.043766 z M 36.380724 28.080456 L 36.353853 29.178063 C 36.328535 30.217139 36.315967 30.282389 36.119758 30.401761 C 35.868013 30.554908 35.174363 30.627746 34.87694 30.531986 C 34.338841 30.35873 34.118389 29.459187 34.484199 28.9295 C 34.663403 28.670015 35.558629 28.223812 36.084102 28.132132 L 36.380724 28.080456 z M 7.5881672 28.96619 L 7.573181 29.571321 L 7.538041 31.014644 L 8.5782876 32.089514 L 9.6185342 33.1649 L 12.475724 33.235697 L 15.332914 33.305977 L 16.42432 32.275032 L 16.56333 32.143774 C 16.444004 32.133372 16.324555 32.124507 16.205212 32.114318 L 15.216125 33.033125 L 12.475207 32.965946 L 9.7337726 32.899283 L 8.7731077 31.905545 L 7.8124429 30.911808 L 7.842932 29.659171 L 7.8584349 29.012182 C 7.7683447 28.996909 7.6782538 28.981485 7.5881672 28.96619 z M 8.0398192 29.042671 L 8.0237995 29.702062 L 7.9989948 30.721122 L 8.9043659 31.675069 L 9.809737 32.629015 L 10.294462 32.640901 C 10.821701 32.653747 10.851931 32.633446 11.627197 31.739147 L 11.977563 31.335038 L 12.000818 30.360937 C 12.009338 30.011236 12.010355 29.816455 12.003918 29.680875 C 11.882718 29.662389 11.761297 29.645228 11.640116 29.626615 C 11.529851 29.662856 11.399402 29.693548 11.275797 29.708264 C 11.020801 29.738615 10.693837 29.866619 10.458276 30.028657 C 10.09895 30.275835 10.056594 30.285508 9.9575316 30.142862 C 9.8779106 30.028221 9.8755206 29.899257 9.9487466 29.65452 C 9.98219 29.542744 10.015235 29.453105 10.052616 29.375467 C 9.3813603 29.266458 8.7103638 29.156183 8.0398192 29.042671 z M 70.765705 29.08918 C 70.685208 29.246298 70.618285 29.378413 70.537295 29.536181 C 70.342132 29.530041 70.146964 29.523717 69.951801 29.517578 C 69.953869 29.422527 69.956852 29.322212 69.959036 29.226639 C 70.176953 29.197402 70.394301 29.164791 70.610676 29.12277 C 70.668931 29.111456 70.710726 29.100469 70.765705 29.08918 z M 65.37482 29.357381 C 65.618646 29.356788 65.862832 29.35839 66.107075 29.360481 C 66.190856 29.377316 66.274475 29.39236 66.357705 29.405956 C 65.755954 29.389121 65.425073 29.379969 64.861673 29.364099 C 65.032651 29.361128 65.203481 29.357797 65.37482 29.357381 z M 10.290328 29.413708 C 10.183601 29.564526 10.110604 29.732052 10.107393 29.864843 C 10.104646 29.977565 10.178304 29.960065 10.466028 29.779577 C 10.623343 29.680895 10.866003 29.58661 11.068575 29.539282 C 10.808912 29.498763 10.54979 29.455503 10.290328 29.413708 z M 26.780794 29.552201 C 26.733864 29.56384 26.692924 29.572871 26.645402 29.584757 C 26.524322 29.615039 26.610547 29.626407 26.750305 29.632299 C 26.760452 29.605687 26.771534 29.579541 26.780794 29.552201 z M 29.966646 29.665372 C 29.651936 29.747517 29.391996 29.818408 29.010632 29.914453 C 29.380073 29.929464 29.648741 29.940057 30.004886 29.95476 C 29.988292 29.875246 29.976761 29.772521 29.966646 29.665372 z M 12.185303 29.707747 C 12.184028 29.894055 12.179153 30.105672 12.166699 30.36042 L 12.107788 31.572232 L 11.722282 31.970141 C 11.510409 32.188891 11.288115 32.454189 11.228255 32.559769 L 11.119734 32.752005 L 12.506213 32.782494 L 13.892692 32.812467 L 13.639477 32.605761 C 12.869245 31.975305 12.785308 31.76719 12.815238 30.569193 C 12.825577 30.155322 12.855048 29.92306 12.921692 29.817818 C 12.676265 29.780976 12.430661 29.745045 12.185303 29.707747 z M 28.672151 30.654459 C 28.726902 30.743433 28.785406 30.824612 28.851985 30.894754 C 28.861698 30.829186 28.84158 30.76953 28.773954 30.720088 C 28.740886 30.695912 28.706628 30.675183 28.672151 30.654459 z M 38.629166 30.923693 C 38.548033 30.960706 38.468231 30.998781 38.386287 31.035314 C 38.421401 31.039492 38.457531 31.048461 38.493774 31.057535 C 38.548619 31.006936 38.595797 30.960895 38.629166 30.923693 z M 38.386287 31.035314 C 38.248358 31.018903 38.118992 31.040713 38.006465 31.134533 C 37.956116 31.176512 37.936936 31.217189 37.938769 31.256489 C 38.077368 31.176532 38.230187 31.104908 38.386287 31.035314 z M 37.938769 31.256489 C 37.800864 31.336046 37.676303 31.42333 37.582201 31.528824 C 37.732108 31.506734 37.884118 31.457774 38.03282 31.38413 C 37.979606 31.343368 37.940847 31.301047 37.938769 31.256489 z M 44.290836 31.634761 C 44.518096 31.644943 44.791445 31.654458 45.142463 31.663183 C 45.704721 31.677176 46.05727 31.679985 46.315002 31.674552 C 45.640311 31.658454 44.965638 31.644442 44.290836 31.634761 z M 48.37224 31.726228 C 48.640815 31.74026 48.968834 31.752665 49.451244 31.764986 C 49.988259 31.778694 50.328139 31.78376 50.59536 31.784106 C 49.972044 31.768055 49.920764 31.765834 49.174259 31.746899 C 48.906891 31.740117 48.639605 31.733275 48.37224 31.726228 z M 62.791515 31.78824 C 62.784204 31.871391 62.776108 31.954544 62.769811 32.037837 C 62.857576 32.016034 62.878617 31.982097 62.879882 31.93035 C 62.881445 31.866196 62.857039 31.822162 62.791515 31.78824 z M 54.15535 31.878157 C 54.448427 31.979623 54.696368 31.994284 55.344941 31.989261 C 55.676293 31.986682 55.952214 31.968319 56.196569 31.9319 C 55.816792 31.921327 54.689397 31.892568 54.15535 31.878157 z M 14.470434 31.973758 C 14.520936 31.976324 14.571102 31.98105 14.621329 31.986161 C 14.571018 31.982173 14.520747 31.977725 14.470434 31.973758 z M 61.019013 32.042488 C 61.034759 32.042922 61.041231 32.043084 61.057254 32.043522 C 61.644121 32.059567 61.996513 32.065459 62.266999 32.064709 C 62.026155 32.06047 61.195705 32.045806 61.019013 32.042488 z M 74.534467 35.524446 L 74.496227 37.097477 C 74.714711 37.113811 74.936265 37.133373 75.156135 37.150703 L 75.190758 35.731152 C 75.052267 35.586451 74.80143 35.539127 74.534467 35.524446 z M 8.1080321 36.936763 C 8.1615049 37.149708 8.1932951 37.369964 8.1917479 37.600805 L 21.000268 37.912931 C 21.309757 37.799624 21.618513 37.6836 21.931477 37.584785 C 21.981193 37.48091 22.04638 37.379537 22.115446 37.278344 L 20.303153 37.233902 C 19.902395 37.323109 19.500891 37.407714 19.092891 37.445776 C 18.626406 37.489293 18.181973 37.521413 17.749821 37.536209 C 17.422829 37.400488 17.065493 37.311649 16.730761 37.224084 C 16.610069 37.192511 16.473628 37.165865 16.341121 37.137784 L 10.528039 36.996191 C 10.067651 37.093881 9.6135696 37.226236 9.1575804 37.348624 C 9.1489986 37.219308 9.1342524 37.090086 9.1121051 36.961567 L 8.1080321 36.936763 z M 74.488992 37.384797 L 74.46057 38.553718 L 73.020865 38.518578 C 73.477738 38.726992 73.922268 38.956662 74.350499 39.212593 L 75.105492 39.231196 L 75.148383 37.480916 C 74.928486 37.449436 74.708891 37.416268 74.488992 37.384797 z M 27.213325 37.402367 C 26.212667 37.493146 24.895858 37.652239 23.589774 37.975976 L 30.149064 38.135656 C 30.563609 38.111166 30.977639 38.090517 31.391365 38.072611 C 31.307175 38.101941 31.222876 38.130693 31.138667 38.159944 L 33.037259 38.206453 C 33.09734 38.180205 33.156163 38.150017 33.216577 38.124804 C 33.226118 38.08827 33.24155 38.051045 33.253784 38.014216 C 33.526952 38.00866 33.799928 38.00521 34.072855 38.002331 C 34.114338 38.082112 34.160015 38.159635 34.210314 38.234875 L 35.642785 38.269498 C 35.527968 38.181153 35.420142 38.090365 35.315156 37.998197 C 35.455697 37.998751 35.596339 37.998 35.736836 37.99923 C 36.283559 38.044136 37.054958 38.105395 37.649381 38.15426 C 37.719423 38.211425 37.790273 38.267315 37.860737 38.323758 L 39.27047 38.358381 C 39.25754 38.333627 39.247751 38.308278 39.23533 38.283451 C 39.671819 38.319039 40.068749 38.351247 40.535509 38.388871 L 68.831456 39.078234 C 66.76349 38.916924 64.883806 38.77335 62.978067 38.52788 C 63.391309 38.465568 63.798945 38.391999 64.190913 38.303604 L 54.884504 38.076745 C 53.910212 38.113486 52.935976 38.150074 51.961685 38.186816 C 51.438158 38.190756 50.914766 38.198293 50.391238 38.204902 C 50.390644 38.198294 50.391449 38.191888 50.390722 38.185265 C 50.382218 38.107801 50.364891 38.03543 50.342663 37.966157 L 48.740693 37.926883 C 48.806351 37.950263 48.870116 37.975191 48.930863 38.001814 C 48.763798 37.97771 48.596866 37.952123 48.429601 37.929467 C 48.426337 37.926012 48.424031 37.922588 48.420816 37.919132 L 27.213325 37.402367 z M 69.036095 38.421427 C 69.046036 38.6424 69.055797 38.863382 69.068651 39.083919 L 70.141971 39.110274 C 70.122731 38.889276 70.103332 38.668262 70.084093 38.447265 L 69.036095 38.421427 z M 71.139326 38.472586 C 71.082403 38.691261 71.02622 38.910185 70.977578 39.130427 L 72.146499 39.158849 C 72.202448 38.941647 72.252471 38.722705 72.295327 38.501008 L 71.139326 38.472586 z " /></g></svg>
