<?xml version="1.0" encoding="UTF-8"?>
<svg xmlns="http://www.w3.org/2000/svg" width="300" height="200" viewBox="0 0 79.4 52.9">
  <defs>
    <linearGradient id="a" x1="192.5" x2="220" y1="68.9" y2="171.8" gradientTransform="scale(.26459) rotate(-15 3653.7 561.3)" gradientUnits="userSpaceOnUse">
      <stop offset="0"/>
      <stop offset="1" stop-opacity="0"/>
    </linearGradient>
  </defs>
  <path fill="url(#a)" d="M4.8 267.6v.2c0 .3.2.7.4 1v.2h.2l-.3-1.1 2.4-.7c-.3 0-.5 0-.8-.2zm4.3-1.2-.2.2V266.9l.9-.3-.1-.4zm2-.5v.4l1.5-.4v-.4zm2-.5v.4l.8-.3v-.4zm1.3-.4v.4l.8-.2v-.4zm1.4-.4-.3.3v.2l2.7-.7v-.4zm2.6-.7v.4l1.5-.4v-.4zm1.6-.4v.4l.8-.2v-.2.2l2.2-.6.1-.4-1.2.3-.2.2h-.1v-.1zm3.3-1 .1.5 1.3-.4.2-.1v-.2l.1.3.8-.3v-.3zm3.1-.7-.2.4.5-.1v-.2l.1.1 2.2-.5v-.4l-1.3.3v.4l-.2-.3-.9.2zm2.7-.8v.4l1.6-.4v-.4l-.6.2v.2-.2zm1.7-.4.1.4 1.1-.3.3-.5zm2.7-.7v.4l.7-.2v-.4zm1.4-.4.3.3 1.5-.4.8-.2-.1-.4zm3.5-1v.4l.8-.1v-.4zm.8-.2.2.4.9-.2-.2-.4zm3.7-1-1.7.8-.2.2 13.9-3.7h-.3c-.3-.2-.7-.2-1-.1zm14.4-3.8v.4l1.4-.4v-.4h-.3v.2zm4-1v.3l1.6-.4v-.4zm3.7-1-.2.2v.2l.6-.2.1-.4.1.2v.2l.9-.3-.1-.3zm2.4-.7.2.3.7-.1 6 22.2h-.1.5l-.2-.6H74v-.6h.2l-.5-1.8v-.5h-.1l-3.5-13-.1-.5v-.1l-.2-.6h-.1v-.5h-.1l-.2-.5h.1l-.1-.5h-.2l-.1-.4v-.1l-.8-2v-.2l-.2-.7zm-61 17.7a.2.2 0 0 0 0 .2l.5 2.2h.4l-.6-2.1H7v-.4h-.4zm1.4-.4.8.2 1.6-.4v-.4zm3.6-1v.2l.2.2h.1l.1-.1.8-.2v-.3zm1.6-.4v.4l1-.3v-.4zm1.7-.4v.3l2.9-.7v-.2l-.1-.2zm3.7-1v.4l1.7-.5v-.3zm1.8-.5.1.4.8-.3-.1-.3zm1-.2v.3l1-.2-.1-.4zm1-.3v.4l.5-.2v-.2l.1-.2zm1.4-.4v.1l-.5.4 1.3-.4v-.3zm1.6-.4.2.3.6-.2.3-.4zm2-.5v.3l.7-.2.2-.4zm1.3-.4v.3l2.2-.5v-.4zm2.9-.8.2.3 1.1-.3-.2-.3zm1.9-.5v.4l1-.3v-.4zm2.3-.6.1.2v.1l.9-.2-.1-.4zm1.4-.4.2.3.8-.2-.1-.3zm1.6-.4v.3l1.2-.3h.1l1.4-.4v-.3l-1.4.3a6 6 0 0 0-.5.5V259.7zm4-1-.8.5.5-.1.6-.6zm1.5-.5v.4l1.3-.4-.1-.3zm1.6-.4-.2.4.5-.1.1-.2.1-.3zm1.3-.4v.4l.8-.2v-.4zm1.1-.3.1.4s.1-.1.1 0l1.5-.5v-.3zm2-.5v.1l.2.2.5-.1h.3l.5-.6-.5.1zm2-.6.1.4 1.7-.4.2-.5-.6.2v.2l-.1-.1zm2.2-.5v.3l1.4-.3v-.4h-.4zm3.2-.9-.2.4 1.5-.4v-.3zm2.9-.8-.4.5 1-.2v-.4zm.8-.2v.4l.7-.2v-.4zm1-.3v.3l-.2.2 1-.3v-.4zm1.7-.4a3.6 3.6 0 0 0 0 .4l1-.3v-.2l.2-.2zm2-.6h.1l.1.4.8-.2-.1-.4zM5.8 270h-.4l.2.6h.4l-.2-.6zm.2.8h-.4l.3 1h.4zM68.2 254H68l-.2.1.2.7.1.5.3-.4zM7 271.1l.2.8.1.5.2-.1.1-.1-.3-1.2H7zm61.2-15.4.2.6h.3l-.1-.7h-.4zM6.4 272.5h-.1l-.3.2.1.3.4-.2zm-.3.6.2.6.4-.1-.2-.6-.4.1zm1.3-.3.2.7.2.2h-.1v.4l.4-.2-.3-1.1h-.4zM23 270l-.8.4h-.2l-.2.1a2.5 2.5 0 0 0-.9 1.2v.1a3.3 3.3 0 0 0-.1 1.7v.5l.1.3.1.3a6.3 6.3 0 0 0 .5 1.3h1.3l-.4-.8-.4-1.1h-.5l.5-.1-.2-.7h-.2l-.2-.1.1-.1h.3v-.9a2.4 2.4 0 0 1 .2-.8l.3-.4.5-.3h.2l.1-.1c.3 0 .6-.1.8 0H24.4l.3.1v.2H25.3v.3h-.2v.1l.2.2c0 .2 0 .2.2.1h.2l-.2-.5-.3-.9-.1-.3h-.3a7.7 7.7 0 0 0-1.9.2zm6.7-1.7a3.7 3.7 0 0 0-1.5.7 2.1 2.1 0 0 0-.3.2c-.3.4-.4.8-.3 1.3a2.2 2.2 0 0 0 .3.9c.3.5.7.7 2 1l.7.2h.4l.2.1.2.1 1.3-.3h.2l-.2-.2a2 2 0 0 0-.5-.3l-1.3.1 1-.3-1.5-.4-.6-.1h-.1a2 2 0 0 1-1-.6h-.3l-.2-.6h.2v-.1c0-.2 0-.3.2-.5h-.3l.4-.1a1.6 1.6 0 0 1 .3-.4 1.7 1.7 0 0 1 .6-.2l.4-.1h.7a1.4 1.4 0 0 1 .6.5l.1.2.2-.2.1.3h.2v-.1l-.3-.7-.2-.5v-.2H31c-.6 0-.9.1-1.5.3zm-22.7 6-.4.3.3 1 .4-.1-.2-.7h-.3l.2-.1zm13.1-3.4H20l-.1.2v-.1l-.8.2v.4h-.5v-.3l-1 .3v.1h.7l.1.1.2.2c.1.1.2.2.8 2.5l.6 2.3h.3l.3-.2-.2-.7-.1-.5-.3-1a11.9 11.9 0 0 1-.5-2.8.7.7 0 0 1 .2-.2l.2-.1h.1c.2-.1.2-.1.2-.3zm-7 2v.1h.8l.2.2a21.5 21.5 0 0 1 1 3.7l1-.3a100 100 0 0 1-.8-3.7v-.2l.5-.4h.2V271.9l-1.5.4zm29.4-8v.1c0 .1.1.2.2.1h.7l.2.2.8 3 .8 2.9h1l-1 .3-.2.3-.3.1c-.3.1-.3.1-.2.2v.2l1.6-.5a30 30 0 0 0 1.9-.5c.9-.4 1.5-.9 1.8-1.6l-1 .2a2 2 0 0 1-.5.5l-.2.2-.1.1h-.2v.1l-.8.3h-.7v-.1l-.2-.6h-.4c0-.2-.2-.1-.4-.1l.7-.2a138.8 138.8 0 0 1-1.3-5c0-.3.2-.3.6-.4 1.3-.4 2.3 0 3 1l.1.5.3 1h.2l.1-.1c.3.2.6 0 .9 0a7.8 7.8 0 0 0-.5-1.5H49a165 165 0 0 0 0-.5 2.7 2.7 0 0 0-2.4-1.1 5 5 0 0 0-.8 0V264.3l-.3.1v-.2l-1.6.3h-.3l-.4.5H43v-.2h-.2zm26.7-7-.3.1.1.5.4-.1zm-39.3 10.6v.1zm-21.6 6H8l.1.5.3-.3zm60.7-16 .3 1h.3v.1l-.2.3v.3h.3v.2h-.2l.2.5h.3l-.6-2.4h-.4zm-18.4 5-.2.1-.3.4c0 .2 0 .3.2.5l.4.2c.4 0 .6-.3.6-.7l-.1-.3a.6.6 0 0 0-.6-.2zm-29 7.9v.2-.2zm-14.7 4.3.3 1.1.4.1-.2-.7H7h.3l-.1-.6-.4.1zm.7 1.2-.3.1.2 1h.4l-.1-.6h-.2.2zm1-1.6H8l.2.7.2 1H9zm39.7-10.3zm11.8-2.7h-.1l-.3.3v.1l-.2.2c.5-.2.7-.3.7-.6H60zm-41 11.1h.3v.4H19v-.4zm9.5-2.2h.3l-.2.3v-.1l-.1-.2zm-7.3 2zm13.4-3.3-1 .6c-.3.3-.5.7-.3 1l.9-.2v-.7l.2-.2c.4-.2.8-.2 1 0l.3.6.7-.2v.2l-.6.2.1.3.1.3-.4.2c-.4 0-.7.2-1 .4l-.3.3c-.2 0-.3.2-.3.3l-.1.2v.1h-.1v.1l.9-.2c0-.2.2-.4.4-.6h-.4.5l.6-.3.2-.1h.1v.1h.7H36.2v.6h.1v.5l.6-.1-.2.2-.5.1c0 .2-.2.4-.3.5l-.4.2H35l-.3-.4a1273.3 1273.3 0 0 0-1 .2l.3.4c.1.2.4.3.7.3h.6c.5-.2.8-.4 1-.8l.1-.2.3.3.1.1h.6c.3 0 .5-.1.5-.2a.1.1 0 0 0 0-.2h-.6l-.5-1.7-.1-.4-.3-1v-.1a1 1 0 0 0-.3-.4l-.3-.2h-.1v-.1h-.4a2.6 2.6 0 0 0-.8 0zm23.6-6.3a3.1 3.1 0 0 0-1 .4c0 .2-.2.3-.3.4l-.2.6.1.6c.1.5.3.8.6 1l.3.2v.2l-.2.4h.5v-.4l.2-.1 1-.2.4-.2.2-.1-.7.2h-1l1.9-.4.3-.3v-.4c.1-.1.1-.2 0-.4v-.6H60l-.1-.1h.2c0-.2-.1-.2-.2-.3l-.3-.3-.1-.1h-1.4zm-6.8 1.8-.6.3c-.9.4-.9.4-.8.5h.2l.5.1v.1c.1 0 .2.2.2.5l.3 1 .4 1.2v.2l.8-.1-.4-1.7v-.1l-.1-.1-.6.1.6-.1-.2-.1h.1v-.4h-.2.1l-.3-1.1zm-11.2 3h-.1v.1H40l-.5.5-.3.6v.2l-.1.3-.2-.6v-.1l-.1-.3v-.2h-.2l-1.3.6v.1H37.8v.1h.1l.6 1.8.4 1.7-.1.3-.3.1-.2.2h.5l.4-.2-.5.1 1-.3v.1h.4v-.1a3.8 3.8 0 0 1 .5-.2h-.3c-.2 0-.4-.1-.5-.3l-.1-.2-.1-.4-.4-1.5a3.6 3.6 0 0 1 .3-1.3l.3-.4h.2l.1-.1a.6.6 0 0 1 .4 0l.2.3.2.5.3 1 .1.5.1.4.9-.2a61 61 0 0 1-.8-2.4l-.2.1h-.5l.7-.1v-.3h-.1l-.3-.3c-.2-.1-.5-.2-.9 0zm13.2-3.4c-.5.3-.8.8-.8 1.4v.5a4 4 0 0 0 .4 1.3c.5.8 1.1 1.3 2 1.2.4 0 1.3-.2 1.6-.4l.3-.2V268.4h-.2a4 4 0 0 1-1 .4 1.9 1.9 0 0 1-.9-.2l-1-1-.8.1.8-.2-.2-.5-.1-.2 1.4-.4 1.4-.4v-.2l-.2-.4c0-.2-.2-.4-.5-.6h-.2v-.1h-.2l-.1-.1h-.5c-.3.2-.6.2-1 .3h-.2zm10-2.6c-.2 0-.3.2-.5.4h.2a1 1 0 0 1 .5.2c.3.2.5.6.7 1.2l.9-.2v-.2c-.3-.5-.6-1-1-1.2h-.3.2l-.7-.2zM8.6 277l.1.6.4-.1-.2-.5h-.3zm54.7-14.6zM54 265h.7a.9.9 0 0 1 .2.2v.1h.1v.2h.3l-.2.1v.1l.1.2-1 .3-1 .2v-.1c0-.3.1-.7.3-1 .1-.1.3-.3.5-.3zm4.1-1.1h.5c.4.1.8.7.9 1.4 0 .4 0 .6-.3.8a1 1 0 0 1-.4.2 1 1 0 0 1-.4 0h-.2l-.3-.3-.1-.1-.1-.2a3.8 3.8 0 0 1-.3-1v-.2l.1-.2c.1-.2.4-.4.6-.4zm3.2-.8v.2a2 2 0 0 0-.3.7h.7l-.1.1-.6.1.1 1v.2l.4-.1h.6l-.3-1.2v-.6l.4-.6a3 3 0 0 0-.6.2h-.3zm-16.6 4.5-.4.2v-.1l.4-.1zm4.2-1v-.1.3-.2zm21-5.7v.1c-.1 0 0 .1 0 .1zm-.3.6.2.6h.4l-.2-.7h-.4zm-10.3 2.7zm-29.6 8h.1zm14.7-4h.6l-.4.1h-.2zM9.2 278h-.4l.3 1h.3zm-1.3.4h-.4l.3 1.1.3-.1h.1zm40.8-11 .2.8v.5l-.1.8v.2h-.1v.1h.5l.5-.2c.2-.3.3-.8.3-1.2v-.6l-.1-.4v-.2l-1.2.3zm5.4-1 1.6-.2-1.3.4H54l.1-.2zm15.8-4.1.2.5h.3l-.1-.6h-.4zm-54.7 15 .6 1.5c.5.6 1.2.8 2.2.6.4 0 1.1-.3 1.5-.4l.1-.1a1.8 1.8 0 0 0 .8-.9 1.5 1.5 0 0 0 .1-.3 2.4 2.4 0 0 0 0-.7l-.6.2a2 2 0 0 1 0 .5c-.2.5-.5.8-1 1a10.7 10.7 0 0 1-.8.2 1.7 1.7 0 0 1-.7 0c-.4-.2-.7-.5-1-1v-.2l-.1-.4h-1.1zm16.4-4.3.3.2.2.5 1-.2a2.2 2.2 0 0 0-.2-.9l-1.3.4zm-22.2 6-.1.3H9l.9 3.2.2.5.2 1h.3l-.3.1.4 1.5h.4l-.2-.7H10.7l.3-.1zm-1.6.5.2.6h.4l-.2-.6h-.4zm56.6-15 .1 1h.2l.7-.2v-.9h-1zm-3.1 1c0 .4.2.7.4 1l.8-.3a3 3 0 0 1-.3-.8l-1 .1zm9-2 .4 1.8h.2-.1l.2 1 .3-.1-.5-2.2h-.4l.3-.2-.1-.5-.4.1zM22.7 276l-.2.3-.4.4.4-.1h.4l.5-.2a2.4 2.4 0 0 1-.5-.4h-.2zM8.4 280l-.4.1.3 1.1h.4l-.2-.7zm20-5.4.2.5.3.7a213.8 213.8 0 0 1 3.1-.6l-2.3.7H29v.2h1.4l1.5-.6h.2l.1-.1a2.8 2.8 0 0 0 .8-.7c.2-.4.3-.7.3-1.1l-1 .2v.1l-.1.5-.1.1-.4.5-.7.3a2.4 2.4 0 0 1-1 .1h-.2a1.9 1.9 0 0 1-.8-.6v-.2H28.5zm5.4-1.2v.5l1-.2h-.1v-.5l-.8.2h-.1zm8.5-1.9-.8.3v.4a1633.5 1633.5 0 0 1 .4 0h-.3v.1c0 .3-.2.4-.4.5-.2 0-.2.1-.2.2l.7-.2v.1l.5-.1.6-.2.3-.1h.2v-.1s0-.1-.2 0a1.3 1.3 0 0 1-.4-.1h-.1l-.3-.8zm15.2-4v.2l.1.1c0 .2.2.3.4.4h.1l-.1.2-.4.7v.3a1 1 0 0 0 .5.7 1.3 1.3 0 0 0 .3.1c.3.1.7.2 1 .1.4 0 1-.2 1.4-.4l.6-.5.1-.1.1-.1a1.8 1.8 0 0 0 .2-.3v-.3l-.5.1c-.1.4-.4.7-.7.9-.8.4-1.6.4-2 0-.4-.3-.5-.7-.2-1v-.2l.1-.1 1-.3 1.3-.2h.3v.1l.2.7h.6v-.2c0-.6-.2-1-.5-1.3-.4-.2-.8-.1-2 .2l-1.2.2h-.7zm4.3-1 .4.3.2.1c.3.2.6.2.9.2h.4a3.3 3.3 0 0 0 .7-.3c.2 0 .4-.2.5-.3h-.3l.3-.1.4-.6-.8.2-.2.4-.1.1-.4.2c-.4.1-.7 0-1-.3h-1zm-10.2 2.8V269.9l-.3.2c-.2 0-.2.1-.2.2h.5l.7-.2.6-.2.5-.2s0-.1-.2 0l-.6-.2v-.1l-.2-.3-.8.2zm-29 7.8a3 3 0 0 0 .7.3l.7.2 1.3-.3.8-.3-1.5.5c.4 0 1-.2 1.4-.4H26.3l.6-.4h.2v-.3l-.2-.3-.3.2a4.7 4.7 0 0 1-1.9.6l-.6-.1-.6.3h-.8zm25.9-6.7h.3l-.5.1.2-.1zm-.4.1-.1.1zm23-5.4zM8.8 281.8h-.4l.2.9h.4zM61 269.5zm-45.6 12.3v.2l1-.3h.2l27.5-7.4H43.5l-2.6.6-4.5 1.2zm29-7.8.1.2 1-.3-.2-.1.6-.1-.1.1H46.1l.1-.1.6-.1 5.8-1.6v-.2l-2.8.7h.3l-.6.1zm12.3-3.3a62.7 62.7 0 0 1 .2.1l-1.4.4 2.2-.5-.2-.1v-.1zm5.7-1.5-.1.1-.1.1 4.1-1v-.3l-2 .5zm-3.8 1h.2-.2zM9.3 283.6c0 .1 0 .2-.2.3H9.4zm7.3-2v.2-.1zm54.7-14.4.7 2.6h.4l-.4-1.2-.4-1.5-.3.1zm-62 17.2h-.1l.1.7h.4l-.2-.7H9.2zm.4.6a3 3 0 0 0-.3.4l.2.2h.3zm1.6.9-.4.1.2.5.3-.1zm-1.3.4h-.3l.1.6.4-.1zm-.2.6.2.5h.3l-.1-.6h-.4zM72.4 270h-.3l.5 2.2-2.8.8h.2v.2h-.2v-.2l-1.5.4-.3.1-4.7 1.2h.3l-.4.4 7.9-2.1 1.8-.5a.2.2 0 0 0 .1-.2zm-61.3 16.5.2.5h.3l-.1-.6H11zm.6.8-.3.1.1.6h.4zm.2.8-.3.1.1.5a.2.2 0 0 0 .2.1l1.9-.5h-.2l-1.6.2c.3 0 .5-.2.8-.3l-.8.2zm-1.2.4-.4.2.2.7h.4zm5.2-1.1h.1c0 .2-.2.3-.3.4h.4c0-.2.1-.2.2-.3v.1l1.6-.4a8.7 8.7 0 0 0 .4-.5zm2.5-.7v.3l-.1.1.5-.1.2-.4zm2.8-.7.1.3.8-.2v-.1l.7-.4zm2.1-.6.2.3.9-.2-.2-.3zm4-1v.3l1-.2-.2-.4zm1.9-.6v.4l1.3-.3-.1-.4zm2.2-.6v.4l1.1-.3.4-.1h-.1l4.3-1.1-.1-.4-2 .6v.1-.1zm7-1.8v.3l1.4-.3-.1-.4h.2v.3l1.2-.3v-.2h.5l10-2.6a69.3 69.3 0 0 1 1.3-.4l1.5-.3c-.1-.2-.1-.3-.3 0v-.2l.5-.2h.4l-.1.1-.3.2.8-.2 3.1-.9v-.1h.5l3.7-1-.9.1v-.2L50 278.3l-.4.2h-.1zm-2.3.6.2.3h-.4l.2-.3zm-.1 0v.2h-.1v-.1zm-4.9 1.5-.3.3.4-.1v-.2zm32.7-8.7h.2-.2zm-8.6 2.3v.1zM11 289.6c-.1 0-.3.2-.3.4v.1h.4zm3-.2H14.6l.3-.3zm2-.6h.4l.2.2 1.2-.3.1-.2h.7l-.8.2 2.9-.7c0-.1 0-.2.2-.2h.4l1.4-.4-.2-.2h-.1v-.1zm7.9-2.1.1.4.8-.2.6-.6H25l-.2.2h-.2zm1.8-.5.2.3 1-.2.2-.2v.1h.2l.4-.4.1.2 1.2-.3v-.2h.1v.2l21.3-5.7.3-.1 1.3-.3V279.3l.6-.3-3.3.9-1 .5v-.3l-1.3.4v.2h-.2v-.1l-1.8.4-.1.1zm27-7.2v.4l.6-.2v-.4zm.9-.3v.4l11.5-3-.1-.4-2 .5v.2h-.4l-7.8 2v.2l-.1-.2zm11.4-3 .1.3 8.8-2.3.2-.2v-.3l-8.2 2.2v.2-.1zm-47.6 12.8h.2l-.2.3v-.2zm41.2-11h.6l-.5.1zM27 286.2s0 .1 0 0z" transform="translate(0 -244)"/>
</svg>