<?xml version="1.0" encoding="UTF-8"?>
<!-- Created with Inkscape (http://www.inkscape.org/) -->
<svg width="300" height="200" version="1.1" viewBox="0 0 79.375 52.917" xmlns="http://www.w3.org/2000/svg" xmlns:cc="http://creativecommons.org/ns#" xmlns:dc="http://purl.org/dc/elements/1.1/" xmlns:rdf="http://www.w3.org/1999/02/22-rdf-syntax-ns#" xmlns:xlink="http://www.w3.org/1999/xlink">
 <defs>
  <linearGradient id="a" x1="192.5" x2="220" y1="68.927" y2="171.78" gradientTransform="matrix(.25557 -.068479 .068479 .25557 -5.4955 255.26)" gradientUnits="userSpaceOnUse">
   <stop offset="0"/>
   <stop stop-opacity="0" offset="1"/>
  </linearGradient>
 </defs>
 <metadata>
  <rdf:RDF>
   <cc:Work rdf:about="">
    <dc:format>image/svg+xml</dc:format>
    <dc:type rdf:resource="http://purl.org/dc/dcmitype/StillImage"/>
    <dc:title/>
   </cc:Work>
  </rdf:RDF>
 </metadata>
 <g transform="translate(0 -244.08)">
  <path d="m4.7638 267.57c0.00296 0.0617 0.020925 0.12227 0.035536 0.18254 0.089 0.36711 0.22728 0.72271 0.36179 1.0747 0.03253 0.0591 0.036883 0.20625 0.097745 0.1771 0.024179-0.0116 0.089309-0.0429 0.16803-0.0857l-0.27846-1.0392 2.35-0.62969c-0.26145-0.0658-0.52303-0.13012-0.78347-0.20255zm4.3481-1.1651c-0.058563 0.0475-0.11697 0.0948-0.19038 0.15801-0.041906 0.0361-0.00116 0.0967 0.031941 0.15515-0.00531 0.0424-0.00381 0.0902 5.026e-4 0.14164l0.84158-0.2255c-0.034339-0.12829-0.071311-0.25587-0.10412-0.38458zm2.0106-0.53874c0.01994 0.13186 0.0421 0.26351 0.06618 0.39475l1.3966-0.37423c0.0187-0.14247 0.03807-0.28491 0.05611-0.42752zm1.9023-0.50971c-3.44e-4 0.13741 5.72e-4 0.27484 7.92e-4 0.41226l0.83659-0.22416c-0.0063-0.13162-0.01399-0.26922-0.02126-0.40678zm1.3502-0.36179c0.01357 0.0581 0.02671 0.11595 0.04079 0.17418 0.01721 0.0712 0.0369 0.1417 0.05434 0.21281l0.77569-0.20785c-0.0324-0.12879-0.06645-0.25719-0.09763-0.38632zm1.4121-0.37838c-0.08514 0.0848-0.16896 0.17129-0.25391 0.25636-0.01569 0.0145-0.03274 0.0277-0.04792 0.0428-0.0023 2e-3 -6.93e-4 5e-3 -0.0018 7e-3 -0.01863 0.0182-0.0363 0.0376-0.05523 0.0555-2.69e-4 0.0487 0.0012 0.0975 0.0012 0.14626l2.7469-0.73602c0.01555-0.13083 0.02674-0.27596 0.03565-0.42203zm2.6291-0.70445c0.02419 0.131 0.04817 0.26206 0.07267 0.39301l1.4306-0.38333c-7.38e-4 -0.0573-0.0036-0.11451-0.0038-0.17179-9.3e-5 -0.0797-3.95e-4 -0.15967-5.2e-4 -0.23954zm1.5534-0.41623c0.02773 0.1301 0.05414 0.26046 0.08166 0.3906l0.76171-0.2041c-0.01577-0.075-0.03123-0.14998-0.0469-0.22497 0.02349 0.0728 0.04429 0.14652 0.06737 0.21949l2.2013-0.58983c0.02951-0.14541 0.05842-0.29093 0.08856-0.43621l-1.2464 0.33397c-0.07661 0.0711-0.15231 0.14316-0.22536 0.21714-0.02696 0.0247-0.0548 0.047-0.08217 0.0707-0.01958-0.0633-0.04026-0.12614-0.05984-0.1894zm3.3798-0.90561c0.0295 0.12964 0.05943 0.25907 0.08715 0.38913l1.2733-0.34119c0.07751-0.0616 0.15505-0.12254 0.23646-0.17571 0.01628-0.0474 0.0268-0.0969 0.03438-0.14724 0.01546 0.0793 0.03305 0.15811 0.04913 0.23721l0.77319-0.20717c-0.03025-0.12944-0.06087-0.25875-0.08814-0.38886zm3.0858-0.82683c-0.03201 0.0378-0.06665 0.0734-0.0979 0.11183-0.0713 0.0878-0.10086 0.20268-0.1464 0.30619-0.01067 0.0243-0.01796 0.0441-0.02795 0.0674l0.55855-0.14967c0.02225-0.0575 0.04489-0.1183 0.06763-0.17487 0.0071 0.0264 0.0064 0.0248 0.02095 0.0741 0.0069 0.0238 0.01412 0.0476 0.0213 0.0713l2.1883-0.58635c-0.03231-0.12774-0.06059-0.2578-0.09113-0.38806l-1.2015 0.32193c-0.038 0.12739-0.07188 0.25591-0.10057 0.38539-0.03323-0.11063-0.06542-0.22144-0.09759-0.3323l-0.89249 0.23915c-0.02331 0.023-0.04625 0.0466-0.07146 0.0668-0.02106 0.0169 0.0024-0.0199 0.02953-0.0555zm2.7039-0.72451c0.0018 0.10135 0.0038 0.20261 0.0055 0.30401 5.95e-4 0.0356-2.2e-5 0.0713 2.93e-4 0.10692l1.5893-0.42586c0.0039-0.13856 0.0079-0.27717 0.01219-0.41575l-0.67736 0.1815c-0.0029 0.0792-0.0071 0.15824-0.0097 0.23745-0.0153-0.0742-0.03051-0.1484-0.04573-0.2226zm1.6183-0.43362c0.05897 0.12215 0.1208 0.24277 0.18249 0.36359l1.1066-0.29652c-0.0067-0.0125-0.01354-0.0249-0.02018-0.0374 0.16515-0.14751 0.22066-0.25274 0.29992-0.45004zm2.7384-0.73374c0.01043 0.10915 0.02231 0.21814 0.03208 0.32738-0.03946 0.0331-0.06977 0.0673-0.09668 0.10241l0.81213-0.21761c-0.01165-0.13448-0.02123-0.26913-0.03324-0.40358zm1.4346-0.38439c0.09957 0.10788 0.18702 0.22258 0.26884 0.34044l1.499-0.40165c0.0063-0.0147 0.0068-0.0303 0.0086-0.0456 0.0044 0.0133 0.0095 0.0263 0.01382 0.0396l0.80913-0.2168c-0.04505-0.12539-0.09028-0.25066-0.13257-0.37696zm3.4626-0.92782c0.01358 0.11183 0.02557 0.22394 0.03912 0.33566 4e-3 0.0293 5e-3 0.0373 0.0086 0.064l0.74374-0.19928c-0.01882-0.13259-0.03854-0.26511-0.0572-0.39715zm0.84607-0.2267c0.05366 0.12349 0.10945 0.24606 0.16701 0.36773l0.86354-0.23139c-0.06505-0.11922-0.12669-0.24026-0.18548-0.36278zm3.7077-0.99348c-0.0042 0.0131-0.0076 0.0265-0.01186 0.0395-0.56934 0.2182-1.1596 0.39512-1.6938 0.69298-0.12017 0.0841-0.20139 0.14418-0.27823 0.21151l13.921-3.7302c-0.1001-0.0367-0.19154-0.0131-0.27302 0.0373-0.0082-5e-3 -0.01443-0.0105-0.02296-0.0158-0.32864-0.15491-0.6794-0.12898-1.0271-0.0795zm14.317-3.8362c-0.0097 0.14015-0.01893 0.28024-0.02965 0.42043l1.474-0.39496c-0.01074-0.13862-0.0297-0.33616-0.08066-0.39087l-0.20665 0.0554c-0.02561 0.0298-0.05104 0.0597-0.07659 0.0895-0.0014-0.0227-0.0023-0.0453-0.0038-0.068zm4.0891-1.0957c-0.01251 0.14149-0.02522 0.28145-0.03864 0.42284l1.5673-0.41997c-0.01671-0.13299-0.03335-0.2659-0.05171-0.39863zm3.6059-0.96619c-0.05053 0.0898-0.07758 0.19406-0.11583 0.2905-0.02576 0.065-0.04105 0.11323-0.06158 0.16951l0.58102-0.15568c0.04667-0.14426 0.0934-0.28143 0.15075-0.42773 0.04048 0.074 0.08278 0.14727 0.11634 0.22455 0.01092 0.0251 0.03132 0.0853 0.04489 0.11958l0.82161-0.22015c-0.05182-0.14933-0.09483-0.26414-0.13706-0.37575zm2.4893-0.66701c0.04332 0.12006 0.08861 0.2394 0.13165 0.35955 0.0012 6e-3 0.0022 0.0112 0.0034 0.0168l0.68684-0.18404 5.9569 22.231-0.07338 0.0197c0.16727 0.0105 0.33415 0.026 0.50129 0.038l-0.18471-0.68933c-0.11147-6e-3 -0.22266-0.0156-0.33417-0.0212-0.0097-0.14204-0.02841-0.32096-0.04661-0.50538 0.07721-0.01 0.15419-0.0211 0.23138-0.031l-0.47601-1.7765c-0.01319 3e-3 -0.0263 6e-3 -0.03948 8e-3 -9.15e-4 -4e-3 -0.0015-9e-3 -0.0025-0.0133 0.01265-3e-3 0.02531-7e-3 0.03794-0.0102l-0.13468-0.50265c-0.0013 3.5e-4 -0.0023 6.1e-4 -0.0035 9.4e-4 -0.0038-0.0183-0.0082-0.0378-0.01186-0.0562 1.9e-4 -1.5e-4 1.19e-4 -5.8e-4 3.75e-4 -6.5e-4l-3.4516-12.882c-0.0021-7e-3 -0.0044-0.0134-0.0065-0.0202 2.61e-4 -4e-5 7.61e-4 -2.2e-4 1e-3 -2.7e-4l-0.15742-0.58751c-0.01006 8.1e-4 -0.02008 3e-3 -0.03015 3e-3l-5.11e-4 1.3e-4c-0.01129-0.035-0.0226-0.0699-0.03398-0.10484 0.01224-1e-3 0.02425-3e-3 0.03628-4e-3l-0.15983-0.5965c-0.02463 3e-3 -0.045 5e-3 -0.06943 8e-3 -0.0049-0.0151-0.01024-0.0301-0.0153-0.0451 0.01544-0.0312 0.03404-0.0608 0.05036-0.0916l-0.04828-0.1802c-0.0092 8e-3 -0.0666 0.0597-0.07162 0.0641-3.26e-4 -9.9e-4 -4.78e-4 -2e-3 -8.03e-4 -3e-3 0.01201-0.0114 0.05144-0.0499 0.07056-0.0681l-0.03651-0.13627c-0.02501 0.0269-0.05023 0.0537-0.07523 0.0806-0.06097-0.18379-0.12299-0.36722-0.18451-0.55083 0.04314-6e-3 0.08657-0.01 0.12987-0.0145l-0.15435-0.57603c-0.05344 0.0131-0.10739 0.0234-0.1607 0.0372-0.03981-0.11771-0.07824-0.23588-0.11825-0.35351-2.57e-4 -0.0323-0.0021-0.0626-0.0076-0.0884-0.0056-0.0259-0.02822-0.0448-0.04213-0.0674-0.0011-1.1e-4 -0.0022-7e-5 -0.0033-2e-4 -0.23133-0.67816-0.46552-1.3553-0.70317-2.0313-0.01269-0.0361-0.02507-0.0689-0.03775-0.10491-0.05678-0.26129-0.11237-0.52275-0.16837-0.78412zm-61.007 17.717a0.18397 0.18397 0 0 0-0.11261 0.22063l0.59598 2.2242c0.11605-0.0403 0.232-0.0808 0.34754-0.12255l-0.54115-2.0196 0.1767-0.0474c-0.029052-0.11902-0.054387-0.23904-0.081619-0.35851l-0.36788 0.0986a0.18397 0.18397 0 0 0-0.016972 5e-3zm1.3307-0.35657c0.25112 0.0558 0.52142 0.11511 0.78243 0.17073l1.6442-0.44057c-0.01271-2e-3 -0.02551-4e-3 -0.03822-7e-3 -2.27e-4 -0.0364 1.41e-4 -0.0728 1.69e-4 -0.10918-0.0049-0.10871-0.0057-0.19108-0.0091-0.25168zm3.6319-0.97316c0.02189 0.0672 0.04409 0.12808 0.06532 0.17189 0.02859 0.059 0.07201 0.10926 0.11364 0.16054l0.14176-0.038c0.03501-0.0288 0.0695-0.0582 0.10459-0.0869 4e-3 0.0186 0.0077 0.0371 0.01172 0.0557l0.74224-0.19889c-0.02507-0.12008-0.04998-0.24019-0.07513-0.36025zm1.6253-0.43548c6.8e-4 0.12669 6.68e-4 0.25336 0.0013 0.38004l1.0407-0.27886 0.0035-9.4e-4c-1e-3 -0.0699-0.0015-0.11523-0.0072-0.37844zm1.6702-0.44752c0.03052 0.11861 0.06024 0.23744 0.0911 0.35597l2.7858-0.74645c-0.01805-0.0758-0.03623-0.15149-0.05446-0.22723-0.0049-0.0204-0.01975-0.081-0.03165-0.13008zm3.7157-0.99563c-0.03191 0.13525-0.06424 0.27033-0.09508 0.40586l1.8209-0.48791c-0.04704-0.11778-0.08593-0.23097-0.12654-0.34648zm1.8239-0.48871c0.02334 0.12039 0.04786 0.24071 0.07114 0.36132l0.7707-0.20651c-0.02556-0.11996-0.05076-0.23998-0.07613-0.35998zm0.86703-0.23232c0.03536 0.11734 0.07239 0.23417 0.10758 0.35155l0.89798-0.24061c-0.0042-0.12588-0.0071-0.25187-0.0092-0.37791zm1.1021-0.29532c-0.02753 0.13415-0.0551 0.26835-0.0826 0.40251l0.62245-0.16678c0.01209-0.0584 0.02424-0.11676 0.03654-0.17511 0.01502-0.0759 0.03104-0.15154 0.04606-0.22741zm1.4151-0.37918c0.01034 0.0523 0.02101 0.10462 0.03135 0.15692-0.1982 0.0615-0.38257 0.22156-0.52318 0.33759-0.0083 7e-3 -0.01951 0.018-0.02803 0.0252l1.3437-0.36005c-0.02333-0.11732-0.04778-0.23445-0.07022-0.35194-3.57e-4 -2e-3 -0.0017-7e-3 -0.0019-9e-3zm1.6153-0.43281c0.0091 0.0343 0.01605 0.0691 0.02551 0.10338 0.03318 0.081 0.05919 0.1657 0.09749 0.24404l0.63892-0.17119c0.1343-0.13536 0.23207-0.27131 0.30884-0.41873 0.0023-2e-3 0.0033-2e-3 0.0054-4e-3 -0.0014 7.7e-4 -0.0032 2e-3 -0.0047 2e-3 0.0083-0.016 0.01521-0.0333 0.02311-0.0495zm1.8673-0.50035c8e-3 0.0239 0.01481 0.0481 0.02303 0.0719 0.0047 0.0124 0.05298 0.14937 0.10801 0.27333l0.62644-0.16786c0.14759-0.1334 0.21025-0.24612 0.25032-0.44745zm1.3557-0.36326c0.02909 0.11899 0.05977 0.23757 0.08912 0.3565l2.1314-0.57111c8.88e-4 -9e-3 0.0023-0.0144 0.0032-0.0239 0.0065-0.12044 0.0099-0.24091 0.01498-0.36139zm2.9216-0.78283c0.0619 0.11048 0.12481 0.22018 0.18744 0.33015l1.1466-0.30722c-0.06796-0.1082-0.13504-0.21686-0.20042-0.32667zm1.8938-0.50744c-0.0048 0.1284-0.0122 0.25671-0.01772 0.38512l1.0927-0.29277c-0.0095-0.1241-0.02081-0.24808-0.0307-0.37216zm2.3705-0.63517c0.02598 0.0621 0.05367 0.1229 0.07822 0.18608 0.02032 0.0524 0.03815 0.10528 0.0568 0.15812l0.81063-0.21721c-0.03297-0.11795-0.06977-0.23473-0.10956-0.35102zm1.3867-0.37156c0.04327 0.11589 0.08697 0.23493 0.13054 0.34541l0.83908-0.22484c-0.05316-0.11232-0.10204-0.22471-0.14801-0.34072zm1.5509-0.41555c0.0085 0.0441 0.01021 0.0629 0.02061 0.11485 0.0098 0.049 0.0302 0.15113 0.05054 0.24646l1.0991-0.29451c0.02507-0.0252 0.0512-0.0515 0.07035-0.0729 0.02543-0.015 0.05177-0.0286 0.07771-0.0374 0.0034-1e-3 0.0065-3e-5 0.0099-1e-3 -0.02533 0.0298-0.05062 0.0597-0.07609 0.0894l1.5094-0.40445c-3e-3 -1e-4 -6e-3 4e-4 -9e-3 2.8e-4 0.02742-0.0908 0.04639-0.19202 0.05548-0.31607-0.0016-0.0207-0.0069-0.05-0.0093-0.0745l-1.5174 0.40659c8.6e-4 1e-3 0.0012 3e-3 0.0021 4e-3 -0.1492 0.13016-0.29113 0.26836-0.42652 0.41281-0.03281-0.0783-0.0532-0.15816-0.05796-0.17439-0.01018-0.0349-0.01703-0.0707-0.02618-0.10587zm3.9418-1.0562c-0.2161 0.20227-0.46622 0.43691-0.738 0.57813l0.52162-0.13977c0.18607-0.1744 0.36965-0.3515 0.55331-0.52864zm1.6138-0.4324c-2.26e-4 5e-3 -9.32e-4 0.0105-0.0011 0.0158-0.0054 0.12293-0.0098 0.24594-0.0151 0.36891l1.3108-0.35122c-0.0068-7e-3 -0.01456-0.0145-0.02042-0.0224-0.04901-0.0659-0.10354-0.1863-0.15603-0.31076zm1.5414-0.41302c-0.06178 0.14578-0.12647 0.29038-0.19591 0.43288l0.51363-0.13763c0.03348-0.0608 0.06174-0.11177 0.10802-0.19586 0.04009-0.0798 0.0734-0.16231 0.11086-0.24317zm1.3008-0.34855c0.0095 0.0508 0.0136 0.0695 0.02417 0.1262 0.01499 0.0786 0.02796 0.15762 0.04245 0.23633l0.74574-0.19982c-0.02114-0.12111-0.04293-0.2421-0.06415-0.36319zm1.1291-0.30254c0.04369 0.1151 0.08822 0.22989 0.13153 0.34514l0.0085-2e-3c0.03916-0.0385 0.07239-0.0694 0.05729-0.0517-0.01431 0.0167-0.02993 0.0325-0.04531 0.0485l1.5828-0.42412c-0.0068-0.12469-0.01606-0.24913-0.02521-0.37362zm1.9876-0.53258c0.02623 0.0541 0.05273 0.10613 0.07951 0.15096 0.03686 0.0617 0.08229 0.1178 0.1274 0.17398l0.50265-0.13469c0.02096-0.0225 0.04624-0.0549 0.06605-0.0749-0.0091 0.0134-0.01587 0.0283-0.02525 0.0415-5e-3 7e-3 -0.01828 0.0204-0.02533 0.0293l0.25357-0.0679c0.19497-0.16683 0.39009-0.35576 0.49491-0.51299l-0.48368 0.1296c-3e-3 6e-3 -0.0053 0.0127-0.0083 0.0188-0.0075-4e-3 -0.01581-8e-3 -0.02163-0.0108zm2.073-0.55546c0.0086 0.12465 0.01523 0.24938 0.02372 0.37403l1.7171-0.4601c0.04586-0.13636 0.09118-0.27299 0.14571-0.40658 0.0035-8e-3 0.0035-7e-3 0.0068-0.0147l-0.54408 0.14579c-0.03181 0.0707-0.0649 0.1499-0.10732 0.25238-0.0194-0.0503-0.04053-0.0999-0.05956-0.15042-0.0028-7e-3 -0.015-0.0405-0.01929-0.0521zm2.1239-0.5691c0.03606 0.10215 0.06074 0.22054 0.0886 0.35664l1.3218-0.35417c0.0094-0.0614 0.01918-0.13868 0.02888-0.17572 0.01-0.0694 0.0227-0.13836 0.02984-0.20809 2.47e-4 -3e-3 0.0023-9e-3 0.0029-0.0131l-0.42378 0.11355zm3.1706-0.84957c-0.04115 0.13339-0.08354 0.26641-0.12162 0.40066-0.0013 4e-3 -0.0022 9e-3 -0.0034 0.0132l1.478-0.39603c-0.01094-0.12392-0.02179-0.24786-0.0317-0.37188zm2.9365-0.78684c-0.2475 0.19485-0.30306 0.27459-0.42852 0.4952l0.97785-0.26201c-3e-3 -0.10434-5e-3 -0.22749-0.0312-0.37202zm0.80214-0.21494c-0.01536 0.13104-0.03131 0.26204-0.04716 0.39302l0.72877-0.19527c0.02276-0.13342 0.04717-0.26649 0.07162-0.39957zm1.0357-0.27752c0.0061 0.0729 0.01414 0.14558 0.01897 0.21854-0.10767 0.0777-0.19141 0.15286-0.2663 0.22811l0.99482-0.26656c-0.0034-0.12566-0.0052-0.25144-0.01324-0.37684zm1.6502-0.44218c0.02026 0.10251 0.04084 0.20507 0.07006 0.30544 0.0029 0.0179 0.0057 0.0359 0.0085 0.0539l0.87602-0.23473c0.0457-0.0575 0.08667-0.11832 0.11722-0.18549 0.03726-0.0819 0.06818-0.16631 0.09567-0.25193zm2.0984-0.56227c0.0014 4e-3 0.0057 0.0161 7e-3 0.02 0.03756 0.1094 0.07487 0.2189 0.11208 0.32842l0.80214-0.21494c-0.03224-0.0953-0.0823-0.24303-0.11756-0.34888zm-60.3 17.436c-0.071772 0.0171-0.14339 0.0362-0.2145 0.058-0.050723 0.0136-0.10151 0.0271-0.15224 0.0408l0.14806 0.55257c0.046802-8e-3 0.092684-0.0191 0.13998-0.0247 0.086407-7e-3 0.17226-0.0185 0.25825-0.0285l-0.1613-0.60197c-0.00606 1e-3 -0.012182 2e-3 -0.018236 4e-3zm0.23143 0.79184c-0.12706 0.0392-0.25315 0.0818-0.37937 0.12359l0.26656 0.99482c0.12937-0.0305 0.25869-0.0608 0.38846-0.0897zm62.24-16.631c-0.0655 0.0197-0.13097 0.0394-0.19656 0.0591-0.05186 0.0153-0.10386 0.0303-0.1558 0.0455l0.17748 0.66238c0.02043-5e-3 0.04094-9e-3 0.0613-0.0148-7e-3 0.014-0.02979 0.0566-0.04324 0.0822l0.12358 0.46122c0.09883-0.11496 0.18164-0.24155 0.27331-0.39958zm-61.21 16.906 0.23727 0.8855c0.020121 7e-3 0.031858 0.0113 0.053849 0.0193 0.00963 5.5e-4 0.019234 1e-3 0.028863 2e-3 -0.022559 0.0117-0.044931 0.0239-0.067465 0.0357l0.10379 0.38734c0.062361-0.0327 0.12503-0.0649 0.18726-0.0978 0.049282-0.0264 0.09636-0.0565 0.14397-0.0856l-0.32835-1.2254c-0.11978 0.0261-0.23941 0.053-0.35918 0.0791zm61.246-15.353 0.15475 0.57752c0.12224-0.0153 0.24608-0.0312 0.36801-0.0462l-0.15542-0.58002c-0.1266 0.0168-0.25649 0.034-0.36734 0.0487zm-61.82 16.781c-0.025638 0.0157-0.050856 0.0319-0.076671 0.0473-0.093244 0.0516-0.18869 0.0987-0.28397 0.14617l0.097101 0.36239c0.11682-0.0734 0.23495-0.14483 0.35569-0.21194zm-0.23278 0.67066 0.14552 0.54308c0.027427-7e-3 0.054975-0.0133 0.082396-0.0199 0.10137-0.026 0.20364-0.048 0.30553-0.0717l-0.14512-0.54158c-0.12918 0.0312-0.25875 0.0606-0.38833 0.0901zm1.2871-0.30582 0.17106 0.63842c0.035386 0.0694 0.10392 0.1347 0.21224 0.19511-0.045575 0.0286-0.091662 0.0563-0.13721 0.0849l0.090949 0.33942c0.1091-0.0665 0.21698-0.13513 0.32655-0.20091l-0.30401-1.1346c-0.12002 0.0252-0.2399 0.0509-0.35958 0.0776zm15.499-2.8833c-0.34116 0.0888-0.64574 0.19403-0.8733 0.30676-0.04527 0.0224-0.08824 0.0465-0.13144 0.0705-0.01325 7e-3 -0.02727 0.0141-0.04025 0.0215-0.02635 0.0151-0.05111 0.0316-0.07667 0.0473-0.02009 0.0126-0.04112 0.0243-0.06104 0.0377-0.21637 0.14063-0.40222 0.30366-0.55825 0.48824-0.16531 0.19115-0.29413 0.40723-0.38872 0.64771-0.0081 0.02-0.0163 0.0401-0.02393 0.0605-0.0094 0.026-0.01837 0.0523-0.027 0.0789-0.1107 0.32729-0.16531 0.69343-0.1595 1.0999 2e-3 0.13996 0.03338 0.35994 0.07685 0.60428 0.02545 0.17115 0.06567 0.35394 0.10783 0.53821 0.0026 0.0113 0.0051 0.0214 0.0077 0.0327 0.02087 0.0895 0.03613 0.1746 0.0609 0.26722 0.02492 0.0931 0.04952 0.17314 0.07441 0.25773 0.07286 0.26335 0.1474 0.50641 0.21678 0.67325 0.09041 0.21741 0.19262 0.41638 0.30075 0.60528 0.31563 0.0219 0.6284 0.0181 0.87069 0.0149 0.14653-2e-3 0.29303-0.01 0.43948-0.015-0.16618-0.23432-0.3182-0.50513-0.45559-0.81578-0.0062-0.0141-0.01223-0.0285-0.01839-0.0427-0.10616-0.24744-0.23245-0.6459-0.34089-1.0466-0.01194 4e-3 -0.02136 7e-3 -0.03477 0.012-0.04794-6.7e-4 -0.09586-1e-3 -0.1438-2e-3 -0.04944-0.0471-0.12737-0.0364-0.21777-2e-3 -0.04331-4.3e-4 -0.08658-1e-3 -0.12989-2e-3 0.16192-0.0418 0.3413-0.0883 0.48212-0.12544 0.0041-1e-3 0.0086-1e-3 0.01275-2e-3 -0.06794-0.26081-0.11945-0.498-0.15707-0.70798-0.07509 0.0113-0.1501 0.0231-0.22532 0.0336-0.0038 5.2e-4 -0.0076 9.1e-4 -0.01139 1e-3 -0.03279-0.0407-0.08559-0.0818-0.16502-0.1227 0.03565-0.0301 0.07151-0.0598 0.10691-0.0902 0.09218 0.0213 0.18402 0.0437 0.276 0.0657-0.0082-0.0534-0.02405-0.12411-0.02853-0.16837-0.02949-0.29138-0.03188-0.55259-0.0084-0.78794 0.0014-0.0116 0.0025-0.0233 0.0041-0.0348 9e-3 -0.08 0.02407-0.15399 0.03954-0.22781 0.0424-0.19312 0.10403-0.36909 0.18562-0.5232 0.0754-0.13426 0.17141-0.25139 0.28318-0.35675-0.0076-0.0229-0.01562-0.0457-0.02322-0.0687 0.02997-9e-3 0.06261-0.0192 0.08765-0.0283 0.0017 0.0119 0.0031 0.0238 0.0047 0.0356 0.11924-0.10006 0.25423-0.18866 0.41049-0.263 0.06418-0.0279 0.12735-0.0564 0.1957-0.0803 0.0051-2e-3 0.01066-3e-3 0.01584-5e-3 0.04943-0.0169 0.09866-0.0288 0.14845-0.043 0.2651-0.0679 0.55719-0.0952 0.80621-0.07 0.05058 7e-3 0.10138 0.013 0.15082 0.0238 0.02617 5e-3 0.0526 0.014 0.07895 0.0211 0.04178 0.011 0.08316 0.0235 0.12398 0.0374 0.06534 0.0236 0.1299 0.0568 0.19454 0.0891 0.1002 0.0179 0.20022 0.0367 0.30039 0.0549 0.0018 5e-3 0.0029 0.0103 0.0047 0.0153 0.01129 0.0322 0.01599 0.0855 0.02462 0.12983 0.02962 0.0223 0.05608 0.0487 0.0847 0.0725 0.0092-9e-3 0.01853-0.0172 0.0279-0.0257 0.10203-0.0486 0.17592-0.0841 0.24895-0.11913 0.06214 0.0121 0.1239 0.0263 0.18593 0.039 0.03321 0.1224 0.06648 0.24463 0.09995 0.36697-0.08965 0.0109-0.17932 0.0216-0.26896 0.0325 0.02139 0.0259 0.04605 0.0497 0.06597 0.0765 0.0041 6e-3 8e-3 0.0115 0.01207 0.0171 0.03842 0.0528 0.07457 0.10674 0.10652 0.16192 0.08998 0.15539 0.10583 0.1637 0.24468 0.1265 0.0034-8.8e-4 0.0051-8.2e-4 0.0086-2e-3l0.14675-0.0393-0.03305-0.0794-0.13564-0.41038c-0.08938-0.27011-0.22026-0.65949-0.29071-0.8653l-0.12816-0.37439-0.33839 0.011c-0.1786 6e-3 -0.36545 0.0213-0.55386 0.0414-0.16786 0.0129-0.32046 0.0323-0.48253 0.064-0.27374 0.0444-0.54347 0.0994-0.79322 0.16439zm6.6704-1.7846c-0.60559 0.16194-0.94527 0.2977-1.2586 0.51594-0.10132 0.0685-0.18976 0.13999-0.27207 0.21253-8.92e-4 7.6e-4 -0.0019 1e-3 -0.0027 2e-3 -0.0013 1e-3 -0.0024 2e-3 -0.0038 4e-3 -0.04803 0.0427-0.09345 0.086-0.13519 0.13038-0.03098 0.0317-0.05988 0.064-0.08763 0.0962-0.0012 2e-3 -0.0027 3e-3 -4e-3 5e-3 -0.31176 0.36446-0.419 0.76818-0.34535 1.2888 0.01347 0.11702 0.03552 0.23324 0.06789 0.34721 0.0533 0.21403 0.10658 0.33784 0.21932 0.51903 0.33027 0.53068 0.73881 0.73146 2.1114 1.0392 0.25788 0.0578 0.45292 0.10674 0.64354 0.15552 0.06304 0.0164 0.14349 0.0337 0.20115 0.0499 0.06491 0.0178 0.122 0.0352 0.17938 0.0525 0.05221 0.0162 0.10577 0.0326 0.15325 0.0488 0.02613 9e-3 0.05001 0.0178 0.07453 0.0266 0.05368 0.0195 0.10241 0.0394 0.15016 0.0593 0.5401-0.12623 0.95046-0.22096 1.2966-0.29822 0.06556-7e-3 0.1313-0.0113 0.19688-0.018-0.0086-0.0115-0.01522-0.0245-0.02403-0.0358-0.0087-0.0115-0.01872-0.0225-0.02778-0.0337-0.04916-0.0598-0.10087-0.11723-0.15932-0.17131-0.0039-4e-3 -0.0066-8e-3 -0.01059-0.0116-0.12382-0.11342-0.26133-0.20863-0.42753-0.29578-0.0055 6.9e-4 -0.0111 1e-3 -0.01664 2e-3 -0.43875 0.0549-0.87653 0.11851-1.3144 0.17993-0.0034-0.0353-0.0037-0.047-0.0077-0.0787 0.35016-0.0781 0.70021-0.15679 1.0504-0.2349-0.38388-0.16185-0.86755-0.29541-1.4997-0.41563-0.26004-0.0495-0.48241-0.10013-0.68298-0.15298 9e-3 0.0338 0.01832 0.0675 0.02715 0.10133-0.03782 9e-3 -0.07555 0.0176-0.11338 0.0261-0.0041-0.0507-0.0077-0.1014-0.01133-0.15211-0.48045-0.13461-0.78656-0.28978-0.97566-0.49452-0.0872 0.0106-0.17437 0.0215-0.26157 0.0321-0.08334-0.22688-0.16858-0.45313-0.2561-0.67823 0.09373 8e-3 0.1709 0.0148 0.26237 0.0228-5.26e-4 -0.0112-0.0021-0.0224-0.0026-0.0335-4.71e-4 -0.0234-0.0022-0.0468-0.0012-0.0703 3.17e-4 -0.0148 0.0017-0.0294 0.0026-0.044 0.01235-0.14833 0.05545-0.29593 0.12304-0.43528 0.01035-0.0199 0.02293-0.0393 0.03448-0.059-0.10342-9e-3 -0.20219-0.0185-0.32642-0.0302 0.12796-0.0194 0.25579-0.0397 0.3837-0.0595 0.07356-0.10531 0.16422-0.20631 0.27586-0.30022 0.04054-0.0341 0.07376-0.0593 0.10702-0.0838 0.07516-0.047 0.16078-0.0905 0.25816-0.1307 0.07726-0.0264 0.16753-0.0534 0.30411-0.089 0.19458-0.0505 0.32643-0.077 0.44126-0.0883 0.22198-9e-3 0.47091 0.0293 0.67952 0.0961 0.18156 0.0653 0.34024 0.16053 0.47856 0.28853 0.01723 0.0164 0.03433 0.0327 0.05136 0.0499 0.03296 0.0336 0.06454 0.0692 0.09543 0.10657-0.0019-0.0341-0.0041-0.0681-6e-3 -0.10218 0.0089-2e-3 0.01462-4e-3 0.02332-7e-3 0.0027 0.0184 0.0087 0.0416 0.01062 0.0576 0.0035 0.0283 9.3e-4 0.0591 8.68e-4 0.0891 0.02387 0.0306 0.048 0.0612 0.07028 0.0946 0.02087 0.0313 0.03146 0.041 0.04704 0.0618 0.03225-0.0523 0.06113-0.0977 0.10694-0.17792 0.04166 0.10108 0.08786 0.2 0.137 0.29766l0.12229-0.0328-0.01971-0.0616c5.42e-4 -0.0125-0.0021-0.0268-0.0088-0.0447-0.01701-0.0455-0.1241-0.379-0.23773-0.74146l-0.14027-0.44766-0.05631-0.21014-0.0094 9e-4 -6.71e-4 -2e-3 -0.23022 0.0152c-0.54313 0.0352-0.84239 0.0864-1.45 0.2489zm-22.743 6.0966c-0.11783 0.0705-0.23822 0.13674-0.3577 0.20445l0.28141 1.0502c0.12438-0.0489 0.24881-0.0977 0.37321-0.14654l-0.17923-0.66888c-0.10685 0.0258-0.21295 0.0547-0.32007 0.0793 0.097586-0.0607 0.19489-0.122 0.29225-0.18317zm13.158-3.4384-0.11454 0.0318-0.02745 7e-3c-0.02787 0.0318-0.05698 0.0627-0.0835 0.0957-0.0058-0.0229-0.01153-0.0458-0.01733-0.0687l-0.79466 0.21293c0.0021 0.0123 0.0037 0.0226 0.0081 0.0444 0.02326 0.11242 0.03945 0.22577 0.06022 0.33856-0.02919-3e-3 -0.05844-5e-3 -0.08762-8e-3 -0.15785-0.0132-0.3157-0.0276-0.47363-0.0405-0.01696-0.0631-0.03413-0.12604-0.0512-0.18904l-0.96537 0.25867 0.0325 0.12129c0.03196 0.11928 0.03802 0.12072 0.31968 0.069 0.16449-0.0302 0.28653-0.0336 0.39076-5e-3 0.04602 0.013 0.08901 0.0334 0.13122 0.0585 0.05469 0.0347 0.10736 0.0808 0.16208 0.14168 0.1251 0.13925 0.15129 0.22623 0.75321 2.4796 0.38752 1.4508 0.5363 2.0294 0.59617 2.3547 0.10216-0.0379 0.19775-0.0716 0.31266-0.11695 0.10231-0.0403 0.21568-0.0638 0.3131-0.11332-0.04147-0.18736-0.08653-0.38693-0.15392-0.66228-0.03522-0.14449-0.09554-0.37961-0.14024-0.55733-0.08386-0.33299-0.12024-0.49209-0.24965-0.99561-0.58946-2.2935-0.64209-2.525-0.6071-2.669 0.01075-0.0442 0.02682-0.0812 0.0434-0.11755 0.01171-0.0208 0.02104-0.0429 0.03518-0.0624 0.0035-5e-3 0.0081-0.0102 0.0119-0.0155 0.02857-0.0369 0.06186-0.0711 0.09881-0.10244 0.0254-0.0196 0.05086-0.0392 0.08265-0.0569 0.0056-4e-3 0.0111-7e-3 0.01686-0.0109 0.05461-0.0288 0.11813-0.0561 0.1934-0.0829 0.04969-0.0177 0.08188-0.0303 0.11472-0.043 0.14592-0.0414 0.15324-0.059 0.12376-0.16905l-0.0015-5e-3 -0.0325-0.12129zm-7.0468 1.8892 0.0325 0.1213 2.67e-4 1e-3c0.0078 0.0291 0.01418 0.0517 0.02345 0.0675 0.01694 0.0304 0.04805 0.0367 0.11368 0.0289 0.04212-4e-3 0.0955-0.0127 0.17716-0.0277 0.2128-0.0391 0.35612-0.0317 0.48064 0.0248 0.06999 0.0355 0.13537 0.0899 0.20282 0.16393 0.08566 0.14854 0.2163 0.59756 0.73831 2.4659 0.14396 0.51526 0.24935 0.88692 0.34787 1.2304 0.33575-0.092 0.67127-0.18493 1.0069-0.27729-0.10847-0.39265-0.2195-0.79681-0.37085-1.374-0.44697-1.7049-0.55429-2.1322-0.55928-2.3149l0.0138-0.0663c0.01478-0.071 0.03787-0.13315 0.06865-0.18906 0.09919-0.14106 0.27607-0.26366 0.478-0.31853 0.1217-0.0332 0.16453-0.0503 0.17529-0.0866 0.0069-0.0219 4e-3 -0.049-0.0085-0.0956l-0.03411-0.12728-1.4431 0.38667zm29.463-7.8945 0.0325 0.1213 2.67e-4 9.9e-4c0.02422 0.0904 0.03291 0.11363 0.15204 0.0962 0.0412-5e-3 0.09449-0.0149 0.16737-0.0283 0.20422-0.0375 0.34596-0.0346 0.46602 0.0201 0.07274 0.0349 0.13935 0.0907 0.20888 0.16658 0.10074 0.12012 0.18331 0.4046 0.8907 3.0446 0.50862 1.8982 0.68154 2.5595 0.73225 2.8506 0.34765-7e-3 0.70784-6e-3 1.0343 0.0267 0.01252 1e-3 0.02482 4e-3 0.03733 6e-3 -0.36107 0.10001-0.72178 0.20143-1.0827 0.3019-0.03916 0.10201-0.10103 0.1868-0.18567 0.25947-0.07227 0.0544-0.15922 0.10166-0.28015 0.14247-0.26661 0.0899-0.27039 0.0931-0.23808 0.21359l0.03277 0.12229 1.5609-0.41823c0.8587-0.23008 1.7118-0.47964 1.8956-0.55448 0.91373-0.37189 1.5205-0.87593 1.8421-1.5491-0.33364 0.0573-0.6672 0.11502-1.0009 0.17189-0.01826-0.0145-0.0435-0.0233-0.06638-0.0341-0.10696 0.21695-0.24658 0.40778-0.4241 0.57159-8.86e-4 7.8e-4 -2e-3 2e-3 -0.0031 2e-3 -0.04905 0.0451-0.10539 0.085-0.15983 0.12629 0.01087 7e-3 0.02249 0.0136 0.03036 0.0234-0.05893 0.0432-0.11882 0.0873-0.1894 0.1417-0.05627 0.0156-0.11267 0.0307-0.16894 0.0464-0.01787 0.01-0.03295 0.021-0.05126 0.0303-0.14855 0.0756-0.4735 0.19223-0.7218 0.25922-0.25667 0.0693-0.41058 0.0999-0.51769 0.0825-0.0693-0.0217-0.12642-0.061-0.1803-0.12182-0.0072-8e-3 -0.01428-0.0198-0.0213-0.0296-0.0102-0.0161-0.02025-0.0335-0.0306-0.0523-0.0045-9e-3 -0.0095-0.0187-0.01414-0.0289-0.02313-0.0484-0.09204-0.27766-0.17734-0.572-0.02542 8e-3 -0.04015 0.0124-0.06558 0.0208-0.12717 0.0213-0.25433 0.0425-0.3815 0.0637 0.0094-0.0247 0.01979-0.0482 0.02771-0.0743 0.03753-0.12363-0.21769-0.0738-0.37094-0.0686 0.2425-0.0525 0.48424-0.10817 0.72644-0.16201-0.39102-1.3762-1.1178-4.1158-1.2666-4.803-0.02739-0.15128-0.03556-0.24991-0.02787-0.31567 0.03364-0.16787 0.15932-0.23529 0.55683-0.3418 1.3493-0.36153 2.2585-0.0206 2.9084 1.0889 0.07763 0.14074 0.15272 0.29669 0.22589 0.46965 0.06851 0.18954 0.14406 0.45596 0.27748 0.95766 0.03386-0.0182 0.08929-0.0436 0.11271-0.0586 0.01803-5e-3 0.0663-0.0221 0.08505-0.026 0.01294-3e-3 0.08861-0.0192 0.10779-0.023 0.0099 0.0164 0.02057 0.0326 0.04 0.0455 0.23456 0.15504 0.54252-0.0223 0.83126-0.10825-0.08329-0.32537-0.19315-0.66258-0.31532-0.96517-0.05594-0.16359-0.11392-0.28376-0.19098-0.42122-0.0091-0.0178-0.0181-0.0378-0.02704-0.057-0.06275-9e-3 -0.13054-0.0175-0.18385-0.0272-0.03288-6e-3 -0.06477-0.0161-0.0973-0.0237-0.0059-0.12627-0.01184-0.25251-0.01803-0.37876 0.0076-4e-3 0.01481-8e-3 0.02234-0.0124-0.56604-0.77103-1.3722-1.1737-2.3464-1.1598-0.25486 4e-3 -0.51444 0.033-0.84144 0.0922 0.0037 0.0159 0.0075 0.0319 0.01117 0.0478 0.01922 0.0758 0.04037 0.15111 0.0597 0.22689-0.12559 0.0238-0.25096 0.0484-0.3766 0.072-0.01415-0.0817-0.0285-0.16362-0.04273-0.24534 0.0069-0.0107 0.01008-0.0235 0.01584-0.0347-0.37935 0.0821-0.84126 0.19652-1.5177 0.37777l-0.30349 0.0813c-0.30007 0.22864-0.38959 0.27367-0.40126 0.40925-0.0021 4.3e-4 -0.0044 7.7e-4 -0.0066 1e-3 -0.01791-9e-3 -0.03506-0.0107-0.04969 4e-3 -4e-3 4e-3 -5e-3 5e-3 -0.0089 9e-3 -0.07309 0.0153-0.1459 0.032-0.21908 0.0469-0.01331-0.0207-0.02762-0.0406-0.04101-0.0612 0.05736-0.0654 0.11613-0.12963 0.17143-0.1968 0.0085-0.0104-0.02524-0.0136-0.03856-0.0121-0.04936 5e-3 -0.09737 0.0196-0.14563 0.0315-0.02963 7e-3 -0.05869 0.0166-0.08822 0.0242-0.0064-0.01-0.01309-0.0193-0.01955-0.029zm26.709-7.0284c-0.11669 0.0377-0.23351 0.075-0.35022 0.11256l0.12679 0.4732c0.11661-0.038 0.23322-0.076 0.34982-0.11406zm-39.384 10.643c0.0097-2e-3 0.01938-5e-3 0.02909-7e-3 0.0044 0.0257 0.0088 0.0515 0.01322 0.0772-0.0067 1e-3 -0.01141 2e-3 -0.01801 3e-3 -4.2e-4 -1e-3 -6.49e-4 -3e-3 -0.0011-4e-3 -0.0052-0.0162-0.01673-0.0485-0.02322-0.0687zm-21.53 5.9456c-0.070596 0.0207-0.14091 0.0422-0.21057 0.0607-0.047835 0.0127-0.095613 0.0252-0.14339 0.0379l0.12559 0.46871c0.097178-0.11129 0.19442-0.22269 0.2907-0.33469zm60.703-15.958 0.27619 1.0308c0.10266-0.0282 0.20547-0.0558 0.30807-0.0842 6e-3 0.0476 0.01078 0.0955 0.01744 0.14298-0.06561 0.0579-0.1464 0.13958-0.24461 0.24316l0.10138 0.37836c0.08307-0.0157 0.17595-0.0348 0.19939-0.0326 0.01176-1e-3 0.02401-3e-3 0.03578-4e-3 0.0026 0.0321 0.0043 0.0644 0.0071 0.0965 0.0222 0.0266 0.02139 0.0646 0.0178 0.10437-0.06655 0.0201-0.13407 0.0375-0.20086 0.057l0.13241 0.49417c0.10809-0.0352 0.21706-0.0678 0.32413-0.10611 0.0085-4e-3 0.01633-8e-3 0.02475-0.0114l-0.62501-2.3326c-0.1247 8e-3 -0.24936 0.0156-0.37403 0.0237zm-18.457 5.0188c-0.0058 1e-3 -0.01073 5e-3 -0.01644 7e-3 -0.01434 4e-3 -0.02723 0.0109-0.04123 0.0159-0.03764 0.0134-0.07411 0.028-0.10849 0.0483-0.0054 3e-3 -0.01 8e-3 -0.01523 0.011-0.12509 0.0793-0.22375 0.20153-0.25348 0.36377-0.03745 0.20432-0.01191 0.31116 0.11207 0.47019 5e-3 6e-3 0.01073 0.011 0.01583 0.0172 0.0086 0.0102 0.01819 0.0194 0.02757 0.029 0.10867 0.11616 0.24174 0.18163 0.39561 0.18664 0.38065 0.0124 0.63381-0.33044 0.58942-0.66939-2e-3 -0.0409-0.01039-0.0744-0.02386-0.10703-0.02058-0.0625-0.04927-0.12377-0.09342-0.18094-0.14569-0.18865-0.37972-0.24297-0.58836-0.19116zm-29.001 7.8549c0.02098 0.0632 0.04257 0.12625 0.0636 0.18946-0.02211 3e-3 -0.04419 6e-3 -0.0663 8e-3 0.0022-0.0658 0.0017-0.13172 0.0027-0.1976zm-14.663 4.3226 0.30348 1.1326c0.026845-2e-3 0.053633-5e-3 0.080481-7e-3 0.10265 0.0401 0.22213 0.0574 0.34663 0.0617l-0.19902-0.74274c-0.013842 0.0145-0.027705 0.0288-0.041623 0.0443-0.095041 9e-3 -0.19012 0.0167-0.28511 0.0261 0.10814-0.0264 0.21589-0.0542 0.32366-0.0819l-0.14164-0.52861c-0.12876 0.0325-0.258 0.0633-0.38686 0.0956zm0.73059 1.1872c-0.12506 0.0469-0.249 0.0967-0.37388 0.14405l0.25987 0.96986c0.13052-0.026 0.26091-0.0525 0.3914-0.0787l-0.14472-0.54009c-0.019692 4e-3 -0.039279 8e-3 -0.058972 0.0115-0.053515 0.01-0.10719 0.0192-0.16071 0.0292 0.069861-0.026 0.14005-0.0511 0.20992-0.0771zm0.9058-1.6091c-0.1178 0.0335-0.23639 0.0642-0.35463 0.0961l0.16812 0.62744c0.00757-3e-3 0.015226-6e-3 0.02279-9e-3 -0.00683 6e-3 -0.013219 0.013-0.019984 0.0193l0.27191 1.0148c0.042337-0.0152 0.084318-0.0312 0.1267-0.0463 0.073378-0.026 0.14691-0.052 0.22044-0.0778zm39.778-10.323c0.0029-3.8e-4 0.0059-3.9e-4 0.0089-7.7e-4 -4e-5 0.0106 1e-3 0.0212 1e-3 0.0318zm11.754-2.6852c-0.04093 0.0135-0.08206 0.0318-0.12266 0.0553-0.09695 0.0561-0.17997 0.13557-0.25061 0.23675-0.0034 5e-3 -0.0066 0.0101-0.0099 0.015-0.01893 0.0282-0.03624 0.0591-0.05325 0.0908-0.0057 0.0115-0.01066 0.0253-0.01617 0.0375-0.03456 0.0695-0.06549 0.14653-0.0924 0.23019 0.49832-0.24439 0.62268-0.33907 0.66167-0.68928-0.03843 4e-3 -0.07743 0.0108-0.11668 0.0238zm-40.96 11.146c0.07407-0.0108 0.18627-0.0265 0.27724-0.0395 0.01051 0.10888 0.0214 0.21767 0.03082 0.32665-0.01212 0.0109-0.02282 0.0232-0.03464 0.0344-0.0022 2.2e-4 -0.0045 5.5e-4 -0.0068 7.4e-4 -0.0085 0.0114-0.01869 0.0218-0.02752 0.0331-0.01534 0.0152-0.03121 0.0299-0.04612 0.0455-0.02423 5e-3 -0.04848 9e-3 -0.07272 0.0141-0.0376-0.13052-0.08172-0.2796-0.1203-0.41502zm9.4744-2.2316c0.11226-0.0136 0.2245-0.0274 0.33676-0.041 0.0017 0.0231 0.0035 0.0462 0.0052 0.0692-0.08242 0.0761-0.16372 0.1533-0.24315 0.2326-0.0083-0.0217-0.01736-0.0431-0.0259-0.0648-0.02483-0.0652-0.04848-0.13074-0.07286-0.19608zm-7.283 2.0002c0.0023 2e-3 0.0053 2e-3 0.0075 4e-3 0.01315 0.0113 7.9e-4 0.0131-0.01823 0.0118 0.0034-5e-3 0.0073-0.0105 0.01077-0.0157zm13.383-3.257c-0.3918 0.11441-0.73972 0.31903-0.98762 0.55299-0.3457 0.32644-0.49152 0.71037-0.28172 0.99515 0.28353-0.0633 0.56705-0.1266 0.85058-0.18993 0.02863-0.11318 0.02915-0.24461-0.0094-0.38856-6e-3 -0.0224-0.0093-0.0439-0.01262-0.0651 3.98e-4 -0.09 0.0062-0.17064 0.02188-0.21184 4.92e-4 -1e-3 0.0013-2e-3 0.0018-4e-3 0.01293-0.0325 0.03325-0.0625 0.05561-0.0919 0.04883-0.0584 0.11831-0.11093 0.21019-0.15797 0.3817-0.19537 0.77769-0.16922 1.0157 0.067 0.08494 0.0843 0.18218 0.27536 0.27373 0.50445 0.21232-0.0475 0.42472-0.0947 0.63702-0.14233 0.02034 0.0729 0.04118 0.14551 0.0617 0.21832-0.20496 0.0511-0.41053 0.0998-0.61558 0.1505 0.0095 0.0283 0.01846 0.0511 0.02837 0.0839l0.07525 0.24894 0.08236 0.30534-0.38354 0.13594c-0.37301 0.13228-0.70536 0.28779-0.98065 0.45322-0.04266 0.0231-0.09311 0.0489-0.12408 0.068-0.08206 0.0507-0.16309 0.11544-0.24105 0.18656-0.1278 0.10446-0.23308 0.21003-0.3057 0.31464-0.03158 0.0455-0.06782 0.12528-0.10111 0.21166-0.01668 0.0367-0.03018 0.0726-0.03945 0.10634-0.0028 0.0101-0.0032 0.0203-0.0058 0.0304-0.0055 0.0186-0.01434 0.0382-0.01874 0.0559-0.0028 0.0112-0.0039 0.0195-0.0064 0.0301 0.2896-0.0581 0.57926-0.11563 0.8689-0.17344 0.05212-0.237 0.2152-0.45185 0.47675-0.63866-0.14724 0.0295-0.29454 0.0587-0.44176 0.0884 0.18242-0.0461 0.32547-0.0835 0.49364-0.12638 0.16331-0.1085 0.35904-0.20726 0.59237-0.29301l0.16856-0.0617 0.15061-0.0409 0.03287 0.1426 0.0024 0.0111c0.04499-0.0115 0.0972-0.0249 0.14217-0.0365 0.17051-0.0105 0.34131-0.0189 0.51166-0.0312 0.0019 6e-3 0.0035 0.0123 0.0055 0.0183-0.07524 0.0138-0.15024 0.0294-0.22554 0.0428-0.13896 0.0277-0.27792 0.0557-0.4169 0.0834l0.04826 0.22407c0.0225 0.1037 0.03736 0.20465 0.05173 0.30285 0.01392-3e-3 0.02791-5e-3 0.04187-7e-3 -0.01553 4e-3 -0.02566 6e-3 -0.04121 0.01 0.02311 0.15854 0.03786 0.30179 0.03144 0.37891-0.0037 0.0446-0.01585 0.0907-0.02603 0.13645 0.21318-0.051 0.39597-0.0934 0.59954-0.14246-0.05261 0.0638-0.11914 0.14138-0.17409 0.2248-0.16156 0.0393-0.32307 0.0788-0.48463 0.11808-0.06905 0.17255-0.17232 0.33253-0.29324 0.43702-0.12988 0.11223-0.28991 0.178-0.44329 0.19849-0.0956 0.01-0.19045 8e-3 -0.27438-0.0217-0.03023-0.0105-0.05705-0.0285-0.08547-0.0434-0.11524-0.0712-0.23247-0.1924-0.31895-0.3238-0.31681 0.0475-0.63361 0.0951-0.95039 0.14284 0.01244 0.0403 0.02491 0.0804 0.0415 0.11888 0.04953 0.14838 0.0973 0.23009 0.17767 0.31566 0.17982 0.19146 0.44242 0.3321 0.70758 0.37857l-1.37e-4 -5.2e-4c0.18074 0.0317 0.27857 0.0187 0.61469-0.0839 0.50364-0.15376 0.7768-0.36424 0.99036-0.76237 0.10605-0.19779 0.13404-0.24876 0.15473-0.2132l2e-3 5e-3c0.0064 0.0131 0.01249 0.0328 0.02009 0.0609 0.02692 0.0999 0.11348 0.20253 0.21974 0.28299 0.01485 0.0115 0.02896 0.0227 0.04468 0.033 0.03254 0.0212 0.06563 0.0376 0.10029 0.0528 0.01296 6e-3 0.02505 0.0124 0.03827 0.017 0.01126 4e-3 0.02204 0.0113 0.03334 0.0146 0.12989 0.0382 0.23078 0.0274 0.52092-0.0545 0.3098-0.0875 0.46407-0.14187 0.53423-0.20252 0.0025-2e-3 0.01007-4e-3 0.0123-6e-3 0.0099-8e-3 0.01486-0.0222 0.02186-0.0342 0.0013-2e-3 0.0031-4e-3 0.0042-6e-3 0.01576-0.031 0.02474-0.0674 0.01559-0.10154-0.0051-0.0189-0.0099-0.0329-0.01654-0.0437-0.01555-0.0529-0.04591-0.0455-0.17149 7e-3 -0.14469 0.0603-0.31501 0.0638-0.42187 0.0189-0.02367-0.0153-0.04686-0.0312-0.06811-0.0545-0.0065-7e-3 -0.01407-0.0255-0.02064-0.0351-0.04325-0.0873-0.25599-0.78805-0.49879-1.6479-0.05143-0.18174-0.08-0.28118-0.12085-0.42504-0.11641-0.41698-0.22293-0.78875-0.2865-0.97343-0.01985-0.0598-0.03667-0.0962-0.05283-0.13724-0.0032-7e-3 -0.0086-0.0248-0.01128-0.0301-0.0011-2e-3 -0.0021-4e-3 -0.0031-6e-3 -0.04562-0.10811-0.08597-0.17817-0.1401-0.24333-0.03287-0.0396-0.06653-0.0746-0.10072-0.10837-0.07921-0.0835-0.16757-0.14829-0.26721-0.19857-0.0053-3e-3 -0.01072-5e-3 -0.01606-8e-3 -0.03551-0.0171-0.07261-0.0326-0.11134-0.0461-0.01556-6e-3 -0.0315-0.0107-0.04752-0.0156-0.03748-0.0114-0.07689-0.0209-0.11757-0.0295-0.0075-1e-3 -0.01459-3e-3 -0.02215-5e-3 -0.01818-4e-3 -0.03499-8e-3 -0.05384-0.0112-0.02634-4e-3 -0.0605-5e-3 -0.09261-6e-3 -0.0138-1e-3 -0.02779-2e-3 -0.04191-3e-3 -0.0063 0-0.01219 1.1e-4 -0.01869 1.9e-4 -0.11284-4e-3 -0.2348-3.8e-4 -0.37117 0.0144-0.14481 0.0157-0.28705 0.0447-0.42402 0.0847zm23.57-6.3108c-0.09451 0.0279-0.18959 0.0588-0.28429 0.097-0.18084 0.0731-0.32228 0.146-0.44855 0.22077-0.05387 0.0298-0.10658 0.0603-0.15198 0.0937-0.16033 0.11676-0.27635 0.24553-0.36824 0.40468-0.10322 0.17879-0.16115 0.35528-0.17613 0.55063-4.58e-4 3e-3 -6.2e-5 7e-3 -4.49e-4 0.0103-0.01278 0.18561 0.01246 0.38832 0.07538 0.62875 0.13262 0.5066 0.30136 0.77935 0.62843 1.0156l0.25417 0.18387-0.06841 0.16599c-0.06297 0.1533-0.09737 0.30432-0.10692 0.44755 0.15258-0.0369 0.30557-0.0722 0.45807-0.10937-0.0259-0.0997-0.02722-0.21575 0.0036-0.31984l0.0089-0.0307c0.03211-0.0934 0.0505-0.0986 0.25142-0.092 0.21211 7e-3 0.65889-0.0982 1.0139-0.22138 1e-3 -3.3e-4 0.0014-9.2e-4 0.0024-1e-3 0.1484-0.0516 0.28377-0.10467 0.3738-0.15634 0.07316-0.042 0.14044-0.0872 0.20306-0.13466-0.25689 0.0653-0.52198 0.13666-0.77506 0.2002-0.32405 2e-3 -0.64798 2e-3 -0.97203 4e-3 0.63975-0.12097 1.2777-0.23516 1.9166-0.35252 0.11181-0.11293 0.2012-0.23824 0.26755-0.37717 0.0012-3e-3 4e-3 -6e-3 0.0052-8e-3 0.0023-5e-3 0.0037-0.0105 6e-3 -0.0155 0.01521-0.0335 0.02938-0.0677 0.04202-0.10275 6.11e-4 -2e-3 7.12e-4 -3e-3 0.0014-5e-3 0.02853-0.0801 0.05267-0.16315 0.06797-0.25147 0.02006-0.11573 0.01725-0.21275-0.01322-0.36881-0.01941-0.19902-0.07039-0.40044-0.14869-0.59092-0.05166 0.0108-0.10321 0.0222-0.15488 0.0329 0.01306-0.0486 0.01417-0.0942-0.02321-0.12057-0.02295-0.0162-0.04742-0.0284-0.07248-0.0389 0.0615-0.0116 0.12331-0.0215 0.18484-0.0329-0.04494-0.10691-0.09364-0.18968-0.18387-0.29687-0.10308-0.12246-0.23805-0.25423-0.29987-0.29254l-0.04687-0.0292-0.0635-0.0493 0.01462-0.0772c-0.07929-1.7e-4 -0.17521-3.1e-4 -0.19104-1.7e-4 -0.41022 3e-3 -0.82004 0.0214-1.23 0.0359 1.96e-4 -5e-3 3.14e-4 -0.0108 4.85e-4 -0.0162zm-6.7839 1.8183-0.58991 0.26025c-0.87803 0.388-0.85494 0.37527-0.83157 0.46249 0.01623 0.0606 0.07729 0.0739 0.28092 0.0601 0.19139-0.013 0.3029 7e-3 0.41949 0.078l0.03774 0.0231c0.02501 0.0196 0.05055 0.0382 0.07138 0.0627 0.03175 0.0373 0.09745 0.22071 0.17461 0.46199l0.30512 1.1027c0.13911 0.5022 0.24335 0.89336 0.31478 1.1809 0.01505 0.0654 0.02295 0.10835 0.03512 0.165 0.27824-0.0498 0.55651-0.0993 0.83471-0.14929-0.09031-0.27714-0.22426-0.74434-0.47686-1.6479-0.01642-0.061-0.02377-0.0846-0.04088-0.14848-0.0101-0.0377-0.0133-0.0476-0.02298-0.0837-0.18202 0.0498-0.34744 0.0954-0.55063 0.15128-0.0056 2e-3 -0.01132 3e-3 -0.01697 5e-3 -0.0027 5.4e-4 -0.0054 1e-3 -0.0081 2e-3 0.19201-0.0521 0.38384-0.10488 0.57572-0.15748-0.0022-8e-3 -0.0029-0.0109-0.0051-0.019-0.05184 8.1e-4 -0.09874-0.0274-0.1416-0.0792 0.03838 1e-3 0.07052 3e-3 0.10309 3e-3 -0.01057-1.9e-4 -0.02115-4.1e-4 -0.03172-6e-4 0.05767 2.8e-4 0.0171 1e-3 0.05017 2e-3 -5.5e-5 -2e-4 -8.2e-5 -3e-4 -1.37e-4 -5.1e-4 -0.04265-0.15881-0.06996-0.25801-0.10468-0.38657-0.06175 0.0171-0.12343 0.0344-0.18528 0.0513-0.0095-0.0246-0.01966-0.0469-0.0289-0.072 0.06693-9e-3 0.13383-0.0182 0.20072-0.0276-0.14914-0.54946-0.25257-0.92194-0.30549-1.0743zm-11.163 3.0007c-0.04312 0.0111-0.07756 0.0253-0.1167 0.0377 0.0053 0.0157 0.0106 0.0314 0.01583 0.0471-0.08113 0.0136-0.16193 0.0294-0.24295 0.0437-0.17783 0.0891-0.3166 0.20588-0.44347 0.38151-0.14159 0.17863-0.255 0.40168-0.33418 0.64166-0.02818 0.0752-0.05959 0.15563-0.07218 0.20979l-0.06756 0.29095-0.16125-0.59771c-0.01526-0.0565-0.0272-0.0943-0.04201-0.14657-0.02664-0.0974-0.05062-0.18177-0.06872-0.24052-0.01547-0.0516-0.02201-0.0683-0.03358-0.10335-0.0031-8e-3 -0.0077-0.0227-0.01071-0.0298-0.01117-0.0315-0.02865-0.0899-0.03212-0.092-9.38e-4 -4.3e-4 -0.05113 0.0216-0.0564 0.0231-0.0018 4.3e-4 -3e-3 -8.2e-4 -0.0049-3e-4 -0.0066 2e-3 -0.08577 0.0375-0.10317 0.0442-0.24347 0.0929-1.0325 0.43058-1.2751 0.55031-0.0017 8.1e-4 0.0034 0.0188 0.0034 0.0248-7.96e-4 0.0159 0.0019 0.037 0.0082 0.0604 1.03e-4 3.9e-4 1.68e-4 6.4e-4 2.67e-4 1e-3 2.1e-4 7.9e-4 1.92e-4 7.2e-4 4.04e-4 2e-3 0.01685 0.0629 0.06249 0.079 0.18852 0.0666 0.11061-0.0108 0.19708-9e-3 0.27366 1e-3 0.04066 8e-3 0.08224 0.014 0.11917 0.0274 8.97e-4 2.8e-4 0.0016 6.8e-4 0.0024 9.6e-4 0.03797 0.014 0.07016 0.0345 0.10282 0.0543 0.01707 0.0123 0.03537 0.0221 0.05114 0.0371 0.10692 0.10191 0.14417 0.21911 0.54491 1.7142 0.29158 1.0878 0.40368 1.5147 0.39759 1.7274-0.0026 0.0117-0.0019 0.0254-0.0052 0.0367l-3.75e-4 6.5e-4c-0.02051 0.071-0.05416 0.13359-0.0986 0.18906-0.0088 8e-3 -0.01566 0.0162-0.0254 0.025-0.05507 0.0497-0.17775 0.12568-0.27256 0.16879-0.13274 0.0603-0.16712 0.0971-0.15037 0.1596 6.8e-5 2.5e-4 1.34e-4 5.1e-4 2.74e-4 1e-3l1.37e-4 5.1e-4c0.0025 9e-3 0.0054 0.0171 0.01054 0.0234 0.0037 5e-3 0.01079 7e-3 0.01772 0.0102 0.0028 1e-3 0.0039 3e-3 0.0075 4e-3l5.11e-4 -1.4e-4 6.48e-4 3.7e-4c0.0091 2e-3 0.03772-4e-3 0.05233-4e-3 0.06419-2e-3 0.17199-0.0225 0.42534-0.0877 0.0015-4e-4 0.0018-5e-4 0.0035-9.4e-4 0.1015-0.0261 0.26179-0.0693 0.40808-0.10825-0.17856 0.0284-0.35714 0.0568-0.5357 0.0852 0.32508-0.0941 0.65081-0.18846 1.02-0.29419-0.03394 0.0344-0.06639 0.0701-0.099 0.10571 0.17332-0.0465 0.34755-0.093 0.46194-0.12488 0.02516-7e-3 0.0309-0.01 0.0535-0.016 0.0042-0.0143 0.0068-0.029 0.01144-0.0432 0.13297-0.0606 0.27118-0.10903 0.41082-0.15395-6.8e-5 -2.6e-4 -1.37e-4 -5.1e-4 -2.74e-4 -1e-3 -0.01743-0.0651-0.06395-0.0773-0.22137-0.0595-0.23862 0.0271-0.43256-0.0476-0.56309-0.21666-0.0159-0.0206-0.0358-0.0634-0.05747-0.1146-0.01558-0.0381-0.03249-0.0835-0.04958-0.13117-9e-3 -0.0255-0.01801-0.0466-0.02757-0.075-0.02711-0.0797-0.05595-0.18713-0.08445-0.28124-0.15845-0.53074-0.32855-1.2374-0.33182-1.476-0.0051-0.37276 0.12147-0.97862 0.2653-1.278 0.0052-0.0109 0.01025-0.0213 0.01551-0.032 0.09993-0.19673 0.20664-0.33255 0.33677-0.42033 0.01433-9e-3 0.02618-0.0171 0.04231-0.0258 0.01704-0.01 0.03403-0.0194 0.05193-0.0278 0.03647-0.0171 0.07287-0.0294 0.1096-0.0422 0.03239-0.01 0.06569-0.018 0.101-0.0244 0.14118-0.0256 0.25089-0.0198 0.34232 0.0217 0.0077 3e-3 0.01523 7e-3 0.02276 0.011 0.0888 0.0478 0.1602 0.13233 0.22627 0.26143 0.03296 0.0644 0.09164 0.24348 0.15924 0.46451 0.0845 0.28499 0.19126 0.66613 0.30824 1.1024 0.06533 0.24364 0.07691 0.30124 0.12243 0.4749 0.03282 0.13065 0.05489 0.23083 0.08361 0.34996 0.28303-0.0478 0.56611-0.0954 0.8491-0.14353-0.07287-0.24303-0.15693-0.53384-0.27487-0.95193-0.20706-0.734-0.33416-1.1649-0.44004-1.4566-0.0908 0.0212-0.18163 0.0423-0.27245 0.0634-0.04974 6e-3 -0.12742 0.0165-0.17586 0.0225-0.10254 0.0128-0.20518 0.0248-0.30773 0.0375 0.24664-0.0579 0.49317-0.1161 0.73978-0.17415-6.06e-4 -2e-3 -0.0016-5e-3 -0.0023-6e-3l-0.06598-0.2343-0.08709-0.0954c-0.08041-0.12644-0.1637-0.19072-0.28239-0.25924-0.22291-0.12868-0.47168-0.13858-0.87241-0.0353zm13.179-3.4222c-0.0049 3e-3 -0.01003 5e-3 -0.0149 8e-3 -0.47789 0.30092-0.74073 0.77101-0.76993 1.3774-0.0061 0.12739 0.01119 0.29828 0.03869 0.48183 0.02201 0.17504 0.05438 0.35668 0.10615 0.54988 0.02682 0.1001 0.0569 0.19548 0.08845 0.2882 0.05695 0.18024 0.11829 0.34701 0.18228 0.47064 0.43051 0.83178 1.1108 1.2551 1.9828 1.2342 0.3736-9e-3 1.296-0.26263 1.6193-0.44567 0.01023-6e-3 0.01417-8e-3 0.02358-0.0138 0.011-6e-3 0.02678-0.0122 0.03643-0.0178 0.13006-0.0751 0.17061-0.10581 0.17579-0.16854 4.61e-4 -5e-3 0.0037-0.0105 0.0036-0.0165-6.14e-4 -0.0251-0.0056-0.0559-0.01276-0.0956l-0.03027-0.16683-0.13113 0.0736c-0.07214 0.0404-0.34169 0.12931-0.59874 0.19735-0.20236 0.0537-0.31882 0.0809-0.41788 0.0917-0.15851 6.8e-4 -0.31267-0.019-0.46237-0.0564-0.03173-8e-3 -0.06352-0.0163-0.0947-0.026-0.04262-0.0131-0.08524-0.0264-0.12694-0.0425-0.06077-0.0237-0.1204-0.0504-0.17885-0.0805-0.02907-0.0148-0.05752-0.0313-0.08604-0.0476-0.35612-0.20671-0.6648-0.53531-0.91551-0.97287-0.27917 0.0609-0.55865 0.1204-0.83767 0.18219 0.27177-0.0726 0.54307-0.14689 0.81471-0.21995-0.08568-0.1539-0.16442-0.32081-0.23531-0.50083l-0.09336-0.2366 1.4231-0.38131 0.0075-2e-3 1.4201-0.38051 0.01-3e-3 -0.06376-0.19798-0.01204-0.0449c-0.03127-0.1167-0.07307-0.22281-0.11939-0.32378-0.10974-0.26528-0.25003-0.43976-0.47527-0.59971-0.02049-0.0151-0.04045-0.0309-0.0618-0.045-0.01702-0.0112-0.02907-0.0227-0.04707-0.0339-0.02897-0.018-0.06133-0.0302-0.09153-0.0461-0.01746-9e-3 -0.03464-0.0182-0.05259-0.0266-0.06272-0.0299-0.12726-0.0552-0.19433-0.0763-0.0012-3.2e-4 -0.0023-3.7e-4 -0.0034-7.1e-4 -0.04144-0.0129-0.08488-0.0207-0.12749-0.0306-0.15257 0.0356-0.30517 0.071-0.45774 0.1066-0.32256 0.0679-0.64491 0.13719-0.96766 0.20418-0.08097 0.0111-0.16539 0.0224-0.25202 0.0338zm10.023-2.6588c-0.20588 0.10913-0.31206 0.19079-0.48504 0.38409 0.06246-3e-3 0.12382 2e-3 0.18396 0.0117 0.09071 0.0194 0.1819 0.0507 0.27178 0.0978 0.07651 0.0401 0.14676 0.0885 0.21448 0.14155 0.27394 0.23543 0.50446 0.64042 0.68478 1.184 0.31571-0.0711 0.61866-0.14199 0.89912-0.21042-0.01427-0.0419-0.02695-0.0871-0.04213-0.12728-0.0062-0.0161-0.01239-0.0326-0.01887-0.0484-0.21545-0.54725-0.51698-0.92844-0.93657-1.1812-0.10172 0.0157-0.20298 0.0335-0.30493 0.048-0.0057 5.3e-4 -0.01484 2e-3 -0.02076 2e-3 0.08392-0.0314 0.16944-0.0587 0.25385-0.0889-0.21574-0.11655-0.45353-0.18798-0.69966-0.21324zm-54.836 14.854 0.14258 0.5321c0.12026-0.0244 0.24055-0.0486 0.36078-0.0731l-0.14164-0.5286c-0.1205 0.0236-0.24117 0.0462-0.36172 0.0696zm54.708-14.626c6e-3 -7.5e-4 0.0081 2e-3 0.0035 7e-3 -0.01954 0.0233-0.0416 0.0442-0.06244 0.0665-0.0081-6e-3 -0.01426-0.014-0.01331-0.0237 0.0022-0.0214 0.05428-0.0476 0.07224-0.0499zm-9.157 2.4814c0.20594-0.0563 0.4247-0.0377 0.6149 0.0626 0.0184 0.0105 0.03684 0.0209 0.05483 0.0329 0.0338 0.0218 0.06727 0.0479 0.10032 0.0769 0.02343 0.0205 0.04604 0.0428 0.06855 0.0662 0.03044 0.0317 0.06044 0.0645 0.08843 0.10042 0.01775 0.0227 0.03444 0.0477 0.05148 0.0723 0.02596 0.0381 0.04696 0.0785 0.06918 0.11842 0.07273-0.0181 0.1455-0.036 0.2182-0.0542-0.0087 0.0419-0.01795 0.0843-0.02506 0.12014-0.0047 4e-3 -0.01351 0.0117-0.01828 0.0156-0.04167 6e-3 -0.08339 0.0109-0.12507 0.0164 0.02095 0.0468 0.04172 0.0938 0.05412 0.14011l0.04427 0.16522-0.95938 0.25707-0.99132 0.26562-0.01146-0.14459c-0.02367-0.29233 0.07011-0.69019 0.21326-0.90724 0.0013-2e-3 0.0023-4e-3 0.0036-6e-3 0.13551-0.20198 0.33503-0.33905 0.54937-0.39758zm4.1047-1.0993c0.15555-0.037 0.31822-0.0398 0.46506 5.8e-4 0.43582 0.11981 0.79898 0.69437 0.87326 1.3822 0.04399 0.40739-0.02576 0.66012-0.23356 0.84741-0.10373 0.0934-0.22724 0.1527-0.43336 0.20761-0.14574 0.0388-0.26659 0.0534-0.37557 0.0439-0.0086-1e-3 -0.0182-3.6e-4 -0.02673-2e-3l-5.12e-4 1.3e-4c-0.09144-0.017-0.17506-0.0527-0.25497-0.097-0.08545-0.0546-0.16986-0.12931-0.26102-0.2334-0.05316-0.0607-0.09308-0.10814-0.12591-0.15244-0.03439-0.0563-0.06726-0.11582-0.09732-0.1815-0.03737-0.0933-0.07145-0.21155-0.12761-0.4243-0.06735-0.25545-0.10103-0.42672-0.10616-0.56593-9.5e-5 -0.0882 0.0093-0.16747 0.02831-0.23977 0.01602-0.0525 0.03589-0.10373 0.06516-0.15817 0.11225-0.20885 0.35165-0.3657 0.61092-0.42744zm3.2069-0.77421c-0.03702 0.0509-0.07186 0.10321-0.10314 0.15817-0.0984 0.17289-0.16773 0.35056-0.21373 0.53609-0.0018 7e-3 -0.0028 0.014-0.0045 0.021-0.01378 0.0583-0.02553 0.11744-0.03424 0.1777-1e-3 7e-3 -0.0031 0.0138-4e-3 0.0209-0.0011 8e-3 -0.0011 0.018-0.0021 0.0262-0.0019 0.0157-0.0015 0.0326-0.0031 0.0484 0.23802-0.0419 0.47556-0.0866 0.71374-0.12758-0.03144 0.0381-0.06253 0.0766-0.10954 0.14223-0.20428 0.0437-0.40874 0.0865-0.61304 0.13003-0.01123 0.30032 0.02968 0.62783 0.13136 1.0054 0.01605 0.0596 0.03368 0.11353 0.05072 0.16938 0.125-0.0334 0.24912-0.0687 0.36926-0.11338 0.1779-0.0227 0.36132-0.0465 0.54098-0.0695-0.11139-0.37054-0.20346-0.78875-0.233-1.1012-0.0078-0.21477 0.0022-0.4185 0.03783-0.59756 0.05804-0.26268 0.16731-0.46963 0.32128-0.61787-0.0126 3e-3 -0.02524 6e-3 -0.03784 9e-3 -0.19761 0.0203-0.39272 0.0702-0.58681 0.13209-0.05803 0.0132-0.15782 0.0367-0.22014 0.051zm-16.635 4.4755c0.01304 0.0273 0.02565 0.0548 0.0386 0.0822-0.14752 0.0358-0.29504 0.0716-0.44256 0.10735-0.0033-0.0234-0.0063-0.0468-0.0097-0.0702 0.14293-0.0406 0.26235-0.0777 0.41366-0.1194zm4.1694-1.0674c0.03749-9e-3 0.07512-0.0178 0.11261-0.027-0.04573 0.0873-0.10343 0.17889-0.14522 0.26468-0.0072 6e-3 -0.01445 0.0127-0.02163 0.0192 0.01539-0.0458 0.02987-0.0884 0.04891-0.15488 0.0026-0.034 0.0033-0.068 0.0053-0.102zm21.007-5.5717c-0.02576 0.0241-0.05365 0.046-0.07904 0.0704-0.03223 0.031 0.01044 0.0888 0.0159 0.13324 0.03969 4e-3 0.07959 5e-3 0.11944 7e-3zm-0.24349 0.51089 0.1831 0.68334c0.1182-0.0321 0.23637-0.0642 0.35463-0.0961l-0.17655-0.65889c-0.14045 0.0279-0.22472 0.0443-0.36119 0.0716zm-10.387 2.794c0.01076 4e-3 0.0017 8e-3 -0.01224 0.0102 0.0041-3e-3 0.0081-7e-3 0.01224-0.0102zm-29.539 7.9294c0.03761-9e-3 0.07539-0.0168 0.11301-0.0255 6.18e-4 2e-3 0.0013 5e-3 0.0019 7e-3 -0.03836 6e-3 -0.07654 0.0127-0.11489 0.0185zm14.654-3.889c0.19958-0.0472 0.39923-0.094 0.59881-0.14119 0.0092 0.0206 0.01913 0.0408 0.02824 0.0615-0.12948 0.03-0.259 0.0596-0.38846 0.0896-0.07911 6.2e-4 -0.1583 3e-4 -0.23741 4.8e-4 -4.47e-4 -4e-3 -6.85e-4 -7e-3 -0.0011-0.0104zm-35.305 9.5946c-0.11747 0.0348-0.23459 0.0709-0.35196 0.10607l0.23928 0.89299c0.1243-9e-3 0.24862-0.0186 0.37296-0.0277zm-1.237 0.37317c-0.12708 0.0388-0.25459 0.0762-0.38164 0.1151l0.27632 1.0312c0.071409-0.0275 0.13261-0.0508 0.25067-0.0987 0.039834-0.0161 0.082757-0.0275 0.12428-0.0413zm40.761-10.86c0.09102 0.35156 0.14997 0.59507 0.17477 0.75405 0.01588 0.16663 0.02452 0.32906 0.02305 0.48335-0.0088 0.28053-0.04473 0.53504-0.1096 0.76498 0.0056-1e-3 0.01106-3e-3 0.01662-4e-3 -0.02092 0.055-0.03639 0.1179-0.04748 0.1882-0.0204 0.0373-0.03899 0.0677-0.06095 0.10995-0.01902 0.0365 0.0083 0.0341 0.04836 0.0208 0.02285 0.12106 0.33352-0.0727 0.48961-0.0975 0.17491-0.0281 0.34911-0.0604 0.52384-0.0895 0.15443-0.36869 0.2298-0.78497 0.22605-1.2568 2.31e-4 -0.0175 0.0016-0.0341 0.0016-0.0518 4.27e-4 -0.20872-0.0037-0.33533-0.03945-0.52656-0.01476-0.11857-0.03372-0.24004-0.05653-0.3647-0.01088-0.0595-0.02622-0.12249-0.03969-0.1841-0.38381 0.0827-0.76693 0.16847-1.1502 0.25363zm5.4435-1.0766c0.52514-0.073 1.0504-0.14446 1.5755-0.21779-0.44768 0.13532-0.88494 0.26392-1.3103 0.38481-0.13942-2e-3 -0.27896-2e-3 -0.41837-4e-3 -0.0042-6e-5 -0.0083-3.5e-4 -0.01241-4.2e-4 0.05959-0.0472 0.11593-0.0994 0.16561-0.16261zm15.806-4.1335 0.14017 0.52312c0.12039-0.0239 0.24075-0.048 0.36119-0.0716l-0.14057-0.52461c-0.12027 0.0243-0.24054 0.0486-0.36078 0.0731zm-54.73 15.023c0.27714 0.93527 0.39194 1.1847 0.60685 1.4542 0.0013 2e-3 0.0027 3e-3 4e-3 5e-3 0.01999 0.025 0.03766 0.0487 0.05981 0.0754 0.44997 0.54395 1.1266 0.73842 2.0727 0.59541 0.42732-0.0646 1.1809-0.29803 1.5333-0.47506 0.04688-0.0236 0.08763-0.0499 0.13136-0.0748 0.0075-4e-3 0.0208-0.01 0.02735-0.0137 0.0056-3e-3 0.01034-7e-3 0.01587-0.0107 0.30982-0.18428 0.53821-0.40646 0.68948-0.67533 0.03224-0.0549 0.06124-0.11079 0.08591-0.16854 0.0051-0.0122 0.0086-0.0254 0.0134-0.0378 0.02263-0.0572 0.04157-0.11612 0.05708-0.17633 0.01145-0.0419 0.02073-0.0856 0.02954-0.12935 2.04e-4 -8.8e-4 1.77e-4 -2e-3 3.12e-4 -3e-3 0.03084-0.15434 0.04924-0.31812 0.04817-0.49707-1.99e-4 -0.0336-0.0067-0.0849-0.01545-0.14352-0.22473 0.0591-0.44987 0.11673-0.67496 0.17444 0.0019 0.17729-0.01168 0.34055-0.04708 0.48716-0.0021 9e-3 -0.0042 0.0173-0.0065 0.0258-0.12181 0.46824-0.45134 0.78304-1.0187 1.0022-0.07994 0.0242-0.17231 0.0505-0.2888 0.0822-0.18945 0.0513-0.30686 0.0809-0.40456 0.10145-0.1768 0.0205-0.34163 0.0168-0.4952-0.0112-0.07005-0.0141-0.13317-0.0331-0.19506-0.0531-0.40778-0.14057-0.72844-0.47854-0.97838-1.0218-0.01958-0.0495-0.03901-0.096-0.06004-0.15618-0.0021-6e-3 -0.0047-0.0132-0.0069-0.0196-0.03286-0.095-0.07747-0.25129-0.11904-0.39235-0.04459 0.0114-0.07735 0.0191-0.12184 0.0304-0.10011 3e-3 -0.20106 4e-3 -0.29948 6e-3 -0.21421 7e-3 -0.42885 0.0139-0.64323 0.0193zm16.363-4.3427c0.1149 0.0736 0.21513 0.15318 0.30635 0.25282 0.10536 0.11509 0.16221 0.23026 0.22297 0.45278 0.0069 0.0254 0.0096 0.0505 0.01494 0.0757 0.35269-0.0708 0.70547-0.14103 1.0582-0.21185-0.02167-0.21354-0.07349-0.42987-0.16403-0.64405-0.03778-0.0894-0.08221-0.17194-0.13046-0.25126-0.43565 0.10994-0.87168 0.21841-1.3079 0.32586zm-22.128 6.0554c-0.068333 0.0958-0.12887 0.19548-0.17403 0.30289-0.040276 5e-3 -0.080416 0.0115-0.12068 0.0168l0.85385 3.1866c0.0056-9.6e-4 0.01113-2e-3 0.01675-3e-3 0.07339 0.15588 0.14704 0.31182 0.22245 0.46682-0.03487 0.0173-0.06677 0.0357-0.10076 0.0532l0.24061 0.89798c0.11102-9e-3 0.22452-0.0181 0.32822-0.027 0.01629 0.0308 0.03103 0.0625 0.04745 0.0932-0.03905 0.0113-0.07837 0.0218-0.11739 0.0331-0.07521 0.0218-0.14361 0.0418-0.21493 0.0624l0.39991 1.4925c0.12609-3e-3 0.25209-5e-3 0.37817-8e-3l-0.18377-0.68584c-0.0663 1e-3 -0.13264 3e-3 -0.19889 2e-3 -0.05033-8.7e-4 -0.10076-2e-3 -0.1511-3e-3 0.09914-0.0451 0.19878-0.0895 0.29756-0.13537 0.0048-2e-3 0.0094-5e-3 0.01417-7e-3zm-1.6135 0.50724 0.15675 0.58501c0.13247-0.0191 0.26522-0.0366 0.39796-0.0542l-0.15782-0.58901c-0.13229 0.0195-0.26461 0.0387-0.39689 0.0582zm56.552-15.042c0.0018 7e-3 0.0042 0.0116 6e-3 0.0182 0.10473 0.39289 0.15345 0.7439 0.15292 1.0499 0.04783-0.0398 0.09683-0.0784 0.1457-0.11715 0.23476-0.0354 0.46994-0.0683 0.70488-0.10274 0.02179-0.28128-0.0018-0.58462-0.07262-0.90394-0.27887-0.0106-0.55914 0.0206-0.83747 0.0452-0.03318 3e-3 -0.06619 7e-3 -0.09935 0.0106zm-3.1273 1.0354c0.11201 0.36495 0.24767 0.65291 0.42119 0.88704 0.28244-0.0751 0.56652-0.15234 0.85076-0.23116-0.05257-0.0834-0.10394-0.17347-0.15338-0.27294-0.0703-0.14145-0.13845-0.33833-0.20238-0.54764-0.30508 0.0545-0.60994 0.10895-0.91618 0.1647zm8.9854-2.1118 0.50891 1.8993c0.05821-0.0124 0.11639-0.0249 0.17462-0.0371-0.03586 0.0254-0.0721 0.0502-0.1074 0.0764-0.01206 1.9e-4 -0.03147 7.4e-4 -0.05625 2e-3l0.0011 4e-3c0.01525 1.7e-4 0.03082-1.2e-4 0.04577 1e-3 -0.0127 9e-3 -0.02523 0.0191-0.03774 0.0288l0.24235 0.90445c0.11757-0.0524 0.1648-0.0727 0.30036-0.13291 5e-3 -3e-3 0.03295-0.0164 0.03916-0.0196l-0.57004-2.1274c-0.02022-3e-3 -0.04066-6e-3 -0.06082-9e-3 -0.09612-0.0177-0.2112-0.0413-0.33246-0.0687 0.11997-0.0316 0.26034-0.0706 0.34728-0.0936l-0.1387-0.51762c-0.11866 0.0304-0.23731 0.0608-0.3561 0.0906zm-47.48 12.749c-0.08005 0.0287-0.16456 0.2055-0.191 0.36736-0.12466 0.11091-0.24798 0.2241-0.37129 0.33542 0.0099 9e-3 0.01906 0.0197 0.02906 0.0286 0.01009 2e-3 0.02147 3e-3 0.0278 6e-3 0.1317-0.0294 0.2624-0.063 0.39391-0.0932 0.09908 0.0503 0.22979-0.0148 0.3627-0.086 0.15197-0.0358 0.30354-0.0732 0.45545-0.10919-0.01088-8e-3 -0.0219-0.0147-0.03272-0.0223-0.06522-0.045-0.1287-0.0942-0.19075-0.14684-0.04609-0.0395-0.09176-0.0806-0.1366-0.12443-0.05008-0.049-0.09912-0.10091-0.14702-0.15535-0.04102 9e-3 -0.08209 0.0185-0.1234 0.0267-0.02342-0.0294-0.04948-0.0362-0.07616-0.0267zm-14.366 3.9354c-0.12787 0.0359-0.25623 0.07-0.38416 0.10568l0.30414 1.1351c0.15168-0.0142 0.26335-0.0294 0.39876-0.0512l-0.17267-0.64441c-0.012751-6.6e-4 -0.025506-7.5e-4 -0.038247-9.8e-4 0.00873-8e-3 0.019663-0.0171 0.030763-0.0269zm20.096-5.3435 0.15545 0.47034c0.08551 0.25862 0.18666 0.58466 0.22466 0.72463 4.16e-4 2e-3 7.64e-4 3e-3 0.0012 5e-3 0.47166-0.12446 0.9487-0.25025 1.5351-0.40061 0.5478-0.0831 1.0953-0.16676 1.6427-0.25239-0.77894 0.23632-1.5578 0.47274-2.336 0.71206-0.08355 5e-4 -0.16712-5.2e-4 -0.25035 6e-3 -0.16034 0.0127-0.35468 0.0411-0.54683 0.0716 0.02693 0.0766 0.053 0.14076 0.06892 0.15541 0.0018 2e-3 0.01028 2e-3 0.01386 4e-3l0.01275 0.0356 0.2667-0.0329c0.26391-0.0148 0.65894-0.0583 1.0461-0.12302 0.47088-0.0788 1.1223-0.28587 1.5131-0.48085 0.0203-0.0101 0.04326-0.0267 0.06417-0.0381 0.04413-0.0233 0.08764-0.0465 0.13313-0.0742 0.02503-0.0153 0.04704-0.0318 0.07128-0.0474 0.01297-9e-3 0.02518-0.0163 0.03818-0.0252 0.19439-0.12893 0.36431-0.2682 0.50501-0.4194 0.08958-0.0897 0.16843-0.17733 0.22096-0.25555 0.2254-0.3356 0.33025-0.7215 0.31519-1.1218-0.34793 0.0819-0.69606 0.16292-1.0442 0.24395 4e-3 0.0455 0.0077 0.0911 0.0071 0.13614-0.0078 0.1496-0.03729 0.30032-0.09131 0.4439-3e-3 8e-3 -0.0068 0.0149-0.01002 0.0225-0.01778 0.045-0.04059 0.0881-0.06272 0.13129-0.09078 0.16225-0.21682 0.31414-0.38051 0.45077-0.1738 0.14503-0.28477 0.19793-0.65922 0.31307-0.31738 0.0976-0.58274 0.13836-0.82908 0.12638-0.05064-3e-3 -0.10102-7e-3 -0.15041-0.0143-0.0464-7e-3 -0.0924-0.0154-0.13808-0.0261-0.02881-6e-3 -0.05688-0.014-0.08498-0.0216-0.04098-0.012-0.08203-0.0246-0.12301-0.0398-0.20819-0.0775-0.46354-0.26243-0.62583-0.43685-0.02564-0.0285-0.05045-0.0564-0.0716-0.0835-0.0263-0.0347-0.04917-0.0683-0.0641-0.0995-0.01389-0.0289-0.02539-0.0497-0.03674-0.0672-8.17e-4 -3e-3 -0.0025-4e-3 -0.0035-7e-3l-6.48e-4 -3.7e-4c-0.0097-0.0269-0.03218-0.0377-0.06459-0.0394-0.02674-3e-3 -0.05915 8.6e-4 -0.11156 0.0149zm5.2808-1.2245c-0.01419 0.10006-9e-3 0.18261 0.01961 0.30879 0.0087 0.0628 0.02305 0.12383 0.04058 0.18333 0.24659-0.0579 0.60636-0.14409 0.90643-0.21506-0.01188-0.0224-0.02607-0.0447-0.03558-0.067-0.0148-0.0385-0.0262-0.0778-0.03633-0.11759-0.02465-0.10488-0.02472-0.20604-0.01265-0.30477-0.22388 0.0539-0.53889 0.13144-0.71485 0.17335-0.05566 0.0133-0.11152 0.0257-0.16719 0.0389zm8.5068-1.9193c-0.27386 0.092-0.54781 0.1838-0.82168 0.27581 0.04517 0.19443 0.08335 0.36536 0.09816 0.46214 0.1178-0.0396 0.2356-0.0792 0.35337-0.11876-0.0088 0.0163-0.01398 0.032-0.01935 0.0496-0.11101 0.0263-0.22207 0.0524-0.33312 0.0786 0.0055 0.0383 0.01184 0.0793 0.01 0.0931-0.02853 0.21164-0.15913 0.37332-0.37932 0.46918-0.13955 0.0607-0.17497 0.0951-0.16222 0.15528 0.22598-0.0548 0.45352-0.10374 0.67802-0.14904-0.01603 0.0263-0.03173 0.0498-0.04751 0.0743 0.14271-0.0374 0.2957-0.0781 0.5169-0.1374 0.26837-0.0719 0.4717-0.12635 0.62703-0.16966 0.15813-0.044 0.26389-0.0756 0.33625-0.10081 2.14e-4 -7e-5 7.71e-4 -1.9e-4 1e-3 -2.7e-4 0.06876-0.024 0.10797-0.0432 0.12636-0.0595l5.12e-4 -1.4e-4c0.0027-3e-3 0.0025-5e-3 0.0044-8e-3 0.0044-6e-3 0.0093-0.0119 0.01023-0.0177 0.0013-8e-3 -9.6e-5 -0.016-0.0024-0.025l-1.37e-4 -5.2e-4c-6.6e-5 -2.5e-4 -1.37e-4 -5.1e-4 -2.74e-4 -1e-3 -0.01674-0.0625-0.06493-0.0772-0.21002-0.063-0.10366 0.0101-0.24787 6e-3 -0.32044-0.01-0.02502-5e-3 -0.04635-0.0116-0.0675-0.0183-0.03944-0.0186-0.07793-0.0434-0.11456-0.0742-0.07877-0.0847-0.15726-0.28968-0.28362-0.7051zm15.245-3.9355c0.0033 0.0464 0.0056 0.0938 0.01614 0.1321 0.01165 0.0424 0.03436 0.0886 0.06067 0.13461 0.07597 0.16219 0.19946 0.29065 0.36913 0.36333l0.11603 0.0497c0.0026 3e-3 0.0115 7e-3 0.01207 9e-3 4.79e-4 2e-3 -0.0063 0.01-0.0073 0.0127l-0.12201 0.13166c-0.1869 0.20229-0.34922 0.53572-0.36095 0.74139-0.0029 0.051 0.0065 0.12828 0.02195 0.20972 0.03852 0.29574 0.18965 0.53171 0.42792 0.69853 0.02887 0.0208 0.05916 0.0402 0.09061 0.0586 0.03109 0.0178 0.06243 0.0351 0.096 0.0508 0.05497 0.0264 0.11351 0.0491 0.17478 0.0693 0.01705 5e-3 0.0334 0.0113 0.05092 0.0163 0.28035 0.0824 0.61711 0.10648 1.0028 0.0587l-1.37e-4 -5.1e-4c0.35861-0.0444 0.96082-0.24017 1.2908-0.41971 0.25837-0.14054 0.48725-0.32296 0.67408-0.52515 0.0312-0.0329 0.05834-0.0666 0.08656-0.10024 0.02564-0.031 0.05149-0.0617 0.07502-0.0934 0.02937-0.0396 0.05634-0.0798 0.08171-0.12033 0.03074-0.0479 0.05765-0.0961 0.08318-0.14481 0.0065-0.0132 0.01441-0.026 0.02052-0.0392 0.04033-0.0818 0.07333-0.1643 0.09827-0.24621-0.1999 0.0343-0.40004 0.0671-0.59999 0.10084-0.0059 0.0234-0.01131 0.0475-0.01939 0.0694-0.10467 0.28394-0.36031 0.57264-0.67509 0.76296-0.78499 0.47464-1.6112 0.4914-2.0598 0.0415-0.32557-0.3265-0.38453-0.7043-0.16826-1.0752l0.07897-0.13458 0.07545-0.0978 1.0431-0.26613c0.75343-0.19196 1.0796-0.26423 1.2794-0.23474 0.08755 0.0247 0.15538 0.0582 0.21485 0.097 0.01976 0.0157 0.03925 0.0306 0.05988 0.0498 0.13952 0.1294 0.2138 0.40285 0.19417 0.64881 0.1983 5e-3 0.42241 8e-3 0.58302 0.0155 0.022-0.077 0.03719-0.15351 0.04253-0.22861 0.03707-0.52094-0.2012-1.0588-0.54907-1.2385-0.38912-0.20101-0.77606-0.17216-1.978 0.1491-0.77102 0.20605-1.0626 0.26116-1.2257 0.20752-0.02674-0.0118-0.05113-0.0269-0.07382-0.0439-0.12527 0.028-0.44494 0.0994-0.58095 0.12999zm4.3042-1.0816c0.11384 0.12046 0.24068 0.22717 0.38685 0.32166 0.0017 1e-3 0.0035 2e-3 0.0052 3e-3 0.01569 0.0101 0.02968 0.0212 0.04577 0.0311 0.04548 0.0278 0.0918 0.049 0.13773 0.0728 0.02275 0.0117 0.04476 0.0251 0.06792 0.0358 0.24988 0.11764 0.50804 0.17895 0.78537 0.18171l-1.37e-4 -5.1e-4c0.11396 1e-3 0.29299-0.031 0.47809-0.0746 0.07982-0.0181 0.1557-0.0383 0.23424-0.0622 0.18444-0.0547 0.35899-0.11652 0.46172-0.17561 0.17212-0.099 0.32115-0.21929 0.44866-0.35616-0.10705 0.0231-0.21419 0.0458-0.32125 0.069-0.0024-0.0111-4.12e-4 -0.0195-0.0035-0.0311 0.12818-0.0355 0.25656-0.0701 0.3848-0.1053 0.14757-0.17504 0.26036-0.37598 0.33765-0.59872-0.2663 0.0625-0.53296 0.12333-0.79938 0.1853-0.04072 0.14502-0.09892 0.27197-0.17694 0.3759-1e-3 1e-3 -0.0023 2e-3 -0.0033 4e-3 -0.04086 0.0537-0.08662 0.10202-0.13747 0.14383-0.08771 0.0722-0.24803 0.14992-0.38395 0.18634-0.3845 0.10303-0.71902-3e-3 -1.0115-0.31266-0.15824 0.0364-0.31624 0.0738-0.47448 0.11002-0.15402-2e-3 -0.30808-2e-3 -0.4621-4e-3zm-10.213 2.7982c0.03323 0.16215 0.05695 0.29433 0.05521 0.34579-0.0039 0.0343-0.01035 0.0675-0.02039 0.0996-3e-3 9e-3 -0.0055 0.0178-9e-3 0.0265-0.01716 0.0461-0.04089 0.0897-0.07051 0.13017-0.0026 4e-3 -0.0046 7e-3 -0.0072 0.011-0.06867 0.0894-0.1672 0.16324-0.29158 0.21562-0.1656 0.0697-0.2015 0.10255-0.18408 0.16756 0.01597 0.0596 0.05591 0.0657 0.55936-0.0648 0.15623-0.0402 0.36081-0.095 0.62935-0.16699 0.26633-0.0714 0.47313-0.1267 0.62753-0.16979 0.31051-0.0865 0.42588-0.12693 0.46361-0.1606 0.0093-8e-3 0.01371-0.017 0.01512-0.0254 0.0013-8e-3 -8.9e-5 -0.016-0.0024-0.025l-1.37e-4 -5.1e-4c-6.6e-5 -2.6e-4 -1.37e-4 -5.1e-4 -2.74e-4 -1e-3 -0.01674-0.0625-0.06493-0.0772-0.21002-0.063-0.26019 0.0254-0.42579-0.0194-0.55338-0.1465-0.0183-0.0195-0.03538-0.0403-0.05171-0.0632-0.02902-0.0467-0.06752-0.14774-0.11465-0.28813-0.27832 0.0594-0.55673 0.11837-0.83484 0.17875zm-28.938 7.8325c0.14459 0.089 0.29303 0.1696 0.4489 0.23175 0.06003 0.0246 0.12057 0.0475 0.1819 0.0679 0.0022 7.9e-4 0.0043 1e-3 0.0064 2e-3 0.23472 0.0774 0.47878 0.12169 0.7283 0.13441 0.0033-8e-3 0.0071-0.0153 0.01039-0.0231 0.40339-0.0939 0.807-0.18662 1.2102-0.28147 0.28021-0.0683 0.56045-0.13667 0.84067-0.20493-0.49708 0.16113-0.99217 0.32808-1.4875 0.49434 0.02242-2e-3 0.0444-3e-3 0.06697-6e-3 0.33916-0.0425 0.84658-0.19977 1.3167-0.38491 0.0552-0.0201 0.12774-0.0417 0.1701-0.06 0.03593-0.0156 0.08794-0.0423 0.13231-0.0633 0.21516-0.0953 0.41282-0.19233 0.55816-0.28491l0.09822-0.0627 0.11596-0.0664-0.0017-6e-3 -0.06406-0.2391-8.02e-4 -3e-3 -0.065-0.24259-1.36e-4 -5.1e-4 -0.05046 0.0333-0.24933 0.16365c-0.39134 0.2566-1.3252 0.55086-1.791 0.56763-0.04645 1e-3 -0.09161 9.9e-4 -0.13688 3e-4 -0.22341-5e-3 -0.43434-0.0364-0.63398-0.0939-0.18922 0.0818-0.37506 0.1692-0.55016 0.26886l-5.11e-4 1.4e-4c-0.28494 0.0142-0.56929 0.0359-0.85366 0.0586zm25.783-6.7266c0.1107-0.0188 0.2214-0.0376 0.33211-0.0564-0.02685 0.0247-0.05655 0.0539-0.08439 0.0804-0.12891 0.0354-0.25782 0.0707-0.38666 0.10635 0.04638-0.0434 0.09314-0.0863 0.13896-0.13032zm-0.37398 0.12373c0.0017 3e-3 0.0045 6e-3 0.0057 9e-3 0.0053 0.0159-0.0048 0.0399-0.02033 0.0659-0.02459 7e-3 -0.04919 0.0134-0.07374 0.0203 0.02976-0.0316 0.05878-0.0636 0.0884-0.0954zm22.943-5.4407c0.01925-3e-3 0.03841-6e-3 0.05764-8e-3 -0.01196 6e-3 -0.02387 0.0112-0.0353 0.018-0.0079-4e-3 -0.01461-6e-3 -0.02235-0.01zm-62.158 16.689c-0.12806 0.0351-0.2563 0.0698-0.38444 0.10465l0.21855 0.81562c0.13034-0.0272 0.26098-0.051 0.39153-0.0782zm52.171-12.27c0.01676-3e-3 0.03348-6e-3 0.05025-8e-3 -0.0192 6e-3 -0.03839 0.0125-0.0576 0.0186 0.0031-4e-3 0.0043-7e-3 0.0073-0.0105zm-45.648 12.259 0.05698 0.21264 1.0193-0.27311c0.01697-0.012 0.03411-0.0237 0.05079-0.0361 0.02063-3e-4 0.10189-4e-3 0.09646-3e-3l27.457-7.3571c-0.11535-6e-3 -0.25434-0.0152-0.3345-0.0184-0.08945-4e-3 -0.17904-5e-3 -0.26851-8e-3 -0.0046-0.0121-0.0093-0.0242-0.01402-0.0364l-2.5477 0.68266c-0.0048 3e-3 -0.0094 7e-3 -0.01423 0.0108-0.02485 4e-3 -0.04975 9e-3 -0.07462 0.013l-4.42 1.1842zm29.017-7.7752c0.03099 0.0666 0.06543 0.13346 0.1024 0.20047l0.97835-0.26214c-0.05185-0.0269-0.10074-0.0737-0.14782-0.12839 0.18835-0.0282 0.37639-0.0581 0.56462-0.0871-0.03725 0.0444-0.07338 0.0897-0.11132 0.13362l0.02497-7e-3c0.0062-8e-3 0.0064-0.0111 0.0044-0.0113 0.05174-0.0548 0.10494-0.0979 0.16169-0.10538 0.04206-6e-3 0.08571 6e-3 0.13236 0.0368l8e-3 -2e-3c0.02822-0.0301 0.05494-0.0615 0.08294-0.0918 0.20428-0.0318 0.40857-0.0633 0.61288-0.0947l5.7278-1.5348c0.01245-0.0254 0.0246-0.0511 0.03329-0.0774 0.01893-0.0193 0.03835-0.0378 0.05759-0.0566-0.01128 0.01-0.0214 0.0211-0.03475 0.0281-0.0034 2e-3 -0.01213 5e-3 -0.01591 6e-3 0.0123-0.0442 0.02074-0.0892 0.01788-0.13694-1.81e-4 -3e-3 -0.0018-4e-3 -0.0023-6e-3l-2.8003 0.75033c0.11303-5e-3 0.22606-0.01 0.33909-0.0144-0.22998 0.0362-0.46006 0.0719-0.68999 0.10838zm12.274-3.2889c0.0143-3e-3 0.02863-6e-3 0.04298-9e-3 0.04302 0.0512 0.09326 0.0952 0.14989 0.13211-0.464 0.14268-0.92815 0.28439-1.3922 0.42655l2.1778-0.58354-0.12782-0.0797-0.12832-0.0796zm5.6949-1.5259-0.0973 0.14003-0.0978 0.14016 4.1245-1.1052-0.05698-0.21264-1.9362 0.51881zm-3.8161 1.1022c0.095-0.0215 0.18998-0.043 0.28497-0.0646-0.05513 0.0172-0.11022 0.0346-0.16535 0.0518-0.03992 4e-3 -0.07965 9e-3 -0.11962 0.0128zm-49.219 13.271c-0.067516 0.0784-0.13381 0.16325-0.19828 0.26231-0.037195 0.0571 0.122 0.0611 0.18293 0.0917 0.036799 3e-5 0.073547-1.5e-4 0.11032 4e-4zm7.2612-1.9456c0.0033 0.0188 0.01059 0.0441 0.01256 0.0608-0.03039 3.1e-4 -0.05982 1e-5 -0.08892-2e-3 0.02571-0.0192 0.05095-0.0389 0.07636-0.0584zm54.65-14.495 0.69803 2.6051c0.06599-2e-3 0.13194-4e-3 0.19795-6e-3 0.0061 3e-3 0.013 7e-3 0.01885 0.0104 0.06104 0.0261 0.12358 0.0513 0.18544 0.0771l-0.33317-1.2434c-0.03413 3e-3 -0.06826 6e-3 -0.10238 9e-3 0.02775-0.027 0.05567-0.0538 0.08312-0.0811l-0.39228-1.464c-0.1183 0.0317-0.23714 0.0614-0.35558 0.0925zm-62.025 17.244c-0.026913 5e-3 -0.052552 0.0133-0.076568 0.0237l0.17106 0.63842c0.12967-0.0292 0.25918-0.0587 0.3886-0.0891l-0.17441-0.6509c-0.054659 0.0163-0.10925 0.0329-0.16389 0.0493-0.045713 0.0139-0.096551 0.019-0.1448 0.0286zm0.49219 0.60694c-0.10069 0.10779-0.20043 0.23139-0.30654 0.39137-9.61e-4 2e-3 8.124e-4 3e-3 7.16e-5 4e-3l0.011101 0.0414c0.029999 0.03 0.097371 0.0541 0.1373 0.0691 0.070493 0.0265 0.18764 0.0381 0.30547 0.0439zm1.5652 0.85176c-0.11741 0.035-0.23514 0.0688-0.35263 0.10358l0.13201 0.49267c0.11906-0.0359 0.23657-0.0714 0.35182-0.10657zm-1.2392 0.36469c-0.12759 0.0369-0.25544 0.073-0.38311 0.10961l0.13054 0.48717c0.12781-0.0362 0.25531-0.0734 0.38311-0.10961zm-0.24575 0.62224 0.14886 0.55556c0.13205-0.0206 0.26427-0.0399 0.39635-0.0602l-0.14926-0.55706c-0.13197 0.0207-0.26401 0.0409-0.39595 0.0617zm62.629-16.72c-0.1181 0.0325-0.23612 0.0652-0.35422 0.0976l0.56856 2.1219-2.8741 0.77013c0.07967 2e-3 0.15932 4e-3 0.23901 5e-3 0.02555 0.0848 0.05201 0.16937 0.07723 0.25429-0.09976 0.0144-0.20516 0.0285-0.32064 0.0453-0.0088-0.0991-0.01661-0.19817-0.02456-0.2973l-1.459 0.39095c0.0116 0.0402 0.02334 0.0799 0.03452 0.11861-0.07421 0.0108-0.18653 0.0266-0.27774 0.0396-0.0029-0.0303-0.0054-0.0606-0.0083-0.0909l-4.6861 1.2556c0.09517 0.0279 0.19101 0.0536 0.28806 0.0748-0.07516 0.0614-0.20914 0.18231-0.39163 0.33337l7.8163-2.0944-9.38e-4 -3e-3c0.0041-1e-5 0.0083 2.5e-4 0.01241 4.2e-4l1.8484-0.49527a0.18397 0.18397 0 0 0 0.12964-0.22473zm-61.315 16.516 0.15007 0.56005c0.12185-0.0184 0.2436-0.0373 0.36547-0.0557l-0.15033-0.56105c-0.12175 0.0188-0.24346 0.0378-0.3652 0.0567zm0.60809 0.84981c-0.11762 0.0344-0.23533 0.0684-0.35209 0.10557l0.16344 0.60997c0.12061-0.0233 0.24167-0.0444 0.36239-0.0671zm0.19701 0.73525c-0.11529 0.0431-0.23034 0.0864-0.3458 0.12904l0.13589 0.50714a0.18397 0.18397 0 0 0 0.22468 0.12972l1.8494-0.49553c-0.01121-0.0224-0.0336-0.0452-0.05223-0.0572-0.02963-0.0192-0.07016-8.2e-4 -0.10532-2e-3 -0.54786 0.0646-1.0906 0.16216-1.6328 0.26363 0.26311-0.1012 0.52454-0.20618 0.78428-0.31554l-0.76071 0.20383zm-1.2152 0.45454c-0.11326 0.0469-0.24344 0.0905-0.37522 0.13906l0.20102 0.75023c0.13106-0.0237 0.26206-0.048 0.39301-0.0727zm5.2139-1.1365c1e-5 1.6e-4 1e-4 2.5e-4 1.37e-4 5.1e-4 0.03468 0.0284 0.06286 0.0677 0.10409 0.085 0.0031 1e-3 0.0082 2e-3 0.01145 3e-3 -0.09672 0.11297-0.19297 0.22628-0.29013 0.33881l0.34941-0.0936c0.06189-0.0705 0.12226-0.14239 0.18356-0.21343 0.0092-1e-5 0.02057-2e-3 0.03005-2e-3 0.01474 0.0487 0.02963 0.0973 0.04445 0.14591l1.498-0.40138c0.10508-0.0978 0.2288-0.22681 0.45434-0.4727 0.0081-9e-3 0.01073-0.0202 0.01111-0.0324zm2.5008-0.67008c-0.02961 0.0888-0.0588 0.18677-0.08759 0.2701-0.02215 0.0501-0.04337 0.10071-0.0649 0.15114l0.53709-0.14391c0.06601-0.14145 0.12599-0.28563 0.18543-0.43007zm2.8277-0.75768c0.03001 0.11875 0.05927 0.23768 0.0901 0.35623l0.78567-0.21052c-0.01144-0.0426-0.02304-0.0851-0.03424-0.12778 0.25575-0.0788 0.48012-0.23619 0.69864-0.39157 0.02869-0.0204 0.05756-0.0405 0.08557-0.062zm2.063-0.55278c0.09703 0.0722 0.18082 0.23441 0.22338 0.32052l0.85306-0.22857c-0.04461-0.11569-0.09258-0.22986-0.14601-0.34126zm4.0277-1.0792c-0.06751 0.0987-0.09333 0.21933-0.10756 0.4092l1.0138-0.27164c-0.04098-0.12733-0.08269-0.24929-0.12155-0.34781zm1.8174-0.48698c-0.0039 0.12848-0.0082 0.25685-0.01772 0.38513l1.3387-0.35872c-0.03439-0.11759-0.06968-0.23491-0.10458-0.35235zm2.2222-0.59545c0.0114-9e-5 0.02283 5e-5 0.03422-7e-5 -6.3e-4 7.1e-4 -0.0015 1e-3 -0.0021 2e-3 -0.03513 0.0392-0.03337 0.1001-0.04559 0.15131-0.0191 0.0801-0.0315 0.16153-0.04518 0.24269l1.2224-0.32755c-0.014-0.034-0.02785-0.0682-0.04182-0.10221 0.11779-8e-3 0.2358-0.0178 0.35352-0.0284-0.02158 0.0217-0.04291 0.0431-0.0636 0.0641l4.3207-1.1577c-0.03813-0.11298-0.07953-0.22831-0.12355-0.34728l-2.0545 0.55051c0.01202 0.0336 0.02454 0.0681 0.03735 0.10341-0.01967 2e-3 -0.03929 4e-3 -0.05895 6e-3 3e-3 -0.0353 0.0065-0.0706 0.0096-0.10583zm6.9727-1.8683c0.0031 8.2e-4 0.0061 2e-3 0.0092 2e-3 0.0058 0.12363 0.01147 0.24725 0.01752 0.37087l1.4306-0.38332c-0.03646-0.11132-0.0719-0.22285-0.10778-0.33438 0.0505-8e-3 0.10788-0.0162 0.15779-0.0241 0.01785 0.11014 0.03825 0.21983 0.05682 0.32985l1.1521-0.30869c-0.01879-0.0697-0.03685-0.13957-0.05604-0.20915 0.18156-0.0304 0.36314-0.061 0.54461-0.0919 9e-3 0.0543 0.01792 0.1086 0.02704 0.16288l10.012-2.6826c-6e-3 -0.0194-0.01282-0.0386-0.01877-0.0581 0.47961-0.18144 0.9614-0.35714 1.4448-0.52784-0.02868 0.0607-0.05444 0.14718-0.07483 0.22388l1.454-0.3896c-0.10949-0.20079-0.14056-0.23654-0.28909-0.0467-0.0062-0.0189-0.01015-0.0389-0.01654-0.0576-0.0098-0.0283-0.02386-0.0549-0.03548-0.0825 0.17646-0.0564 0.35356-0.11128 0.53111-0.16425 0.14121 0.01 0.28226 0.0209 0.42346 0.031-0.03711 0.0319-0.07459 0.0633-0.11447 0.0879-0.10264 0.0635-0.20801 0.1224-0.31282 0.18226l0.7712-0.20664c0.01332-0.0121 0.02749-0.0233 0.04077-0.0355 0.02402 2e-3 0.04802 4e-3 0.07204 5e-3l3.0778-0.82469c-0.0031-0.049-0.0055-0.0979-0.0089-0.14689 0.1549-0.0189 0.30982-0.0377 0.46473-0.0566 0.0091 0.0247 0.01869 0.0492 0.02782 0.0739l3.6458-0.97689c-0.27921 0.0342-0.55842 0.0683-0.83763 0.10246-0.02256-0.0801-0.04537-0.16012-0.0681-0.24015l-11.681 3.13c5.05e-4 3e-3 7.47e-4 6e-3 0.0013 9e-3 -0.12354 0.0522-0.24213 0.10058-0.38454 0.16617-0.01008 5e-3 -0.04898 0.0239-0.06441 0.0312-0.01638 1e-3 -0.0327 3e-3 -0.04906 5e-3 -0.02-0.023-0.0412-0.0405-0.06182-0.061zm-2.2089 0.61114c0.04627 0.0915 0.08871 0.1865 0.12687 0.28379-0.13369 0.0139-0.26772 0.0258-0.40147 0.0391 0.09114-0.10792 0.18163-0.21668 0.2746-0.32289zm-0.1747 0.0768c0.03264-0.024-0.01192 0.0879-0.04347 0.1133-0.0185 0.0149-0.05037-2e-3 -0.06826-0.0192 0.0375-0.0311 0.07244-0.0652 0.11174-0.0941zm-4.8543 1.4484c-0.09573 0.0877-0.19249 0.17422-0.28906 0.26096l0.40232-0.1078c-0.03261-0.0544-0.06791-0.10713-0.11326-0.15316zm32.708-8.7208c0.04613 9e-3 0.09204 0.0182 0.13821 0.0266-0.03318 0.0143-0.08252 0.0331-0.11066 0.0462-0.0079-0.0213-0.02059-0.0564-0.02755-0.0729zm-8.6083 2.359c0.02075 1e-3 0.04149 3e-3 0.06225 5e-3 -0.05668 0.0532-0.10912 0.0898-0.09152 0.0438 0.0058-0.0152 0.01674-0.0316 0.02927-0.0485zm-44.256 12.308c-0.1054 0.13506-0.21368 0.26853-0.30179 0.4131l0.04012 0.14974c0.03294-0.0137 0.06874-0.0298 0.09116-0.0351 0.09765-0.0234 0.19496-0.0484 0.29221-0.0735zm2.9848-0.20539c0.0187-1e-3 0.03707-5e-3 0.05582-5e-3 0.05198-2e-3 0.35687 7e-3 0.42736 0.01 0.05684-7e-3 0.11561-6e-3 0.17087-0.0212 0.12384-0.034 0.2136-0.0998 0.30392-0.1895 0.02288-0.0227 0.04554-0.0457 0.06829-0.0686zm2.0071-0.53781c0.13434-0.01 0.26492-0.0135 0.37985 2e-3 0.0353 5e-3 0.06808 0.0209 0.10206 0.0315 0.07793 0.0551 0.09384 0.10468 0.14213 0.18501 0.0038 6e-3 0.0076 0.0149 0.01118 0.0238l1.179-0.31592c0.05792-0.0751 0.11581-0.15008 0.17206-0.22639 0.21855-0.0128 0.43708-0.027 0.65552-0.0414-0.26429 0.0859-0.52835 0.17252-0.79264 0.25839l2.8567-0.76544c0.06693-0.0695 0.12034-0.12103 0.20021-0.20719 0.14554 7e-3 0.29067 0.0177 0.43472 0.0371l1.449-0.38827c-0.07365-0.0605-0.15441-0.11571-0.25161-0.15835-0.02838-0.01-0.05702-0.0184-0.08522-0.0285-0.01194-0.0419-0.02404-0.0838-0.03634-0.12562zm7.9266-2.1239c0.0076 0.0217 0.01527 0.0434 0.02278 0.065 0.03749 0.0838 0.07478 0.20928 0.13924 0.30402l0.7667-0.20544c0.25292-0.23486 0.35336-0.3352 0.58222-0.56849l-0.33044 0.0885c-0.07353 0.0592-0.14822 0.11157-0.19925 0.12294-0.04587 0.0101-0.08104-0.01-0.11173-0.0396zm1.8344-0.49153c0.01103 6e-3 0.02344 0.0101 0.03278 0.0185 0.09805 0.0884 0.15448 0.20771 0.20362 0.33064l1.0273-0.27525c0.04199-0.0497 0.08672-0.0971 0.12725-0.14806 0.0022-3e-3 0.0061-0.0158 0.0086-0.0199 0.01655 0.0579 0.03335 0.0945 0.05287 0.11744l0.16123-0.0432c0.0889-0.0722 0.2117-0.19968 0.4221-0.40735 0.02642 0.0911 0.05463 0.18162 0.08354 0.27186l1.1925-0.31952c0.01268-0.0653 0.02387-0.13082 0.03342-0.19674 0.02774-0.0285 0.05451-0.0581 0.08215-0.0867-0.02796 0.0609-0.05053 0.12748-0.0658 0.20167-0.0073 0.0354 0.0066 0.0524 0.0306 0.0603l21.249-5.6937c-7.35e-4 -2e-3 -0.0018-4e-3 -0.0025-5e-3 0.10777-0.0462 0.21476-0.094 0.32242-0.14042 0.0035 0.019 0.0069 0.0381 0.01048 0.0571l1.3347-0.35765c-0.01595-0.0428-0.03858-0.098-0.05125-0.13339-0.01471-0.0411-0.02788-0.0828-0.04232-0.12401 0.2133-0.0981 0.42531-0.19891 0.63687-0.30065l-3.2181 0.86227c0.01122 0.0236 0.02497 0.0482 0.03568 0.0712-0.36317 0.16016-0.72562 0.32334-1.1033 0.44275 0.02269-0.0843 0.05168-0.16611 0.0783-0.24889l-1.3782 0.36928c0.02127 0.0722 0.04322 0.14423 0.06343 0.21679-0.07333 0.0132-0.14663 0.0265-0.21995 0.0397-0.02674-0.0643-0.05336-0.12872-0.08009-0.19307l-1.7036 0.45648c0.01095 0.0172 0.01917 0.0354 0.03095 0.0516-0.05438 0.0101-0.10883 0.0197-0.16321 0.0298-0.0082-0.0131-0.016-0.0264-0.02397-0.0396zm27.038-7.2449c-0.0072 0.0378-0.01577 0.0827-0.01796 0.0947-0.02472 0.11473-0.05267 0.22901-0.07858 0.34366l0.61396-0.16451c0.03608-0.14601 0.07021-0.29263 0.10203-0.43982zm0.8276-0.22176c0.02969 0.12963 0.05766 0.25956 0.08216 0.39047l11.4-3.0547c-0.01851-0.13255-0.03676-0.26514-0.0552-0.39769l-2.0306 0.54409c5.24e-4 0.0685 9.98e-4 0.137 0.0016 0.20555-0.11124-0.0196-0.22209-0.0414-0.33322-0.0616-0.0016-5e-3 -0.0028-0.01-0.0045-0.0148-0.0033-9e-3 -0.0048-0.0252-0.0072-0.0371l-7.8462 2.1024c-0.01039 0.0611-0.02264 0.12179-0.03227 0.18306-0.01532-0.0541-0.03335-0.10729-0.0491-0.16126zm11.428-3.062c0.04258 0.1261 0.08497 0.2522 0.12707 0.37843l8.8126-2.3613c0.08496-0.12279 0.14635-0.22513 0.14663-0.22547 0.04905-0.0647 0.04386-0.15304 0.04325-0.23789l-8.267 2.2151c-0.0013 0.0574-0.0011 0.11485-2e-3 0.17227-0.01746-0.0526-0.03529-0.10503-0.05293-0.15755zm-47.631 12.867c0.06841-3e-3 0.13682-4e-3 0.20521-7e-3 -0.05221 0.0792-0.10554 0.15772-0.16 0.23547-0.0196-0.0629-0.03954-0.12565-0.05908-0.18854 0.0043-0.0125 0.0092-0.0251 0.01387-0.0401zm41.238-11.021c0.19225 0.0174 0.3449 0.0314 0.5568 0.0514-0.16736 0.0254-0.33442 0.0529-0.50186 0.0778-0.01585 1e-3 -0.0317 3e-3 -0.04756 4e-3 -0.0023-0.0445-5e-3 -0.0889-0.0074-0.13337zm-31.694 8.6684c0.0385-0.0312-0.06286 0.15534-0.1007 0.10937-0.0026-4e-3 -0.0044-8e-3 -7e-3 -0.012 0.03506-0.0335 0.07015-0.0669 0.10767-0.0973z" fill="url(#a)" stroke-width=".043951"/>
 </g>
</svg>
