<?xml version="1.0" encoding="UTF-8" standalone="no"?>
<!-- Created with Inkscape (http://www.inkscape.org/) -->

<svg
   width="300"
   height="200"
   viewBox="0 0 79.374998 52.916668"
   version="1.1"
   id="svg8"
   inkscape:version="1.2.1 (9c6d41e410, 2022-07-14)"
   sodipodi:docname="ucsdLogoStampPlain.svg"
   xmlns:inkscape="http://www.inkscape.org/namespaces/inkscape"
   xmlns:sodipodi="http://sodipodi.sourceforge.net/DTD/sodipodi-0.dtd"
   xmlns="http://www.w3.org/2000/svg"
   xmlns:svg="http://www.w3.org/2000/svg"
   xmlns:rdf="http://www.w3.org/1999/02/22-rdf-syntax-ns#"
   xmlns:cc="http://creativecommons.org/ns#"
   xmlns:dc="http://purl.org/dc/elements/1.1/">
  <defs
     id="defs2" />
  <sodipodi:namedview
     id="base"
     pagecolor="#ffffff"
     bordercolor="#666666"
     borderopacity="1.0"
     inkscape:pageopacity="0.0"
     inkscape:pageshadow="2"
     inkscape:zoom="3.959798"
     inkscape:cx="96.848375"
     inkscape:cy="79.549513"
     inkscape:document-units="px"
     inkscape:current-layer="layer1"
     showgrid="false"
     units="px"
     showguides="true"
     inkscape:guide-bbox="true"
     inkscape:window-width="1920"
     inkscape:window-height="1009"
     inkscape:window-x="1912"
     inkscape:window-y="-8"
     inkscape:window-maximized="1"
     inkscape:snap-to-guides="false"
     inkscape:showpageshadow="0"
     inkscape:pagecheckerboard="0"
     inkscape:deskcolor="#d1d1d1">
    <sodipodi:guide
       position="39.6875,31.750001"
       orientation="1,0"
       id="guide21"
       inkscape:locked="false"
       inkscape:label=""
       inkscape:color="rgb(0,0,255)" />
    <sodipodi:guide
       position="4.157738,26.458333"
       orientation="0,1"
       id="guide23"
       inkscape:locked="false"
       inkscape:label=""
       inkscape:color="rgb(0,0,255)" />
  </sodipodi:namedview>
  <metadata
     id="metadata5">
    <rdf:RDF>
      <cc:Work
         rdf:about="">
        <dc:format>image/svg+xml</dc:format>
        <dc:type
           rdf:resource="http://purl.org/dc/dcmitype/StillImage" />
        <dc:title />
      </cc:Work>
    </rdf:RDF>
  </metadata>
  <g
     inkscape:label="Layer 1"
     inkscape:groupmode="layer"
     id="layer1"
     transform="translate(0,-244.08332)">
    <g
       id="g6298"
       transform="rotate(-15,39.6875,270.54166)">
      <path
         inkscape:connector-curvature="0"
         id="path838"
         d="m 58.856885,275.43626 c -0.922588,-0.1287 -1.491908,-0.56768 -1.536546,-1.18477 -0.01017,-0.14062 0.0059,-0.32956 0.03571,-0.41989 0.06456,-0.19562 0.307799,-0.47581 0.540691,-0.62283 l 0.167958,-0.10603 -0.114009,-0.0897 c -0.370996,-0.29183 -0.370183,-0.85473 0.0019,-1.3426 l 0.109066,-0.143 -0.198041,-0.24314 c -0.254787,-0.31281 -0.347197,-0.61984 -0.344174,-1.1435 0.003,-0.51549 0.118768,-0.83613 0.405471,-1.12284 0.253549,-0.25354 0.560522,-0.37504 1.121936,-0.44403 0.464282,-0.0571 0.909678,-0.008 1.233115,0.13465 l 0.181529,0.0803 0.165014,-0.34426 c 0.190015,-0.39642 0.416824,-0.62699 0.688774,-0.70022 0.36244,-0.0976 0.668,0.12868 0.663067,0.49107 -0.0021,0.1563 -0.02732,0.21336 -0.137791,0.31213 -0.158402,0.14162 -0.40965,0.16229 -0.624174,0.0514 -0.198401,-0.10254 -0.320959,-0.0512 -0.43378,0.18185 l -0.0971,0.20057 0.09055,0.0964 c 0.0498,0.053 0.146083,0.21501 0.213957,0.35998 0.112802,0.24093 0.123404,0.30699 0.123403,0.76901 10e-7,0.42125 -0.01541,0.53874 -0.09255,0.70543 -0.192552,0.41617 -0.522878,0.68215 -1.006224,0.81026 -0.340585,0.0903 -1.152417,0.0938 -1.440891,0.006 -0.204615,-0.0621 -0.212097,-0.061 -0.276703,0.0376 -0.106772,0.16295 -0.127829,0.40099 -0.04646,0.52517 0.109681,0.16738 0.326511,0.20027 1.324552,0.2009 1.244183,7.8e-4 1.625257,0.0726 1.949095,0.36747 0.289507,0.26358 0.380833,0.8453 0.210195,1.33889 -0.178688,0.51689 -0.79877,0.99204 -1.522005,1.16627 -0.365231,0.088 -0.997734,0.12128 -1.355601,0.0713 z m 1.273388,-0.44167 c 0.353321,-0.10237 0.674735,-0.31518 0.849326,-0.56237 0.170722,-0.2417 0.20697,-0.65767 0.07553,-0.86675 -0.173397,-0.27583 -0.301934,-0.30262 -1.523884,-0.31763 l -1.098768,-0.0135 -0.186991,0.18538 c -0.304902,0.30229 -0.345446,0.68214 -0.115463,1.08178 0.316874,0.55063 1.119157,0.74843 2.000254,0.4931 z m -0.311641,-3.64598 c 0.249195,-0.12713 0.381707,-0.35299 0.444658,-0.75789 0.10628,-0.68364 -0.09551,-1.33249 -0.485471,-1.56102 -0.350362,-0.20533 -0.889728,-0.14264 -1.149711,0.1337 -0.191317,0.20333 -0.235479,0.37702 -0.237583,0.93443 -0.0019,0.51079 0.0028,0.53815 0.143007,0.82287 0.19347,0.39296 0.38663,0.51567 0.812675,0.51626 0.2133,3.1e-4 0.348049,-0.0249 0.472421,-0.0883 z m -46.501565,3.84656 -3e-6,-0.10988 H 35.06501 56.812958 l 0.103226,0.10986 0.10323,0.10986 H 35.168243 13.317073 Z m 48.51358,-1e-5 0.130588,-0.10987 2.0044,1e-5 2.0044,-1e-5 3e-6,0.10988 2e-6,0.10987 -2.134983,10e-6 -2.134984,-10e-6 z M 16.415593,273.4135 c -0.950807,-0.10671 -1.55425,-0.46967 -1.848116,-1.11151 -0.239738,-0.52366 -0.249464,-0.64139 -0.278537,-3.37183 -0.02465,-2.31504 -0.0335,-2.53921 -0.104459,-2.64741 -0.12164,-0.18551 -0.27322,-0.25959 -0.581744,-0.28437 -0.279743,-0.0224 -0.285668,-0.0255 -0.285683,-0.14871 l 2e-6,-0.12585 1.494323,1e-5 h 1.494324 l 4e-6,0.13186 c -4e-6,0.12786 -0.0063,0.13188 -0.208766,0.13281 -0.28366,0.001 -0.55701,0.13218 -0.656348,0.31423 -0.07381,0.13526 -0.08075,0.32186 -0.09241,2.47568 -0.008,1.48581 0.0043,2.43827 0.03398,2.63005 0.176469,1.13956 0.786084,1.63061 1.929449,1.55416 0.914714,-0.0612 1.387563,-0.44147 1.575553,-1.26721 0.06406,-0.28138 0.07399,-0.64128 0.07565,-2.7412 0.0018,-2.33235 -0.0012,-2.42337 -0.086,-2.59025 -0.128388,-0.25264 -0.270802,-0.33787 -0.610028,-0.3651 -0.285471,-0.0229 -0.290967,-0.0257 -0.290963,-0.14919 l -1e-6,-0.12584 h 1.318521 1.318523 l 10e-7,0.12584 c -10e-7,0.12322 -0.0059,0.1263 -0.28567,0.14876 -0.324104,0.026 -0.469322,0.10299 -0.581443,0.30816 -0.07107,0.13006 -0.08013,0.3676 -0.104352,2.73552 -0.02251,2.20032 -0.03742,2.63477 -0.09849,2.86824 -0.213856,0.81782 -0.690804,1.26901 -1.523145,1.44103 -0.386202,0.0798 -1.174712,0.11038 -1.604201,0.0622 z m 6.966191,3.5e-4 c -1.563583,-0.21587 -2.5723,-1.35881 -2.816093,-3.19081 -0.07938,-0.59653 -0.02972,-1.96689 0.0882,-2.43357 0.294354,-1.16496 0.994896,-1.86812 2.077765,-2.08557 0.66397,-0.13332 1.840332,-0.0726 2.759763,0.14246 l 0.329621,0.0771 0.02687,0.39461 c 0.01478,0.21703 0.04031,0.62699 0.05673,0.91103 l 0.02987,0.51642 -0.153916,-4e-5 c -0.143752,0 -0.157225,-0.0123 -0.203925,-0.18568 -0.143476,-0.53283 -0.558084,-1.05816 -1.008989,-1.27842 -0.344729,-0.16836 -0.875524,-0.23977 -1.276004,-0.17078 -0.88558,0.15186 -1.369427,0.75012 -1.560964,1.93008 -0.08156,0.50247 -0.08112,1.7135 8.32e-4,2.25394 0.216432,1.42738 0.854667,2.25369 1.954933,2.53102 0.442916,0.11143 1.45147,0.0693 1.903839,-0.0799 l 0.340618,-0.11236 6e-6,0.25101 3e-6,0.25101 -0.240353,0.0758 c -0.574253,0.18101 -1.730514,0.28251 -2.308789,0.20268 z m 5.841692,0.002 c -0.619372,-0.0597 -1.288391,-0.17799 -1.32403,-0.23404 -0.01834,-0.0289 -0.03374,-0.17111 -0.03422,-0.31615 -4.79e-4,-0.14504 -0.01369,-0.48621 -0.02936,-0.75815 l -0.02849,-0.49445 0.155655,-2e-5 c 0.142684,3e-5 0.158016,0.0126 0.184117,0.15183 0.04224,0.22518 0.327246,0.61947 0.575185,0.79575 0.346136,0.2461 0.724357,0.33999 1.286738,0.31942 0.391494,-0.0143 0.512338,-0.0365 0.717752,-0.1316 0.547702,-0.25368 0.850432,-0.69772 0.847879,-1.24368 -0.0011,-0.23067 -0.02596,-0.35635 -0.09794,-0.49479 -0.225393,-0.43347 -0.527958,-0.65948 -1.715,-1.28109 -1.246115,-0.65254 -1.588508,-0.95246 -1.770172,-1.55054 -0.07547,-0.24846 -0.08925,-0.3832 -0.07269,-0.71039 0.0383,-0.75668 0.325355,-1.20729 0.970434,-1.52361 0.490543,-0.24051 0.859677,-0.30863 1.670274,-0.30823 0.628976,3.1e-4 0.931208,0.0281 1.464948,0.13466 l 0.226219,0.0452 0.02901,0.69005 c 0.01596,0.37953 0.03283,0.7296 0.03749,0.77794 0.0069,0.072 -0.01797,0.0879 -0.137398,0.0879 -0.136565,-5e-5 -0.150797,-0.0146 -0.223246,-0.22856 -0.154386,-0.45604 -0.451033,-0.7586 -0.925324,-0.94376 -0.191745,-0.0749 -0.342426,-0.0959 -0.705312,-0.0987 -0.417814,-0.003 -0.486436,0.008 -0.725186,0.11982 -0.4443,0.20783 -0.705973,0.53649 -0.7547,0.94792 -0.07762,0.65534 0.310805,1.06096 1.622176,1.694 1.498982,0.72361 2.068736,1.27715 2.186443,2.12418 0.09881,0.71104 -0.126737,1.358 -0.625047,1.79291 -0.25273,0.22059 -0.817883,0.48161 -1.22023,0.56361 -0.427893,0.0872 -1.110754,0.11846 -1.585978,0.0727 z m 4.618578,-0.0896 c -0.244092,-0.11354 -0.461301,-0.317 -0.585437,-0.54848 -0.07362,-0.13728 -0.09444,-0.25283 -0.09504,-0.52741 -6.64e-4,-0.30805 0.01532,-0.38063 0.12907,-0.58598 0.07141,-0.1289 0.190073,-0.28534 0.263703,-0.34762 0.338204,-0.28613 1.029407,-0.49419 1.860104,-0.55994 l 0.405383,-0.0321 -3.55e-4,-0.3799 c -3.96e-4,-0.4727 -0.06888,-0.91034 -0.169435,-1.08296 -0.168782,-0.28979 -0.544614,-0.41754 -0.963876,-0.32763 -0.277283,0.0595 -0.404609,0.19806 -0.40461,0.44041 10e-7,0.47837 -0.33454,0.75632 -0.717635,0.59627 -0.104947,-0.0439 -0.185465,-0.11948 -0.232667,-0.21844 -0.314459,-0.65943 0.894925,-1.35407 2.046417,-1.1754 0.602759,0.0935 0.910979,0.29575 1.110158,0.72858 0.09855,0.21411 0.101721,0.26318 0.123845,1.91185 0.01249,0.93066 0.03863,1.72491 0.0581,1.765 0.05354,0.11031 0.273133,0.18304 0.47196,0.15638 0.171211,-0.023 0.177029,-0.0196 0.163984,0.093 -0.01652,0.1426 -0.119113,0.17064 -0.650824,0.17779 -0.301458,0.004 -0.401223,-0.0118 -0.51683,-0.0823 -0.175336,-0.10692 -0.317855,-0.33078 -0.318077,-0.49967 -1.74e-4,-0.12503 -0.0016,-0.12439 -0.20893,0.0964 -0.309335,0.32929 -0.627435,0.46155 -1.153706,0.47972 -0.351222,0.0121 -0.44894,-1.7e-4 -0.61531,-0.0776 z m 1.304529,-0.44246 c 0.236212,-0.11435 0.470009,-0.38275 0.565799,-0.64954 0.04247,-0.11827 0.0828,-0.40447 0.0962,-0.68271 l 0.02309,-0.47907 -0.337395,0.0306 c -0.921056,0.0835 -1.428668,0.45218 -1.431505,1.0398 -0.0012,0.2586 0.177022,0.62147 0.364232,0.74139 0.183795,0.11768 0.475935,0.11717 0.719578,-4.5e-4 z m 19.650369,0.46302 c -0.847692,-0.2055 -1.395213,-0.79071 -1.595769,-1.70557 -0.104329,-0.47592 -0.07247,-1.41615 0.06224,-1.83681 0.185151,-0.57817 0.560889,-0.96455 1.100377,-1.13153 0.837577,-0.25926 1.664997,-0.10673 2.13253,0.39311 0.289741,0.30975 0.387838,0.55298 0.411289,1.01978 l 0.01932,0.38457 H 55.446047 53.96516 l 0.02877,0.25272 c 0.119572,1.05019 0.556152,1.79371 1.252121,2.13246 0.26692,0.12991 0.317439,0.13909 0.769129,0.14055 0.265891,8.5e-4 0.549039,-0.0152 0.629196,-0.0356 l 0.14575,-0.0371 -0.01389,0.16895 c -0.01384,0.16841 -0.01478,0.16917 -0.299567,0.24287 -0.359708,0.0931 -1.316523,0.0997 -1.679723,0.0117 z m 1.196265,-3.39881 c -1e-6,-0.27741 -0.135204,-0.62371 -0.312877,-0.80139 -0.320194,-0.32018 -0.870141,-0.31763 -1.237511,0.006 -0.195197,0.17183 -0.389996,0.53397 -0.443002,0.82358 l -0.02614,0.14284 1.009766,10e-6 1.009767,-10e-6 z m 7.339773,3.40408 c -0.340804,-0.0955 -0.628533,-0.26998 -0.882013,-0.53664 -0.435513,-0.4581 -0.610591,-0.97951 -0.611662,-1.82163 -0.0011,-0.85254 0.193849,-1.41838 0.646577,-1.87675 0.750893,-0.76027 2.186807,-0.75522 2.9342,0.0103 0.434711,0.44525 0.635706,1.0366 0.637077,1.87436 0.002,1.22702 -0.557139,2.09859 -1.50895,2.35202 -0.27755,0.0739 -0.947371,0.073 -1.215232,-0.002 z m 1.03466,-0.37124 c 0.491295,-0.22316 0.765078,-0.92817 0.766552,-1.97393 0.0017,-1.20142 -0.339097,-1.93623 -0.959719,-2.06934 -0.593966,-0.12737 -1.054201,0.20058 -1.287533,0.91749 -0.133227,0.40934 -0.165809,1.46531 -0.06118,1.98282 0.166094,0.8215 0.535009,1.22364 1.122529,1.22364 0.140708,2e-5 0.315954,-0.0337 0.419352,-0.0807 z m -26.833734,0.26228 c -3e-6,-0.0647 0.04297,-0.0912 0.186791,-0.11507 0.102735,-0.0171 0.240843,-0.0587 0.30691,-0.0925 0.248429,-0.12713 0.253477,-0.16659 0.253297,-1.98065 -1.33e-4,-1.54783 -0.0058,-1.67057 -0.0827,-1.79668 -0.08654,-0.14192 -0.224258,-0.21329 -0.499477,-0.25886 -0.124923,-0.0207 -0.164765,-0.0483 -0.164814,-0.11322 -2e-6,-0.0472 0.0049,-0.0869 0.01098,-0.0881 0.305808,-0.0609 1.535735,-0.23841 1.550392,-0.22376 0.01151,0.0114 0.02137,0.29939 0.02202,0.63982 l 0.0012,0.61898 0.14071,-0.26371 c 0.07738,-0.14504 0.269692,-0.39409 0.427346,-0.55345 0.344921,-0.34866 0.60336,-0.45718 1.07776,-0.45256 0.4138,0.004 0.651562,0.0783 0.833569,0.26031 0.275861,0.27586 0.29528,0.41331 0.319578,2.26202 0.02344,1.78314 0.02973,1.82947 0.265002,1.94987 0.06609,0.0337 0.204174,0.0754 0.306889,0.0926 0.143798,0.0239 0.186793,0.0504 0.186791,0.11507 -1.3e-5,0.0806 -0.04714,0.084 -1.164693,0.084 -1.123124,1e-5 -1.164694,-0.003 -1.164694,-0.0852 -3e-6,-0.0673 0.04163,-0.0915 0.198292,-0.11495 0.237504,-0.0356 0.405939,-0.15815 0.488269,-0.35519 0.07584,-0.18151 0.08771,-2.91789 0.01415,-3.26089 -0.06322,-0.29482 -0.196352,-0.4124 -0.494921,-0.43716 -0.297412,-0.0247 -0.519771,0.0818 -0.773938,0.37055 -0.217547,0.24713 -0.50335,0.81199 -0.596105,1.17812 -0.0904,0.35669 -0.09461,1.93673 -0.0058,2.14937 0.08233,0.19705 0.250775,0.31959 0.488268,0.3552 0.15669,0.0235 0.198204,0.0479 0.198295,0.11494 -5e-6,0.0822 -0.04158,0.0852 -1.164693,0.0852 -1.117547,0 -1.164695,-0.003 -1.164695,-0.084 z m 6.284953,-0.0427 c 10e-7,-0.1248 0.0044,-0.127 0.285206,-0.1449 0.326455,-0.0208 0.484785,-0.11159 0.604728,-0.34681 0.07095,-0.13916 0.07684,-0.3829 0.07684,-3.1833 0,-2.8004 -0.0059,-3.04414 -0.07684,-3.1833 -0.117655,-0.23074 -0.267814,-0.31683 -0.598969,-0.34341 -0.285472,-0.0229 -0.290967,-0.0257 -0.290963,-0.14919 l -1e-6,-0.12584 h 1.561982 c 1.626015,0 2.172422,0.0357 2.738467,0.17867 1.104026,0.27894 1.841335,1.04645 2.115494,2.20216 0.127605,0.53791 0.180244,1.33993 0.129264,1.96944 -0.16024,1.97864 -1.07564,2.97273 -2.954366,3.2083 -0.196975,0.0247 -1.085511,0.0449 -1.974499,0.0449 H 43.81887 Z m 3.526856,-0.42108 c 0.913194,-0.19352 1.472632,-0.76829 1.755446,-1.80356 0.08619,-0.31546 0.0963,-0.46228 0.09846,-1.42839 0.0022,-0.97171 -0.0071,-1.11418 -0.09491,-1.45986 -0.328763,-1.29414 -1.123573,-1.8804 -2.549282,-1.8804 -0.49805,0 -0.59863,0.0448 -0.668939,0.29796 -0.0579,0.20836 -0.06071,5.76022 -0.0031,6.00897 0.06647,0.28691 0.157437,0.32975 0.698211,0.32887 0.257184,-4.5e-4 0.601018,-0.029 0.764081,-0.0636 z m 3.417357,0.46403 c -3e-6,-0.0673 0.04358,-0.0898 0.221582,-0.11425 0.270252,-0.0372 0.46189,-0.18599 0.527374,-0.40953 0.03121,-0.10642 0.0427,-0.71191 0.03376,-1.77393 l -0.01357,-1.61235 -0.128378,-0.13399 c -0.09434,-0.0984 -0.196347,-0.14734 -0.384554,-0.18442 -0.200264,-0.0394 -0.256183,-0.0679 -0.256192,-0.13055 -4e-6,-0.0903 -0.02558,-0.0838 0.922966,-0.23133 l 0.637286,-0.0991 0.02198,2.06794 c 0.01986,1.86852 0.02946,2.08164 0.09963,2.21003 0.08956,0.16388 0.239911,0.25209 0.504689,0.29609 0.143797,0.0239 0.186792,0.0504 0.186791,0.11506 1.7e-5,0.0807 -0.04747,0.084 -1.186669,0.084 -1.137896,0 -1.186671,-0.003 -1.18667,-0.0838 z m 0.995157,-5.6306 c -0.16683,-0.0509 -0.290937,-0.16596 -0.363938,-0.33842 -0.0786,-0.1857 -0.07551,-0.29576 0.01354,-0.48342 0.20533,-0.43271 0.870509,-0.42047 1.054298,0.0194 0.19246,0.46062 -0.232734,0.94535 -0.703898,0.80245 z"
         style="fill:#c7932b;stroke-width:0.0439507" />
      <path
         inkscape:connector-curvature="0"
         id="path836"
         d="m 58.455847,275.34872 c -0.879631,-0.23776 -1.298812,-0.81367 -1.09242,-1.50254 0.06283,-0.20977 0.322219,-0.5137 0.537166,-0.62946 0.08706,-0.0469 0.158309,-0.0983 0.158309,-0.11416 2.5e-5,-0.0159 -0.05111,-0.0623 -0.113557,-0.10331 -0.135031,-0.0885 -0.279681,-0.38622 -0.28103,-0.57845 -0.0014,-0.19819 0.108792,-0.4807 0.280934,-0.72031 l 0.149754,-0.20845 -0.124619,-0.0921 c -0.06855,-0.0507 -0.190383,-0.22572 -0.270769,-0.38901 -0.142111,-0.28867 -0.146148,-0.31217 -0.146149,-0.85029 -10e-7,-0.52902 0.0058,-0.56484 0.132638,-0.81276 0.08902,-0.17405 0.202689,-0.31228 0.345692,-0.42037 0.325562,-0.24606 0.575607,-0.31272 1.257726,-0.3353 0.54626,-0.0181 0.616488,-0.0112 0.885137,0.087 l 0.291805,0.10666 0.191654,-0.37407 c 0.248749,-0.48549 0.422905,-0.63161 0.783894,-0.65772 0.244142,-0.0177 0.270002,-0.0102 0.394782,0.1151 0.11058,0.11059 0.133624,0.1689 0.133625,0.33817 -6e-6,0.16747 -0.02329,0.22782 -0.128479,0.33301 -0.150095,0.1501 -0.403237,0.17395 -0.625608,0.059 -0.198549,-0.10269 -0.330402,-0.0501 -0.439921,0.17526 l -0.09301,0.19144 0.114781,0.15049 c 0.442517,0.58018 0.448685,1.6181 0.01264,2.12753 -0.180981,0.21144 -0.573953,0.42891 -0.897267,0.49654 -0.324053,0.0678 -1.039481,0.06 -1.319003,-0.0144 l -0.233382,-0.0621 -0.0851,0.13956 c -0.179705,0.29473 -0.0495,0.61161 0.272264,0.66256 0.08137,0.0125 0.622417,0.0316 1.202567,0.0417 1.157193,0.0201 1.356556,0.0543 1.679074,0.28794 0.263035,0.19054 0.381177,0.46713 0.378477,0.88613 -0.0048,0.74298 -0.481937,1.30629 -1.36191,1.60779 -0.300861,0.10308 -0.426775,0.11976 -1.003299,0.13287 -0.55517,0.0126 -0.711084,9.9e-4 -0.9875,-0.0735 z m 1.629997,-0.32569 c 0.675768,-0.20612 1.062166,-0.61213 1.062166,-1.11608 2e-6,-0.26799 -0.08724,-0.41778 -0.324805,-0.55772 -0.136669,-0.0805 -0.242577,-0.089 -1.258335,-0.10162 l -1.109098,-0.0137 -0.152271,0.11614 c -0.312235,0.23816 -0.410315,0.65811 -0.241047,1.03205 0.161533,0.35685 0.436893,0.56798 0.897434,0.68811 0.259578,0.0675 0.82739,0.0439 1.125952,-0.0471 z m -0.487366,-3.59004 c 0.446065,-0.0957 0.652396,-0.40954 0.690519,-1.05043 0.03948,-0.66376 -0.16366,-1.18503 -0.537991,-1.38053 -0.257878,-0.13474 -0.682896,-0.12625 -0.942573,0.0188 -0.290128,0.16203 -0.411397,0.42514 -0.433986,0.9416 -0.03693,0.84433 0.221731,1.34646 0.761248,1.4778 0.190833,0.046 0.214248,0.0461 0.462784,-0.007 z m -43.578441,1.91285 c -0.847381,-0.18533 -1.367721,-0.64582 -1.58927,-1.40632 -0.06661,-0.22865 -0.07885,-0.57398 -0.100335,-2.83153 -0.02339,-2.45782 -0.02834,-2.57874 -0.112374,-2.74408 -0.130602,-0.25699 -0.281356,-0.34721 -0.615783,-0.3685 -0.280836,-0.0179 -0.285206,-0.0201 -0.285216,-0.14486 l 5e-6,-0.12674 1.494323,10e-6 h 1.494324 l 4e-6,0.13185 c -2e-6,0.12975 -0.0037,0.13185 -0.230743,0.13192 -0.318952,5e-5 -0.515246,0.10785 -0.637284,0.34986 l -0.09889,0.1961 7.61e-4,2.37502 c 8.23e-4,2.55352 0.01329,2.72511 0.232908,3.20482 0.151592,0.33112 0.349206,0.53318 0.681283,0.69657 0.287078,0.14121 0.302424,0.14367 0.88623,0.14201 0.507872,-0.002 0.629717,-0.0159 0.839337,-0.0992 0.467391,-0.18577 0.746224,-0.52743 0.907769,-1.11225 0.06996,-0.25336 0.07763,-0.52589 0.07763,-2.76427 0,-2.40417 -0.0028,-2.48797 -0.0879,-2.63245 -0.136827,-0.2323 -0.290016,-0.32186 -0.60143,-0.35164 -0.25972,-0.0248 -0.277587,-0.0336 -0.277589,-0.1364 l -2e-6,-0.10987 1.307535,-0.0116 1.307533,-0.0116 -2e-6,0.13249 c 2e-6,0.13055 -0.0034,0.13252 -0.230743,0.13259 -0.268643,7e-5 -0.492617,0.0999 -0.623173,0.27776 -0.08883,0.121 -0.0917,0.1863 -0.118955,2.70297 -0.03003,2.77349 -0.04046,2.90376 -0.273165,3.41204 -0.202823,0.44302 -0.580365,0.74156 -1.171255,0.92616 -0.346758,0.10833 -1.744669,0.13361 -2.175559,0.0394 z m 7.01014,-9.9e-4 c -1.134958,-0.24593 -1.994363,-1.15536 -2.323259,-2.45842 -0.13235,-0.52435 -0.181958,-0.97176 -0.181672,-1.63837 7.54e-4,-1.75113 0.495131,-2.83028 1.516042,-3.30927 0.515008,-0.24164 0.75392,-0.28081 1.692101,-0.27746 0.757474,0.003 0.923184,0.017 1.426394,0.12294 0.313147,0.0659 0.592339,0.13894 0.620468,0.16211 0.03232,0.0268 0.06191,0.29633 0.08058,0.7341 0.01623,0.38043 0.04089,0.77577 0.05481,0.87851 l 0.0253,0.18678 H 25.78908 c -0.140664,-10e-6 -0.155939,-0.0138 -0.207284,-0.1868 -0.228527,-0.77019 -0.766555,-1.29235 -1.485343,-1.44157 -0.346546,-0.0719 -0.899884,-0.0318 -1.211136,0.0879 -0.509766,0.196 -0.894169,0.71267 -1.089745,1.4647 -0.265864,1.02236 -0.175992,2.74875 0.188875,3.62781 0.419212,1.00995 1.101994,1.50852 2.210461,1.61404 0.394489,0.0376 1.030058,-0.04 1.425971,-0.17391 l 0.310081,-0.1049 -3e-6,0.25451 2e-6,0.25453 -0.340618,0.0897 c -0.187338,0.0494 -0.482852,0.11086 -0.656691,0.13668 -0.440961,0.0655 -1.555701,0.0516 -1.903438,-0.0238 z m 6.02125,0.0446 c -0.06053,-0.01 -0.340862,-0.0512 -0.623162,-0.0908 l -0.51328,-0.0719 -0.02399,-0.31215 c -0.01319,-0.17167 -0.03605,-0.53465 -0.0508,-0.80659 l -0.02681,-0.49445 0.157538,-3e-5 c 0.120566,10e-6 0.157629,0.0181 0.157961,0.0769 8.3e-4,0.14836 0.213572,0.53264 0.3957,0.71478 0.501328,0.50131 1.498034,0.66004 2.214984,0.35271 0.623248,-0.26715 0.996422,-1.02164 0.79912,-1.61567 -0.151646,-0.45656 -0.534601,-0.76775 -1.679432,-1.36469 -1.170147,-0.61014 -1.563083,-0.90999 -1.770371,-1.35098 -0.242131,-0.51511 -0.234888,-1.20925 0.01797,-1.72219 0.237232,-0.48124 0.653117,-0.78181 1.34012,-0.96854 0.411825,-0.11195 1.784494,-0.11004 2.38433,0.003 l 0.428527,0.081 1.77e-4,0.22668 c 8.6e-5,0.12467 0.01304,0.47883 0.02876,0.78704 l 0.02858,0.56037 -0.137807,3e-5 c -0.113969,10e-6 -0.142834,-0.0209 -0.166884,-0.12091 -0.04548,-0.18889 -0.223255,-0.52051 -0.3665,-0.68366 -0.174626,-0.19887 -0.576591,-0.40617 -0.915905,-0.47234 -0.35227,-0.0687 -0.848489,-0.0316 -1.114915,0.0834 -0.466995,0.20149 -0.783274,0.64849 -0.782261,1.10557 0.0013,0.57885 0.327884,0.898 1.564593,1.5289 1.26207,0.64386 1.698132,0.95368 1.992671,1.41581 0.206836,0.32452 0.278842,0.65225 0.256022,1.16533 -0.01707,0.38384 -0.03912,0.48751 -0.157421,0.74031 -0.250702,0.53574 -0.748071,0.9205 -1.46004,1.12949 -0.273,0.0801 -0.46085,0.0988 -1.098457,0.10935 -0.423026,0.007 -0.818583,0.004 -0.879014,-0.006 z m 4.839534,-0.0461 c -0.106057,-0.039 -0.287221,-0.16237 -0.402603,-0.27406 -0.385197,-0.37292 -0.447107,-0.97762 -0.151697,-1.4817 0.136952,-0.23369 0.531582,-0.51016 0.87572,-0.61351 0.253772,-0.0762 0.870025,-0.17924 1.315762,-0.21998 l 0.301641,-0.0276 -0.01833,-0.57831 c -0.01985,-0.62647 -0.09178,-0.8786 -0.304291,-1.06668 -0.298742,-0.26438 -0.941529,-0.24918 -1.144184,0.0269 -0.04435,0.0604 -0.09781,0.23706 -0.118796,0.3925 -0.04825,0.35742 -0.173498,0.48651 -0.472058,0.48651 -0.24706,-4e-5 -0.40008,-0.0979 -0.453124,-0.2902 -0.12042,-0.43612 0.290632,-0.86539 1.006508,-1.05112 0.417611,-0.10835 1.255682,-0.0757 1.560248,0.0609 0.387067,0.1735 0.579886,0.42346 0.675822,0.87608 0.03108,0.14657 0.04937,0.795 0.04937,1.74923 0,1.26995 0.01084,1.53728 0.06672,1.64535 0.07514,0.14529 0.20229,0.19136 0.460269,0.16671 0.156671,-0.0149 0.176229,-0.006 0.176235,0.0785 1e-6,0.0524 -0.0346,0.10943 -0.07691,0.12664 -0.151319,0.0615 -0.828876,0.0785 -0.991495,0.0248 -0.203899,-0.0673 -0.374534,-0.27047 -0.40919,-0.48719 l -0.02718,-0.16997 -0.203539,0.20882 c -0.314465,0.32259 -0.626809,0.45482 -1.117727,0.47315 -0.294349,0.011 -0.456781,-0.004 -0.597154,-0.0559 z m 1.264541,-0.45259 c 0.208802,-0.10652 0.429553,-0.35454 0.547981,-0.61567 0.06933,-0.15287 0.09486,-0.31653 0.108276,-0.69445 l 0.01757,-0.49445 -0.213509,7.6e-4 c -0.529899,0.002 -1.120644,0.21804 -1.369002,0.5009 -0.303956,0.34619 -0.218857,1.02284 0.16111,1.28103 0.198336,0.13482 0.508574,0.14351 0.74758,0.0219 z m 19.694997,0.45825 c -1.125079,-0.25425 -1.714076,-1.11697 -1.714076,-2.51068 10e-7,-1.01458 0.312242,-1.71063 0.908635,-2.02552 0.360152,-0.19015 0.661921,-0.24554 1.225699,-0.22496 0.400147,0.0146 0.521584,0.0365 0.724467,0.13045 0.603865,0.27974 0.920958,0.79541 0.920961,1.4977 l -2e-6,0.25447 h -1.477471 -1.477469 l 0.03103,0.28979 c 0.134489,1.25584 0.807087,2.10339 1.792175,2.25833 0.279355,0.0439 0.722462,0.0102 0.93456,-0.0712 0.05952,-0.0228 0.069,8.9e-4 0.05733,0.14331 -0.01348,0.16439 -0.02206,0.17282 -0.233743,0.22954 -0.334388,0.0896 -1.346838,0.10681 -1.692103,0.0288 z m 1.161323,-3.41693 c -0.112346,-0.79538 -0.577473,-1.17495 -1.220863,-0.99629 -0.340886,0.0947 -0.714763,0.57148 -0.798402,1.01826 l -0.03085,0.16482 h 1.038253 1.038253 z m 7.325765,3.41354 c -0.732256,-0.19691 -1.256164,-0.79152 -1.433036,-1.6264 -0.122645,-0.57894 -0.05946,-1.46477 0.138291,-1.93877 0.219527,-0.52622 0.676187,-0.95307 1.189096,-1.11149 0.388782,-0.12008 1.04194,-0.12139 1.422797,-0.003 0.875592,0.27251 1.400101,1.13082 1.402435,2.29494 0.0025,1.26784 -0.54827,2.13442 -1.517075,2.38675 -0.320514,0.0835 -0.887779,0.0825 -1.202508,-0.002 z m 1.045143,-0.36737 c 0.514289,-0.26237 0.764312,-0.9271 0.761407,-2.02432 -0.0024,-0.90701 -0.164613,-1.43417 -0.550865,-1.7902 -0.3343,-0.30815 -0.762194,-0.35149 -1.161244,-0.11763 -0.604249,0.35411 -0.880167,1.76812 -0.577369,2.95886 0.125674,0.49421 0.342299,0.81003 0.676108,0.9857 0.191502,0.1008 0.642975,0.0942 0.851962,-0.0124 z m -26.848814,0.26678 c -1.4e-5,-0.0658 0.04513,-0.0882 0.225396,-0.11214 0.269569,-0.0358 0.44552,-0.18756 0.517377,-0.44637 0.0686,-0.24713 0.06076,-3.11051 -0.0091,-3.3133 -0.06475,-0.188 -0.280272,-0.33905 -0.539138,-0.37788 -0.151054,-0.0226 -0.194485,-0.048 -0.194562,-0.11207 -1e-5,-0.0456 0.01095,-0.0829 0.02429,-0.0829 0.01326,4.5e-4 0.330692,-0.0494 0.705132,-0.10987 0.374441,-0.0604 0.719493,-0.10988 0.766783,-0.10988 0.08143,-2e-5 0.08598,0.0341 0.08598,0.64346 l 1e-6,0.64346 0.142836,-0.27792 c 0.198676,-0.38655 0.509828,-0.71318 0.833443,-0.87489 0.241003,-0.12043 0.309743,-0.13411 0.673873,-0.13411 0.357682,-3e-5 0.43296,0.0144 0.638537,0.12171 0.185089,0.0967 0.256202,0.16679 0.345636,0.34062 l 0.1126,0.21888 0.02197,1.71407 c 0.0195,1.52113 0.03061,1.72986 0.09864,1.85425 0.104148,0.19043 0.232622,0.27164 0.482117,0.30473 0.166289,0.0221 0.210361,0.0451 0.210345,0.1102 3e-6,0.0783 -0.05603,0.0822 -1.164697,0.0822 -1.108889,0 -1.164693,-0.004 -1.164691,-0.0823 7e-6,-0.0624 0.04369,-0.0893 0.180414,-0.11112 0.263981,-0.0422 0.413751,-0.13474 0.494894,-0.30573 0.06226,-0.13118 0.07182,-0.35616 0.07161,-1.68306 -1.32e-4,-0.9091 -0.01853,-1.59747 -0.04524,-1.69362 -0.06811,-0.24522 -0.26394,-0.38739 -0.533594,-0.38739 -0.121395,-2e-5 -0.288128,0.032 -0.370503,0.0711 -0.357497,0.16964 -0.802656,0.83898 -0.960013,1.44347 -0.100698,0.38702 -0.09806,2.03517 0.0037,2.24953 0.08114,0.17099 0.230913,0.26352 0.494894,0.30573 0.136727,0.0219 0.180414,0.0488 0.180404,0.11118 6e-6,0.0784 -0.05579,0.0823 -1.164696,0.0823 -1.108665,1e-5 -1.164693,-0.004 -1.164695,-0.0822 z m 6.284952,-0.0255 c -7e-6,-0.0991 0.02122,-0.11009 0.266018,-0.13779 0.32309,-0.0366 0.516395,-0.156 0.634972,-0.39238 0.08532,-0.17008 0.0879,-0.26293 0.0879,-3.16387 -2e-6,-2.90169 -0.0026,-2.99368 -0.0879,-3.16161 -0.130601,-0.25699 -0.281359,-0.3472 -0.615786,-0.3685 -0.280837,-0.0179 -0.285206,-0.0201 -0.285215,-0.14485 l 2e-6,-0.12674 1.439385,3.8e-4 c 0.791664,2.1e-4 1.666833,0.0205 1.94482,0.045 1.090264,0.0963 1.701471,0.33512 2.242707,0.87636 0.39104,0.39104 0.599588,0.77604 0.777464,1.43529 0.110805,0.41067 0.117056,0.48781 0.117055,1.4447 10e-7,0.95105 -0.0068,1.03591 -0.114339,1.43399 -0.392665,1.45309 -1.277154,2.15156 -2.940744,2.32228 -0.24368,0.025 -1.1233,0.0455 -1.954704,0.0455 h -1.511645 z m 3.590921,-0.44525 c 0.679192,-0.17528 1.151115,-0.54068 1.440501,-1.11532 0.326945,-0.64923 0.466191,-1.64214 0.378304,-2.69745 -0.08704,-1.04508 -0.304702,-1.65463 -0.750217,-2.10091 -0.290066,-0.29057 -0.584354,-0.45045 -1.048776,-0.56977 -0.408193,-0.10523 -1.205636,-0.13136 -1.361981,-0.0452 -0.226811,0.125 -0.227023,0.12808 -0.22695,3.28943 4.5e-5,2.70632 0.0061,2.94711 0.07691,3.08895 0.109182,0.21857 0.283654,0.27025 0.810964,0.24028 0.234569,-0.0133 0.541115,-0.0538 0.681236,-0.09 z m 3.397244,0.47004 c -3e-6,-0.0644 0.04352,-0.0894 0.194686,-0.11211 0.221273,-0.0332 0.392516,-0.15055 0.48743,-0.33409 0.09767,-0.18887 0.09626,-3.28147 -0.0016,-3.48766 -0.07999,-0.16858 -0.250232,-0.27678 -0.497749,-0.31636 -0.137034,-0.0219 -0.182779,-0.0493 -0.182773,-0.10954 6e-6,-0.0563 0.04275,-0.0876 0.14284,-0.10479 0.482115,-0.0827 1.253321,-0.19921 1.318522,-0.19923 0.07211,-4e-5 0.0769,0.12258 0.07691,1.95831 1e-6,1.30208 0.01653,2.02396 0.04932,2.1542 0.06454,0.2563 0.238857,0.40296 0.523905,0.44078 0.17328,0.023 0.2179,0.0456 0.217876,0.11118 1.3e-5,0.0783 -0.05603,0.0822 -1.164696,0.0822 -1.112024,0 -1.164693,-0.004 -1.164694,-0.0829 z m 0.786626,-5.73089 c -0.21761,-0.146 -0.294827,-0.40918 -0.195998,-0.66796 0.186765,-0.48904 0.850226,-0.4969 1.052413,-0.0125 0.07459,0.17872 0.07677,0.21728 0.02197,0.38929 -0.07743,0.2431 -0.283604,0.39133 -0.544274,0.39134 -0.119375,0 -0.237637,-0.0355 -0.334122,-0.1002 z"
         style="fill:#10284a;stroke-width:0.0439507" />
      <rect
         style="fill:none;fill-opacity:1;stroke:#10284a;stroke-width:1.32842;stroke-linecap:round;stroke-linejoin:round;stroke-dasharray:none;stroke-opacity:1"
         id="rect6084"
         width="64.817413"
         height="22.484079"
         x="7.2787933"
         y="259.29962" />
    </g>
  </g>
</svg>
