<?xml version="1.0" encoding="UTF-8" standalone="no"?>
<!-- Created with Inkscape (http://www.inkscape.org/) -->

<svg
   xmlns:dc="http://purl.org/dc/elements/1.1/"
   xmlns:cc="http://creativecommons.org/ns#"
   xmlns:rdf="http://www.w3.org/1999/02/22-rdf-syntax-ns#"
   xmlns:svg="http://www.w3.org/2000/svg"
   xmlns="http://www.w3.org/2000/svg"
   xmlns:sodipodi="http://sodipodi.sourceforge.net/DTD/sodipodi-0.dtd"
   xmlns:inkscape="http://www.inkscape.org/namespaces/inkscape"
   width="300"
   height="200"
   viewBox="0 0 79.374998 52.916668"
   version="1.1"
   id="svg8"
   inkscape:version="0.92.4 (5da689c313, 2019-01-14)"
   sodipodi:docname="ucsdLogoStampPlain.svg">
  <defs
     id="defs2" />
  <sodipodi:namedview
     id="base"
     pagecolor="#ffffff"
     bordercolor="#666666"
     borderopacity="1.0"
     inkscape:pageopacity="0.0"
     inkscape:pageshadow="2"
     inkscape:zoom="2.8"
     inkscape:cx="85.595571"
     inkscape:cy="69.254831"
     inkscape:document-units="px"
     inkscape:current-layer="layer1"
     showgrid="false"
     units="px"
     showguides="true"
     inkscape:guide-bbox="true"
     inkscape:window-width="1920"
     inkscape:window-height="1009"
     inkscape:window-x="1912"
     inkscape:window-y="-8"
     inkscape:window-maximized="1"
     inkscape:snap-to-guides="false">
    <sodipodi:guide
       position="39.6875,31.750001"
       orientation="1,0"
       id="guide21"
       inkscape:locked="true"
       inkscape:label=""
       inkscape:color="rgb(0,0,255)" />
    <sodipodi:guide
       position="4.157738,26.458333"
       orientation="0,1"
       id="guide23"
       inkscape:locked="true"
       inkscape:label=""
       inkscape:color="rgb(0,0,255)" />
  </sodipodi:namedview>
  <metadata
     id="metadata5">
    <rdf:RDF>
      <cc:Work
         rdf:about="">
        <dc:format>image/svg+xml</dc:format>
        <dc:type
           rdf:resource="http://purl.org/dc/dcmitype/StillImage" />
        <dc:title></dc:title>
      </cc:Work>
    </rdf:RDF>
  </metadata>
  <g
     inkscape:label="Layer 1"
     inkscape:groupmode="layer"
     id="layer1"
     transform="translate(0,-244.08332)">
    <g
       id="g5281"
       transform="rotate(-15,39.6875,270.54102)">
      <path
         inkscape:connector-curvature="0"
         id="path838"
         d="m 58.856885,275.43626 c -0.922587,-0.1287 -1.491907,-0.56769 -1.536544,-1.18478 -0.01017,-0.14061 0.0059,-0.32955 0.03571,-0.41988 0.06456,-0.19562 0.3078,-0.47581 0.540691,-0.62283 l 0.167957,-0.10603 -0.113999,-0.0897 c -0.370997,-0.29183 -0.370184,-0.85473 0.0019,-1.3426 l 0.109068,-0.143 -0.198042,-0.24314 c -0.254787,-0.31281 -0.347197,-0.61984 -0.344174,-1.1435 0.003,-0.51549 0.118768,-0.83613 0.405472,-1.12284 0.253547,-0.25354 0.560521,-0.37504 1.121935,-0.44403 0.464282,-0.0571 0.909678,-0.008 1.233116,0.13465 l 0.181534,0.0803 0.165018,-0.34427 c 0.190012,-0.39641 0.416824,-0.62699 0.688773,-0.70022 0.36244,-0.0976 0.667994,0.1287 0.663067,0.49107 -0.0021,0.1563 -0.02732,0.21336 -0.13779,0.31213 -0.158402,0.14162 -0.409651,0.16229 -0.624175,0.0514 -0.198389,-0.10259 -0.320963,-0.0512 -0.43378,0.18184 l -0.0971,0.20057 0.09056,0.0964 c 0.0498,0.053 0.146084,0.215 0.213957,0.35997 0.112804,0.24093 0.123404,0.30699 0.123404,0.76901 0,0.42126 -0.01541,0.53874 -0.09255,0.70544 -0.192552,0.41616 -0.522877,0.68215 -1.006221,0.81025 -0.340587,0.0903 -1.152418,0.0938 -1.440893,0.006 -0.204608,-0.0621 -0.212062,-0.0611 -0.276701,0.0376 -0.106769,0.16295 -0.12783,0.40099 -0.04646,0.52517 0.109679,0.16739 0.326509,0.20028 1.324551,0.2009 1.244184,7.8e-4 1.625258,0.0726 1.949096,0.36747 0.289508,0.26358 0.380833,0.8453 0.210194,1.3389 -0.178686,0.51688 -0.798769,0.99203 -1.522004,1.16626 -0.365231,0.088 -0.997734,0.12128 -1.355603,0.0713 z m 1.273388,-0.44167 c 0.35332,-0.10237 0.674736,-0.31519 0.849326,-0.56237 0.170722,-0.2417 0.206969,-0.65767 0.07553,-0.86675 -0.173398,-0.27583 -0.301937,-0.30262 -1.523877,-0.31766 l -1.098768,-0.0135 -0.186992,0.18538 c -0.3049,0.30228 -0.345444,0.68214 -0.115463,1.08178 0.316876,0.55063 1.119157,0.74843 2.000245,0.49314 z m -0.311641,-3.64598 c 0.249196,-0.12713 0.381708,-0.35299 0.444658,-0.75789 0.106282,-0.68364 -0.09551,-1.33249 -0.485471,-1.56102 -0.350362,-0.20533 -0.889738,-0.1426 -1.149711,0.1337 -0.191317,0.20333 -0.235479,0.37702 -0.23758,0.93443 -0.0019,0.51079 0.0028,0.53815 0.143007,0.82287 0.193471,0.39296 0.38663,0.51567 0.812675,0.51626 0.213302,3.1e-4 0.34805,-0.0249 0.472422,-0.0883 z m -46.501564,3.84655 v -0.10987 H 35.065014 56.81296 l 0.103224,0.10987 0.103224,0.10988 h -21.85117 -21.85117 z m 48.51358,0 0.130582,-0.10987 h 2.004403 2.004399 v 0.10987 0.10988 H 63.835051 61.700066 Z M 16.415594,273.4135 c -0.950808,-0.10671 -1.554259,-0.46964 -1.848117,-1.11151 -0.239737,-0.52366 -0.249463,-0.64139 -0.278537,-3.37183 -0.02465,-2.31504 -0.0335,-2.53921 -0.104457,-2.64742 -0.121641,-0.1855 -0.27322,-0.25959 -0.581746,-0.28436 -0.279734,-0.0224 -0.285669,-0.0255 -0.285669,-0.14876 v -0.12584 h 1.494325 1.494324 v 0.13186 c 0,0.12786 -0.0063,0.13188 -0.208765,0.13281 -0.283655,10e-4 -0.55701,0.13218 -0.656347,0.31423 -0.07381,0.13526 -0.08078,0.32185 -0.09241,2.47568 -0.008,1.48581 0.0043,2.43827 0.03398,2.63005 0.176467,1.13956 0.786083,1.63061 1.929448,1.55416 0.914714,-0.0612 1.387564,-0.44147 1.575554,-1.26721 0.06406,-0.28138 0.07399,-0.64128 0.07565,-2.7412 0.0018,-2.33235 -0.0012,-2.42337 -0.086,-2.59025 -0.128388,-0.25264 -0.270802,-0.33787 -0.610027,-0.3651 -0.285462,-0.0229 -0.290963,-0.0257 -0.290963,-0.14919 v -0.12584 h 1.318521 1.318522 v 0.12584 c 0,0.12322 -0.0059,0.12631 -0.285669,0.14876 -0.324104,0.026 -0.469323,0.10299 -0.581443,0.30816 -0.07107,0.13006 -0.08013,0.3676 -0.104352,2.73552 -0.02251,2.20032 -0.03742,2.63477 -0.09849,2.86824 -0.213888,0.81781 -0.690802,1.26901 -1.523143,1.44103 -0.386202,0.0798 -1.174712,0.11038 -1.604202,0.0622 z m 6.96619,3.5e-4 c -1.563584,-0.21587 -2.5723,-1.35881 -2.816094,-3.19081 -0.07938,-0.59653 -0.02972,-1.96689 0.0882,-2.43357 0.29435,-1.16496 0.994897,-1.86813 2.077765,-2.08557 0.663968,-0.13332 1.840331,-0.0726 2.759761,0.14246 l 0.329631,0.0771 0.02687,0.39461 c 0.01478,0.21703 0.04031,0.62699 0.05673,0.91103 l 0.02987,0.51642 h -0.153926 c -0.143754,0 -0.157229,-0.0123 -0.203924,-0.18569 -0.143477,-0.53283 -0.558087,-1.05815 -1.008991,-1.27841 -0.344721,-0.16839 -0.875611,-0.23945 -1.276003,-0.17079 -0.88558,0.15186 -1.369428,0.75013 -1.560964,1.93009 -0.08156,0.50247 -0.08112,1.71349 8.31e-4,2.25394 0.216433,1.42738 0.854666,2.25369 1.954933,2.53102 0.442862,0.11163 1.451469,0.0693 1.90384,-0.0799 l 0.340618,-0.11236 v 0.25101 0.25101 l -0.240351,0.0758 c -0.574254,0.18101 -1.730515,0.28252 -2.30879,0.20268 z m 5.841691,0.002 c -0.619371,-0.0597 -1.28839,-0.17799 -1.324029,-0.23404 -0.01834,-0.0289 -0.03374,-0.17111 -0.03422,-0.31615 -4.79e-4,-0.14504 -0.01369,-0.48621 -0.02936,-0.75815 l -0.02849,-0.49445 h 0.155651 c 0.142692,0 0.158023,0.0126 0.184127,0.15179 0.04224,0.22518 0.327248,0.61947 0.575186,0.79575 0.346136,0.2461 0.724357,0.33999 1.286734,0.31943 0.391494,-0.0143 0.512337,-0.0365 0.717754,-0.1316 0.547701,-0.25368 0.85043,-0.69772 0.847878,-1.24368 -0.0011,-0.23067 -0.02596,-0.35635 -0.09794,-0.49479 -0.225395,-0.43347 -0.52796,-0.65948 -1.715002,-1.28109 -1.246112,-0.65254 -1.588508,-0.95246 -1.77017,-1.55054 -0.07547,-0.24846 -0.08925,-0.3832 -0.07269,-0.71039 0.0383,-0.75668 0.325318,-1.2073 0.970435,-1.52361 0.490542,-0.24051 0.859678,-0.30864 1.670272,-0.30823 0.628977,3.1e-4 0.93121,0.0281 1.464951,0.13466 l 0.226215,0.0452 0.02901,0.69005 c 0.01596,0.37952 0.03283,0.7296 0.03749,0.77794 0.0069,0.072 -0.018,0.0879 -0.1374,0.0879 -0.136577,0 -0.150804,-0.0146 -0.223246,-0.22856 -0.154385,-0.45604 -0.451031,-0.7586 -0.925323,-0.94376 -0.191739,-0.0749 -0.342425,-0.0959 -0.705315,-0.0987 -0.417814,-0.003 -0.486436,0.008 -0.725186,0.11982 -0.4443,0.20783 -0.705973,0.53649 -0.7547,0.94792 -0.07762,0.65534 0.310805,1.06096 1.622176,1.694 1.498982,0.72361 2.068738,1.27714 2.186443,2.12418 0.09881,0.71104 -0.126736,1.358 -0.625047,1.79291 -0.252729,0.22058 -0.817883,0.48161 -1.220228,0.5636 -0.427895,0.0872 -1.110757,0.11847 -1.58598,0.0727 z m 4.61858,-0.0896 c -0.244101,-0.11351 -0.461303,-0.317 -0.585438,-0.54848 -0.07362,-0.13728 -0.09444,-0.25283 -0.09504,-0.52741 -6.68e-4,-0.30805 0.01532,-0.38063 0.129067,-0.58598 0.07141,-0.1289 0.190073,-0.28534 0.263704,-0.34763 0.338203,-0.28612 1.029405,-0.49418 1.860102,-0.55993 l 0.405385,-0.0321 -3.52e-4,-0.3799 c -3.96e-4,-0.4727 -0.06888,-0.91034 -0.169434,-1.08296 -0.168781,-0.2898 -0.544615,-0.41754 -0.963879,-0.32762 -0.277283,0.0595 -0.404611,0.19806 -0.404611,0.44041 0,0.47837 -0.33454,0.75632 -0.717634,0.59626 -0.104935,-0.0439 -0.18547,-0.11945 -0.232667,-0.21843 -0.314461,-0.65943 0.894924,-1.35407 2.046418,-1.17541 0.602757,0.0935 0.910967,0.2958 1.110156,0.72859 0.09855,0.21411 0.101723,0.26317 0.123845,1.91185 0.01249,0.93066 0.03863,1.72491 0.0581,1.765 0.05355,0.11029 0.273133,0.18304 0.471961,0.15638 0.171219,-0.023 0.177042,-0.0197 0.163986,0.093 -0.01652,0.1426 -0.119116,0.17063 -0.650822,0.17779 -0.301454,0.004 -0.401236,-0.0118 -0.516822,-0.0823 -0.175343,-0.1069 -0.317857,-0.33078 -0.318077,-0.49967 -1.76e-4,-0.12503 -0.0016,-0.12439 -0.20893,0.0964 -0.309336,0.32929 -0.627436,0.46155 -1.153707,0.47972 -0.351223,0.0121 -0.448941,-1.7e-4 -0.61531,-0.0776 z m 1.304528,-0.44246 c 0.236212,-0.11435 0.470008,-0.38275 0.565799,-0.64954 0.04247,-0.11827 0.0828,-0.40447 0.0962,-0.68271 l 0.02309,-0.47907 -0.337393,0.0306 c -0.921057,0.0835 -1.428671,0.45218 -1.431505,1.0398 -0.0012,0.25861 0.17702,0.62147 0.36423,0.74139 0.183784,0.11772 0.475837,0.11754 0.719579,-4.5e-4 z m 19.650369,0.46302 c -0.84769,-0.20551 -1.395214,-0.79071 -1.595769,-1.70557 -0.104329,-0.47592 -0.07247,-1.41615 0.06224,-1.83681 0.185149,-0.57817 0.560889,-0.96455 1.100378,-1.13153 0.837575,-0.25926 1.664995,-0.10673 2.13253,0.3931 0.28974,0.30976 0.387836,0.55299 0.411288,1.01979 l 0.01932,0.38457 H 55.446048 53.96516 l 0.02877,0.25272 c 0.119572,1.05019 0.556152,1.79371 1.252122,2.13245 0.26692,0.12991 0.317428,0.13914 0.769138,0.14052 0.265902,8.1e-4 0.54904,-0.0152 0.629197,-0.0356 l 0.145739,-0.0371 -0.01389,0.16895 c -0.01384,0.16841 -0.01478,0.16917 -0.299567,0.24286 -0.35971,0.0931 -1.316523,0.0997 -1.679724,0.0117 z m 1.196266,-3.39881 c 0,-0.27741 -0.135205,-0.62371 -0.312879,-0.80139 -0.320192,-0.32019 -0.870138,-0.31764 -1.23751,0.006 -0.195196,0.17182 -0.389997,0.53397 -0.443003,0.82358 l -0.02614,0.14284 h 1.009768 1.009767 z m 7.339771,3.40408 c -0.340926,-0.095 -0.628526,-0.27 -0.882012,-0.53664 -0.435512,-0.4581 -0.61059,-0.97951 -0.611662,-1.82163 -0.0011,-0.85255 0.193849,-1.41838 0.646576,-1.87675 0.750894,-0.76027 2.186808,-0.75522 2.934203,0.0103 0.434708,0.44526 0.635704,1.03661 0.637075,1.87437 0.002,1.22702 -0.557146,2.09859 -1.508951,2.35202 -0.277549,0.0739 -0.947371,0.073 -1.215229,-0.002 z m 1.034661,-0.37124 c 0.491295,-0.22316 0.765077,-0.92817 0.766554,-1.97394 0.0017,-1.20141 -0.339098,-1.93623 -0.959721,-2.06933 -0.593964,-0.12738 -1.054202,0.20058 -1.287532,0.91748 -0.133228,0.40935 -0.165809,1.46532 -0.06118,1.98283 0.166094,0.8215 0.535008,1.22364 1.122528,1.22364 0.140713,0 0.315953,-0.0337 0.419351,-0.0807 z m -26.833734,0.26228 c 0,-0.0647 0.04298,-0.0912 0.18679,-0.11507 0.102735,-0.0171 0.240845,-0.0587 0.306911,-0.0925 0.24843,-0.12714 0.253476,-0.16659 0.253297,-1.98065 -1.32e-4,-1.54783 -0.0058,-1.67057 -0.0827,-1.79668 -0.08654,-0.14192 -0.224258,-0.21329 -0.499479,-0.25886 -0.124933,-0.0207 -0.164815,-0.0481 -0.164815,-0.11321 0,-0.0472 0.0049,-0.0869 0.01099,-0.0881 0.305808,-0.0609 1.535735,-0.23842 1.550393,-0.22377 0.01147,0.0115 0.02137,0.29939 0.02202,0.63982 l 0.0012,0.61898 0.140703,-0.26371 c 0.07739,-0.14504 0.269693,-0.39409 0.427348,-0.55345 0.344922,-0.34866 0.603358,-0.45718 1.077759,-0.45256 0.413801,0.004 0.651563,0.0783 0.833574,0.26029 0.275861,0.27586 0.29528,0.41331 0.319579,2.26202 0.02344,1.78314 0.02973,1.82947 0.265001,1.94987 0.06607,0.0338 0.204177,0.0754 0.306911,0.0925 0.143808,0.0239 0.186791,0.0504 0.186791,0.11507 0,0.0806 -0.04715,0.084 -1.164694,0.084 -1.123124,0 -1.164694,-0.003 -1.164694,-0.0852 0,-0.0673 0.04162,-0.0915 0.198293,-0.11495 0.237492,-0.0356 0.405938,-0.15815 0.488269,-0.35519 0.07584,-0.18151 0.08771,-2.91789 0.01415,-3.26089 -0.06322,-0.29481 -0.196353,-0.4124 -0.494922,-0.43716 -0.297416,-0.0247 -0.519771,0.0818 -0.773938,0.37055 -0.217549,0.24714 -0.50335,0.81199 -0.596105,1.17812 -0.09037,0.35671 -0.09461,1.93674 -0.0058,2.14938 0.08233,0.19704 0.250776,0.31958 0.488269,0.35519 0.156678,0.0235 0.198293,0.0476 0.198293,0.11495 0,0.0822 -0.04157,0.0852 -1.164694,0.0852 -1.117547,0 -1.164694,-0.003 -1.164694,-0.084 z m 6.284953,-0.0427 c 0,-0.1248 0.0044,-0.12701 0.285206,-0.1449 0.326454,-0.0208 0.484786,-0.11159 0.604728,-0.34681 0.07096,-0.13916 0.07684,-0.3829 0.07684,-3.1833 0,-2.8004 -0.0059,-3.04414 -0.07684,-3.1833 -0.117656,-0.23074 -0.267814,-0.31683 -0.598971,-0.34341 -0.285462,-0.0229 -0.290963,-0.0257 -0.290963,-0.14919 v -0.12584 h 1.561982 c 1.626016,0 2.172422,0.0357 2.738468,0.17866 1.104028,0.27894 1.841335,1.04645 2.115494,2.20217 0.127603,0.53791 0.180243,1.33993 0.129264,1.96943 -0.16024,1.97865 -1.07564,2.97274 -2.954367,3.20831 -0.196986,0.0247 -1.085511,0.0449 -1.974499,0.0449 h -1.616342 z m 3.526857,-0.42108 c 0.913194,-0.19352 1.47263,-0.76829 1.755446,-1.80356 0.08618,-0.31546 0.0963,-0.46228 0.09846,-1.42839 0.0022,-0.97171 -0.0071,-1.11418 -0.09491,-1.45987 -0.328764,-1.29413 -1.123574,-1.88039 -2.549284,-1.88039 -0.498048,0 -0.598629,0.0448 -0.668939,0.29796 -0.05787,0.20837 -0.06071,5.76022 -0.0031,6.00897 0.06647,0.2869 0.157438,0.32975 0.698213,0.32887 0.257181,-4.4e-4 0.601017,-0.029 0.764081,-0.0636 z m 3.417357,0.46403 c 0,-0.0673 0.04359,-0.0898 0.221581,-0.11425 0.270251,-0.0372 0.461889,-0.18599 0.527374,-0.40953 0.03118,-0.10643 0.0427,-0.71191 0.03376,-1.77393 l -0.01357,-1.61235 -0.128386,-0.13396 c -0.09433,-0.0984 -0.196349,-0.14733 -0.384569,-0.18436 -0.200256,-0.0394 -0.256182,-0.0679 -0.256182,-0.13059 0,-0.0903 -0.02557,-0.0838 0.922965,-0.23133 l 0.637285,-0.0991 0.02198,2.06794 c 0.01986,1.86852 0.02946,2.08163 0.09963,2.21003 0.08956,0.16388 0.239911,0.25208 0.504689,0.29608 0.143807,0.0239 0.186791,0.0504 0.186791,0.11507 0,0.0807 -0.04748,0.084 -1.18667,0.084 -1.137896,0 -1.186669,-0.003 -1.186669,-0.0838 z m 0.995156,-5.6306 c -0.166914,-0.0506 -0.290938,-0.16595 -0.363937,-0.33842 -0.0786,-0.1857 -0.07551,-0.29576 0.01354,-0.48342 0.205334,-0.43271 0.870511,-0.42047 1.054299,0.0194 0.192459,0.46062 -0.232733,0.94534 -0.703898,0.80245 z"
         style="fill:#c7932b;stroke-width:0.04395072"
         transform="translate(0,1.2291668e-6)" />
      <path
         inkscape:connector-curvature="0"
         id="path836"
         d="m 58.455848,275.34872 c -0.879758,-0.23729 -1.298812,-0.81367 -1.092422,-1.50254 0.06285,-0.20977 0.32222,-0.5137 0.537166,-0.62946 0.08707,-0.0469 0.15831,-0.0983 0.15831,-0.11416 0,-0.0159 -0.0511,-0.0624 -0.11356,-0.1033 -0.135021,-0.0885 -0.27968,-0.38622 -0.281029,-0.57845 -0.0014,-0.19819 0.108791,-0.4807 0.280933,-0.72031 l 0.149757,-0.20845 -0.124617,-0.0921 c -0.06854,-0.0507 -0.190382,-0.22572 -0.270768,-0.38901 -0.14211,-0.28867 -0.146149,-0.31217 -0.146149,-0.85029 0,-0.52903 0.0058,-0.56484 0.132635,-0.81276 0.08902,-0.17406 0.202691,-0.31229 0.345694,-0.42037 0.325561,-0.24606 0.575605,-0.31272 1.257725,-0.3353 0.546259,-0.0181 0.616488,-0.0112 0.885136,0.087 l 0.291802,0.10667 0.191656,-0.37406 c 0.248748,-0.48549 0.422903,-0.63161 0.783892,-0.65772 0.244138,-0.0177 0.270011,-0.0102 0.394884,0.11472 0.11058,0.11059 0.133624,0.1689 0.133624,0.33817 0,0.16747 -0.02329,0.22782 -0.128473,0.33301 -0.150096,0.1501 -0.403239,0.17396 -0.625608,0.059 -0.198551,-0.10268 -0.330408,-0.0501 -0.439924,0.17527 l -0.09301,0.19144 0.114782,0.15048 c 0.442518,0.58018 0.448684,1.61811 0.01264,2.12753 -0.18098,0.21144 -0.573952,0.42891 -0.897267,0.49655 -0.324053,0.0678 -1.039479,0.06 -1.319001,-0.0144 l -0.233382,-0.0621 -0.0851,0.13956 c -0.17971,0.29473 -0.0495,0.61161 0.272262,0.66257 0.08126,0.0129 0.622417,0.0316 1.202566,0.0417 1.157196,0.0201 1.356557,0.0543 1.679076,0.28793 0.263036,0.19054 0.381176,0.46714 0.378477,0.88613 -0.0048,0.74298 -0.481937,1.30629 -1.36191,1.60779 -0.30086,0.10308 -0.426774,0.11976 -1.003298,0.13287 -0.555172,0.0126 -0.711087,0.001 -0.987502,-0.0735 z m 1.629996,-0.32569 c 0.675768,-0.20612 1.062166,-0.61213 1.062166,-1.11608 0,-0.26799 -0.08724,-0.41778 -0.324805,-0.55772 -0.136674,-0.0805 -0.242582,-0.089 -1.258336,-0.10162 l -1.109096,-0.0137 -0.152272,0.11614 c -0.312234,0.23816 -0.410315,0.65811 -0.241043,1.03205 0.161532,0.35685 0.436892,0.56798 0.897434,0.68811 0.25952,0.0677 0.82739,0.0439 1.125952,-0.0471 z m -0.487365,-3.59004 c 0.446064,-0.0957 0.652395,-0.40954 0.690518,-1.05043 0.03948,-0.66376 -0.163659,-1.18503 -0.537992,-1.38053 -0.25789,-0.13469 -0.682906,-0.12621 -0.942571,0.0188 -0.290128,0.16203 -0.411397,0.42514 -0.433987,0.9416 -0.03693,0.84433 0.221731,1.34646 0.761248,1.4778 0.190715,0.0464 0.214255,0.0461 0.462784,-0.007 z m -43.578441,1.91285 c -0.847371,-0.18537 -1.367721,-0.64582 -1.589271,-1.40632 -0.06661,-0.22865 -0.07885,-0.57398 -0.100336,-2.83153 -0.02339,-2.45783 -0.02834,-2.57874 -0.112373,-2.74408 -0.130601,-0.25699 -0.281356,-0.34721 -0.615783,-0.3685 -0.280836,-0.0179 -0.285207,-0.0201 -0.285207,-0.14489 v -0.12674 h 1.494325 1.494324 v 0.13186 c 0,0.12975 -0.0037,0.13185 -0.230741,0.13192 -0.318963,9e-5 -0.515246,0.10785 -0.637285,0.34986 l -0.09889,0.1961 7.63e-4,2.37502 c 8.2e-4,2.55352 0.01329,2.72511 0.232906,3.20482 0.151594,0.33112 0.349208,0.53317 0.681284,0.69657 0.287065,0.14126 0.30241,0.14372 0.886242,0.14197 0.50787,-0.002 0.629717,-0.0159 0.839335,-0.0992 0.467391,-0.18577 0.746223,-0.52742 0.907769,-1.11225 0.06998,-0.25335 0.07763,-0.52589 0.07763,-2.76427 0,-2.40417 -0.0028,-2.48797 -0.0879,-2.63245 -0.136827,-0.2323 -0.290016,-0.32186 -0.601431,-0.35164 -0.259711,-0.0248 -0.277584,-0.0336 -0.277584,-0.13641 v -0.10988 l 1.307534,-0.0116 1.307534,-0.0116 v 0.1325 c 0,0.13054 -0.0034,0.13251 -0.230741,0.13258 -0.268645,8e-5 -0.492618,0.0999 -0.623174,0.27776 -0.08883,0.121 -0.0917,0.1863 -0.118954,2.70297 -0.03003,2.77349 -0.04046,2.90376 -0.273164,3.41204 -0.202823,0.44303 -0.580366,0.74156 -1.171257,0.92616 -0.346757,0.10833 -1.744669,0.13361 -2.17556,0.0394 z m 7.01014,-0.001 c -1.134952,-0.24595 -1.994364,-1.15535 -2.32326,-2.45841 -0.132349,-0.52435 -0.181959,-0.97176 -0.181672,-1.63837 7.55e-4,-1.75113 0.49513,-2.83028 1.516041,-3.30927 0.515008,-0.24164 0.75392,-0.28081 1.692102,-0.27746 0.757474,0.003 0.923183,0.017 1.426393,0.12294 0.313145,0.0659 0.592338,0.13895 0.620429,0.16226 0.03232,0.0268 0.06191,0.29633 0.08058,0.7341 0.01623,0.38044 0.04089,0.77577 0.05481,0.87851 l 0.0253,0.18679 H 25.78904 c -0.140666,0 -0.155947,-0.0138 -0.207285,-0.18679 -0.228527,-0.77019 -0.766554,-1.29236 -1.485342,-1.44158 -0.346559,-0.0719 -0.899884,-0.0318 -1.211137,0.0879 -0.509765,0.196 -0.89417,0.71268 -1.089744,1.4647 -0.265876,1.02236 -0.175994,2.74876 0.188875,3.62781 0.41921,1.00996 1.101993,1.50852 2.21046,1.61404 0.394484,0.0376 1.030057,-0.04 1.425972,-0.17391 l 0.310081,-0.1049 v 0.25452 0.25453 l -0.340618,0.0897 c -0.18734,0.0494 -0.482851,0.11085 -0.656692,0.13667 -0.440959,0.0655 -1.5557,0.0516 -1.903437,-0.0238 z m 6.021249,0.0446 c -0.06043,-0.0104 -0.340853,-0.0512 -0.623157,-0.0908 l -0.513279,-0.0719 -0.02399,-0.31215 c -0.01319,-0.17168 -0.03605,-0.53465 -0.0508,-0.80659 l -0.02681,-0.49445 h 0.157531 c 0.120567,0 0.157633,0.0181 0.157962,0.0769 8.26e-4,0.14836 0.21357,0.53265 0.3957,0.71478 0.501327,0.50132 1.498034,0.66004 2.214984,0.35272 0.623246,-0.26715 0.996421,-1.02165 0.799118,-1.61567 -0.151645,-0.45656 -0.5346,-0.76775 -1.679432,-1.36469 -1.170146,-0.61014 -1.563083,-0.90999 -1.770371,-1.35098 -0.242131,-0.51511 -0.234888,-1.20925 0.01797,-1.72219 0.237233,-0.48124 0.653117,-0.78181 1.340122,-0.96855 0.411823,-0.11194 1.784492,-0.11003 2.384327,0.003 l 0.428519,0.081 1.76e-4,0.22668 c 8.8e-5,0.12467 0.01304,0.47884 0.02876,0.78705 l 0.02858,0.56037 H 32.17954 c -0.113969,0 -0.142829,-0.0209 -0.166898,-0.12086 -0.04548,-0.18889 -0.223255,-0.52051 -0.366501,-0.68366 -0.174625,-0.19888 -0.576589,-0.40618 -0.915904,-0.47234 -0.352275,-0.0687 -0.84849,-0.0316 -1.114916,0.0834 -0.466995,0.20149 -0.783274,0.64849 -0.782261,1.10557 0.0013,0.57885 0.327884,0.898 1.564594,1.5289 1.262071,0.64385 1.698133,0.95367 1.992671,1.4158 0.206837,0.32452 0.278841,0.65226 0.256022,1.16533 -0.01707,0.38384 -0.03912,0.48752 -0.157418,0.74032 -0.2507,0.53573 -0.748071,0.9205 -1.460041,1.12949 -0.272999,0.0801 -0.460849,0.0988 -1.098455,0.10935 -0.423025,0.007 -0.818582,0.004 -0.879014,-0.006 z m 4.839535,-0.0461 c -0.106052,-0.039 -0.287224,-0.16236 -0.402604,-0.27406 -0.385197,-0.37292 -0.447107,-0.97762 -0.151696,-1.4817 0.136955,-0.23369 0.531582,-0.51016 0.875719,-0.61351 0.253773,-0.0762 0.870025,-0.17924 1.315762,-0.21998 l 0.301641,-0.0276 -0.01833,-0.57831 c -0.01985,-0.62648 -0.09178,-0.8786 -0.304292,-1.06668 -0.298742,-0.26438 -0.941498,-0.24929 -1.144184,0.0269 -0.04435,0.0604 -0.09781,0.23706 -0.118791,0.3925 -0.04825,0.35742 -0.173501,0.48651 -0.472058,0.48651 -0.247071,0 -0.400049,-0.098 -0.453125,-0.2902 -0.120419,-0.43612 0.290631,-0.86539 1.006506,-1.05112 0.417613,-0.10835 1.255684,-0.0757 1.560251,0.0609 0.387064,0.1735 0.579884,0.42346 0.675821,0.87608 0.03107,0.14657 0.04937,0.795 0.04937,1.74923 0,1.26995 0.01084,1.53728 0.06672,1.64535 0.07514,0.14529 0.202289,0.19136 0.460255,0.16676 0.156683,-0.0149 0.176231,-0.006 0.176231,0.0785 0,0.0524 -0.03461,0.10943 -0.07691,0.12663 -0.15131,0.0615 -0.828878,0.0785 -0.991496,0.0248 -0.20389,-0.0673 -0.374535,-0.27046 -0.409191,-0.48718 l -0.02718,-0.16997 -0.203539,0.20881 c -0.314466,0.3226 -0.626809,0.45482 -1.117728,0.47316 -0.294351,0.011 -0.456781,-0.004 -0.597154,-0.0559 z m 1.264539,-0.45259 c 0.208803,-0.10652 0.429555,-0.35454 0.547981,-0.61567 0.06933,-0.15287 0.09485,-0.31653 0.108276,-0.69445 l 0.01757,-0.49445 -0.213509,7.7e-4 c -0.5299,0.002 -1.120646,0.21804 -1.369005,0.5009 -0.303954,0.34619 -0.218854,1.02283 0.161113,1.28102 0.198349,0.13478 0.508482,0.14386 0.747578,0.0219 z M 54.8505,273.349 c -1.125081,-0.25425 -1.714078,-1.11697 -1.714078,-2.51068 0,-1.01458 0.312244,-1.71063 0.908636,-2.02552 0.360151,-0.19015 0.661922,-0.24554 1.225699,-0.22496 0.400137,0.0146 0.521595,0.0365 0.724467,0.13045 0.603866,0.27973 0.92096,0.7954 0.92096,1.4977 v 0.25447 h -1.47747 -1.477469 l 0.03103,0.28979 c 0.13449,1.25584 0.807088,2.10339 1.792175,2.25833 0.279355,0.0439 0.722464,0.0102 0.934562,-0.0712 0.05953,-0.0228 0.06901,8.4e-4 0.05733,0.1433 -0.01348,0.1644 -0.02206,0.17283 -0.233744,0.22955 -0.334389,0.0896 -1.346838,0.10681 -1.692102,0.0288 z m 1.161323,-3.41694 c -0.112348,-0.79537 -0.577474,-1.17494 -1.220863,-0.99629 -0.340886,0.0947 -0.714763,0.57149 -0.798403,1.01827 l -0.03085,0.16482 h 1.038252 1.038253 z m 7.325763,3.41355 c -0.732254,-0.19692 -1.256164,-0.79152 -1.433035,-1.6264 -0.122645,-0.57894 -0.05946,-1.46477 0.138291,-1.93877 0.219529,-0.52622 0.676186,-0.95307 1.189095,-1.11149 0.388784,-0.12008 1.04194,-0.12139 1.422799,-0.003 0.875591,0.27251 1.400099,1.13082 1.402433,2.29494 0.0025,1.26784 -0.548268,2.13441 -1.517074,2.38675 -0.320515,0.0835 -0.887778,0.0825 -1.202509,-0.002 z m 1.045144,-0.36737 c 0.514289,-0.26237 0.764312,-0.9271 0.761407,-2.02432 -0.0024,-0.90701 -0.164613,-1.43417 -0.550866,-1.7902 -0.334298,-0.30815 -0.762193,-0.35149 -1.161244,-0.11763 -0.604247,0.35411 -0.880166,1.76812 -0.577367,2.95886 0.125673,0.49421 0.342297,0.81003 0.676107,0.9857 0.191507,0.10078 0.642982,0.0942 0.851963,-0.0124 z m -26.848814,0.26678 c 0,-0.0658 0.04513,-0.0882 0.225397,-0.11214 0.269569,-0.0358 0.44552,-0.18756 0.517376,-0.44637 0.06861,-0.24712 0.06076,-3.11051 -0.0091,-3.3133 -0.06475,-0.188 -0.28027,-0.33906 -0.539136,-0.37788 -0.151044,-0.0226 -0.194558,-0.0477 -0.194558,-0.11209 0,-0.0456 0.01095,-0.0829 0.02433,-0.0829 0.01338,0 0.33069,-0.0494 0.705131,-0.10987 0.374442,-0.0604 0.719494,-0.10988 0.766784,-0.10988 0.08143,0 0.08598,0.0341 0.08598,0.64346 v 0.64346 l 0.142839,-0.27792 c 0.198676,-0.38655 0.509826,-0.71318 0.833443,-0.87489 0.241001,-0.12043 0.309742,-0.13411 0.673871,-0.13411 0.357675,0 0.432974,0.0144 0.63853,0.12174 0.185088,0.0967 0.256206,0.16678 0.345637,0.34062 l 0.1126,0.21888 0.02197,1.71407 c 0.0195,1.52113 0.03061,1.72986 0.09864,1.85425 0.10415,0.19043 0.232623,0.27164 0.482119,0.30473 0.166286,0.0221 0.210356,0.0451 0.210356,0.11015 0,0.0783 -0.05603,0.0822 -1.164694,0.0822 -1.10889,0 -1.164694,-0.004 -1.164694,-0.0823 0,-0.0624 0.04368,-0.0893 0.180416,-0.11113 0.26398,-0.0422 0.41375,-0.13474 0.494894,-0.30573 0.06225,-0.13118 0.07182,-0.35616 0.07161,-1.68306 -1.32e-4,-0.9091 -0.01853,-1.59747 -0.04524,-1.69362 -0.06811,-0.24522 -0.263941,-0.38739 -0.533596,-0.38739 -0.1214,0 -0.288126,0.032 -0.370503,0.0711 -0.357496,0.16964 -0.802654,0.83898 -0.960012,1.44347 -0.100742,0.387 -0.09806,2.03517 0.0037,2.24953 0.08114,0.17099 0.230914,0.26352 0.494893,0.30573 0.136737,0.0219 0.180417,0.0488 0.180417,0.11113 0,0.0784 -0.0558,0.0823 -1.164695,0.0823 -1.108664,0 -1.164694,-0.004 -1.164694,-0.0822 z m 6.284953,-0.0255 c 0,-0.0991 0.02119,-0.11009 0.266017,-0.13779 0.323091,-0.0366 0.516394,-0.156 0.634973,-0.39238 0.08532,-0.17008 0.0879,-0.26293 0.0879,-3.16387 0,-2.90169 -0.0026,-2.99368 -0.0879,-3.16161 -0.130601,-0.25699 -0.281356,-0.34721 -0.615784,-0.3685 -0.280836,-0.0179 -0.285206,-0.0201 -0.285206,-0.14489 v -0.12674 l 1.439386,3.8e-4 c 0.791662,2.1e-4 1.666831,0.0205 1.944819,0.045 1.090263,0.0963 1.701469,0.33512 2.242707,0.87636 0.391041,0.39104 0.599587,0.77604 0.777463,1.43529 0.110806,0.41067 0.117056,0.48781 0.117056,1.4447 0,0.95105 -0.0068,1.03591 -0.114339,1.43399 -0.392661,1.45309 -1.277154,2.15156 -2.940745,2.32228 -0.243684,0.025 -1.1233,0.0455 -1.954704,0.0455 h -1.511643 z m 3.59092,-0.44525 c 0.67919,-0.17528 1.151114,-0.54068 1.4405,-1.11532 0.326947,-0.64923 0.466197,-1.64214 0.378306,-2.69746 -0.08704,-1.04507 -0.304702,-1.65462 -0.750219,-2.1009 -0.290065,-0.29057 -0.584353,-0.45045 -1.048775,-0.56977 -0.408283,-0.1049 -1.205635,-0.13136 -1.361979,-0.0452 -0.226813,0.125 -0.227025,0.12808 -0.226952,3.28943 4.4e-5,2.70632 0.0061,2.94711 0.07691,3.08895 0.109184,0.21856 0.283654,0.27025 0.810969,0.24026 0.234558,-0.0133 0.541115,-0.0538 0.681236,-0.09 z m 3.397244,0.47004 c 0,-0.0644 0.04352,-0.0894 0.194685,-0.11211 0.221284,-0.0332 0.392517,-0.15055 0.48743,-0.33409 0.09767,-0.18887 0.09626,-3.28147 -0.0016,-3.48767 -0.07999,-0.16857 -0.250233,-0.27677 -0.497751,-0.31635 -0.137037,-0.0219 -0.182777,-0.0493 -0.182777,-0.10952 0,-0.0563 0.04275,-0.0876 0.14284,-0.10479 0.482116,-0.0827 1.253322,-0.19922 1.318522,-0.19923 0.0721,-1e-5 0.07691,0.12254 0.07691,1.95831 0,1.30208 0.01653,2.02396 0.04932,2.1542 0.06454,0.2563 0.238857,0.40296 0.523904,0.44078 0.173288,0.023 0.217887,0.0457 0.217887,0.11114 0,0.0783 -0.05603,0.0822 -1.164695,0.0822 -1.112026,0 -1.164694,-0.004 -1.164694,-0.0829 z m 0.786625,-5.73089 c -0.217606,-0.14601 -0.294827,-0.40918 -0.195998,-0.66796 0.186768,-0.48904 0.850227,-0.4969 1.052414,-0.0125 0.07459,0.17872 0.07677,0.21728 0.02197,0.38929 -0.07743,0.2431 -0.283603,0.39133 -0.544272,0.39133 -0.119373,0 -0.237641,-0.0355 -0.334119,-0.1002 z"
         style="fill:#10284a;stroke-width:0.04395072"
         transform="translate(0,1.2291668e-6)" />
      <path
         inkscape:connector-curvature="0"
         id="rect830"
         d="m 6.6152344,258.63477 v 0.19921 23.61329 H 72.759766 v -23.8125 z m 0.3984375,0.39843 H 72.361328 v 23.01563 H 7.0136719 Z"
         style="color:#000000;font-style:normal;font-variant:normal;font-weight:normal;font-stretch:normal;font-size:medium;line-height:normal;font-family:sans-serif;font-variant-ligatures:normal;font-variant-position:normal;font-variant-caps:normal;font-variant-numeric:normal;font-variant-alternates:normal;font-feature-settings:normal;text-indent:0;text-align:start;text-decoration:none;text-decoration-line:none;text-decoration-style:solid;text-decoration-color:#000000;letter-spacing:normal;word-spacing:normal;text-transform:none;writing-mode:lr-tb;direction:ltr;text-orientation:mixed;dominant-baseline:auto;baseline-shift:baseline;text-anchor:start;white-space:normal;shape-padding:0;clip-rule:nonzero;display:inline;overflow:visible;visibility:visible;opacity:1;isolation:auto;mix-blend-mode:normal;color-interpolation:sRGB;color-interpolation-filters:linearRGB;solid-color:#000000;solid-opacity:1;vector-effect:none;fill:#000000;fill-opacity:1;fill-rule:nonzero;stroke:none;stroke-width:0.39835066;stroke-linecap:butt;stroke-linejoin:miter;stroke-miterlimit:4;stroke-dasharray:none;stroke-dashoffset:0;stroke-opacity:1;color-rendering:auto;image-rendering:auto;shape-rendering:auto;text-rendering:auto;enable-background:accumulate" />
      <path
         inkscape:connector-curvature="0"
         id="rect832"
         d="M 8.1035156,259.95898 A 0.18396876,0.18396876 0 0 0 7.9375,260.14258 v 20.79883 A 0.18396876,0.18396876 0 0 0 8.1210938,281.125 H 71.253906 a 0.18396876,0.18396876 0 0 0 0.183594,-0.18359 v -20.79883 a 0.18396876,0.18396876 0 0 0 -0.183594,-0.1836 H 8.1210938 a 0.18396876,0.18396876 0 0 0 -0.017578,0 z m 0.2011719,0.36719 H 71.070312 v 20.43164 H 8.3046875 Z"
         style="color:#000000;font-style:normal;font-variant:normal;font-weight:normal;font-stretch:normal;font-size:medium;line-height:normal;font-family:sans-serif;font-variant-ligatures:normal;font-variant-position:normal;font-variant-caps:normal;font-variant-numeric:normal;font-variant-alternates:normal;font-feature-settings:normal;text-indent:0;text-align:start;text-decoration:none;text-decoration-line:none;text-decoration-style:solid;text-decoration-color:#000000;letter-spacing:normal;word-spacing:normal;text-transform:none;writing-mode:lr-tb;direction:ltr;text-orientation:mixed;dominant-baseline:auto;baseline-shift:baseline;text-anchor:start;white-space:normal;shape-padding:0;clip-rule:nonzero;display:inline;overflow:visible;visibility:visible;opacity:1;isolation:auto;mix-blend-mode:normal;color-interpolation:sRGB;color-interpolation-filters:linearRGB;solid-color:#000000;solid-opacity:1;vector-effect:none;fill:#000000;fill-opacity:1;fill-rule:nonzero;stroke:none;stroke-width:0.36790073;stroke-linecap:round;stroke-linejoin:round;stroke-miterlimit:4;stroke-dasharray:none;stroke-dashoffset:0;stroke-opacity:1;color-rendering:auto;image-rendering:auto;shape-rendering:auto;text-rendering:auto;enable-background:accumulate" />
    </g>
  </g>
</svg>
