<?xml version="1.0" encoding="UTF-8" standalone="no"?>
<svg
   id="Layer_1"
   data-name="Layer 1"
   viewBox="0 0 300 200"
   version="1.1"
   sodipodi:docname="utLogoPlain.svg"
   width="300"
   height="200"
   inkscape:version="1.2.1 (9c6d41e410, 2022-07-14)"
   xmlns:inkscape="http://www.inkscape.org/namespaces/inkscape"
   xmlns:sodipodi="http://sodipodi.sourceforge.net/DTD/sodipodi-0.dtd"
   xmlns="http://www.w3.org/2000/svg"
   xmlns:svg="http://www.w3.org/2000/svg"
   xmlns:rdf="http://www.w3.org/1999/02/22-rdf-syntax-ns#"
   xmlns:cc="http://creativecommons.org/ns#"
   xmlns:dc="http://purl.org/dc/elements/1.1/">
  <sodipodi:namedview
     id="namedview29"
     pagecolor="#505050"
     bordercolor="#eeeeee"
     borderopacity="1"
     inkscape:showpageshadow="0"
     inkscape:pageopacity="0"
     inkscape:pagecheckerboard="0"
     inkscape:deskcolor="#505050"
     showgrid="false"
     inkscape:zoom="4.4632982"
     inkscape:cx="152.68978"
     inkscape:cy="108.21594"
     inkscape:window-width="1920"
     inkscape:window-height="1009"
     inkscape:window-x="1912"
     inkscape:window-y="-8"
     inkscape:window-maximized="1"
     inkscape:current-layer="Layer_1" />
  <defs
     id="defs22">
    <style
       id="style20">.cls-1{fill:#bf5700;}</style>
  </defs>
  <title
     id="title24">Texas_</title>
  <path
     style="stroke-width:0.3;fill:#bf5700;stroke:#000000;stroke-opacity:1;stroke-dasharray:none;fill-opacity:1"
     d="m 270.67181,131.77313 0.0661,-0.47357 L 270,131.1674 v -3.94273 l 0.40749,-0.26432 a 2.7092511,2.7092511 0 0 1 1.39868,-0.60572 c 0.57268,0 0.89207,0.31938 0.89207,1.01321 v 3.85463 l -0.68282,0.13216 0.0771,0.47356 h 1.28855 1.55286 l 0.0661,-0.47356 -1.02423,-0.13216 v -3.75551 c 0,-1.60793 -0.27533,-2.20264 -2.0044,-2.20264 l -1.9934,1.31057 -0.0661,-1.10132 h -0.5837 l -1.60793,0.40749 0.0661,0.47357 0.94714,-0.0771 v 4.92291 l -0.94714,0.13216 0.0771,0.47357 h 1.54185 z"
     id="path6487" />
  <path
     style="stroke-width:0.3;fill:#bf5700;stroke:#000000;stroke-opacity:1;stroke-dasharray:none;fill-opacity:1"
     d="m 264.7467,123.11674 0.0771,0.7489 0.36343,0.0881 0.95815,-0.0881 0.14318,-0.63877 -0.0661,-0.75991 -0.37445,-0.0661 -0.96917,0.0661 z"
     id="path6485" />
  <path
     style="stroke-width:0.3;fill:#bf5700;stroke:#000000;stroke-opacity:1;stroke-dasharray:none;fill-opacity:1"
     d="m 267.09251,131.78414 0.0661,-0.47357 -1.01322,-0.13216 v -5.74889 l -0.6718,0.0551 -1.61894,0.40749 0.0771,0.47357 0.93612,-0.0771 v 4.9229 l -0.93612,0.13216 0.0661,0.47357 h 1.54185 z"
     id="path6483" />
  <path
     style="stroke-width:0.3;fill:#bf5700;stroke:#000000;stroke-opacity:1;stroke-dasharray:none;fill-opacity:1"
     d="m 259.85683,126.20044 v 4.00881 c 0,1.22247 0.19824,1.7511 1.70705,1.7511 l 1.57489,-0.88105 -0.23128,-0.45155 a 2.2577093,2.2577093 0 0 1 -1.10132,0.31939 c -0.57269,0 -0.71586,-0.40749 -0.71586,-0.80397 v -3.90969 h 2.02643 v -0.60573 h -2.02643 v -1.8392 h -0.35242 l -0.87005,0.88105 v 0.88106 h -0.837 l -0.47357,0.47357 v 0.23128 z"
     id="path6481" />
  <path
     style="stroke-width:0.3;fill:#bf5700;stroke:#000000;stroke-opacity:1;stroke-dasharray:none;fill-opacity:1"
     d="m 257.22467,127.18062 h 0.70485 v -1.31058 a 3.6894273,3.6894273 0 0 0 -1.87225,-0.55066 c -1.56388,0.34141 -2.43392,0.85903 -2.43392,1.80617 a 1.839207,1.839207 0 0 0 1.10132,1.56388 l 1.10132,0.55066 c 0.70485,0.36343 0.98018,0.59471 0.98018,1.10132 a 0.99118943,0.99118943 0 0 1 -1.10132,1.02423 1.9823789,1.9823789 0 0 1 -1.10133,-0.34141 l -0.46255,-1.10132 h -0.85903 l 0.2533,1.51982 a 4.6365639,4.6365639 0 0 0 2.04846,0.60573 c 1.54185,-0.3304 2.53304,-0.79295 2.53304,-2.00441 a 1.839207,1.839207 0 0 0 -1.28855,-1.78414 l -1.03524,-0.52863 c -0.60573,-0.30837 -0.93612,-0.57269 -0.93612,-1.01322 0,-0.44053 0.49559,-0.79295 1.01321,-0.79295 a 2.2026432,2.2026432 0 0 1 1.02423,0.28634 z"
     id="path6479" />
  <path
     style="stroke-width:0.3;fill:#bf5700;stroke:#000000;stroke-opacity:1;stroke-dasharray:none;fill-opacity:1"
     d="m 251.78414,125.39648 -0.67181,0.0551 -1.48678,0.35242 0.0661,0.51763 0.80396,-0.0661 v 3.78854 l -0.26431,0.17621 a 3.3039648,3.3039648 0 0 1 -1.46476,0.68282 c -0.66079,0 -0.95815,-0.30837 -0.95815,-1.01321 v -4.46035 l -0.68282,0.0551 -1.61894,0.35242 0.0771,0.51763 0.93612,-0.0661 v 3.51321 c 0,1.56388 0.29736,2.20265 2.07049,2.20265 l 1.98238,-1.17842 0.37445,1.10132 1.74008,-0.33039 -0.0551,-0.47357 h -0.67181 a 2.2026432,2.2026432 0 0 1 -0.1652,-1.01322 z"
     id="path6477" />
  <path
     id="path6475"
     style="stroke-width:0.3;fill:#bf5700;stroke:#000000;stroke-opacity:1;stroke-dasharray:none;fill-opacity:1"
     d="M 241.47656 122.19141 L 240.67188 122.42383 L 237.36719 131.15625 L 236.26562 131.31055 L 236.33203 131.7832 L 237.78711 131.7832 L 239.39453 131.7832 L 239.46094 131.31055 L 238.28125 131.13477 L 239.20703 128.62305 L 242.51172 128.62305 L 243.42578 131.13477 L 242.32422 131.31055 L 242.39062 131.7832 L 244.17383 131.7832 L 246.03516 131.7832 L 246.10156 131.31055 L 245 131.15625 L 241.47656 122.19141 z M 240.86914 123.70117 L 240.96875 124.42773 L 242.26953 127.98438 L 239.39453 127.98438 L 240.86914 123.70117 z " />
  <path
     style="stroke-width:0.3;fill:#bf5700;stroke:#000000;stroke-opacity:1;stroke-dasharray:none;fill-opacity:1"
     d="m 230.29736,126.28855 v 4.00881 c 0,1.22246 0.19823,1.7511 1.70705,1.7511 l 1.57489,-0.88107 -0.23128,-0.45153 a 2.2687225,2.2687225 0 0 1 -1.10132,0.31937 c -0.56168,0 -0.71586,-0.40748 -0.71586,-0.80395 v -3.9978 h 2.02643 v -0.60573 h -2.05947 v -1.8392 h -0.35243 l -0.88105,0.88105 v 0.88106 h -0.87005 l -0.47357,0.47357 v 0.23128 z"
     id="path6471" />
  <path
     id="path6469"
     style="stroke-width:0.3;fill:#bf5700;stroke:#000000;stroke-opacity:1;stroke-dasharray:none;fill-opacity:1"
     d="M 225.88086 125.26367 L 223.51367 126.39844 L 223.51367 127.42383 L 224.67969 127.42383 L 224.91211 126.32227 A 3.1938326 3.1938326 0 0 1 226.01367 126.08008 C 226.74054 126.08008 226.80664 126.56323 226.80664 127.36719 L 226.80664 128.05078 L 223.77734 129.05273 A 1.9933921 1.9933921 0 0 0 223.30469 130.29688 A 1.7511013 1.7511013 0 0 0 225.28711 132.02734 L 226.82812 130.82617 L 227.23633 131.86133 L 228.97656 131.53125 L 228.91992 131.05664 L 228.24805 131.05664 A 1.6409692 1.6409692 0 0 1 228.01758 130.04492 L 228.01758 127.41211 C 228.01758 125.70507 227.57689 125.26367 225.88086 125.26367 z M 226.80664 128.62305 L 226.81641 130.375 L 226.25586 130.77148 A 1.6079295 1.6079295 0 0 1 225.375 131.12305 C 224.97852 131.12305 224.5918 130.88134 224.5918 130.1875 A 1.0132159 1.0132159 0 0 1 224.85742 129.4375 L 226.80664 128.62305 z " />
  <path
     style="stroke-width:0.3;fill:#bf5700;stroke:#000000;stroke-opacity:1;stroke-dasharray:none;fill-opacity:1"
     d="m 218.27093,127.26872 h 0.71585 v -1.39868 a 3.6453744,3.6453744 0 0 0 -1.89427,-0.60572 c -1.56388,0.34141 -2.43392,0.85903 -2.43392,1.80616 a 1.8171806,1.8171806 0 0 0 1.10132,1.56388 l 1.10132,0.55066 c 0.69384,0.36344 0.98018,0.59472 0.98018,1.10132 a 0.99118943,0.99118943 0 0 1 -1.10132,1.02423 1.9603524,1.9603524 0 0 1 -1.10132,-0.34141 l -0.46256,-1.10132 h -0.85903 l 0.2533,1.51983 a 4.6585903,4.6585903 0 0 0 2.05948,0.60572 c 1.54185,-0.33039 2.53304,-0.79295 2.53304,-2.0044 0,-0.77093 -0.36344,-1.28855 -1.26652,-1.74009 l -1.03525,-0.52864 c -0.60572,-0.30837 -0.94713,-0.57268 -0.94713,-1.01321 0,-0.44053 0.49559,-0.79295 1.02423,-0.79295 a 2.2026432,2.2026432 0 0 1 1.02423,0.28634 z"
     id="path6465" />
  <path
     id="path6463"
     style="stroke-width:0.3;fill:#bf5700;stroke:#000000;stroke-opacity:1;stroke-dasharray:none;fill-opacity:1"
     d="M 210.63867 125.26367 L 208.24805 126.39844 L 208.24805 127.42383 L 209.41602 127.42383 L 209.64844 126.32227 A 3.1938326 3.1938326 0 0 1 210.74805 126.08008 C 211.47492 126.08008 211.54102 126.56323 211.54102 127.36719 L 211.54102 128.05078 L 208.51367 129.05273 A 1.9933921 1.9933921 0 0 0 208.03906 130.29688 A 1.7511013 1.7511013 0 0 0 210.02148 132.02734 L 211.58594 130.82617 L 211.99414 131.86133 L 213.73438 131.53125 L 213.67773 131.05664 L 213.00586 131.05664 A 1.6409692 1.6409692 0 0 1 212.77539 130.04492 L 212.77539 127.41211 C 212.77539 125.70507 212.3347 125.26367 210.63867 125.26367 z M 211.55273 128.62305 L 211.55273 130.375 L 210.99023 130.77148 A 1.6079295 1.6079295 0 0 1 210.10938 131.12305 C 209.71291 131.12305 209.32813 130.88134 209.32812 130.1875 A 1.0242291 1.0242291 0 0 1 209.60352 129.4375 L 211.55273 128.62305 z " />
  <path
     style="stroke-width:0.3;fill:#bf5700;stroke:#000000;stroke-opacity:1;stroke-dasharray:none;fill-opacity:1"
     d="m 202.42291,131.26652 1.4207,-2.05947 0.11013,0.31938 1.11234,1.68501 -0.55066,0.13216 0.0661,0.47358 h 1.27753 1.54185 l 0.0661,-0.47358 -0.837,-0.13216 -2.11454,-2.98457 1.77313,-2.20264 0.96916,-0.13216 -0.0661,-0.48458 h -1.38767 -1.10132 l -0.0661,0.48458 0.64978,0.13216 -1.27753,1.85022 -0.11013,-0.36344 -0.99119,-1.48678 0.51762,-0.13216 -0.0661,-0.48458 h -1.28855 -1.54185 l -0.0661,0.48458 0.837,0.13216 1.94934,2.67621 -1.99339,2.45595 -0.93613,0.13216 0.0661,0.47356 h 1.38767 1.10132 l 0.0661,-0.47356 z"
     id="path6459" />
  <path
     id="path6457"
     style="stroke-width:0.3;fill:#bf5700;stroke:#000000;stroke-opacity:1;stroke-dasharray:none;fill-opacity:1"
     d="M 197.58789 125.30859 A 3.3700441 3.3700441 0 0 0 194.54883 128.77734 A 3.0506608 3.0506608 0 0 0 197.6543 132.08203 A 8.2709251 8.2709251 0 0 0 200.01172 130.98047 L 199.79102 130.46289 A 3.4471366 3.4471366 0 0 1 198.10547 131.02344 C 196.69578 131.02344 195.90234 129.92217 195.90234 128.40234 L 199.97852 128.41406 L 199.97852 127.85156 C 199.97852 126.43086 199.37203 125.30859 197.58789 125.30859 z M 197.3457 125.99023 C 198.38095 125.99023 198.58008 126.70695 198.58008 127.74219 L 195.88086 127.875 C 195.99099 126.77368 196.51971 125.99023 197.3457 125.99023 z " />
  <path
     style="stroke-width:0.3;fill:#bf5700;stroke:#000000;stroke-opacity:1;stroke-dasharray:none;fill-opacity:1"
     d="m 193.54626,131.39867 -1.55287,-0.17621 v -8.21585 h 2.02643 l 0.61674,1.70704 h 0.51763 v -2.35683 h -3.87666 -3.86564 v 2.38987 h 0.52864 l 0.61674,-1.70704 h 2.02643 v 8.16078 l -1.61894,0.17621 0.0661,0.47358 h 2.25771 2.20264 z"
     id="path6453" />
  <path
     style="stroke-width:0.3;fill:#bf5700;stroke:#000000;stroke-opacity:1;stroke-dasharray:none;fill-opacity:1"
     d="m 181.43172,125.25329 a 2.5881057,2.5881057 0 0 1 0.28634,-1.53083 l 0.25331,-0.36344 h 1.7511 v -1.10132 h -1.69604 l -1.10132,1.28854 a 2.5991189,2.5991189 0 0 0 -0.73789,1.88326 v 0.13216 h -0.78193 l -0.39648,0.47357 v 0.23128 h 1.17841 v 4.97797 l -0.94713,0.13216 0.0661,0.47357 h 1.54185 2.09251 l 0.0771,-0.51762 -1.55286,-0.0881 v -5.01101 h 1.69603 v -0.62775 h -1.69603 z"
     id="path6451" />
  <path
     id="path6449"
     style="stroke-width:0.3;fill:#bf5700;stroke:#000000;stroke-opacity:1;stroke-dasharray:none;fill-opacity:1"
     d="M 175.4082 125.32031 C 173.3157 125.67274 172.10352 126.81732 172.10352 128.84375 A 3.0066079 3.0066079 0 0 0 175.09961 132.05859 C 177.19212 131.72819 178.40234 130.56104 178.40234 128.55664 A 3.0176211 3.0176211 0 0 0 175.4082 125.32031 z M 175.06641 125.98047 C 176.15672 125.98047 177.04883 127.08093 177.04883 128.83203 C 177.04883 130.28577 176.49727 131.39844 175.41797 131.39844 C 174.34506 131.39844 173.44613 130.05981 173.43555 128.5293 C 173.44234 127.07829 173.983 125.98047 175.06641 125.98047 z " />
  <path
     style="stroke-width:0.3;fill:#bf5700;stroke:#000000;stroke-opacity:1;stroke-dasharray:none;fill-opacity:1"
     d="m 164.96696,134.9229 1.55286,-3.34802 2.20265,-5.50661 0.87004,-0.13216 -0.0661,-0.47357 h -1.10132 -1.18943 l -0.0661,0.47357 0.61674,0.13216 -1.66299,4.87886 -0.11013,-0.93612 -1.4978,-3.94273 0.88106,-0.13217 -0.0661,-0.45153 h -4.31718 v -1.69604 h -0.35243 l -0.88105,0.88105 v 0.88106 h -0.88106 l -0.47357,0.47357 v 0.23128 h 1.29956 v 4.00881 c 0,1.22246 0.19824,1.7511 1.70705,1.7511 l 1.69603,-0.92511 -0.23127,-0.46255 a 2.7973568,2.7973568 0 0 1 -1.17842,0.37444 c -0.57269,0 -0.71586,-0.40748 -0.71586,-0.80395 v -4.11894 h 2.02643 l 2.20265,5.67179 0.53965,-0.15417 -1.3326,2.02643 h -1.15639 v 1.34361 z"
     id="path6445" />
  <path
     style="stroke-width:0.3;fill:#bf5700;stroke:#000000;stroke-opacity:1;stroke-dasharray:none;fill-opacity:1"
     d="m 155.88106,123.11673 0.0771,0.7489 0.36344,0.0881 0.95815,-0.0881 0.15418,-0.63877 -0.0661,-0.75991 -0.37445,-0.0661 -0.96916,0.0661 z"
     id="path6443" />
  <path
     style="stroke-width:0.3;fill:#bf5700;stroke:#000000;stroke-opacity:1;stroke-dasharray:none;fill-opacity:1"
     d="m 158.25991,131.82818 0.0771,-0.47357 -1.01321,-0.13215 v -5.79296 l -0.67181,0.0551 -1.61894,0.40749 0.0661,0.47357 0.94714,-0.0771 v 4.9229 l -0.94714,0.13216 0.0771,0.47357 h 1.54185 z"
     id="path6441" />
  <path
     style="stroke-width:0.3;fill:#bf5700;stroke:#000000;stroke-opacity:1;stroke-dasharray:none;fill-opacity:1"
     d="m 153.30396,127.22466 h 0.71586 v -1.35463 a 3.6563877,3.6563877 0 0 0 -1.89427,-0.60572 c -1.56388,0.34141 -2.43392,0.85903 -2.43392,1.80616 a 1.8171806,1.8171806 0 0 0 1.10132,1.56388 l 1.10132,0.55067 c 0.69384,0.36344 0.98018,0.5947 0.98018,1.10132 a 0.99118943,0.99118943 0 0 1 -1.10132,1.02422 1.9603524,1.9603524 0 0 1 -1.10132,-0.34141 l -0.46256,-1.10131 h -0.85903 l 0.2533,1.51981 a 4.6365639,4.6365639 0 0 0 2.04846,0.60573 c 1.55287,-0.3304 2.53304,-0.79295 2.53304,-2.00439 a 1.839207,1.839207 0 0 0 -1.26652,-1.74009 l -1.03524,-0.52864 c -0.60573,-0.30837 -0.94714,-0.57268 -0.94714,-1.01321 0,-0.44053 0.4956,-0.79295 1.02423,-0.79295 a 2.2026432,2.2026432 0 0 1 1.02423,0.28634 z"
     id="path6439" />
  <path
     style="stroke-width:0.3;fill:#bf5700;stroke:#000000;stroke-opacity:1;stroke-dasharray:none;fill-opacity:1"
     d="m 146.06828,125.45153 h -0.53965 l -1.60793,0.40749 0.0661,0.47357 0.94714,-0.0771 v 4.92289 l -0.94714,0.13216 0.0771,0.47358 h 1.50881 1.94934 l 0.0771,-0.51762 -1.42071,-0.13217 v -3.17178 l 0.27533,-0.31939 a 3.0396476,3.0396476 0 0 1 1.27754,-0.95815 h 0.99119 v -1.36564 h -1.10132 l -1.53084,1.88326 z"
     id="path6437" />
  <path
     id="path6435"
     style="stroke-width:0.3;fill:#bf5700;stroke:#000000;stroke-opacity:1;stroke-dasharray:none;fill-opacity:1"
     d="M 140.67188 125.2207 A 3.3700441 3.3700441 0 0 0 137.63281 128.68945 A 3.0506608 3.0506608 0 0 0 140.73828 131.99414 A 8.1497797 8.1497797 0 0 0 143.08398 130.89258 L 142.875 130.375 A 3.4801762 3.4801762 0 0 1 141.18945 130.93555 C 139.76874 130.93555 138.98633 129.83427 138.98633 128.31445 L 143.0625 128.32617 L 143.0625 127.76367 C 143.0625 126.34296 142.45601 125.2207 140.67188 125.2207 z M 140.44141 125.94727 C 141.48766 125.94727 141.68555 126.66202 141.68555 127.69727 L 138.98633 127.83008 C 139.09647 126.72875 139.62643 125.94727 140.44141 125.94727 z " />
  <path
     style="stroke-width:0.3;fill:#bf5700;stroke:#000000;stroke-opacity:1;stroke-dasharray:none;fill-opacity:1"
     d="m 134.07489,129.96695 -1.46476,-3.94273 0.89207,-0.13216 -0.0661,-0.47357 h -1.40969 -1.54185 l -0.0661,0.47357 0.83701,0.13216 2.34581,5.93612 0.98018,-0.40749 2.20264,-5.50661 0.85903,-0.13215 -0.0661,-0.47357 h -1.10132 -1.18943 l -0.0661,0.47357 0.61674,0.13215 -1.62995,4.87886 z"
     id="path6431" />
  <path
     style="stroke-width:0.3;fill:#bf5700;stroke:#000000;stroke-opacity:1;stroke-dasharray:none;fill-opacity:1"
     d="m 127.97357,123.11673 0.0771,0.7489 0.36344,0.0881 0.95815,-0.0881 0.14317,-0.63877 -0.0661,-0.75991 -0.37445,-0.0661 -0.96916,0.0661 z"
     id="path6429" />
  <path
     style="stroke-width:0.3;fill:#bf5700;stroke:#000000;stroke-opacity:1;stroke-dasharray:none;fill-opacity:1"
     d="m 130.37445,131.82818 0.0661,-0.47357 -1.0022,-0.13215 v -5.79296 l -0.67181,0.0551 -1.61894,0.40749 0.0771,0.47357 0.93612,-0.0771 v 4.9229 l -0.93612,0.13216 0.0661,0.47357 h 1.55286 z"
     id="path6427" />
  <path
     style="stroke-width:0.3;fill:#bf5700;stroke:#000000;stroke-opacity:1;stroke-dasharray:none;fill-opacity:1"
     d="m 122.37885,131.82818 0.0771,-0.47357 -0.73789,-0.13215 v -3.9978 l 0.39648,-0.26432 a 2.7753304,2.7753304 0 0 1 1.40969,-0.60573 c 0.57269,0 0.89207,0.31939 0.89207,1.01322 v 3.85463 l -0.68282,0.13215 0.0771,0.47357 h 1.28855 1.54185 l 0.0661,-0.47357 -1.02423,-0.13215 v -3.75551 c 0,-1.60793 -0.27533,-2.20264 -2.00441,-2.20264 l -1.99339,1.31057 -0.0661,-1.10132 h -0.5837 l -1.60793,0.40749 0.0661,0.47356 0.93613,-0.0771 v 4.92291 l -0.93613,0.13216 0.0661,0.47357 h 1.55286 z"
     id="path6425" />
  <path
     style="stroke-width:0.3;fill:#bf5700;stroke:#000000;stroke-opacity:1;stroke-dasharray:none;fill-opacity:1"
     d="m 117.05947,123.01761 v 5.60573 c 0,1.72907 -0.78194,2.6652 -2.20264,2.6652 -1.42071,0 -2.20264,-0.95815 -2.20264,-2.63216 v -5.64978 l 1.10132,-0.17621 -0.0661,-0.47357 h -1.85022 -1.85022 l -0.0771,0.47357 1.21146,0.17621 v 5.5066 c 0,2.13657 0.94713,3.56829 3.60132,3.56829 2.67621,-0.61674 3.39207,-1.79516 3.39207,-3.54626 v -5.50661 l 1.10132,-0.17621 -0.0661,-0.47357 h -1.57489 -1.72907 l -0.0661,0.47357 z"
     id="path6423" />
  <path
     id="path6421"
     style="stroke-width:0.3;fill:#bf5700;stroke:#000000;stroke-opacity:1;stroke-dasharray:none;fill-opacity:1"
     d="M 104.2832 125.26367 A 3.3700441 3.3700441 0 0 0 101.23438 128.73438 A 3.0506608 3.0506608 0 0 0 104.33984 132.03711 A 8.2929515 8.2929515 0 0 0 106.69531 130.93555 L 106.47656 130.41797 A 3.4471366 3.4471366 0 0 1 104.79102 130.98047 C 103.38133 130.98047 102.58789 129.87919 102.58789 128.35938 L 106.67383 128.36914 L 106.67383 127.80859 C 106.67383 126.38789 106.06734 125.26367 104.2832 125.26367 z M 104.04102 125.94727 C 105.07625 125.94727 105.27539 126.66202 105.27539 127.69727 L 102.57617 127.83008 C 102.6863 126.72875 103.20402 125.94727 104.04102 125.94727 z " />
  <path
     style="stroke-width:0.3;fill:#bf5700;stroke:#000000;stroke-opacity:1;stroke-dasharray:none;fill-opacity:1"
     d="m 100.61674,131.81717 0.0661,-0.47357 -1.01322,-0.13216 v -3.57929 c 0,-1.70705 -0.27533,-2.35683 -2.0044,-2.35683 l -1.97137,1.28855 v -4.40529 h -0.45154 l -1.40969,0.18722 h -3.30396 -3.876658 v 2.38987 h 0.528635 l 0.61674,-1.68502 H 89.8128 v 8.16079 l -1.607934,0.17621 0.06608,0.47357 h 2.268724 2.20264 l 0.0661,-0.47357 -1.55286,-0.17621 v -8.20484 h 2.73128 l 0.48458,-0.0881 v 8.2489 l -0.80397,0.13216 0.0661,0.47357 h 1.42071 1.27753 l 0.0771,-0.47357 -0.73788,-0.13216 v -3.96476 l 0.40748,-0.2533 a 3.2048458,3.2048458 0 0 1 1.42071,-0.60573 c 0.53965,0 0.85903,0.31938 0.85903,1.01322 v 3.85462 l -0.66079,0.13216 0.0771,0.47357 h 1.25551 z"
     id="path6417" />
  <path
     style="stroke-width:0.3;fill:#bf5700;stroke:#000000;stroke-opacity:1;stroke-dasharray:none;fill-opacity:1"
     d="m 265.3304,87.874449 -7.26873,-3.160793 c -3.48017,-1.519823 -5.94713,-3.6674 -5.94713,-7.15859 0,-4.240088 2.97357,-6.960352 7.96255,-6.960352 a 9.3942731,9.3942731 0 0 1 7.46696,3.105727 l 1.83921,5.759911 h 3.16079 v -8.579295 a 20.286344,20.286344 0 0 0 -11.57489,-3.667401 c -8.81057,1.839207 -15.12114,5.892071 -15.12114,12.775331 0,5.627753 3.73348,8.546255 8.29295,10.506608 l 7.65418,3.303964 c 3.79956,1.64097 6.60793,4.107921 6.60793,8.414091 0,4.61453 -3.16079,8.03964 -8.60132,8.03964 a 11.872247,11.872247 0 0 1 -8.9207,-3.98678 l -2.20265,-5.37445 h -4.40528 l 1.39868,8.54625 a 19.735683,19.735683 0 0 0 13.10572,4.29516 c 11.88326,-2.45595 15.93613,-8.21586 15.93613,-14.16299 -0.022,-6.4207 -4.39428,-9.581493 -9.38326,-11.696031 z"
     id="path6415" />
  <path
     id="path6413"
     style="stroke-width:0.3;fill:#bf5700;stroke:#000000;stroke-opacity:1;stroke-dasharray:none;fill-opacity:1"
     d="M 222.43359 67.697266 L 218.63477 68.798828 L 202.94141 109.80078 L 199.89062 110.20898 L 196.86133 109.73633 L 182.82031 89.041016 L 195.73828 71.234375 L 200.67188 70.539062 L 200.36328 68.337891 L 192.96289 68.535156 L 185.55078 68.337891 L 185.24219 70.539062 L 190.74805 71.355469 L 180.70508 86.080078 L 171.76172 71.255859 L 177.13672 70.429688 L 176.82812 68.226562 L 167.8418 68.480469 L 158.79883 68.226562 L 158.48047 70.429688 L 163.41406 71.123047 L 176.50977 90.947266 L 162.8418 109.73633 L 157.9082 110.42969 L 158.22656 112.70898 L 165.30859 112.52148 L 172.7207 112.70898 L 173.03906 110.42969 L 167.85156 109.66992 L 178.63477 93.886719 L 188.46875 109.61523 L 183.09375 110.42969 L 183.41406 112.70898 L 192.4668 112.52148 L 199.85742 112.67578 L 205.06641 112.52148 L 212.6875 112.64258 L 213.00586 110.44141 L 207.5 109.61523 L 211.60742 97.787109 L 227.23633 97.787109 L 231.51953 109.67969 L 226.13477 110.50586 L 226.45312 112.70898 L 234.80273 112.52148 L 243.55664 112.6875 L 243.86523 110.48438 L 238.93164 109.79102 L 222.43359 67.697266 z M 219.18555 75.892578 L 226.10156 94.857422 L 212.57617 94.857422 L 219.18555 75.892578 z " />
  <path
     style="stroke-width:0.3;fill:#bf5700;stroke:#000000;stroke-opacity:1;stroke-dasharray:none;fill-opacity:1"
     d="m 148.95374,109.53743 -17.40088,0.19824 V 90.748899 l 8.81058,0.253304 2.53304,6.607927 h 2.20264 l -0.60573,-8.5022 0.63877,-7.918503 h -2.20264 l -2.53304,6.60793 -8.81058,0.253304 V 71.26652 l 16.77313,0.187224 3.54626,8.226873 h 2.20264 l -0.63877,-11.387665 -25.11013,0.198237 -8.72247,-0.198237 -0.31938,2.202643 5.69383,0.814978 V 109.6696 l -5.69383,0.82599 0.31938,2.20265 8.72247,-0.18723 25.11013,0.18723 2.20265,-11.70705 h -2.40088 z"
     id="path6409" />
  <path
     style="stroke-width:0.3;fill:#bf5700;stroke:#000000;stroke-opacity:1;stroke-dasharray:none;fill-opacity:1"
     d="m 79.361233,68.281938 v 11.200441 h 2.466961 l 2.918502,-8.028635 9.482384,-0.09912 v 38.314966 l -7.599124,0.82599 0.319383,2.20265 10.627751,-0.18723 10.25331,0.18723 0.31938,-2.20265 -7.27974,-0.82599 V 71.354626 l 9.4934,0.132158 2.90749,8.028635 h 2.46696 V 68.281938 l -18.22688,0.198238 z"
     id="path6407" />
  <path
     id="path6405"
     style="stroke-width:0.3;fill:#bf5700;stroke:#000000;stroke-opacity:1;stroke-dasharray:none;fill-opacity:1"
     d="M 46.365234 65 A 200.01101 200.01101 0 0 0 25.859375 66.443359 L 25 66.552734 L 25 82.367188 L 25 84.570312 C 25 91.310394 25.661142 99.988452 30.859375 107.52148 A 28.711454 28.711454 0 0 0 34.582031 111.92773 A 56.090308 56.090308 0 0 0 46.410156 120.04492 A 56.167401 56.167401 0 0 0 58.205078 111.86133 A 28.711454 28.711454 0 0 0 61.927734 107.45508 C 67.081914 99.889006 67.753906 91.255328 67.753906 84.570312 L 67.753906 84.316406 L 67.753906 66.552734 L 67.730469 66.552734 L 66.873047 66.443359 A 200.07709 200.07709 0 0 0 46.365234 65 z M 46.376953 66.949219 C 53.083994 66.949219 61.145481 67.796721 64.757812 68.160156 L 65.771484 82.367188 L 26.994141 82.367188 L 27.996094 68.205078 L 27.996094 68.160156 C 31.608425 67.752668 39.669912 66.949219 46.376953 66.949219 z M 46.431641 83.523438 L 65.837891 84.625 C 65.837891 91.001646 65.164875 99.229773 60.330078 106.32227 L 60.384766 106.32227 A 26.354626 26.354626 0 0 1 56.849609 110.47266 A 38.072687 38.072687 0 0 1 46.453125 117.08203 A 38.0837 38.0837 0 0 1 36.056641 110.47266 A 25.95815 25.95815 0 0 1 32.533203 106.32227 C 27.665366 99.229773 27.027344 91.012659 27.027344 84.625 L 46.431641 83.523438 z " />
  <path
     id="path6399"
     style="stroke-width:0.3;fill:#bf5700;stroke:#000000;stroke-opacity:1;stroke-dasharray:none;fill-opacity:1"
     d="M 33.798828 85.925781 L 33.380859 86.244141 A 4.6585903 4.6585903 0 0 0 31.53125 89.152344 A 4.7246696 4.7246696 0 0 0 31.53125 90.902344 A 4.7797357 4.7797357 0 0 0 29.955078 90.076172 L 29.427734 89.988281 L 29.316406 90.496094 A 4.69163 4.69163 0 0 0 32.533203 96.001953 L 32.984375 96.134766 A 4.4052863 4.4052863 0 0 0 33.259766 97.236328 A 4.5374449 4.5374449 0 0 0 31.046875 96.464844 L 30.517578 96.464844 L 30.517578 96.994141 A 4.6806167 4.6806167 0 0 0 34.8125 101.72852 L 35.275391 101.72852 A 4.5814978 4.5814978 0 0 0 35.771484 102.73047 A 4.7136564 4.7136564 0 0 0 33.568359 102.47852 L 33.039062 102.54492 L 33.138672 103.0625 A 4.7026432 4.7026432 0 0 0 34.988281 105.96875 A 4.6475771 4.6475771 0 0 0 37.730469 106.86133 A 4.5374449 4.5374449 0 0 0 38.326172 106.86133 L 38.789062 106.79492 A 4.4052863 4.4052863 0 0 0 39.482422 107.6875 A 4.7907489 4.7907489 0 0 0 37.279297 107.88477 L 36.783203 108.0625 L 36.994141 108.54688 A 4.69163 4.69163 0 0 0 39.40625 111.00195 A 4.592511 4.592511 0 0 0 41.265625 111.39844 A 4.9008811 4.9008811 0 0 0 42.808594 111.13477 L 43.171875 111.00195 A 28.105727 28.105727 0 0 0 45.462891 112.78711 L 44.019531 113.72266 L 44.945312 114.30664 L 46.386719 113.28125 L 47.796875 114.20703 L 48.722656 113.62305 L 47.279297 112.6875 A 28.105727 28.105727 0 0 0 49.482422 111.00195 L 49.845703 111.14453 A 4.9118943 4.9118943 0 0 0 51.386719 111.41016 A 4.6255507 4.6255507 0 0 0 53.28125 111.00195 A 4.746696 4.746696 0 0 0 55.605469 108.56836 L 55.804688 108.08398 L 55.308594 107.9082 A 4.7687225 4.7687225 0 0 0 53.105469 107.70898 A 4.7797357 4.7797357 0 0 0 53.810547 106.81641 L 54.273438 106.88281 A 4.4603524 4.4603524 0 0 0 54.857422 106.88281 A 4.69163 4.69163 0 0 0 59.449219 103.08398 L 59.548828 102.56641 L 59.03125 102.5 A 4.9118943 4.9118943 0 0 0 58.435547 102.5 A 4.7356828 4.7356828 0 0 0 56.806641 102.78711 A 4.6696035 4.6696035 0 0 0 57.302734 101.7832 L 57.763672 101.7832 A 4.6806167 4.6806167 0 0 0 62.058594 97.048828 L 62.058594 96.519531 L 61.53125 96.519531 A 4.5374449 4.5374449 0 0 0 59.416016 97.236328 A 4.5154185 4.5154185 0 0 0 59.691406 96.134766 L 60.197266 95.925781 L 60.166016 95.947266 A 4.6696035 4.6696035 0 0 0 63.380859 90.441406 L 63.271484 89.933594 L 62.775391 90.076172 A 4.8348018 4.8348018 0 0 0 61.144531 90.935547 A 4.4052863 4.4052863 0 0 0 61.144531 89.195312 A 4.6696035 4.6696035 0 0 0 59.306641 86.289062 L 58.876953 85.96875 L 58.589844 86.419922 A 4.69163 4.69163 0 0 0 60.121094 92.730469 A 4.4052863 4.4052863 0 0 0 59.769531 93.986328 A 4.7136564 4.7136564 0 0 0 58.347656 91.970703 L 57.941406 91.640625 L 57.642578 92.070312 A 4.6696035 4.6696035 0 0 0 56.806641 95.375 A 4.7246696 4.7246696 0 0 0 58.46875 98.392578 A 4.6035242 4.6035242 0 0 0 57.830078 99.591797 A 4.6806167 4.6806167 0 0 0 56.861328 97.324219 L 56.53125 96.916016 L 56.134766 97.269531 A 4.6806167 4.6806167 0 0 0 55.626953 103.64453 A 4.7136564 4.7136564 0 0 0 54.757812 104.69141 A 4.6475771 4.6475771 0 0 0 54.273438 102.26953 L 54.041016 101.79492 L 53.589844 102.07031 A 4.6806167 4.6806167 0 0 0 51.783203 108.22656 A 4.5374449 4.5374449 0 0 0 50.683594 109.06445 A 4.7356828 4.7356828 0 0 0 50.683594 106.59766 L 50.550781 106.08984 L 50.044922 106.26562 A 4.69163 4.69163 0 0 0 46.982422 111.77344 L 46.509766 112.10352 L 46.035156 111.77344 A 4.6696035 4.6696035 0 0 0 42.972656 106.26562 L 42.466797 106.08984 L 42.333984 106.59766 A 4.7246696 4.7246696 0 0 0 42.333984 109.06445 A 4.2621145 4.2621145 0 0 0 41.234375 108.22656 A 4.7026432 4.7026432 0 0 0 39.427734 102.07031 L 38.964844 101.79492 L 38.734375 102.26953 A 4.69163 4.69163 0 0 0 38.248047 104.69141 A 4.7356828 4.7356828 0 0 0 37.378906 103.64453 A 4.6696035 4.6696035 0 0 0 36.873047 97.269531 L 36.486328 96.916016 L 36.167969 97.324219 A 4.6696035 4.6696035 0 0 0 35.197266 99.591797 A 4.6475771 4.6475771 0 0 0 34.558594 98.392578 A 4.7026432 4.7026432 0 0 0 35.384766 92.037109 L 35.087891 91.607422 L 34.679688 91.9375 A 4.6365639 4.6365639 0 0 0 33.259766 93.953125 A 4.8898678 4.8898678 0 0 0 32.896484 92.654297 A 4.6806167 4.6806167 0 0 0 34.085938 86.376953 L 33.798828 85.925781 z M 33.501953 87.357422 A 3.8105727 3.8105727 0 0 1 33.734375 89.558594 A 3.7444934 3.7444934 0 0 1 32.708984 91.498047 A 3.6674009 3.6674009 0 0 1 32.478516 89.294922 L 32.478516 89.273438 A 3.7114537 3.7114537 0 0 1 33.501953 87.357422 z M 59.207031 87.445312 A 3.722467 3.722467 0 0 1 59.988281 91.541016 A 3.7885463 3.7885463 0 0 1 58.976562 89.615234 L 58.976562 89.648438 A 3.6894273 3.6894273 0 0 1 59.207031 87.445312 z M 30.175781 91.210938 A 3.7004405 3.7004405 0 0 1 31.783203 92.6875 A 3.7555066 3.7555066 0 0 1 32.279297 94.802734 L 32.269531 94.802734 A 3.6784141 3.6784141 0 0 1 30.175781 91.210938 z M 62.533203 91.255859 A 3.7555066 3.7555066 0 0 1 62.037109 93.380859 A 3.7114537 3.7114537 0 0 1 60.441406 94.845703 A 3.6894273 3.6894273 0 0 1 62.533203 91.255859 z M 34.857422 93.017578 A 3.6013216 3.6013216 0 0 1 35.220703 95.166016 A 3.6674009 3.6674009 0 0 1 34.316406 97.148438 A 3.6784141 3.6784141 0 0 1 33.953125 95 A 3.6784141 3.6784141 0 0 1 34.857422 93.017578 z M 57.851562 93.105469 A 3.7004405 3.7004405 0 0 1 58.755859 95.087891 A 3.5792952 3.5792952 0 0 1 58.392578 97.224609 A 3.6784141 3.6784141 0 0 1 57.488281 95.242188 L 57.488281 95.308594 A 3.7444934 3.7444934 0 0 1 57.851562 93.105469 z M 31.619141 97.544922 A 3.7114537 3.7114537 0 0 1 33.490234 98.644531 A 3.6343612 3.6343612 0 0 1 34.40625 100.61719 A 3.7444934 3.7444934 0 0 1 32.533203 99.515625 L 32.533203 99.527344 A 3.7665198 3.7665198 0 0 1 31.619141 97.544922 z M 61.089844 97.621094 A 3.6894273 3.6894273 0 0 1 60.175781 99.603516 L 60.166016 99.591797 A 3.7444934 3.7444934 0 0 1 58.292969 100.69336 A 3.6563877 3.6563877 0 0 1 59.21875 98.722656 A 3.7114537 3.7114537 0 0 1 61.089844 97.621094 z M 36.564453 98.414062 A 3.6894273 3.6894273 0 0 1 36.894531 102.56641 A 3.7114537 3.7114537 0 0 1 36.089844 100.53906 A 3.7555066 3.7555066 0 0 1 36.564453 98.414062 z M 56.089844 98.414062 A 3.722467 3.722467 0 0 1 56.564453 100.53906 A 3.6784141 3.6784141 0 0 1 55.771484 102.56641 A 3.722467 3.722467 0 0 1 55.287109 100.45117 A 3.7885463 3.7885463 0 0 1 56.089844 98.414062 z M 39.316406 103.29297 A 3.7004405 3.7004405 0 0 1 40.484375 107.3125 A 3.6784141 3.6784141 0 0 1 39.283203 105.49609 L 39.316406 105.49609 A 3.7334802 3.7334802 0 0 1 39.316406 103.29297 z M 53.402344 103.29297 A 3.6784141 3.6784141 0 0 1 53.402344 105.49609 A 3.6894273 3.6894273 0 0 1 52.224609 107.29102 A 3.6894273 3.6894273 0 0 1 53.402344 103.29297 z M 34.294922 103.49023 A 3.6784141 3.6784141 0 0 1 36.355469 104.18555 A 3.6343612 3.6343612 0 0 1 37.666016 105.93555 A 3.6784141 3.6784141 0 0 1 35.605469 105.29688 L 35.605469 105.23047 A 3.6784141 3.6784141 0 0 1 34.294922 103.49023 z M 58.392578 103.49023 A 3.6453744 3.6453744 0 0 1 57.082031 105.23047 L 57.091797 105.23047 A 3.6784141 3.6784141 0 0 1 55.033203 105.93555 A 3.6453744 3.6453744 0 0 1 56.332031 104.18555 A 3.7114537 3.7114537 0 0 1 58.392578 103.49023 z M 43.005859 107.5 L 43.017578 107.5 A 3.7114537 3.7114537 0 0 0 43.017578 107.50586 A 3.7004405 3.7004405 0 0 1 44.570312 109.03125 A 3.6563877 3.6563877 0 0 1 44.988281 111.16797 A 3.7114537 3.7114537 0 0 1 43.017578 107.50586 A 3.7004405 3.7004405 0 0 0 43.005859 107.5 z M 49.648438 107.5 A 3.7114537 3.7114537 0 0 1 47.666016 111.16797 A 3.7114537 3.7114537 0 0 1 48.09375 109.03125 A 3.6563877 3.6563877 0 0 1 49.648438 107.5 z M 38.869141 108.64453 A 3.7114537 3.7114537 0 0 1 41.994141 110.39648 A 3.6013216 3.6013216 0 0 1 39.791016 110.13281 L 39.833984 110.13281 A 3.6343612 3.6343612 0 0 1 38.193359 108.70117 A 3.7114537 3.7114537 0 0 1 38.869141 108.64453 z M 53.828125 108.67773 A 3.7114537 3.7114537 0 0 1 54.503906 108.73438 L 54.515625 108.73438 A 3.6453744 3.6453744 0 0 1 52.875 110.16602 A 3.5462555 3.5462555 0 0 1 51.376953 110.49609 A 3.4911894 3.4911894 0 0 1 50.705078 110.42969 A 3.7114537 3.7114537 0 0 1 53.828125 108.67773 z " />
  <path
     id="path6361"
     style="stroke-width:0.3;fill:#bf5700;stroke:#000000;stroke-opacity:1;stroke-dasharray:none;fill-opacity:1"
     d="M 46.355469 84.746094 L 44.240234 91.277344 L 37.367188 91.277344 A 0 0 0 0 0 37.302734 91.277344 L 37.302734 91.34375 L 37.367188 91.332031 L 42.929688 95.363281 L 40.78125 101.9707 L 46.431641 97.941406 L 52.027344 102.00391 A 0 0 0 0 0 52.027344 101.94922 L 49.890625 95.341797 L 55.472656 91.244141 A 0.05506608 0.05506608 0 0 0 55.472656 91.177734 A 0 0 0 0 0 55.417969 91.177734 L 48.546875 91.177734 L 46.355469 84.746094 z M 46.376953 89.240234 L 47.654297 92.445312 L 51.089844 92.675781 L 48.447266 94.878906 L 49.294922 98.183594 L 46.376953 96.34375 L 43.458984 98.183594 L 44.306641 94.878906 L 41.662109 92.675781 L 45.087891 92.445312 L 46.376953 89.240234 z " />
  <path
     style="stroke-width:0.3;fill:#bf5700;stroke:#000000;stroke-opacity:1;stroke-dasharray:none;fill-opacity:1"
     d="m 51.123348,76.563876 a 14.834802,14.834802 0 0 0 -2.797357,-0.187225 v 0.980176 a 14.38326,14.38326 0 0 1 2.764317,0.198238 v -0.991189 z"
     id="path6357" />
  <path
     style="stroke-width:0.3;fill:#bf5700;stroke:#000000;stroke-opacity:1;stroke-dasharray:none;fill-opacity:1"
     d="m 51.861233,77.665197 c 0.671807,0.09912 1.354626,0.198238 2.048459,0.275331 v -0.99119 c -0.64978,-0.06608 -1.29956,-0.165198 -1.927313,-0.253304 h -0.08811 v 0.99119 z"
     id="path6355" />
  <path
     style="stroke-width:0.3;fill:#bf5700;stroke:#000000;stroke-opacity:1;stroke-dasharray:none;fill-opacity:1"
     d="M 53.788546,74.691629 51.949339,74.438325 51.123348,74.31718 v 0.991189 l 0.693833,0.09912 c 0.649779,0.09912 1.332599,0.187225 2.015418,0.27533 V 74.69163 Z"
     id="path6353" />
  <path
     style="stroke-width:0.3;fill:#bf5700;stroke:#000000;stroke-opacity:1;stroke-dasharray:none;fill-opacity:1"
     d="m 50.385463,74.218061 a 13.325991,13.325991 0 0 0 -2.136564,-0.08811 v 0.980176 a 12.268722,12.268722 0 0 1 2.103524,0.09912 v -0.991189 z"
     id="path6351" />
  <path
     style="stroke-width:0.3;fill:#bf5700;stroke:#000000;stroke-opacity:1;stroke-dasharray:none;fill-opacity:1"
     d="m 53.689427,72.422906 c -0.594713,-0.06608 -1.178414,-0.154185 -1.762114,-0.24229 l -0.61674,-0.08811 V 73.0837 l 0.484581,0.06608 c 0.627753,0.0881 1.277533,0.198238 1.938326,0.264317 v -0.99119 z"
     id="path6349" />
  <path
     style="stroke-width:0.3;fill:#bf5700;stroke:#000000;stroke-opacity:1;stroke-dasharray:none;fill-opacity:1"
     d="m 50.572687,72.004404 a 12.433921,12.433921 0 0 0 -2.43392,-0.110132 v 0.980176 a 11.409692,11.409692 0 0 1 2.389867,0.121146 v -0.99119 z"
     id="path6347" />
  <path
     style="stroke-width:0.3;fill:#bf5700;stroke:#000000;stroke-opacity:1;stroke-dasharray:none;fill-opacity:1"
     d="m 40.121145,74.548457 -1.101321,0.143172 v 0.991189 l 1.167401,-0.143171 v -0.99119 z"
     id="path6345" />
  <path
     style="stroke-width:0.3;fill:#bf5700;stroke:#000000;stroke-opacity:1;stroke-dasharray:none;fill-opacity:1"
     d="m 40.859031,74.438325 v 0.991189 h 0.110132 a 17.918502,17.918502 0 0 1 3.535242,-0.30837 v -0.980176 a 18.491189,18.491189 0 0 0 -3.678414,0.30837 z"
     id="path6343" />
  <path
     style="stroke-width:0.3;fill:#bf5700;stroke:#000000;stroke-opacity:1;stroke-dasharray:none;fill-opacity:1"
     d="m 41.707048,76.552862 v 0.99119 a 14.04185,14.04185 0 0 1 2.676212,-0.187225 v -0.980176 a 14.394273,14.394273 0 0 0 -2.709251,0.176211 z"
     id="path6341" />
  <path
     style="stroke-width:0.3;fill:#bf5700;stroke:#000000;stroke-opacity:1;stroke-dasharray:none;fill-opacity:1"
     d="m 40.969163,76.662995 h -0.187225 c -0.627753,0.09912 -1.266519,0.187224 -1.916299,0.253304 v 0.991189 c 0.715859,-0.07709 1.420705,-0.176211 2.103524,-0.27533 v 0 -0.99119 z"
     id="path6339" />
  <path
     style="stroke-width:0.3;fill:#bf5700;stroke:#000000;stroke-opacity:1;stroke-dasharray:none;fill-opacity:1"
     d="m 41.707048,72.05947 v 0.99119 a 13.006608,13.006608 0 0 1 2.84141,-0.176212 v -0.980176 a 13.502203,13.502203 0 0 0 -2.863436,0.165198 z"
     id="path6337" />
  <path
     style="stroke-width:0.3;fill:#bf5700;stroke:#000000;stroke-opacity:1;stroke-dasharray:none;fill-opacity:1"
     d="m 40.969163,72.15859 h -0.187225 c -0.572687,0.08811 -1.156387,0.176212 -1.751101,0.242291 v 0.991189 c 0.660793,-0.06608 1.299559,-0.165198 1.938326,-0.264317 v 0 -0.991189 z"
     id="path6335" />
  <path
     id="path6333"
     style="stroke-width:0.3;fill:#bf5700;stroke:#000000;stroke-opacity:1;stroke-dasharray:none;fill-opacity:1"
     d="M 44.052734 69.558594 A 23.711454 23.711454 0 0 0 40.837891 69.878906 A 26.112335 26.112335 0 0 1 36.982422 70.253906 L 36.365234 70.253906 L 36.365234 72.730469 L 35.462891 72.730469 L 35.462891 74.207031 L 36.365234 74.207031 L 36.365234 76.201172 L 35.462891 76.201172 L 35.462891 77.675781 L 36.34375 77.675781 L 36.34375 80.417969 L 36.960938 80.417969 A 26.079295 26.079295 0 0 0 41.035156 80 A 22.356828 22.356828 0 0 1 44.107422 79.669922 A 3.6674009 3.6674009 0 0 1 45.792969 79.988281 L 46.9375 79.988281 A 3.6674009 3.6674009 0 0 1 48.623047 79.669922 A 22.334802 22.334802 0 0 1 51.695312 80 A 26.057269 26.057269 0 0 0 55.771484 80.417969 L 56.386719 80.417969 L 56.386719 77.675781 L 57.279297 77.675781 L 57.279297 76.201172 L 56.386719 76.201172 L 56.386719 74.207031 L 57.291016 74.207031 L 57.291016 72.775391 L 56.386719 72.775391 L 56.386719 70.253906 L 55.837891 70.253906 A 25.969163 25.969163 0 0 1 51.982422 69.878906 A 23.865639 23.865639 0 0 0 48.765625 69.558594 A 5.5066079 5.5066079 0 0 0 46.410156 70.011719 A 5.5837004 5.5837004 0 0 0 44.052734 69.558594 z M 57.291016 74.207031 L 57.291016 74.251953 L 57.357422 74.207031 L 57.291016 74.207031 z M 44.064453 70.716797 A 4.3281938 4.3281938 0 0 1 45.78125 71.001953 L 45.78125 72.103516 L 45.550781 78.589844 A 6.1123348 6.1123348 0 0 0 44.140625 78.435547 A 23.39207 23.39207 0 0 0 40.837891 78.777344 L 40.892578 78.710938 A 29.262115 29.262115 0 0 1 37.775391 79.085938 L 38.050781 71.376953 C 39.063996 71.310874 40.054275 71.166609 41.023438 71.023438 A 22.632159 22.632159 0 0 1 44.064453 70.716797 z M 48.734375 70.78125 A 22.676211 22.676211 0 0 1 51.773438 71.089844 C 52.7426 71.233016 53.732879 71.37728 54.746094 71.443359 L 55.033203 79.152344 A 29.328194 29.328194 0 0 1 51.916016 78.777344 L 51.982422 78.765625 A 23.370044 23.370044 0 0 0 48.677734 78.425781 A 6.0352423 6.0352423 0 0 0 47.246094 78.65625 L 47.015625 72.169922 L 47.015625 71.068359 A 4.3061674 4.3061674 0 0 1 48.734375 70.78125 z " />
  <path
     style="stroke-width:0.3;fill:none;stroke:#000000;stroke-opacity:1;stroke-dasharray:none"
     d="M 46.354626,83.414097 Z"
     id="_159_Texas" />
  <metadata
     id="metadata243">
    <rdf:RDF>
      <cc:Work
         rdf:about="">
        <dc:title>Texas_</dc:title>
      </cc:Work>
    </rdf:RDF>
  </metadata>
  <path
     id="rect304"
     style="fill:#bf5700;fill-opacity:1;stroke:#000000;stroke-width:0.2;stroke-linecap:round;stroke-linejoin:round;stroke-miterlimit:4;stroke-dasharray:none;stroke-opacity:1"
     d="M 15.103516 55.103516 L 15.103516 142.89648 L 282.89648 142.89648 L 282.89648 55.103516 L 15.103516 55.103516 z M 17.740234 57.740234 L 280.76367 57.740234 L 280.76367 140.76367 L 17.740234 140.76367 L 17.740234 57.740234 z " />
</svg>
