<?xml version="1.0" encoding="UTF-8" standalone="no"?>
<svg
   id="Layer_1"
   data-name="Layer 1"
   viewBox="0 0 300 200"
   version="1.1"
   sodipodi:docname="utLogoPlain.svg"
   width="300"
   height="200"
   inkscape:version="1.2.1 (9c6d41e410, 2022-07-14)"
   xmlns:inkscape="http://www.inkscape.org/namespaces/inkscape"
   xmlns:sodipodi="http://sodipodi.sourceforge.net/DTD/sodipodi-0.dtd"
   xmlns="http://www.w3.org/2000/svg"
   xmlns:svg="http://www.w3.org/2000/svg"
   xmlns:rdf="http://www.w3.org/1999/02/22-rdf-syntax-ns#"
   xmlns:cc="http://creativecommons.org/ns#"
   xmlns:dc="http://purl.org/dc/elements/1.1/">
  <sodipodi:namedview
     id="namedview29"
     pagecolor="#505050"
     bordercolor="#eeeeee"
     borderopacity="1"
     inkscape:showpageshadow="0"
     inkscape:pageopacity="0"
     inkscape:pagecheckerboard="0"
     inkscape:deskcolor="#505050"
     showgrid="false"
     inkscape:zoom="3.1560284"
     inkscape:cx="97.432584"
     inkscape:cy="77.31236"
     inkscape:window-width="1920"
     inkscape:window-height="1009"
     inkscape:window-x="1912"
     inkscape:window-y="-8"
     inkscape:window-maximized="1"
     inkscape:current-layer="Layer_1" />
  <defs
     id="defs22">
    <style
       id="style20">.cls-1{fill:#bf5700;}</style>
  </defs>
  <title
     id="title24">Texas_</title>
  <path
     id="_159_Texas"
     data-name="159_Texas"
     class="cls-1"
     d="M 46.354626,83.414097 Z M 51.9163,78.777533 a 29.328194,29.328194 0 0 0 3.11674,0.374449 L 54.746696,71.442731 C 53.73348,71.376652 52.742291,71.23348 51.773128,71.090308 a 22.676211,22.676211 0 0 0 -3.039648,-0.30837 4.3061674,4.3061674 0 0 0 -1.718061,0.286344 v 1.101322 l 0.231277,6.486784 a 6.0352423,6.0352423 0 0 1 1.431718,-0.231278 23.370044,23.370044 0 0 1 3.303965,0.34141 z m -11.079296,0 a 23.39207,23.39207 0 0 1 3.303965,-0.34141 6.1123348,6.1123348 0 0 1 1.409692,0.154185 l 0.231277,-6.486784 v -1.101321 a 4.3281938,4.3281938 0 0 0 -1.718061,-0.286344 22.632159,22.632159 0 0 0 -3.039648,0.30837 c -0.969163,0.143172 -1.960352,0.286344 -2.973568,0.352423 l -0.275331,7.709251 a 29.262115,29.262115 0 0 0 3.11674,-0.374449 z m 16.519824,-4.570485 h -0.969163 v 1.993393 h 0.892071 v 1.47577 h -0.892071 v 2.742291 h -0.61674 A 26.057269,26.057269 0 0 1 51.696035,80 22.334802,22.334802 0 0 0 48.623348,79.669604 3.6674009,3.6674009 0 0 0 46.938326,79.988987 H 45.792952 A 3.6674009,3.6674009 0 0 0 44.10793,79.669604 22.356828,22.356828 0 0 0 41.035242,80 a 26.079295,26.079295 0 0 1 -4.07489,0.418502 h -0.61674 v -2.742291 h -0.881057 v -1.47577 h 0.903084 v -1.993393 h -0.903084 v -1.47577 h 0.903084 v -2.477974 h 0.61674 a 26.112335,26.112335 0 0 0 3.854625,-0.374449 23.711454,23.711454 0 0 1 3.215859,-0.319384 5.5837004,5.5837004 0 0 1 2.356829,0.451542 5.5066079,5.5066079 0 0 1 2.356828,-0.451542 23.865639,23.865639 0 0 1 3.215859,0.319384 25.969163,25.969163 0 0 0 3.854625,0.374449 h 0.550661 v 2.522026 h 0.903084 v 1.475771 z M 40.969163,72.15859 h -0.187225 c -0.572687,0.08811 -1.156387,0.176212 -1.751101,0.242291 v 0.991189 c 0.660793,-0.06608 1.299559,-0.165198 1.938326,-0.264317 v 0 -0.991189 z m 0.737885,-0.09912 v 0.99119 a 13.006608,13.006608 0 0 1 2.84141,-0.176212 v -0.980176 a 13.502203,13.502203 0 0 0 -2.863436,0.165198 z m -0.737885,4.603525 h -0.187225 c -0.627753,0.09912 -1.266519,0.187224 -1.916299,0.253304 v 0.991189 c 0.715859,-0.07709 1.420705,-0.176211 2.103524,-0.27533 v 0 -0.99119 z m 0.737885,-0.110133 v 0.99119 a 14.04185,14.04185 0 0 1 2.676212,-0.187225 v -0.980176 a 14.394273,14.394273 0 0 0 -2.709251,0.176211 z m -0.848017,-2.114537 v 0.991189 h 0.110132 a 17.918502,17.918502 0 0 1 3.535242,-0.30837 v -0.980176 a 18.491189,18.491189 0 0 0 -3.678414,0.30837 z m -0.737886,0.110132 -1.101321,0.143172 v 0.991189 l 1.167401,-0.143171 v -0.99119 z m 10.451542,-2.544053 a 12.433921,12.433921 0 0 0 -2.43392,-0.110132 v 0.980176 a 11.409692,11.409692 0 0 1 2.389867,0.121146 v -0.99119 z m 3.11674,0.418502 c -0.594713,-0.06608 -1.178414,-0.154185 -1.762114,-0.24229 l -0.61674,-0.08811 V 73.0837 l 0.484581,0.06608 c 0.627753,0.0881 1.277533,0.198238 1.938326,0.264317 v -0.99119 z m -3.303964,1.795155 a 13.325991,13.325991 0 0 0 -2.136564,-0.08811 v 0.980176 a 12.268722,12.268722 0 0 1 2.103524,0.09912 v -0.991189 z m 3.403083,0.473568 -1.839207,-0.253304 -0.825991,-0.121145 v 0.991189 l 0.693833,0.09912 c 0.649779,0.09912 1.332599,0.187225 2.015418,0.27533 V 74.69163 Z m -1.927313,2.973568 c 0.671807,0.09912 1.354626,0.198238 2.048459,0.275331 v -0.99119 c -0.64978,-0.06608 -1.29956,-0.165198 -1.927313,-0.253304 h -0.08811 v 0.99119 z m -0.737885,-1.101321 a 14.834802,14.834802 0 0 0 -2.797357,-0.187225 v 0.980176 a 14.38326,14.38326 0 0 1 2.764317,0.198238 v -0.991189 z m -6.024229,15.881057 -3.436123,0.231277 2.643171,2.202644 -0.848017,3.303956 2.918502,-1.839199 2.918502,1.839199 -0.848017,-3.303956 2.643171,-2.202644 -3.436123,-0.231277 -1.277533,-3.204846 -1.288546,3.204846 z m -7.797357,-1.101322 c 0,0 0,0 0,-0.06608 a 0,0 0 0 0 0.06608,0 h 6.872247 l 2.114538,-6.530837 v 0 a 0,0 0 0 0 0,-0.05507 c 0,0 0,0 0,0.05507 v 0 l 2.19163,6.431718 h 6.872246 a 0,0 0 0 0 0.05507,0 0.05506608,0.05506608 0 0 1 0,0.06608 v 0 l -5.5837,4.096917 2.136564,6.607921 a 0,0 0 0 0 0,0.0551 v 0 l -5.594714,-4.06387 -5.64978,4.03083 v 0 0 l 2.147577,-6.607915 -5.561674,-4.030837 z m 22.874449,8.259909 a 3.6894273,3.6894273 0 0 0 0.914097,-1.98237 3.7114537,3.7114537 0 0 0 -1.872246,1.10131 3.6563877,3.6563877 0 0 0 -0.92511,1.97136 3.7444934,3.7444934 0 0 0 1.872246,-1.10131 z m -2.687224,-4.36123 a 3.6784141,3.6784141 0 0 0 0.903083,1.98238 3.5792952,3.5792952 0 0 0 0.363437,-2.136565 3.7004405,3.7004405 0 0 0 -0.903084,-1.982379 3.7444934,3.7444934 0 0 0 -0.363436,2.202643 z m 1.486784,-5.627754 a 3.7885463,3.7885463 0 0 0 1.013216,1.927313 3.722467,3.722467 0 0 0 -0.781939,-4.096916 3.6894273,3.6894273 0 0 0 -0.231277,2.202643 z m 3.557269,1.64097 a 3.6894273,3.6894273 0 0 0 -2.092511,3.590308 3.7114537,3.7114537 0 0 0 1.596916,-1.464758 3.7555066,3.7555066 0 0 0 0.495595,-2.12555 z m -5.451542,13.975764 a 3.6453744,3.6453744 0 0 0 1.310572,-1.74009 3.7114537,3.7114537 0 0 0 -2.059471,0.69383 3.6453744,3.6453744 0 0 0 -1.299559,1.7511 3.6784141,3.6784141 0 0 0 2.059471,-0.70484 z m -1.795154,-4.77974 a 3.722467,3.722467 0 0 0 0.484581,2.11454 3.6784141,3.6784141 0 0 0 0.792952,-2.02643 3.722467,3.722467 0 0 0 -0.473569,-2.12555 3.7885463,3.7885463 0 0 0 -0.803964,2.03744 z m -1.88326,5.04405 a 3.6784141,3.6784141 0 0 0 0,-2.20264 3.6894273,3.6894273 0 0 0 -1.178414,3.9978 3.6894273,3.6894273 0 0 0 1.178414,-1.79516 z m 1.101321,3.23789 a 3.7114537,3.7114537 0 0 0 -3.799559,1.69603 3.4911894,3.4911894 0 0 0 0.671806,0.0661 v 0 a 3.5462555,3.5462555 0 0 0 1.497797,-0.33039 3.6453744,3.6453744 0 0 0 1.64097,-1.43172 z m -6.409691,0.29736 a 3.7114537,3.7114537 0 0 0 -0.429516,2.13656 3.7114537,3.7114537 0 0 0 1.982379,-3.6674 3.6563877,3.6563877 0 0 0 -1.552863,1.53084 z m -8.303965,1.10132 a 3.6013216,3.6013216 0 0 0 2.202643,0.26431 3.7114537,3.7114537 0 0 0 -3.799559,-1.69603 3.6343612,3.6343612 0 0 0 1.640969,1.43172 z m -0.506608,-4.63657 a 3.6784141,3.6784141 0 0 0 1.20044,1.81718 3.7004405,3.7004405 0 0 0 -1.1674,-4.01982 3.7334802,3.7334802 0 0 0 0,2.20264 z m 3.73348,2.00441 a 3.7114537,3.7114537 0 0 0 1.971366,3.6674 3.6563877,3.6563877 0 0 0 -0.418502,-2.13656 3.7004405,3.7004405 0 0 0 -1.563877,-1.53084 z m -7.411894,-2.20264 a 3.6784141,3.6784141 0 0 0 2.059471,0.63876 3.6343612,3.6343612 0 0 0 -1.310572,-1.7511 3.6784141,3.6784141 0 0 0 -2.059472,-0.69383 3.6784141,3.6784141 0 0 0 1.310573,1.74009 z m 0.95815,-6.88326 a 3.7555066,3.7555066 0 0 0 -0.473569,2.12555 3.7114537,3.7114537 0 0 0 0.803965,2.02643 3.6894273,3.6894273 0 0 0 -0.330396,-4.15198 z m -4.030837,1.10132 a 3.7444934,3.7444934 0 0 0 1.872246,1.10132 3.6343612,3.6343612 0 0 0 -0.914097,-1.97136 3.7114537,3.7114537 0 0 0 -1.872246,-1.10132 3.7665198,3.7665198 0 0 0 0.914097,1.98238 z m -0.253304,-4.713649 a 3.7555066,3.7555066 0 0 0 -0.495595,-2.114537 3.7004405,3.7004405 0 0 0 -1.60793,-1.475771 3.6784141,3.6784141 0 0 0 2.092511,3.590308 z m 0.198238,-5.506608 a 3.6674009,3.6674009 0 0 0 0.231277,2.202643 3.7444934,3.7444934 0 0 0 1.024229,-1.938326 3.8105727,3.8105727 0 0 0 -0.231277,-2.202643 3.7114537,3.7114537 0 0 0 -1.024229,1.9163 z m 1.47577,5.704846 a 3.6784141,3.6784141 0 0 0 0.363437,2.147581 3.6674009,3.6674009 0 0 0 0.903083,-1.982383 3.6013216,3.6013216 0 0 0 -0.363436,-2.147577 3.6784141,3.6784141 0 0 0 -0.903084,1.982379 z m 26.244494,0.92511 -0.506608,0.209251 a 4.5154185,4.5154185 0 0 1 -0.27533,1.10132 4.5374449,4.5374449 0 0 1 2.114537,-0.715857 h 0.528634 v 0.528637 a 4.6806167,4.6806167 0 0 1 -4.295154,4.73567 h -0.462555 a 4.6696035,4.6696035 0 0 1 -0.495595,1.0022 4.7356828,4.7356828 0 0 1 1.629956,-0.28634 4.9118943,4.9118943 0 0 1 0.594714,0 l 0.517621,0.0661 -0.09912,0.51762 a 4.69163,4.69163 0 0 1 -4.592511,3.79956 v 0 a 4.4603524,4.4603524 0 0 1 -0.5837,0 l -0.462555,-0.0661 a 4.7797357,4.7797357 0 0 1 -0.704846,0.89207 4.7687225,4.7687225 0 0 1 2.202643,0.19824 l 0.495595,0.17621 -0.198238,0.48458 a 4.746696,4.746696 0 0 1 -2.323789,2.43392 4.6255507,4.6255507 0 0 1 -1.894273,0.40749 v 0 a 4.9118943,4.9118943 0 0 1 -1.54185,-0.26432 l -0.363436,-0.14317 a 28.105727,28.105727 0 0 1 -2.202643,1.68502 l 1.442731,0.93613 -0.92511,0.5837 -1.409692,-0.92511 -1.442731,1.02423 -0.92511,-0.5837 1.442731,-0.93613 a 28.105727,28.105727 0 0 1 -2.290749,-1.78414 l -0.363436,0.13216 a 4.9008811,4.9008811 0 0 1 -1.54185,0.26432 4.592511,4.592511 0 0 1 -1.861234,-0.39648 4.69163,4.69163 0 0 1 -2.411894,-2.45595 l -0.209251,-0.48458 0.495595,-0.17621 a 4.7907489,4.7907489 0 0 1 2.202643,-0.19824 4.4052863,4.4052863 0 0 1 -0.693833,-0.89207 l -0.462555,0.0661 a 4.5374449,4.5374449 0 0 1 -0.594713,0 4.6475771,4.6475771 0 0 1 -2.742291,-0.89207 4.7026432,4.7026432 0 0 1 -1.85022,-2.90749 l -0.09912,-0.51762 0.528634,-0.0661 a 4.7136564,4.7136564 0 0 1 2.202643,0.25331 4.5814978,4.5814978 0 0 1 -0.495595,-1.00221 h -0.462555 a 4.6806167,4.6806167 0 0 1 -4.295154,-4.73567 v -0.528633 h 0.528635 A 4.5374449,4.5374449 0 0 1 33.25991,97.23568 4.4052863,4.4052863 0 0 1 32.984579,96.13436 L 32.53304,96.002203 a 4.69163,4.69163 0 0 1 -3.215859,-5.506608 l 0.110132,-0.506608 0.528634,0.08811 a 4.7797357,4.7797357 0 0 1 1.57489,0.825991 4.7246696,4.7246696 0 0 1 0,-1.751102 4.6585903,4.6585903 0 0 1 1.85022,-2.907489 l 0.418502,-0.319383 0.286344,0.451542 a 4.6806167,4.6806167 0 0 1 -1.189427,6.277533 4.8898678,4.8898678 0 0 1 0.363436,1.299559 4.6365639,4.6365639 0 0 1 1.420705,-2.015418 l 0.407489,-0.330396 0.297357,0.429515 a 4.7026432,4.7026432 0 0 1 -0.825992,6.354611 v 0 a 4.6475771,4.6475771 0 0 1 0.638767,1.20045 4.6696035,4.6696035 0 0 1 0.969163,-2.26872 l 0.319383,-0.40749 0.385463,0.35242 a 4.6696035,4.6696035 0 0 1 0.506608,6.37664 v 0 a 4.7356828,4.7356828 0 0 1 0.870044,1.04626 4.69163,4.69163 0 0 1 0.484581,-2.42291 l 0.231278,-0.47357 0.462555,0.27533 a 4.7026432,4.7026432 0 0 1 1.806167,6.15639 v 0 a 4.2621145,4.2621145 0 0 1 1.101322,0.83701 4.7246696,4.7246696 0 0 1 0,-2.46696 l 0.132158,-0.50661 0.506608,0.17621 a 4.6696035,4.6696035 0 0 1 3.061674,5.50661 l 0.473569,0.33039 0.473568,-0.33039 a 4.69163,4.69163 0 0 1 3.061674,-5.50661 l 0.506608,-0.17621 0.132158,0.50661 a 4.7356828,4.7356828 0 0 1 0,2.46696 4.5374449,4.5374449 0 0 1 1.101322,-0.83701 v 0 a 4.6806167,4.6806167 0 0 1 1.806167,-6.15639 l 0.451542,-0.27533 0.231278,0.47357 a 4.6475771,4.6475771 0 0 1 0.484581,2.42291 4.7136564,4.7136564 0 0 1 0.870044,-1.04626 v 0 a 4.6806167,4.6806167 0 0 1 0.506608,-6.37664 l 0.396476,-0.35242 0.330396,0.40749 a 4.6806167,4.6806167 0 0 1 0.969163,2.26872 4.6035242,4.6035242 0 0 1 0.638767,-1.20045 v 0 a 4.7246696,4.7246696 0 0 1 -1.662996,-3.017607 4.6696035,4.6696035 0 0 1 0.837005,-3.303964 l 0.297357,-0.429516 0.407489,0.330397 a 4.7136564,4.7136564 0 0 1 1.420704,2.015418 4.4052863,4.4052863 0 0 1 0.352423,-1.255506 4.69163,4.69163 0 0 1 -1.530837,-6.310573 l 0.286344,-0.451542 0.429515,0.319383 a 4.6696035,4.6696035 0 0 1 1.839207,2.907489 4.4052863,4.4052863 0 0 1 0,1.740088 4.8348018,4.8348018 0 0 1 1.629956,-0.85903 l 0.495595,-0.143172 0.110132,0.506608 a 4.6696035,4.6696035 0 0 1 -3.215859,5.506608 z m 0.132158,10.396461 c 4.834802,-7.0925 5.506608,-15.319368 5.506608,-21.69602 L 46.431718,83.524229 27.026432,84.625551 v 0 c 0,6.387665 0.638766,14.603519 5.506608,21.696019 a 25.95815,25.95815 0 0 0 3.524229,4.15199 38.0837,38.0837 0 0 0 10.396475,6.60793 38.072687,38.072687 0 0 0 10.396476,-6.60793 26.354626,26.354626 0 0 0 3.535243,-4.15199 z M 27.995595,68.204846 26.993392,82.367841 H 65.770925 L 64.757709,68.160793 C 61.145374,67.797357 53.0837,66.949339 46.376652,66.949339 c -6.707048,0 -14.768722,0.803965 -18.381057,1.211454 z m 39.757709,-1.651983 v 17.764318 0 0.253304 c 0,6.685022 -0.671806,15.319375 -5.825991,22.885455 a 28.711454,28.711454 0 0 1 -3.722467,4.40528 v 0 0 a 56.167401,56.167401 0 0 1 -11.795154,8.18282 v 0 A 56.090308,56.090308 0 0 1 34.581498,111.9273 v 0 0 a 28.711454,28.711454 0 0 1 -3.722467,-4.40528 C 25.660793,99.98898 25,91.310573 25,84.570485 v -2.202644 0 -15.814978 l 0.859031,-0.110132 A 200.01101,200.01101 0 0 1 46.365639,65 v 0 a 200.07709,200.07709 0 0 1 20.506608,1.442731 l 0.859031,0.110132 z m 11.607929,1.729075 v 11.200441 h 2.466961 l 2.918502,-8.028635 9.482384,-0.09912 v 38.314966 l -7.599124,0.82599 0.319383,2.20265 10.627751,-0.18723 10.25331,0.18723 0.31938,-2.20265 -7.27974,-0.82599 V 71.354626 l 9.4934,0.132158 2.90749,8.028635 h 2.46696 V 68.281938 l -18.22688,0.198238 z m 69.592507,41.255492 -17.40088,0.19824 V 90.748899 l 8.81058,0.253304 2.53304,6.607927 h 2.20264 l -0.60573,-8.5022 0.63877,-7.918503 h -2.20264 l -2.53304,6.60793 -8.81058,0.253304 V 71.26652 l 16.77313,0.187224 3.54626,8.226873 h 2.20264 l -0.63877,-11.387665 -25.11013,0.198237 -8.72247,-0.198237 -0.31938,2.202643 5.69383,0.814978 V 109.6696 l -5.69383,0.82599 0.31938,2.20265 8.72247,-0.18723 25.11013,0.18723 2.20265,-11.70705 h -2.40088 z m 89.97798,0.25331 4.93392,0.69383 -0.30837,2.20264 -8.75551,-0.16519 -8.34802,0.18722 -0.31938,-2.20264 5.38546,-0.82599 -4.28414,-11.89427 h -15.62775 l -4.10793,11.82819 5.50661,0.82599 -0.31939,2.20264 -7.62114,-0.12114 -5.20925,0.15418 -7.38987,-0.15418 -9.05286,0.18722 -0.31939,-2.27974 5.37445,-0.81497 -9.8348,-15.726865 -10.78194,15.781925 5.18723,0.75991 -0.31939,2.27974 -7.41189,-0.18722 -7.0815,0.18722 -0.31938,-2.27974 4.93392,-0.69383 13.6674,-18.788533 -13.09471,-19.823789 -4.93392,-0.693833 0.31938,-2.202643 9.04185,0.253304 8.98678,-0.253304 0.30837,2.202643 -5.37445,0.825992 8.94274,14.823788 10.04405,-14.724669 -5.50661,-0.814978 0.30837,-2.202644 7.4119,0.198238 7.40088,-0.198238 0.30837,2.202644 -4.93392,0.693832 -12.91851,17.80837 14.04185,20.69382 3.02864,0.47357 3.05066,-0.40749 15.69383,-41.002191 3.79956,-1.101321 z m -12.8304,-14.933912 -6.9163,-18.964758 -6.60793,18.964758 z m 39.22908,-6.982379 -7.26873,-3.160793 c -3.48017,-1.519823 -5.94713,-3.6674 -5.94713,-7.15859 0,-4.240088 2.97357,-6.960352 7.96255,-6.960352 a 9.3942731,9.3942731 0 0 1 7.46696,3.105727 l 1.83921,5.759911 h 3.16079 v -8.579295 a 20.286344,20.286344 0 0 0 -11.57489,-3.667401 c -8.81057,1.839207 -15.12114,5.892071 -15.12114,12.775331 0,5.627753 3.73348,8.546255 8.29295,10.506608 l 7.65418,3.303964 c 3.79956,1.64097 6.60793,4.107921 6.60793,8.414091 0,4.61453 -3.16079,8.03964 -8.60132,8.03964 a 11.872247,11.872247 0 0 1 -8.9207,-3.98678 l -2.20265,-5.37445 h -4.40528 l 1.39868,8.54625 a 19.735683,19.735683 0 0 0 13.10572,4.29516 c 11.88326,-2.45595 15.93613,-8.21586 15.93613,-14.16299 -0.022,-6.4207 -4.39428,-9.581493 -9.38326,-11.696031 z m -164.71366,43.942721 0.0661,-0.47357 -1.01322,-0.13216 v -3.57929 c 0,-1.70705 -0.27533,-2.35683 -2.0044,-2.35683 l -1.97137,1.28855 v -4.40529 h -0.45154 l -1.40969,0.18722 h -3.30396 -3.876658 v 2.38987 h 0.528635 l 0.61674,-1.68502 H 89.8128 v 8.16079 l -1.607934,0.17621 0.06608,0.47357 h 2.268724 2.20264 l 0.0661,-0.47357 -1.55286,-0.17621 v -8.20484 h 2.73128 l 0.48458,-0.0881 v 8.2489 l -0.80397,0.13216 0.0661,0.47357 h 1.42071 1.27753 l 0.0771,-0.47357 -0.73788,-0.13216 v -3.96476 l 0.40748,-0.2533 a 3.2048458,3.2048458 0 0 1 1.42071,-0.60573 c 0.53965,0 0.85903,0.31938 0.85903,1.01322 v 3.85462 l -0.66079,0.13216 0.0771,0.47357 h 1.25551 z m 6.05727,-3.44714 v -0.56167 c 0,-1.42071 -0.60573,-2.54405 -2.38987,-2.54405 a 3.3700441,3.3700441 0 0 0 -3.05066,3.46916 3.0506608,3.0506608 0 0 0 3.10573,3.30396 8.2929515,8.2929515 0 0 0 2.35683,-1.10132 l -0.22027,-0.51762 a 3.4471366,3.4471366 0 0 1 -1.68502,0.56168 c -1.40969,0 -2.20264,-1.10133 -2.20264,-2.62115 z m -4.09692,-0.53964 c 0.11013,-1.10133 0.62776,-1.88326 1.46476,-1.88326 1.03524,0 1.23348,0.71585 1.23348,1.7511 z m 14.48238,-4.81278 v 5.60573 c 0,1.72907 -0.78194,2.6652 -2.20264,2.6652 -1.42071,0 -2.20264,-0.95815 -2.20264,-2.63216 v -5.64978 l 1.10132,-0.17621 -0.0661,-0.47357 h -1.85022 -1.85022 l -0.0771,0.47357 1.21146,0.17621 v 5.5066 c 0,2.13657 0.94713,3.56829 3.60132,3.56829 2.67621,-0.61674 3.39207,-1.79516 3.39207,-3.54626 v -5.50661 l 1.10132,-0.17621 -0.0661,-0.47357 h -1.57489 -1.72907 l -0.0661,0.47357 z m 5.31938,8.81057 0.0771,-0.47357 -0.73789,-0.13215 v -3.9978 l 0.39648,-0.26432 a 2.7753304,2.7753304 0 0 1 1.40969,-0.60573 c 0.57269,0 0.89207,0.31939 0.89207,1.01322 v 3.85463 l -0.68282,0.13215 0.0771,0.47357 h 1.28855 1.54185 l 0.0661,-0.47357 -1.02423,-0.13215 v -3.75551 c 0,-1.60793 -0.27533,-2.20264 -2.00441,-2.20264 l -1.99339,1.31057 -0.0661,-1.10132 h -0.5837 l -1.60793,0.40749 0.0661,0.47356 0.93613,-0.0771 v 4.92291 l -0.93613,0.13216 0.0661,0.47357 h 1.55286 z m 7.9956,0 0.0661,-0.47357 -1.0022,-0.13215 v -5.79296 l -0.67181,0.0551 -1.61894,0.40749 0.0771,0.47357 0.93612,-0.0771 v 4.9229 l -0.93612,0.13216 0.0661,0.47357 h 1.55286 z m -2.40088,-8.71145 0.0771,0.7489 0.36344,0.0881 0.95815,-0.0881 0.14317,-0.63877 -0.0661,-0.75991 -0.37445,-0.0661 -0.96916,0.0661 z m 6.10132,6.85022 -1.46476,-3.94273 0.89207,-0.13216 -0.0661,-0.47357 h -1.40969 -1.54185 l -0.0661,0.47357 0.83701,0.13216 2.34581,5.93612 0.98018,-0.40749 2.20264,-5.50661 0.85903,-0.13215 -0.0661,-0.47357 h -1.10132 -1.18943 l -0.0661,0.47357 0.61674,0.13215 -1.62995,4.87886 z m 8.98678,-1.64097 v -0.56167 c 0,-1.42071 -0.60572,-2.54406 -2.38986,-2.54406 a 3.3700441,3.3700441 0 0 0 -3.03965,3.46917 3.0506608,3.0506608 0 0 0 3.10573,3.30396 8.1497797,8.1497797 0 0 0 2.34581,-1.10132 l -0.20925,-0.51762 a 3.4801762,3.4801762 0 0 1 -1.68502,0.56167 c -1.42071,0 -2.20265,-1.10132 -2.20265,-2.62114 z m -4.07489,-0.49559 c 0.11014,-1.10133 0.63877,-1.88326 1.45375,-1.88326 1.04625,0 1.24449,0.71585 1.24449,1.7511 z m 7.0815,-2.37886 h -0.53965 l -1.60793,0.40749 0.0661,0.47357 0.94714,-0.0771 v 4.92289 l -0.94714,0.13216 0.0771,0.47358 h 1.50881 1.94934 l 0.0771,-0.51762 -1.42071,-0.13217 v -3.17178 l 0.27533,-0.31939 a 3.0396476,3.0396476 0 0 1 1.27754,-0.95815 h 0.99119 v -1.36564 h -1.10132 l -1.53084,1.88326 z m 7.23568,1.77313 h 0.71586 v -1.35463 a 3.6563877,3.6563877 0 0 0 -1.89427,-0.60572 c -1.56388,0.34141 -2.43392,0.85903 -2.43392,1.80616 a 1.8171806,1.8171806 0 0 0 1.10132,1.56388 l 1.10132,0.55067 c 0.69384,0.36344 0.98018,0.5947 0.98018,1.10132 a 0.99118943,0.99118943 0 0 1 -1.10132,1.02422 1.9603524,1.9603524 0 0 1 -1.10132,-0.34141 l -0.46256,-1.10131 h -0.85903 l 0.2533,1.51981 a 4.6365639,4.6365639 0 0 0 2.04846,0.60573 c 1.55287,-0.3304 2.53304,-0.79295 2.53304,-2.00439 a 1.839207,1.839207 0 0 0 -1.26652,-1.74009 l -1.03524,-0.52864 c -0.60573,-0.30837 -0.94714,-0.57268 -0.94714,-1.01321 0,-0.44053 0.4956,-0.79295 1.02423,-0.79295 a 2.2026432,2.2026432 0 0 1 1.02423,0.28634 z m 4.95595,4.60352 0.0771,-0.47357 -1.01321,-0.13215 v -5.79296 l -0.67181,0.0551 -1.61894,0.40749 0.0661,0.47357 0.94714,-0.0771 v 4.9229 l -0.94714,0.13216 0.0771,0.47357 h 1.54185 z m -2.37885,-8.71145 0.0771,0.7489 0.36344,0.0881 0.95815,-0.0881 0.15418,-0.63877 -0.0661,-0.75991 -0.37445,-0.0661 -0.96916,0.0661 z m 9.0859,11.80617 1.55286,-3.34802 2.20265,-5.50661 0.87004,-0.13216 -0.0661,-0.47357 h -1.10132 -1.18943 l -0.0661,0.47357 0.61674,0.13216 -1.66299,4.87886 -0.11013,-0.93612 -1.4978,-3.94273 0.88106,-0.13217 -0.0661,-0.45153 h -4.31718 v -1.69604 h -0.35243 l -0.88105,0.88105 v 0.88106 h -0.88106 l -0.47357,0.47357 v 0.23128 h 1.29956 v 4.00881 c 0,1.22246 0.19824,1.7511 1.70705,1.7511 l 1.69603,-0.92511 -0.23127,-0.46255 a 2.7973568,2.7973568 0 0 1 -1.17842,0.37444 c -0.57269,0 -0.71586,-0.40748 -0.71586,-0.80395 v -4.11894 h 2.02643 l 2.20265,5.67179 0.53965,-0.15417 -1.3326,2.02643 h -1.15639 v 1.34361 z m 10.44053,-9.60353 c -2.09251,0.35243 -3.30397,1.4978 -3.30397,3.52423 a 3.0066079,3.0066079 0 0 0 2.9956,3.21586 c 2.09251,-0.3304 3.30396,-1.4978 3.30396,-3.5022 a 3.0176211,3.0176211 0 0 0 -2.99559,-3.23789 z m -1.97137,3.23789 c 0,-1.46476 0.53965,-2.57709 1.62996,-2.57709 1.09031,0 1.98238,1.10132 1.98238,2.85242 0,1.45374 -0.55066,2.56608 -1.62996,2.56608 -1.07929,0 -1.98238,-1.35462 -1.98238,-2.89648 z m 7.9956,-3.30397 a 2.5881057,2.5881057 0 0 1 0.28634,-1.53083 l 0.25331,-0.36344 h 1.7511 v -1.10132 h -1.69604 l -1.10132,1.28854 a 2.5991189,2.5991189 0 0 0 -0.73789,1.88326 v 0.13216 h -0.78193 l -0.39648,0.47357 v 0.23128 h 1.17841 v 4.97797 l -0.94713,0.13216 0.0661,0.47357 h 1.54185 2.09251 l 0.0771,-0.51762 -1.55286,-0.0881 v -5.01101 h 1.69603 v -0.62775 h -1.69603 z m 12.11454,6.14538 -1.55287,-0.17621 v -8.21585 h 2.02643 l 0.61674,1.70704 h 0.51763 v -2.35683 h -3.87666 -3.86564 v 2.38987 h 0.52864 l 0.61674,-1.70704 h 2.02643 v 8.16078 l -1.61894,0.17621 0.0661,0.47358 h 2.25771 2.20264 z m 6.43171,-2.98458 v -0.56168 c 0,-1.4207 -0.60572,-2.54405 -2.38986,-2.54405 a 3.3700441,3.3700441 0 0 0 -3.03965,3.46916 3.0506608,3.0506608 0 0 0 3.10573,3.30397 8.2709251,8.2709251 0 0 0 2.35682,-1.10132 l -0.22026,-0.51763 a 3.4471366,3.4471366 0 0 1 -1.68502,0.56168 c -1.40969,0 -2.20265,-1.10132 -2.20265,-2.62115 z m -4.09691,-0.53964 c 0.11013,-1.10132 0.63876,-1.88326 1.46475,-1.88326 1.03525,0 1.23349,0.71586 1.23349,1.7511 z m 6.54185,3.39207 1.4207,-2.05947 0.11013,0.31938 1.11234,1.68501 -0.55066,0.13216 0.0661,0.47358 h 1.27753 1.54185 l 0.0661,-0.47358 -0.837,-0.13216 -2.11454,-2.98457 1.77313,-2.20264 0.96916,-0.13216 -0.0661,-0.48458 h -1.38767 -1.10132 l -0.0661,0.48458 0.64978,0.13216 -1.27753,1.85022 -0.11013,-0.36344 -0.99119,-1.48678 0.51762,-0.13216 -0.0661,-0.48458 h -1.28855 -1.54185 l -0.0661,0.48458 0.837,0.13216 1.94934,2.67621 -1.99339,2.45595 -0.93613,0.13216 0.0661,0.47356 h 1.38767 1.10132 l 0.0661,-0.47356 z m 5.82599,-4.86784 v 1.02423 h 1.1674 l 0.23128,-1.10132 a 3.1938326,3.1938326 0 0 1 1.10132,-0.24229 c 0.72687,0 0.79295,0.48458 0.79295,1.28854 v 0.68282 l -3.02863,1.0022 a 1.9933921,1.9933921 0 0 0 -0.47357,1.2445 1.7511013,1.7511013 0 0 0 1.98238,1.72906 l 1.56387,-1.20044 0.40749,1.03524 1.74009,-0.33039 -0.0551,-0.47357 h -0.6718 a 1.6409692,1.6409692 0 0 1 -0.23128,-1.01321 v -2.63216 c 0,-1.70704 -0.44053,-2.14758 -2.13656,-2.14758 z m 3.30396,3.97577 -0.56167,0.39648 a 1.6079295,1.6079295 0 0 1 -0.88106,0.35242 c -0.39647,0 -0.78194,-0.24229 -0.78194,-0.93613 a 1.0242291,1.0242291 0 0 1 0.27533,-0.74889 l 1.94934,-0.81498 z m 6.71807,-3.10573 h 0.71585 v -1.39868 a 3.6453744,3.6453744 0 0 0 -1.89427,-0.60572 c -1.56388,0.34141 -2.43392,0.85903 -2.43392,1.80616 a 1.8171806,1.8171806 0 0 0 1.10132,1.56388 l 1.10132,0.55066 c 0.69384,0.36344 0.98018,0.59472 0.98018,1.10132 a 0.99118943,0.99118943 0 0 1 -1.10132,1.02423 1.9603524,1.9603524 0 0 1 -1.10132,-0.34141 l -0.46256,-1.10132 h -0.85903 l 0.2533,1.51983 a 4.6585903,4.6585903 0 0 0 2.05948,0.60572 c 1.54185,-0.33039 2.53304,-0.79295 2.53304,-2.0044 0,-0.77093 -0.36344,-1.28855 -1.26652,-1.74009 l -1.03525,-0.52864 c -0.60572,-0.30837 -0.94713,-0.57268 -0.94713,-1.01321 0,-0.44053 0.49559,-0.79295 1.02423,-0.79295 a 2.2026432,2.2026432 0 0 1 1.02423,0.28634 z m 5.24229,-0.87004 v 1.02423 h 1.1674 l 0.23127,-1.10132 a 3.1938326,3.1938326 0 0 1 1.10133,-0.24229 c 0.72687,0 0.79295,0.48458 0.79295,1.28854 v 0.68282 l -3.02864,1.0022 a 1.9933921,1.9933921 0 0 0 -0.47357,1.2445 1.7511013,1.7511013 0 0 0 1.98238,1.72906 l 1.54185,-1.20044 0.40749,1.03524 1.74009,-0.33039 -0.0551,-0.47357 h -0.6718 a 1.6409692,1.6409692 0 0 1 -0.23128,-1.01321 v -2.63216 c 0,-1.70704 -0.44053,-2.14758 -2.13656,-2.14758 z m 3.30396,3.97577 -0.56167,0.39648 a 1.6079295,1.6079295 0 0 1 -0.88106,0.35242 c -0.39648,0 -0.78194,-0.24229 -0.78194,-0.93613 a 1.0132159,1.0132159 0 0 1 0.26432,-0.74889 l 1.94934,-0.81498 z m 3.48018,-4.0859 v 4.00881 c 0,1.22246 0.19823,1.7511 1.70705,1.7511 l 1.57489,-0.88107 -0.23128,-0.45153 a 2.2687225,2.2687225 0 0 1 -1.10132,0.31937 c -0.56168,0 -0.71586,-0.40748 -0.71586,-0.80395 v -3.9978 h 2.02643 v -0.60573 h -2.05947 v -1.8392 h -0.35243 l -0.88105,0.88105 v 0.88106 h -0.87005 l -0.47357,0.47357 v 0.23128 z m 12.21365,2.3348 0.9141,2.511 -1.10132,0.17621 0.0661,0.47358 h 1.78414 1.86123 l 0.0661,-0.47358 -1.10132,-0.15417 -3.52423,-8.96476 -0.80396,0.23128 -3.30397,8.73348 -1.10132,0.15417 0.0661,0.47358 h 1.45374 1.60793 l 0.0661,-0.47358 -1.17841,-0.17621 0.92511,-2.511 z m -0.24229,-0.63877 h -2.87445 l 1.47577,-4.28414 0.0991,0.72687 z m 9.51542,-2.5881 -0.67181,0.0551 -1.48678,0.35242 0.0661,0.51763 0.80396,-0.0661 v 3.78854 l -0.26431,0.17621 a 3.3039648,3.3039648 0 0 1 -1.46476,0.68282 c -0.66079,0 -0.95815,-0.30837 -0.95815,-1.01321 v -4.46035 l -0.68282,0.0551 -1.61894,0.35242 0.0771,0.51763 0.93612,-0.0661 v 3.51321 c 0,1.56388 0.29736,2.20265 2.07049,2.20265 l 1.98238,-1.17842 0.37445,1.10132 1.74008,-0.33039 -0.0551,-0.47357 h -0.67181 a 2.2026432,2.2026432 0 0 1 -0.1652,-1.01322 z m 5.44053,1.78414 h 0.70485 v -1.31058 a 3.6894273,3.6894273 0 0 0 -1.87225,-0.55066 c -1.56388,0.34141 -2.43392,0.85903 -2.43392,1.80617 a 1.839207,1.839207 0 0 0 1.10132,1.56388 l 1.10132,0.55066 c 0.70485,0.36343 0.98018,0.59471 0.98018,1.10132 a 0.99118943,0.99118943 0 0 1 -1.10132,1.02423 1.9823789,1.9823789 0 0 1 -1.10133,-0.34141 l -0.46255,-1.10132 h -0.85903 l 0.2533,1.51982 a 4.6365639,4.6365639 0 0 0 2.04846,0.60573 c 1.54185,-0.3304 2.53304,-0.79295 2.53304,-2.00441 a 1.839207,1.839207 0 0 0 -1.28855,-1.78414 l -1.03524,-0.52863 c -0.60573,-0.30837 -0.93612,-0.57269 -0.93612,-1.01322 0,-0.44053 0.49559,-0.79295 1.01321,-0.79295 a 2.2026432,2.2026432 0 0 1 1.02423,0.28634 z m 2.63216,-0.98018 v 4.00881 c 0,1.22247 0.19824,1.7511 1.70705,1.7511 l 1.57489,-0.88105 -0.23128,-0.45155 a 2.2577093,2.2577093 0 0 1 -1.10132,0.31939 c -0.57269,0 -0.71586,-0.40749 -0.71586,-0.80397 v -3.90969 h 2.02643 v -0.60573 h -2.02643 v -1.8392 h -0.35242 l -0.87005,0.88105 v 0.88106 h -0.837 l -0.47357,0.47357 v 0.23128 z m 7.23568,5.5837 0.0661,-0.47357 -1.01322,-0.13216 v -5.74889 l -0.6718,0.0551 -1.61894,0.40749 0.0771,0.47357 0.93612,-0.0771 v 4.9229 l -0.93612,0.13216 0.0661,0.47357 h 1.54185 z m -2.34581,-8.6674 0.0771,0.7489 0.36343,0.0881 0.95815,-0.0881 0.14318,-0.63877 -0.0661,-0.75991 -0.37445,-0.0661 -0.96917,0.0661 z m 5.92511,8.65639 0.0661,-0.47357 L 270,131.1674 v -3.94273 l 0.40749,-0.26432 a 2.7092511,2.7092511 0 0 1 1.39868,-0.60572 c 0.57268,0 0.89207,0.31938 0.89207,1.01321 v 3.85463 l -0.68282,0.13216 0.0771,0.47356 h 1.28855 1.55286 l 0.0661,-0.47356 -1.02423,-0.13216 v -3.75551 c 0,-1.60793 -0.27533,-2.20264 -2.0044,-2.20264 l -1.9934,1.31057 -0.0661,-1.10132 h -0.5837 l -1.60793,0.40749 0.0661,0.47357 0.94714,-0.0771 v 4.92291 l -0.94714,0.13216 0.0771,0.47357 h 1.54185 z"
     style="stroke-width:1.10132" />
  <metadata
     id="metadata243">
    <rdf:RDF>
      <cc:Work
         rdf:about="">
        <dc:title>Texas_</dc:title>
      </cc:Work>
    </rdf:RDF>
  </metadata>
  <rect
     style="fill:none;fill-opacity:1;stroke:#bf5700;stroke-width:1.97695;stroke-linecap:round;stroke-linejoin:round;stroke-miterlimit:4;stroke-dasharray:none;stroke-opacity:1"
     id="rect304"
     width="263.02307"
     height="83.023048"
     x="17.739937"
     y="57.739933" />
</svg>
