<?xml version="1.0" encoding="UTF-8"?>
<svg data-name="Layer 1" version="1.1" viewBox="0 0 300 200" xmlns="http://www.w3.org/2000/svg">
	<defs>
		<style>.cls-1{fill:#bf5700;}</style>
	</defs>
	<title>utStamp</title>
	<path d="m19.676 55.277c-0.11066 0.24428-0.10779 0.32128-0.32617 0.79102-0.26079 0.56097-0.56826 1.1019-0.80664 1.6719h4.0859c-0.29296-0.1638-0.5386-0.35194-0.51172-0.69336 0.099312-0.040865 0.19298-0.095575 0.29297-0.13477 0.31046-0.12168 0.62676-0.25269 0.95898-0.28125 0.08993-0.0077 0.23938 0.099876 0.20117 0.18164-0.16306 0.34892-0.44793 0.62569-0.68945 0.92773h2.2852c0.33818-0.4649 0.668-0.93626 1.002-1.4043 0.14462-0.3557 0.33576-0.69971 0.4668-1.0586h-2.7734c-0.036894 0.017438-0.074332 0.033599-0.11133 0.050781-0.30839 0.14322-0.52617 0.25287-0.78906 0.37695 0.014284-0.01764 0.02896-0.034908 0.042968-0.052734 0.11556-0.12499 0.2308-0.2494 0.3457-0.375h-3.6738zm11.402 0c-0.13431 0.82016-0.25764 1.6416-0.38477 2.4629h2.8809c0.12224-0.82084 0.22762-1.6438 0.36133-2.4629h-2.8574zm3.3418 0c0.001707 0.64212 0.014664 2.2787 0.011719 2.4629h3.0469c-0.013284-0.65229-0.045104-2.2555-0.044922-2.4629h-3.0137zm7.8203 0c-0.43832 0.22702-0.87412 0.47501-1.3203 0.63281-0.22673 0.25054-0.46206 0.49235-0.68945 0.74219-0.21155 0.075564-0.42223 0.17187-0.63477 0.22461-0.23362 0.1017-1.3157 0.57213-1.9844 0.86328h8.4766c0.32487-0.54986 0.65352-1.0975 0.97656-1.6484 0.068759-0.11727 0.14364-0.23157 0.21484-0.34766 1.3312 0.29098 2.2269 0.47838 3.5195 0.72461-0.47296 0.38297-0.8977 0.82125-1.3105 1.2715h2.1172c0.10613-0.20614 0.22184-0.41036 0.30078-0.62109 0.13182-0.12063 0.25805-0.24858 0.38672-0.37305 1.2468 0.22766 2.9653 0.55406 3.3828 0.62695 0.7562 0.13202 1.516 0.24265 2.2734 0.36719h16.469c-0.3159-0.19856-0.73216-0.4133-1.3672-0.70508-1.6956-0.77909-3.5225-1.2415-5.3223-1.7344-0.031676-0.008674-0.06402-0.014791-0.095704-0.023437h-25.393zm40.273 0c0.046542 0.090398 0.087752 0.18984 0.13867 0.27344-1.0245 0.29381-2.0233 0.58433-3.5527 1.1055-0.3936 0.13412 0.819 0.14467 1.2285 0.2168l4.3145 0.38672c-0.23939 0.16226-0.50425 0.31842-0.70703 0.48047h0.82422c0.18242-0.11566 0.35692-0.2447 0.55078-0.3418 0.23593 0.052878 0.48971 0.073225 0.73828 0.10352-0.255 0.03001-0.54528 0.11472-0.85938 0.23828h1.709c-0.12366-0.071328-0.25174-0.13025-0.38477-0.17188 0.64437 0.046383 1.3221 0.004484 1.998-0.02539 1.2709 0.090512 1.6165 0.10428 3.0508 0.19726h20.762c0.62619-0.87804 1.178-0.98419 1.6406-0.67578-0.05861 0.18512-0.09882 0.41051-0.12109 0.67578h17.701c0.19631-0.047097 0.50407-0.14389 0.71289-0.19726 0.2285 0.050387 0.45869 0.092 0.6875 0.14062 0.17294-0.10695 0.24892-0.22891 0.19336-0.38477 0.31967-0.086961 0.6535-0.17811 1.0059-0.2793 1.7595 0.22976 3.3944 0.41901 4.1836 0.57812 0.09293 0.018731 0.16744 0.085963 0.2461 0.14258h2.8125c-0.00651-0.099303-0.03997-0.19704-0.02539-0.29688 0.00835-0.057183 0.0492-0.08901 0.06445-0.14062 0.07969 0.144 0.15216 0.33778 0.23828 0.4375h1.6035c0.33799-0.28358 0.63435-0.66033 0.84961-1.0781 0.84454-0.29329 1.6541-0.74097 2.4141-1.3848h-31.418c0.01796 0.001693 0.04059 0.004159 0.0586 0.005859-0.64983 0.17939-1.2948 0.37239-1.9414 0.56055 0.46637 0.081123 0.91664 0.2812 1.3672 0.48438-0.05846 0.014492-0.11263 0.039935-0.16602 0.068359-1.1906-0.010446-1.8554-0.011395-2.9473-0.015625-0.14609 0.048959-0.28633 0.11303-0.43165 0.16406 0.01807-0.056448 0.0051-0.11521 0.05274-0.16602-1.3439-0.003834-2.9233-0.036426-3.7188-0.019531-0.8965 0.01904-1.7892 0.12742-2.6836 0.19141 0.00166 0.046085-0.02334 0.10967-0.02539 0.1582-0.67385-0.098177-2.4537-0.2841-3.3242-0.38867 0.38975-0.17754 0.80111-0.30967 1.1777-0.50976 0.24425-0.12976-0.11215-0.35375-0.48437-0.5332h-19.533zm28.592 1.1016c0.13693 3.91e-4 0.23853 0.00141 0.37891 0.001953 0.57664-0.19325 1.1609-0.36682 1.7461-0.53711-0.14225-0.024743-0.28315-0.053239-0.42969-0.044922-0.49384 0.02803-1.3783 0.242-1.6953 0.58008zm21.84 1.3047c-0.04472 0.02766-0.06856 0.033336-0.11523 0.05664h0.38867c-0.09114-0.018883-0.18239-0.037291-0.27344-0.05664zm34.037-2.4062c0.58122 0.020939 1.1602 0.057848 1.7422 0.074218-0.28465 0.068194-0.5567 0.15264-0.80078 0.2793-1.0238 0.03519-2.0776 0.042717-3.0234 0.091797-1.2145 0.06302-2.4277 0.17261-3.6406 0.25977-0.93368 0.65384-2.1566 1.0539-3.0332 1.7578h7.6758c-0.2391-0.032779-0.46808-0.072497-0.70507-0.10742 0.76604-0.03743 1.5319-0.042023 2.2988-0.064453 0.09201 0.073518 0.19662 0.12678 0.30664 0.17188h2.9375c0.18601-0.007279 0.38498-0.033917 0.55469-0.015625 0.04947 0.005332 0.09897 0.010302 0.14844 0.015625h17.74c-0.01847-0.10462-0.06976-0.18659-0.13867-0.23047 1.3799-0.042381 2.7595-0.063952 4.1406-0.066407 0.93883 0.098645 1.7829 0.19661 2.6855 0.29688h51.162c-1.8528-0.21796-3.7049-0.44753-5.5566-0.67383-4.8427-0.59181-9.6857-1.1828-14.527-1.7891h-23.121c0.12535 0.14606 0.31394 0.23093 0.51368 0.30469-1.142-0.04874-2.2837-0.10843-3.4258-0.1543-0.03431-0.049236-0.06826-0.099461-0.10157-0.15039h-33.832zm82.531 0c2.5724 0.9277 5.4634 0.48028 8.1934 0.72656 1.9404 0.17505 3.8817 0.34735 5.8223 0.51953 0.99998 0.1244 1.7697 0.21126 2.9453 0.35937-4.3534 0.30853-8.7067 0.60494-13.064 0.85742h19.668c0.2201-0.089649 0.4585-0.1696 0.63477-0.27734 0.97543 0.088099 1.917 0.18603 2.9141 0.27734h4.1367v48.986c0.01626 0.01232 0.03283 0.02305 0.04883 0.03516-0.01693 0.01327-0.03194 0.0277-0.04883 0.04101v4.791c0.4677 0.05803 0.92877 0.0783 1.3555-0.08984 0.30563-0.12044 0.58538-0.28729 0.85352-0.47461v-1.9629c-0.71568-0.06539-1.4351-0.10215-2.1524-0.14844 0.17506-0.35168 0.34093-0.70803 0.58203-1.0176 0.11388-0.1462 0.28025-0.28808 0.41016-0.43359 0.31927 0.17724 0.70688 0.29245 1.1602 0.3789v-3.7949c-0.12276-0.16176-0.24507-0.32256-0.3711-0.48242 0.12304 0.02823 0.24787 0.0644 0.3711 0.0957v-6.916c-0.0061-0.001551-0.01151-0.004258-0.01758-0.005859 0.00616-0.005132 0.0114-0.01248 0.01758-0.017579v-1.1387c-0.28659 0.17187-0.55378 0.3625-0.83204 0.54492-0.7252-1.0557-0.55165-2.9005-0.46679-3.8301 0.21617-2.3678 0.58451-3.1379 1.0137-5.3926 0.11111-0.58371 0.17309-1.1739 0.25977-1.7617-0.0314-0.37934-0.00545-0.76835-0.09375-1.1387-5e-3 -0.54878-0.62246-0.80589-0.74805-1.2852-0.36333-1.3866-0.50429-3.9544-0.58594-5.7891 0.66775-0.18946 1.2487-0.37083 1.4531-0.51758v-0.36328c-0.20785-0.1723-0.82167-0.28022-1.5156-0.38281-0.00393-0.098255-0.01835-0.37339-0.02148-0.44531-0.07811-1.7912-0.11349-3.5847-0.16211-5.377 0.56817-0.054463 1.1633-0.20289 1.6699-0.33008 0.01769-0.00444 0.01578-0.023671 0.0293-0.03125v-0.65234c-0.02039-0.080299-0.05231-0.16856-0.05274-0.23438-0.00221-0.34112 5.5e-4 -0.68231 0-1.0234 0.02534-0.071882 0.03624-0.14694 0.05274-0.2207v-7.1934c-0.03123-0.015862-0.06244-0.031313-0.09375-0.046875-0.00489-0.59354-0.02905-1.1779-0.03711-1.7812 0.04455 0.004332 0.08634 0.007384 0.13086 0.011719v-2.0098c-0.05863-0.005465-0.11716-0.012116-0.17578-0.017579-0.00995-0.34971-0.00754-0.69668-0.02149-1.041h-6.0566c-0.03991 0.16253-0.07126 0.30767-0.10547 0.44726-0.85704-0.080001-1.7133-0.16728-2.5703-0.24805-0.08908-0.080562-0.19552-0.14129-0.30469-0.19922h-24.225zm-130.08 0.43164c1.8648 0.19329 3.4821 0.39733 5.3066 0.62305-0.83274 0.046734-1.6662 0.10675-2.4961 0.10547-0.81752-0.001246-2.9972-0.007392-4.7461-0.025391 0.64586-0.19376 1.2721-0.37896 1.9356-0.70312zm59.379 0.33398c0.43408 0.037964 0.87248 0.077757 1.3184 0.11719-0.20684 0.036303-0.42124 0.030193-0.625 0.083985-0.05083 0.013419-0.09778 0.038769-0.14843 0.052734-0.27349-0.03199-0.54679-0.064058-0.82032-0.095703 0.09523-0.047156 0.1809-0.10985 0.27539-0.1582zm-144.43 0.31836c-0.008944-0.48836 0.024514 1.6976 0.019532 1.3789h0.021484c-0.011404-0.10416-0.025884-0.55271-0.041016-1.3789zm9.918 0.26953c-0.04708 0.087156-0.087425 0.15948-0.13086 0.24024-0.030282-0.061054-0.052137-0.12366-0.089844-0.18164 0.0801-0.018499 0.13554-0.042964 0.2207-0.058594zm-26.561 1.627c-0.22747 0.11588-0.46312 0.22196-1.8301 0.91797-0.29122 0.14828-0.58922 0.29752-0.88281 0.44922v0.8418c0.033525-0.019636 0.035175-0.034654 2.0723-1.0449 0.21664-0.095891 0.42606-0.21119 0.64062-0.3125v-0.85156zm0 4.6445c-0.15514 0.12262-0.30413 0.24802-0.45703 0.37305-0.84686 0.38862-1.6129 0.81052-2.2559 1.2188v1.0957c0.045625-0.011544 0.09106-0.023728 0.13672-0.035156-0.044004 0.057433-0.091893 0.10559-0.13672 0.16016v4.1348c0.14377-0.23975 0.31213-0.47007 0.45312-0.71094 0.73917-0.88267 1.5046-1.7414 2.2598-2.6094v-3.627zm28.625 2.0977a200.01 200.01 0 0 0-4.0664 0.28711c0.14131-0.015375 0.27592 0.025816 0.4082 0.09375-0.069203 0.14585-0.12248 0.29145-0.17773 0.43945-0.36156 0.28154-0.57158 0.7367-0.73633 1.2461 1.5496-0.065357 3.104-0.11719 4.584-0.11719 1.4012 0 2.8734 0.053398 4.3398 0.11523-0.033072-0.068075-0.047544-0.1413-0.082031-0.20898-0.00109-0.002138-0.002817-0.003723-0.003907-0.00586 0.75231-0.014467 1.5096-0.019233 2.2383-0.015625 0.039372 0.023595 0.079955 0.049162 0.11914 0.072266-0.38222 0.023644-0.74231 0.11136-1.0977 0.20312 5.0933 0.25853 10.051 0.76732 12.729 1.0371 0.43362-0.18324 0.8588-0.38188 1.2871-0.57422-0.28861 0.23036-0.60566 0.42781-0.88281 0.66797-0.089184 0.077281-0.15868 0.17326-0.24219 0.25586l0.26562 3.707c0.58078 0.019208 1.1676-0.016207 1.7383-0.10938 0.33501-0.054694 0.65078-0.14862 0.96875-0.23633v-1.6973c-0.18458-0.007255-0.38321 0.014067-0.55469-0.017578-0.3425-0.063204-0.65339-0.2215-0.96094-0.39062 0.51856-0.66052 1.0226-1.3287 1.5156-2.0039v-1.1953h-0.023437l-0.85742-0.10938a200.08 200.08 0 0 0-20.508-1.4434zm-4.1289 0.29102a200.01 200.01 0 0 0-0.47852 0.033203c-0.067506 0.029197-0.15902 0.071241-0.22852 0.10156 0.01416-0.023714 0.038935-0.066692 0.052734-0.089843a200.01 200.01 0 0 0-3.3809 0.23828c-0.081978 0.15148-0.1694 0.30001-0.25195 0.45117-0.017791-0.14325-0.034677-0.28372-0.050781-0.42969a200.01 200.01 0 0 0-9.5488 0.67188c0.020076 0.088839 0.035454 0.1786 0.054688 0.26758-0.17653 0.23032-0.35804 0.45737-0.46875 0.73242-0.042821 0.10639-0.040854 0.22178-0.074219 0.33008-0.43861 0.26199-0.84121 0.67409-1.5371 1.4453-0.59656 0.3716-1.2902 0.74834-0.96875 1.0703-0.11756 0.13273-0.23713 0.26445-0.35547 0.39648v0.26953c0.42964-0.21324 0.50513-0.25493 0.81641-0.4043 0.63987 0.23908 1.263-0.051038 1.8164-0.51758 0.001577 0.027636-0.001738 0.054362 0 0.082031-0.87073 0.8895-1.7579 1.763-2.6328 2.6484v9.7793 2.2031c0 1.4914 0.055377 3.1061 0.16211 4.7539 0.74427 0.032777 1.4877-1.1745 1.7246-1.5605 0.043859-0.071458 0.087053-0.14335 0.13086-0.21484 0.03709-0.00264 0.074241-0.001051 0.11133-0.003906-0.036875-0.98306-0.10156-2.0035-0.10156-2.9199l19.404-1.1016 19.406 1.1016c0 2.1974-0.09583 4.6218-0.39844 7.1367 0.017903-0.005105 0.036823-0.004441 0.054688-0.009766 0.035237-0.010504 0.066637-0.029777 0.10156-0.041015 0.11034 0.049275 0.21984 0.095815 0.33008 0.14648-0.16622-4.01e-4 -0.33241-0.003029-0.49609-0.003906-0.006994 0.057137-0.010353 0.11269-0.017579 0.16992 0.17861 0.027229 0.3729 0.05673 0.55274 0.083984-0.14914 0.044214-0.28365 0.077521-0.42969 0.11914 0.42434 0.030046 1.033 0.08692 1.4941 0.12109 0.089759 0.04166 0.17981 0.078221 0.26953 0.11914 0.28655-2.2347 0.3684-4.3386 0.40234-6.3555-0.074517 0.048758-0.15021 0.095559-0.22461 0.14453-0.22821 0.002408-0.45923 0.005287-0.6875 0.007813 0.027336-0.018161 0.079136-0.050723 0.10547-0.06836 0.24299-0.080477 0.50027-0.16532 0.8125-0.27734 0.006327-0.4372 0.046875-0.92525 0.046875-1.3477v-0.25391-6.9531c-0.8254-0.10283-1.4939-0.1959-2.3613-0.30469l0.37891 5.3086h-13.488c0.22805 0.18412 0.47744 0.34743 0.7793 0.46094 0.71973 0.27065 1.4108 0.045079 2.0977-0.28711-0.019866 0.2526 0.013621 0.46684 0.25 0.5293 0.20799 0.054955 0.35364 0.019352 0.54102 0.044922-0.091977 0.079572-0.39948 0.32406-0.29297 0.25195 0.12527-0.084804 0.26108-0.16125 0.39062-0.24219 0.69565 0.077809 1.2836-0.001581 1.7637-0.23828 0.009241 0.40566 0.024488 0.81113 0.033203 1.2168-1.6578-0.10223-3.3551-0.049795-4.9941-0.22852-0.008852-9.65e-4 -0.01069-9.89e-4 -0.019531-0.001953-0.13341-0.032789-0.26699-0.064843-0.40039-0.097656-0.33198-0.081658-0.66564-0.15818-0.99805-0.23828 0.11641-0.060338 0.24244-0.10081 0.35742-0.16406 0.29876-0.16434 0.7448-0.61956 0.52344-0.87891-0.046093-0.054002-0.10992-0.083683-0.16406-0.12695h-25.156l1.002-14.162v-0.044922c1.1651-0.13143 3.2836-0.31471 5.1797-0.48828 0.50406-0.3723 1.0031-0.75147 1.5078-1.123 0.025433 0.33391 0.071816 0.64204 0.10547 0.9707 1.8673-0.15552 3.6615-0.29098 5.7266-0.39648 0.3311-0.55239 0.67371-1.129 0.92969-1.5566 0.26449-0.11725 0.53478-0.2267 0.79102-0.27539zm23.299 26.936c-0.041048-0.002906-0.10386-0.008854-0.14453-0.011718-0.002327 0.01781-0.003509 0.034915-0.005859 0.052734 0.050619-0.014183 0.099337-0.026466 0.15039-0.041016zm-38.693-25.852a200.01 200.01 0 0 0-0.98242 0.068359l-0.85938 0.10938v0.64258c0.6129-0.27667 1.2202-0.54021 1.8418-0.82031zm234.13 0.83789c-0.90044 0.18797-1.7555 0.41552-2.5996 0.65039-0.04554 0.19366-0.11918 0.51311-0.17383 0.76367-0.54481-0.077027-0.96941-0.1452-1.5254-0.22266 7.7e-4 -0.002745 0.00118-0.005063 0.00196-0.007813-1.3626 0.45665-2.634 0.9777-3.7852 1.5781 0.07132 0.010094 0.13182 0.021132 0.20312 0.03125-0.03935 0.40006-0.06895 0.80103-0.10742 1.2012-0.43531 0.20099 0.16575-0.076461-0.30859 0.14258-2.1736 0.96676-2.8087 1.2168-4.0742 1.7812-0.3913 0.42235-0.71496 0.87993-1.0273 1.3438 0.94032-0.42057 1.3865-0.60255 2.6055-1.1465 0.90971-0.41918 1.8188-0.83864 2.7285-1.2578-0.08116 0.85761-0.15057 1.7163-0.22852 2.5742 0.82073-1.926 2.5416-3.2372 4.9473-3.7676 0.00649-0.055258 0.01129-0.11074 0.01758-0.16602 0.01968 0.003034 0.03893 0.004777 0.05859 0.007812-0.01221 0.04936-0.02301 0.099059-0.03515 0.14844 0.74604-0.16106 1.5347-0.27344 2.4102-0.27344a9.3943 9.3943 0 0 1 7.3867 3.0488c0.01638-0.37175 0.03286-0.74347 0.04883-1.1152 0.29841 0.065964 0.59762 0.12778 0.89648 0.19141 5.295-1.3127 1.05 2.0752 0.88086 1.5156-0.14057-0.46502 1.1717-0.75141 0.89453-1.1504-0.27078-0.38979-0.97764 0.21053-1.3144 0.54492-0.28851 0.28645-0.68525 0.60656-1.0527 0.92383l0.15039 0.46875c1.5427-0.66749 3.1182-1.2724 4.5781-2.0996v-2.041a20.286 20.286 0 0 0-1.5938-0.78711c0.11843 0.24195 0.23141 0.52306 0.34961 0.7207-0.03576-0.013595-0.07858-0.018269-0.11328-0.033203-1.1893-0.2248-2.3797-0.44502-3.5684-0.67383 0.00761-0.19144 0.01795-0.38278 0.02539-0.57422-0.00775-0.27427 0.09393-0.6421 0.17188-0.98828a20.286 20.286 0 0 0-3.5684-0.82031c-0.16009 0.22564-0.26801 0.4845-0.37891 0.75-0.23334 0.28738-0.4776 0.56506-0.68164 0.87891-0.0895-0.013783-0.20786-0.029064-0.29883-0.042969-0.17685-0.5152-0.2994-1.1419-0.34375-1.7324 0.06315-0.029939 0.1263-0.059923 0.18946-0.089844a20.286 20.286 0 0 0-1.7656-0.27539zm-195.78 0.10938c0.093221 0.005477 0.20842 0.012049 0.30274 0.017578-0.2166 0.37736-0.58661 0.73684-0.55078 0.47461 0.025271-0.18499 0.13399-0.33999 0.24805-0.49219zm157.24 0.375-3.7988 1.1016-0.76368 1.9922c0.06662 0.037315 0.13206 0.090603 0.20118 0.10156-0.07548-0.010086-0.15109-0.019175-0.22657-0.029297l-5.6035 14.639c0.65167 0.090745 1.3065 0.15912 1.957 0.25781-0.53234 0.24922-1.0607 0.5072-1.5879 0.76758-0.25601 0.007174-0.51166 0.008301-0.76758 0.013672l-6.8789 17.971c0.01302-7.6e-4 0.02605-0.0012 0.03907-0.00195 0.0767 0.00567 0.15601 0.00299 0.23242 0.00976-0.10262 0.02942-0.20741 0.05775-0.30664 0.08789l-1.9356 5.0547c0.03307-0.01656 0.0645-0.02612 0.09766-0.04297 1.1491 0.08936 2.298 0.18223 3.4473 0.26953-1.5994 0.0491-2.9303 0.11773-4.459 0.17969 0.16278-0.07004 0.32557-0.14169 0.49023-0.21875l-2.6797 0.35937-3.0293-0.47265-1.7441-2.5703c-0.28432-0.02128-0.41011-0.02951-0.69336-0.05079 0.54421 0.5464 1.0712 1.0858 1.623 1.6738-1.7113-0.17179-3.4396-0.24354-5.1699-0.31054 0.66944-0.14281 0.99736-0.23976 1.9785-0.42579-0.89273-0.09682-1.0186-0.11081-1.7695-0.1914-0.04821-0.14209-0.15449-0.28366-0.41797-0.42383-0.11011-0.05858-0.23767-0.07374-0.35156-0.12305 0.01113-0.16064 0.02514-0.31043 0.04297-0.45117 0.18356-0.0019 0.36722-0.0036 0.55078-0.00586-0.20938-0.01595-0.34114-0.02336-0.54688-0.03906 0.02756-0.20695 0.05211-0.42288 0.09375-0.58789 1.208 0.18174 2.4133 0.38157 3.6211 0.56445 0.01771 0.01712 0.03303 0.0257 0.05079 0.04297 0.07761-5e-5 0.13991-0.00154 0.21875-0.00195 0.20392 0.03092 0.40742 0.06467 0.61132 0.0957l-2.4043-3.543c-0.75937 0.0394-0.46285 0.02745-1.4727 0.08008-0.36493 0.02029-0.74921 0.02639-1.1211 0.03906-0.02803 0.15898-0.05052 0.16928-0.06641 0.00196-0.02789 9.2e-4 -0.05606 3e-3 -0.08398 0.0039 0.02296-0.00881 0.05696-0.02815 0.08007-0.03711-0.01135-0.10172-0.05976-0.19666-0.09765-0.33008 0.07471 0.0183 0.14979 0.03496 0.22461 0.05274-0.03189 0.17216-0.03022 0.15708-0.04492 0.24219 0.58038-0.22695 1.305-0.56972 2.0098-0.89649l-1.2539-1.8476c-0.39057-0.08403-0.77799-0.18338-1.1719-0.25-0.92881-0.15711-2.0283-0.28779-3.0684-0.42969 0.62922-0.02859 1.2484-0.078111 1.8672-0.13672 0.59826-0.012639 1.1967-0.020456 1.7949-0.035156l-1.248-1.8398c-1.31 0.028536-2.6194 0.087006-3.9297 0.10156 0.06463-0.069604 0.12438-0.14222 0.18164-0.2168 0.27941-0.04357 0.55916-0.089387 0.81836-0.082031 1.3593 0.038577 1.9691 0.074725 2.8711 0.10938l-6.0234-8.877 2.3945-3.3008c-1.7011-0.070207-2.3645-0.091156-3.9668-0.1543 0.25384-0.11324 0.50298-0.24213 0.75976-0.3457-0.17972-0.089931-0.35363-0.19293-0.52929-0.29297l-0.77344 1.1328-1.1543-1.9121c-0.77308-0.21872-1.9116-0.46058-2.9844-0.70117 0.85086-0.006094 1.7019-0.011184 2.5527-0.015625l-1.7188-2.8496c-0.07334 0.001611-0.13734 2.39e-4 -0.21094 0.001954-0.7892 0.018379-1.5779 0.06217-2.3672 0.082031-1.1245-0.6442-0.92938-0.35648-4.8555-0.83594-0.28205-0.034443-0.56543-0.056977-0.84766-0.089843l7.3906 11.188-3.9434 5.4199c0.13479-0.026573 0.34447-0.065586 0.48828-0.09375 0.03123 0.11155 0.07411 0.2246 0.08593 0.33203-0.00603 0.088861-0.01009 0.14458-0.01562 0.23047-0.20065-0.13662-0.4061-0.26217-0.60547-0.40234l-0.47851 0.6582c0.36043-0.028092 0.71057-0.060536 1.0723-0.087891-1.3e-4 0.002123 1.3e-4 0.003738 0 0.00586-0.16103 0.21186-0.24722 0.48364-0.33203 0.76758-0.07863 0.0824-0.1532 0.18269-0.22266 0.27148-0.18093 0.001271-0.35977 9.65e-4 -0.54101 0.001953 0.1719 0.012406 0.34372 0.024646 0.51562 0.03711-0.00998 0.013092-0.01752 0.029732-0.02734 0.042968-0.34182-0.001801-0.68358 0.001859-1.0254 0-0.04915-0.04252-0.08572-0.044467-0.13281-0.080078-0.00197 7e-6 -0.0039-7e-6 -0.00586 0l-8.3496 11.48c2.7088 0.62653 5.4255 1.2086 8.1777 1.584 0.57832 0.07887 1.1754 0.04376 1.7734-0.00585l0.0957-0.67969-5.1875-0.75977 10.783-15.783 5.0644 8.0996c1.0372 0.14439 2.1435 0.27393 3.0527 0.4375 0.00389 7e-4 0.00783 0.00125 0.01172 0.00195-0.86148 0.09316-1.7233 0.20603-2.5859 0.32617l2.0059 3.209c0.33809-0.04593 0.67522-0.11002 1.0137-0.14063 0.02365-4e-4 0.0447-0.00155 0.06835-0.00195 0.24548-0.0029-0.11514 0.06326-1.0586 0.17969l0.04883 0.07812c0.62111-0.08003 1.4088-0.2039 1.7363-0.20312 0.1581 0.0229 0.3292 0.04741 0.48633 0.07031 0.01762 0.08479-0.42431 0.30062-0.90821 0.5293-0.38294 0.04062-0.78405-0.04741-1.1914-0.19922l2.0898 3.3418-3.1211 0.47266c0.15275 0.01789 0.17003 0.02078 0.32617 0.03906 0.50589 0.05925 0.93539 0.14032 1.4199 0.20899-0.44709 0.46888-0.96941 1.0151-0.48242 1.6543 0.04217 0.05536 0.12528 0.10434 0.17773 0.15821-0.24017 0.08876-0.29423 0.08254-0.58398 0.19336-0.2941 0.11248-0.48621 0.21386-0.75 0.32422l7.0117-0.14454 7.3906 0.1543 5.209-0.1543 6.2188 0.09961c-2.8499-0.15244-5.6999-0.31187-8.5508-0.44336-2.1218-0.09786-2.3779-0.13182-3.2969-0.19726 4.2304-0.22379 8.8425-0.40885 12.27-0.51172 0.3847-0.01155 0.76959-0.01427 1.1543-0.02539l0.14453-1.002-5.5059-0.82618 4.1074-11.828h15.629l4.2832 11.893-5.3848 0.82617 0.11132 0.76367c0.19029-0.04387 0.43417-0.0749 0.58985-0.13086 0.2676-0.00461 0.53512-0.01312 0.80273-0.01758 0.08839 0.14744 0.20135 0.25607 0.37891 0.25196 0.34331-0.00796 0.68158-0.06641 1.0156-0.15235 0.57127 0.11302 1.147 0.20402 1.7168 0.32422-0.06439 0.35729-0.13417 0.71637-0.19531 1.0723l3.7793-0.08594c0.00558-0.06688 0.03464-0.12985 0.03711-0.19727 0.26352 0.0559 0.67105 0.14621 0.88868 0.19532l8.2969 0.1582 0.01953-0.14648c-0.43295-0.20498-0.87848-0.37462-1.3203-0.55469 0.50155-0.2139 0.98469-0.44535 1.498-0.71289l0.11132-0.78906-4.9336-0.69336-0.18945-0.48633c-1.5593 0.02002-3.1185 0.05063-4.6777 0.07226-0.02337-0.19887-0.07233-0.40138-0.08007-0.59765 0.68182-0.1574 1.2392-0.64183 1.8105-1.123 0.50662-0.80071 0.26765-0.4319 0.32617-0.52344 0.62395 0.08517 1.2476 0.17339 1.8711 0.26172l-1.5371-3.9238c-0.09885 0.07076-0.1935 0.14625-0.29102 0.21875-0.30864-0.01123-0.64063-0.02026-0.94726-0.03125 0.07846-0.80207 0.15974-1.4772 0.18359-1.8516 0.14365 0.02638 0.28799 0.04785 0.43164 0.07422l-0.9082-2.3145c-0.39177-0.041369-0.78398-0.078164-1.1758-0.11914-0.02105-0.87387-0.06538-1.7448-0.06641-2.6211 0.04865-0.02029 0.09782-0.038352 0.14648-0.058594l-3.9883-10.174c-0.20338 0.016579-0.40809 0.016526-0.61132 0.035156-0.17909 0.016417-0.40105 0.011255-0.60938 0.007813-0.43678-0.059692-0.76534-0.11668-1.1699-0.17774-0.00342-0.1055-0.00821-0.21092-0.01172-0.31641 0.71753-0.063711 1.4348-0.1243 2.1523-0.1875l-5.6055-14.299c-1.9652-0.2456-3.9295-0.49947-5.8926-0.76172 0.43029 0.053602 0.85124-0.36809 1.1309-0.85938 1.4787-0.02512 3.1812-0.076514 4.0918-0.08789l-0.88086-2.25zm-51.086 30.354c0.2248-8.23e-4 0.44549 0.001224 0.66992 0-0.213-0.015371-0.42568-0.033391-0.63867-0.048828l-0.03516 0.046875c0.00132 9.94e-4 0.00258 9.54e-4 0.00391 0.001953zm18.625 5.3906c-0.02354 0.0092-0.05866 0.0261-0.08204 0.03515 0.00193 0.01725 0.00243 0.01759 0.00391 0.03321 0.02205-7.4e-4 0.04438-0.00121 0.06641-0.00196 0.0031-0.01757 0.00769-0.04311 0.01172-0.0664zm4.1562 3.3965c-0.60632 4e-4 -1.2172-0.00619-1.709 0.00391-0.50309 0.01031-1.0066 0.00942-1.5098 0.01562 1.3454 0.1025 2.0782 0.15001 3.5137 0.25781-0.10181-0.10221-0.19442-0.17956-0.29492-0.27734zm-35.33-38.611-0.31836 2.2031 4.9336 0.69336 5.3613 8.1172c2.2438 0.13235 4.4877 0.26417 6.7324 0.38086 2.0124 0.10461-0.25018-0.015777 1.3398 0.066406l-5.0859-8.4316 5.375-0.82617-0.3086-2.2031-8.9863 0.25391-9.043-0.25391zm-79.438 0.054688v10.066c0.50058 0.28628 1.0963 0.48135 1.6797 0.46289-0.16511 0.14365-0.3224 0.28796-0.39648 0.4668-0.19112 0.00656-0.29259 0.002797-0.51367 0.007812-0.076939-0.14588-0.16239-0.2854-0.29102-0.39453-0.14001-0.11879-0.32568-0.22-0.47852-0.33398v0.92578h2.4668l1.1133-3.0605c-0.2761-0.027802-0.54266-0.079837-0.7793-0.22266-0.57014-0.34411-0.89976-0.98184-1.1816-1.6055 0.43184-0.28488 0.88491-0.58329 1.334-0.88477-0.04244 0.074593-0.082029 0.14993-0.058594 0.24609 0.11754 0.48233 1.063-0.040008 1.4688 0.24609 0.006393 0.004508 0.009291 0.01299 0.015625 0.017578l0.83789-2.3008c-1.3474 0.53182-2.5963 1.3016-3.8711 2.0078-0.6444-1.6862-0.60575-3.1392-0.63867-4.9082 0.68995 0.13812 1.3927 0.28945 2.0703 0.42969 0.68608-0.14563 1.3812-0.25864 2.0742-0.37891-0.10972 0.041825-0.20965 0.065848-0.32031 0.10938-0.864 0.33984 1.7313 0.69953 2.6426 0.87695 1.2775 0.24871 4.197 0.68052 6.4004 1.0352-0.13166 0.085771-0.29371 0.19637-0.42578 0.2832l1.3535-0.013672c0.048217-0.031851 0.096332-0.063827 0.14453-0.095703 2.0939 0.3322 3.5186 0.5921 5.8262 0.94141-7.84e-4 0.007167-0.007494 0.082245-0.007812 0.085938 0.006532 0.54317-0.037579 1.4061 0.023437 2.2539-0.73165 0.003795-1.4635 0.011898-2.1934 0.080078-1.1653 0.10886-2.2997 0.3874-3.4277 0.70703v7.3398c2.1343 0.50302 4.397 0.56593 6.6406 0.67969v-4.0508c-0.55859-0.04309-1.2059-0.080264-1.7305-0.11914 0.24935-0.005258 0.4987-0.010295 0.74805-0.015625 0.10156-0.003487 0.20312-0.006358 0.30469-0.009766 0.35608 0.052893 0.27091 0.031191 0.67773 0.09375v-2.1934c-0.39006-0.047759-0.98581-0.13407-1.3047-0.16992 0.41492-0.001659 0.82872 0.011593 1.2441 0.003906 0.02054 0.014728 0.03962 0.033341 0.06055 0.046875v-5.582l9.4941 0.13086 2.6172 7.2246c0.89262-0.03005 1.7424-0.061105 2.7578-0.10742v-3.2305c-0.36847-0.018464-0.73701-0.03195-1.1055-0.050781 0.22146-0.00393 0.80737-0.005677 1.1055-0.009766v-7.0312l-18.227 0.19922-18.15-0.19922zm40.275 0.011719-0.32031 2.2031 5.6953 0.81445v12.309c0.69897 0.012683 1.4839 0.043569 2.2324 0.058593-0.22396-0.17895-0.44095-0.31754-0.66797-0.51562 1.736 0.095099 2.5312 0.13379 4.0762 0.21875-0.34332 0.12212-0.38499 0.17425-0.78906 0.31055 0.11979 0.020916 0.23957 0.041653 0.35938 0.0625 0.48235 0.010743 0.86252 0.023769 1.3535 0.035156-0.03618 0.062416-0.07221 0.12472-0.10937 0.18164 0.03977 0.006856 0.07937 0.014633 0.11914 0.021485v-12.727l16.773 0.1875 2.1523 4.9922c1.1402 0.027415 2.2798 0.071345 3.4199 0.10156l-0.46289-8.2539-25.109 0.19726-8.7227-0.19726zm11.83 15.678c-0.41489-0.071522-0.82937-0.14462-1.2441-0.2168-1.0615-0.02364-1.9799-0.056127-2.9785-0.076172 0.56332 0.45011 1.1194 0.85553 1.6445 1.082 0.52351 0.034365 1.1227 0.067799 1.666 0.10352 0.33055-0.14985 0.63147-0.46277 0.91211-0.89258zm-0.91211 0.89258c-0.20285 0.091955-0.41248 0.14805-0.63086 0.15234-0.0137-6.87e-4 -0.02535-0.001265-0.03906-0.001953-0.3175-5.85e-4 -0.6527-0.10578-0.9961-0.25391-0.85429-0.056079-1.9302-0.11671-2.7188-0.16797-0.38611-0.021913-0.77211-0.044032-1.1582-0.066406v2.0078c1.8287 0.068028 4.1781 0.1447 5.8535 0.20703 0.24025 0.015522 0.48046 0.031306 0.72071 0.046875v-1.8594c-0.34278-0.022519-0.69492-0.042344-1.0312-0.064453zm54.996-16.525-0.30859 2.2012 1.8535 0.27539c2.8035-0.070483 5.6074-0.08594 8.4121-0.10156 0.58486 0.10431 1.1703 0.20734 1.7559 0.30664l3.4082-0.48047-0.3086-2.2012-7.4004 0.19726-7.4121-0.19726zm-100.15 0.16992c0.14335 0.008352 0.2538 0.014999 0.39844 0.023438-0.11049 0.035435-0.22457 0.076133-0.33594 0.11328-0.020007-0.046439-0.04438-0.088559-0.0625-0.13672zm1.2188 0.072266c0.13847 0.008103 0.23552 0.013311 0.375 0.021484 0.034723 0.042238 0.081409 0.072158 0.11328 0.11719 0.24812 0.35055-0.78062 0.82182-1.1445 0.59375-0.18739-0.11744-0.31172-0.29307-0.41602-0.48633 0.36211-0.064804 0.71222-0.17376 1.0723-0.24609zm73.52 0.76172c0.85041 0.015016 1.7004 0.043326 2.5508 0.060547-0.06194 0.052908-0.12141 0.091153-0.18359 0.14648-0.38156 0.00992-0.45942 0.028127-0.6875 0.00586-0.56175-0.054847-1.1194-0.14497-1.6797-0.21289zm-142.4 0.066406c-0.21142 0.087969-0.42113 0.18024-0.63281 0.26758-0.64468 0.26598-1.2694 0.59981-1.9453 0.77148-0.037364 0.009489-0.087015-0.010342-0.13476-0.021485v2.666c0.014518-0.024818 0.035858-0.062765 0.048828-0.085938 0.46039-0.55647 0.65473-1.0536 0.4668-1.625 0.92283-0.38536 1.8526-0.80254 2.1973-0.95117v-1.0215zm26.312 0.15039a23.711 23.711 0 0 0-3.2148 0.32031 26.112 26.112 0 0 1-3.8555 0.375h-0.61719v2.4766h-0.90234v1.4766h0.90234v1.9941h-0.90234v1.4746h0.88086v2.7422h0.61719a26.079 26.079 0 0 0 1.9141-0.19727c0.047271-0.30521 0.056742-0.61289 0.0625-0.9375 0.049527-0.002248 0.098906-0.007647 0.14844-0.009765 0.096333 0.024884 0.19318 0.04774 0.28906 0.074218-0.034019-0.027756-0.067772-0.055923-0.10156-0.083984 0.083379-0.003277 0.1666-0.010808 0.25-0.013672 0.21416-0.00549 0.4284-0.008853 0.64258-0.013672-0.048252 0.11508-0.088607 0.24226-0.13867 0.35547 0.091595 0.13179 0.13912 0.39872 0.041015 0.33203-0.046248-0.031441-0.083328-0.07509-0.12891-0.10742-0.045618 0.10028-0.091779 0.21079-0.13867 0.31055a26.079 26.079 0 0 0 1.2344-0.12695 22.357 22.357 0 0 1 2.1582-0.23242c0.09414-0.11427 0.19417-0.22238 0.28906-0.33594 0.27425 0.71898 3.4691-0.093505 5.0957-0.076172 0.22455 0.007698 0.4493 0.005865 0.67383 0.013672 0.46744 0.033802 0.93494 0.06914 1.4023 0.10352 0.051031 0.14629 0.11294 0.28489 0.16602 0.43359a22.335 22.335 0 0 1 0.875 0.09375 26.057 26.057 0 0 0 3.709 0.38086c-0.20124-0.13565-0.39561-0.35816-0.58789-0.59961 0.29614 0.022171 0.59253 0.042332 0.88867 0.064453-0.026511 0.18594-0.064061 0.37045-0.08789 0.55664a26.057 26.057 0 0 0 0.1543 0.015625h0.61524v-2.7422h0.89258v-1.4746h-0.89258v-0.30273c-0.19281-0.02741-0.51667-0.063555-0.69727-0.089844-0.26248-0.03821-0.52261-0.090705-0.78516-0.12891l0.12891 3.4727a29.328 29.328 0 0 1-3.1172-0.375l0.066406-0.011719a23.37 23.37 0 0 0-3.3047-0.33984 6.0352 6.0352 0 0 0-1.4316 0.23047l-0.16406-4.6211c-0.15451 0.05994-0.31684 0.094121-0.4707 0.15625-0.027193-0.065517 0.18388-0.17638 0.46484-0.32422l-0.017578-0.48242c-0.13141 0.001961-0.26562 0.023198-0.39648 0.021484-0.14326-0.001813-0.28643-0.007852-0.42969-0.009766 0.068547-0.37389 0.15827-0.74327 0.29492-1.0957 0.009631-0.024838 0.017792-0.034296 0.027344-0.058593 0.15428-0.005205 0.30857-0.005126 0.46289-0.009766l-0.001953-0.0625v-1.1016a4.3062 4.3062 0 0 1 1.7188-0.28711 22.676 22.676 0 0 1 3.0391 0.30859c0.96916 0.14317 1.9594 0.28744 2.9727 0.35352l0.0625 1.6973c0.2327 0.06048 0.74579 0.19922 1.0137 0.26953-0.073585-0.002855-0.71411-0.011986-1.0039-0.021484l0.039063 1.0684c0.62546-0.22674 1.2185-0.43319 2.0371-0.76172 0.014187 0.003757 0.032605 0.007939 0.046875 0.011719-0.015521 0.031439-0.037629 0.071304-0.052734 0.10156-0.032126 0.1318-0.056151 0.2664-0.087891 0.39844h0.49024v-1.4316h-0.9043v-2.5215h-0.54883a25.969 25.969 0 0 1-2.1133-0.20508c-0.3255 0.005705-0.65107 0.013386-0.97656 0.019531 0.065929-0.028496 0.14495-0.06398 0.21289-0.09375a25.969 25.969 0 0 1-0.17774-0.017578c-0.017046 0.037481-0.025656 0.076795-0.050781 0.11133-0.005206 9.9e-5 -0.010419-9.8e-5 -0.015625 0 0.007524-0.040552 0.010247-0.078829 0.011719-0.11719a25.969 25.969 0 0 1-0.74609-0.072266 23.866 23.866 0 0 0-3.2168-0.32031 5.5066 5.5066 0 0 0-2.3555 0.45312 5.5837 5.5837 0 0 0-2.3574-0.45312zm13.238 4.6484v0.044922l0.066406-0.044922h-0.066406zm-17.352 5.6094c0.032328-0.071068 0.056243-0.15304 0.087891-0.22461-0.019449-0.027983-0.026788-0.08218-0.050782-0.089844-0.19726-0.063005-0.40203-0.099197-0.60156-0.1543 0.1894 0.15453 0.36516 0.32738 0.56445 0.46875zm133.62-10.15c1.0032 0.029601 2.0067 0.042563 3.0098 0.074218-0.39931 0.089955-0.79693 0.18464-1.1973 0.27148-0.60428-0.1146-1.208-0.23209-1.8125-0.3457zm-11.203 0.017578c-0.34115 0.39122 1.2069 0.42186 1.7773 0.63867 0.3919 0.074263 1.5109 0.29408 2.1973 0.42383-1.3111-0.095295-2.6227-0.18452-3.9336-0.2832-0.73334-0.055206-1.4659-0.11998-2.1992-0.17578-0.08606-0.12355-0.16422-0.25597-0.25781-0.37109 0.70836-0.068315 1.4675-0.13863 2.416-0.23242zm-109.62 0.39258c-0.008592 0.011519-0.008176 0.025946-0.017578 0.037109 0.002637-0.011002-2.4e-4 -0.020406 0.001953-0.03125 0.0047-0.002027 0.010915-0.003826 0.015625-0.005859zm119.23 0.25781c0.43308-0.019353 0.85571 0.061317 1.2754 0.16992-0.65392 0.15118-1.3046 0.31484-1.9492 0.49414 0.11215-0.33233 0.38072-0.65096 0.67382-0.66406zm84.482 0.18945c0.09651 0.014498 0.18509 0.030391 0.28125 0.044921-0.1022 0.11331-0.20333 0.22772-0.30469 0.3418 0.00803-0.1289 0.01531-0.25782 0.02344-0.38672zm-212.38 0.19336a4.3282 4.3282 0 0 1 1.7168 0.28516v1.1016l-0.23047 6.4863a6.1123 6.1123 0 0 0-1.4102-0.1543 23.392 23.392 0 0 0-3.3027 0.3418l0.054687-0.066406a29.262 29.262 0 0 1-3.1172 0.375l0.20898-5.873c-0.1035-0.002382-0.20704-0.003455-0.31055-0.00586 0.097458-0.06899 0.21361-0.12932 0.30664-0.20117 0.003918-5.74e-4 0.0078-0.001378 0.011719-0.001953l0.058593-1.627c1.0132-0.066079 2.0035-0.21034 2.9727-0.35352a22.632 22.632 0 0 1 3.041-0.30664zm103 0.56641c0.03091 0.002109 0.06287-2.92e-4 0.09375 0.001953 0.72456 0.052696 1.4492 0.10075 2.1738 0.15234-0.61981-0.022776-1.2396-0.045399-1.8594-0.068359-0.13605-0.028675-0.27209-0.057534-0.4082-0.085938zm-102.51 0.61133a13.502 13.502 0 0 0-2.8633 0.16406h0.021484v0.99219a13.007 13.007 0 0 1 2.8418-0.17578v-0.98047zm3.5898 0v0.31836c0.21227-0.004786 0.42443-0.007662 0.63672-0.011719 0.012744 0.051479 0.026602 0.10273 0.039062 0.1543-0.14908 0.17448-0.28575 0.33534-0.47266 0.5293a11.41 11.41 0 0 1 2.1875 0.11133v-0.99219h0.042969a12.434 12.434 0 0 0-2.4336-0.10938zm-20.707 0.058594c-0.064903 0.078874-0.13217 0.15565-0.19727 0.23438-0.054657 0.030502-0.1091 0.060639-0.16406 0.091797 0.071286-0.072581 0.14359-0.14419 0.21484-0.2168 0.04869-0.036637 0.097785-0.072752 0.14648-0.10938zm23.879 0.13867v0.99219l0.48438 0.066407c0.2314 0.032474 0.47782 0.062614 0.71484 0.097656-0.052455-0.25296-0.10836-0.50485-0.16016-0.75781 0.28109 0.069955 0.99272 0.26264 1.3848 0.36328v-0.42969h-0.044922c-0.59471-0.06608-1.178-0.15604-1.7617-0.24414l-0.61719-0.087891zm-10.529 0.066406c-0.57268 0.08811-1.1553 0.17611-1.75 0.24219v0.44531c0.14246-0.022393 0.2854-0.041259 0.42773-0.064453 0.070086-0.009218 0.14082-0.012547 0.21094-0.021484-0.21258 0.073118-0.42607 0.1436-0.63867 0.2168v0.41602c0.66079-0.06608 1.2987-0.16651 1.9375-0.26562v-0.96875h-0.1875zm149.22 0.28711-1.5215 2.2305c0.22179-0.051947 0.44878-0.083474 0.66406-0.16016 0.33115 0.040807 0.66277 0.0766 0.99414 0.11523 0.0747-0.21343 0.27215-0.49527 0.44532-0.76367 0.77618-0.41051 1.5398-0.87066 2.334-1.2129-0.97167-0.07428-1.9442-0.13686-2.916-0.20898zm-172.26 0.36133c-0.12228 0.023602-0.22762 0.068606-0.26562 0.18359-0.16547 0.50072-0.14948 1.0312-0.10156 1.5664-0.39324 0.098438-0.78761 0.19208-1.1816 0.28711 0.40051-0.018268 0.802 1.03e-4 1.2031-0.001953 0.034086 0.33744 0.078543 0.67595 0.078125 1.0078 0.19371 0.030565 0.088154 0.012684 0.26758 0.041016v-3.084zm-1.5488 2.0371c-0.1736 0.007918-0.34805-0.010028-0.52148 0.001953-0.22696 0.015679-0.35764 0.11284-0.64258 0.22852v0.052734c0.38949-0.08799 0.77587-0.18958 1.1641-0.2832zm37.127-1.4863c0.1407 0.01753 0.27427 0.042466 0.41602 0.05664v-0.048828c-0.17903-0.005393-0.22478-0.002277-0.41602-0.007812zm11.822 0.17578 0.16797 2.3398c0.78635 0.18764 1.602 0.42378 2.4453 0.64648v-2.3359c-1.0027-0.24393-1.8776-0.45625-2.6133-0.65039zm153.83 0.57031c0.38772 0.05056 0.79663 0.10372 1.1816 0.1543 1.3257 0.15689 1.857 0.21125 2.9727 0.34375-0.14271 0.010651-0.3291 0.020333-0.53125 0.03125-1.1574-0.1286-2.3165-0.24653-3.4727-0.38476-0.05243-0.045659-0.10153-0.094474-0.15039-0.14453zm-170.73 0.027343v0.97852a12.269 12.269 0 0 1 2.1035 0.099609v-0.99023h0.033204a13.326 13.326 0 0 0-2.1367-0.087891zm-3.7441 0.009766a18.491 18.491 0 0 0-3.6445 0.30664v0.98242h0.10938a17.919 17.919 0 0 1 3.5352-0.30859v-0.98047zm-3.6445 0.30664v-0.009766l-0.033203 0.011719a18.491 18.491 0 0 1 0.033203-0.001953zm10.264-0.13086v0.99219l0.69336 0.099609c0.64978 0.09912 1.3328 0.18729 2.0156 0.27539v-0.99219h-0.042969l-1.8398-0.25391-0.82617-0.12109zm218.64 0.027344c-0.33237 0.080103-0.8996 0.36025-1.7774 0.75l0.77539 2.4355c0.59373 0.026336 1.1876 0.051338 1.7813 0.078125-0.227 0.080902-0.44519 0.18063-0.64454 0.32031-0.14346 0.10052-0.12408 0.2714-0.0664 0.45898-0.12124 0.088242-0.23517 0.19136-0.35938 0.27344-0.04252 0.2354-0.08081 0.47158-0.12304 0.70703l0.02929 0.09375h3.1621v-4.7637c-1.6809-0.28941-2.3173-0.46439-2.7773-0.35352zm-229.65 0.20508-1.1016 0.14258v0.99219l1.168-0.14453v-0.99023h-0.066406zm206.98 0.63086c0.71629 0.23193 1.4336 0.5561 2.1523 0.94922-1.0556 0.22813-2.006 0.39922-2.832 0.50391-0.36674 1.0353-0.57031 2.1498-0.57031 3.3555 0 1.2989 0.21808 2.4388 0.58007 3.4707 0.15861 0.026771 0.81573 0.10951 0.92774 0.13086 1.1237 0.21419 1.7857 0.32671 2.5606 0.46289-0.02666 0.60363-0.03996 1.2102-0.01954 1.8242-1.1201-0.24863-2.048-0.41822-2.5332-0.48242 0.26216 0.40578 0.55087 0.79088 0.86914 1.1523 0.36509-0.10452 1.2156-0.33802 1.666-0.4668 0.01385 0.4667 0.04383 0.93749 0.01562 1.3945-0.01205 0.19524-0.02129 0.39069-0.0332 0.58594 1.2508 0.96636 2.6986 1.7643 4.2598 2.4355l7.6543 3.3027c3.6857 1.5918 6.4145 3.9759 6.5762 8.0469 1.5895-0.11731 2.585-0.16532 3.584-0.18554-0.16393 0.1432-0.33527 0.27722-0.49805 0.42187-0.41722 0.27474-0.84953 0.52896-1.248 0.83008-0.11879 0.08976 0.19922-0.04356 0.42774-0.13086-0.03888 0.03343-0.07814 0.0664-0.11719 0.09961 1.2338-0.06119 2.4705-0.08665 3.707-0.08594 0.29063-1.0403 0.47579-2.0967 0.48047-3.168-0.24175 0.004859-0.97022 0.024357-1.1562 0.029297 0.1737-0.10433 0.34679-0.206 0.53711-0.29297 0.22266 0.022715 0.36371 0.035293 0.61133 0.060547-0.02151-1.4847-0.2769-2.7929-0.7207-3.9531-0.15323-0.11504-0.32904-0.20488-0.47461-0.32812-0.57416-0.48609-1.0788-1.1334-1.2832-1.8574-0.06671-0.23629-0.04276-0.48805 0.00782-0.73633-0.36992-0.44102-0.77279-0.85187-1.2051-1.2383-0.42205 0.30139-0.83156 0.60771-1.1445 0.97852 0.09825-0.56528 0.19752-1.1302 0.29687-1.6953-0.77376-0.58914-1.616-1.1138-2.502-1.5879-0.06615 0.38698-0.13694 0.77318-0.20313 1.1602-0.21498-0.13395-0.43611-0.25324-0.67578-0.33398 0.01479-0.42001 0.03305-0.83979 0.04883-1.2598-0.49738-0.24279-0.99906-0.47915-1.5137-0.69727l-7.2676-3.1621c-3.4802-1.5198-5.9473-3.667-5.9473-7.1582 0-0.82349 0.14412-1.5695 0.36133-2.2695-1.7647-0.090366-3.5775 0.052267-5.334-0.10156-0.01698-0.001487-0.02797-0.00242-0.04492-0.003906zm-232.07 0.16797v3.1699c0.004044 0.001219 0.009643 0.002683 0.013672 0.003906-0.003119 0.002653-0.010602 0.003188-0.013672 0.00586v5.6602c0.079704-0.075899 0.15669-0.1545 0.23633-0.23047 0.14615 0.11351 0.27969 0.23518 0.43359 0.33789-0.032897-0.006858-0.024799-0.004685-0.058594-0.011719-0.19807 0.16431-0.14534 0.10832-0.32031 0.24805-0.096961 0.059996-0.19586 0.11645-0.29102 0.17969v4.7578c0.59104 0.29201 1.8234 0.64876 2.7129 0.88281v-3.1445c-0.14613 0.00897-0.36546 0.025196-0.51172 0.033203-0.18615-0.11616-0.50722-0.32088-0.74414-0.47266 0.19705 0.012428 0.9593 0.06396 1.2559 0.082031v-10.496c-0.20408-0.067469-0.40748-0.13724-0.61328-0.19922-0.57102-0.17198-1.5027-0.34553-2.0996-0.80664zm204.16 0.54492 1.7246 4.7305c0.01627 5.61e-4 0.03255 0.001391 0.04882 0.001953 0.06651 0.009896 0.13087 0.019442 0.19727 0.029297-0.00192 0.032598 0.00469 0.070556 0 0.10156-0.00856 0.05662-0.01685 0.1133-0.02539 0.16992 0.18257-0.038031 0.29932-0.065127 0.49805-0.10547 0.00134 0.047574-0.00116 0.095023 0 0.14258-0.12294 0.023146-0.30161 0.082758-0.39063 0.089843-0.04288 0.003414-0.08601 0.002538-0.1289 0.00586-0.00393 0.026036-0.0078 0.052089-0.01172 0.078125l2.582 7.0801c0.08054 0.077292 0.09452 0.084958 0.18359 0.16992-0.05581-0.030909-0.10704-0.076196-0.16211-0.10938l2.4004 6.5801h-13.525l1.4727-4.2266c-0.02171-0.001409-0.04654-0.002488-0.06836-0.003906 0.02208-0.005028 0.05445-0.010648 0.07617-0.015625l1.4394-4.1328c-0.07494 0.001615-0.14965-0.001794-0.22461 0 0.00665-0.002207 0.01289-0.005622 0.01954-0.007813 0.07589-0.025011 0.15433-0.042148 0.23046-0.066406l3.6641-10.512zm1.9238 5.166c0.00667-0.044339 0.01479-0.088475 0.02148-0.13281-0.03723 0.007755-0.06498 0.013825-0.10156 0.021485l0.04101 0.11328c0.013-9.99e-4 0.02606-9.46e-4 0.03907-0.001953zm-176.73-4.6816a14.394 14.394 0 0 0-2.709 0.17578h0.033203v0.99219a14.042 14.042 0 0 1 2.6758-0.1875v-0.98047zm3.9434 0v0.98047a14.383 14.383 0 0 1 2.7637 0.19727v-0.99024h0.033203a14.835 14.835 0 0 0-2.7969-0.1875zm102.19 0.076172 1.3906 3.2266h2.2012l-0.17383-3.1016c-1.1394-0.03924-2.2787-0.084445-3.418-0.125zm-109.73 0.20898c-0.62775 0.09912-1.2662 0.18783-1.916 0.25391v0.99219c0.71586-0.07709 1.4207-0.17627 2.1035-0.27539v-0.9707h-0.1875zm11.113 0.033203v0.97461c0.66129 0.097511 1.333 0.19564 2.0156 0.27148v-0.99219c-0.64978-0.06608-1.3-0.1658-1.9277-0.25391h-0.087891zm0 0.97461c-0.010869-0.001603-0.02234-0.002304-0.033203-0.003906l0.033203 0.021484v-0.017578zm135.06-0.75781-2.1562 3.1641c-0.03238-0.002791 0.89406 0.044511 0.81055 0.039062-0.0657 0.050133-0.1244 0.11698-0.19141 0.16406 0.96841 0.19182 0.45487 0.086319 1.0391 0.20312-0.64885 0.013052-1.314 0.03416-1.9629 0.041016l-2.1172 3.1035c0.72842 0.078489 0.66014 0.063914 1.498 0.1543 0.85187 0.091888 1.7028 0.18947 2.5547 0.28125l2.0176-2.7812c-0.56831 0.076348-1.1363 0.15034-1.7051 0.2207-0.75777-0.029119-1.5157-0.056495-2.2734-0.085937 0.28276-0.093565 0.59476-0.19302 0.76172-0.26172 1.0788 0.033605 2.1573 0.074101 3.2363 0.10156l2.7598-3.8047c-0.7699-0.026286-1.5402-0.049339-2.3145-0.03711-0.654-0.16138-1.3008-0.34916-1.957-0.50195zm61.164 0.73242c1.116 0.18328 2.2309 0.28937 3.3477 0.2832-0.4196 0.1935-0.89682 0.3888-1.2637 0.58398-1.303-0.18173-2.6465-0.1844-3.9961-0.16016 0.57806-0.19256 1.2326-0.43928 1.9121-0.70703zm-135.06 1.2852 0.21289 0.58594h0.52149c-0.23291-0.24223-0.47351-0.43244-0.73438-0.58594zm29.871 2.2598-2.5332 6.6074-1.8965 0.054687c0.1722 0.046811 0.34378 0.095821 0.51562 0.14453-2.1492 0.14948-4.2972 0.42471-6.4492 0.50586-2.2646 0.085397-2.5653 0.080302-4.0781 0.13086 0.03054-0.022209 0.05913-0.048448 0.08984-0.070312-0.09867 0.021934-0.21122 0.057533-0.30859 0.078125-1.1795 0.039061-2.4719 0.084164-3.2578 0.10547v5.8027c0.42119 0.006585 0.84247 0.011441 1.2637 0.017578 0.58516 0.008528 1.1707 0.00789 1.7559 0.017578 1.1755 0.25901 2.3467 0.53673 3.5215 0.79883v-4.6348l6.8145 0.19726c-1.0594-0.32729-2.1599-0.49287-3.291-0.53711 1.573 0.004431 3.1392-0.056419 4.6777-0.35547 1.2743-0.24769 3.2654-0.39899 4.748-0.83984l-0.00781-0.10547 0.63867-7.918h-2.2031zm-14.352 7.373c0.96196-0.21383 1.9581-0.46104 3.0078-0.76367v-0.86523c-1.8956-0.10453-4.1338-0.22138-6.5742-0.34766v1.2031c1.214 0.22785 2.423 0.47891 3.6348 0.71875-0.02368 0.016561-0.04478 0.037911-0.06836 0.054688zm14.285-6.3809c0.21535 0.0207 0.43941 0.04551 0.61719 0.0625-0.02919-8.02e-4 -0.05871 8.56e-4 -0.08789 0-0.44969-0.01981-0.26363-0.014478-0.68946-0.033203 0.04426-0.008349 0.11494-0.020787 0.16016-0.029297zm-41.994 1.2578c-1.4451 0.1092-2.779 0.3407-3.9707 0.69336-0.1025-0.034218-0.19745-0.088417-0.30274-0.11523-0.24303-0.061899-0.18352 0.057062-0.021484 0.22852-0.030519 0.010072-0.059612 0.020967-0.089844 0.03125-0.40786 0.052393-0.78718 0.077396-1.1934 0.14844-0.15228 0.013368-0.30652 0.01247-0.45703 0.046875-0.13603 0.031097-0.26168 0.098762-0.39648 0.13477-0.069675 0.015124-0.13976 0.029084-0.20898 0.044922v3.627c0.3431-0.035997 0.62428-0.043561 0.98047-0.085938 1.8841 0.24392 3.7713 0.46684 5.6602 0.68164v-5.4355zm-54.514 1.3066-2.1152 6.5312h-6.873a0 0 0 0 0-0.064454 0v0.066406l0.064454-0.011719 5.5625 4.0312-2.1484 6.6074 5.6504-4.0293 1.9082 1.3848c0.15198-0.023052 0.30618-0.038288 0.45312-0.089844 0.631-0.22138 1.1988-0.57464 1.75-0.96094 0.098955 5.61e-4 0.19792 0.001653 0.29688 0.001953l-0.94922-2.9355 2.1992-1.6152c-0.56622-0.15476-1.1494-0.29618-1.7285-0.44336l-1.9141 1.5957 0.84766 3.3047-2.918-1.8398-2.918 1.8398 0.84766-3.3047-2.6445-2.2031 3.4258-0.23047 1.2891-3.2051 1.2773 3.2051 3.4355 0.23047-0.66406 0.55469c0.64589 0.094569 1.2899 0.20275 1.9355 0.29883l3.1113-2.2852a0.055066 0.055066 0 0 0 0-0.066407 0 0 0 0 0-0.054687 0h-6.8711l-2.1914-6.4316zm204.14 1.168c0.00115-0.04514-0.00312 0.13742-0.00196 0.091797-0.077-0.016902-0.10836-0.022906-0.18164-0.039062 0.05237-0.014929 0.13-0.03748 0.1836-0.052735zm-216.69 0.011719-0.41797 0.31836a4.6586 4.6586 0 0 0-1.3301 1.5977c0.097594 0.007491 0.19538 0.011969 0.29297 0.019531 0.2835 0.021967 0.56615 0.051921 0.84961 0.074219a3.7115 3.7115 0 0 1 0.30859-0.57812 3.8106 3.8106 0 0 1 0.19922 0.62109c0.3408 0.027042 0.68074 0.062351 1.0215 0.089843a4.6806 4.6806 0 0 0-0.63672-1.6914l-0.28711-0.45117zm25.078 0.042969-0.28711 0.45117a4.6916 4.6916 0 0 0 1.5312 6.3105 4.4053 4.4053 0 0 0-0.35156 1.2559 4.7137 4.7137 0 0 0-1.4219-2.0156l-0.40625-0.33008-0.29883 0.42969a4.6696 4.6696 0 0 0-0.83594 3.3047 4.7247 4.7247 0 0 0 1.6621 3.0176 4.6035 4.6035 0 0 0-0.63867 1.1992 4.6806 4.6806 0 0 0-0.96875-2.2676l-0.33008-0.4082-0.39648 0.35352a4.6806 4.6806 0 0 0-0.25781 0.39258c0.43553 0.15761 0.87947 0.29092 1.3125 0.45508-0.5455-0.01815-1.0925-0.006693-1.6348 0.035156a4.6806 4.6806 0 0 0-0.82031 2.6484c0.21886 0.02472 0.43594 0.06307 0.6543 0.08984a3.7225 3.7225 0 0 1-0.10156-0.43945 3.7885 3.7885 0 0 1 0.80274-2.0371 3.7225 3.7225 0 0 1 0.47461 2.125 3.6784 3.6784 0 0 1-0.19141 0.49024c0.58651 0.08092 1.1767 0.14802 1.7617 0.24609 0.002955 0.14451 0.006509 0.28909 0.009765 0.43359a4.6806 4.6806 0 0 0 3.9141-4.6602v-0.5293h-0.52734a4.5374 4.5374 0 0 0-2.1152 0.7168 4.5154 4.5154 0 0 0 0.27539-1.1016l0.50586-0.20898-0.03125 0.021485a4.6696 4.6696 0 0 0 3.2363-3.5645c-0.14521-0.019997-0.29034-0.040537-0.43555-0.060546-0.16699-0.029049-0.33306-0.062476-0.5-0.091797a3.7555 3.7555 0 0 1-0.42969 1.1504 3.7115 3.7115 0 0 1-1.5957 1.4648 3.6894 3.6894 0 0 1 2.0918-3.5898 3.7555 3.7555 0 0 1 0.005859 0.33594c0.3093 0.045716 0.61847 0.092768 0.92774 0.13867a4.6696 4.6696 0 0 0-0.085938-1.2891l-0.10938-0.50781-0.49609 0.14258a4.8348 4.8348 0 0 0-1.6309 0.85938 4.4053 4.4053 0 0 0 0-1.7402 4.6696 4.6696 0 0 0-1.8379-2.9062l-0.42969-0.32031zm-43.172 0.1875c-0.042204 0.013425-0.08041 0.025416-0.12305 0.039062-0.024023-0.015216-0.030194-0.019664-0.054687-0.035156 0.059259-0.001332 0.11847-0.002867 0.17773-0.003906zm43.502 1.2891a3.7225 3.7225 0 0 1 0.78125 4.0957 3.7885 3.7885 0 0 1-1.0098-1.9199 3.6894 3.6894 0 0 1 0.22852-2.1758zm-26.08 0.61328c-0.39596-0.003299-0.79071 0.031402-1.1855 0.058594a4.6586 4.6586 0 0 0-0.41016 1.0352 4.7247 4.7247 0 0 0 0 1.75 4.7797 4.7797 0 0 0-1.5762-0.82617l-0.52734-0.087891-0.11133 0.50781a4.6916 4.6916 0 0 0 3.2168 5.5059l0.45117 0.13281a4.4053 4.4053 0 0 0 0.27539 1.1016 4.5374 4.5374 0 0 0-2.2129-0.77148h-0.5293v0.5293a4.6806 4.6806 0 0 0 4.2949 4.7344h0.46289a4.5815 4.5815 0 0 0 0.4375 0.88281c0.44663 0.04318 0.30927 0.0269 0.88476 0.08398 0.43479 0.04312 0.86988 0.08403 1.3047 0.12696a4.6696 4.6696 0 0 0-1.0293-5.5527l-0.38672-0.35352-0.31836 0.4082a4.6696 4.6696 0 0 0-0.9707 2.2676 4.6476 4.6476 0 0 0-0.63867-1.1992 4.7026 4.7026 0 0 0 1.5293-2.4023c-0.30861 0.013054-0.61722 0.026973-0.92578 0.041016 0.031472-0.19654-0.007634-0.35606-0.11914-0.47656a3.6674 3.6674 0 0 1-0.72656 1.5938 3.6784 3.6784 0 0 1-0.32617-1.9277c-0.3185-0.013462-0.71044 0.032508-1.1113 0.078125-0.030228-0.10299-0.038616-0.19848-0.076172-0.30469-0.029112-0.08233-0.091962-0.14971-0.12891-0.22852 0.44603 0.034339 0.89193 0.070308 1.3379 0.10547a3.6784 3.6784 0 0 1 0.8457-1.8535 3.6013 3.6013 0 0 1 0.38281 1.9512c0.33266 0.02685 0.66543 0.052689 0.99805 0.080078a4.7026 4.7026 0 0 0-0.85352-3.0117l-0.29688-0.42969-0.4082 0.33008a4.6366 4.6366 0 0 0-1.4199 2.0156 4.8899 4.8899 0 0 0-0.36328-1.2988 4.6806 4.6806 0 0 0 0.84961-0.83008c-1.2248-0.29565-1.3062-0.3157-2.5547-0.61719-0.001674-0.006584-0.004194-0.012945-0.005859-0.019531 0.51188-0.071549 0.98188-0.11959 1.4727-0.17969a3.6674 3.6674 0 0 1-0.17969-1.7129v-0.021484a3.7115 3.7115 0 0 1 0.64844-1.2148zm0.5957 0.015625a3.8106 3.8106 0 0 1 0.011719 1.4844 3.7445 3.7445 0 0 1-0.74414 1.4082c0.49061-0.056016 0.92527-0.080852 1.3516-0.10156a4.6806 4.6806 0 0 0 0.39844-2.7246c-0.3395-0.026938-0.67857-0.053165-1.0176-0.066406zm190.64 0.125c0.00769 0.001036 0.00986 0.002869 0.01757 0.003906 0.00666 0.16993 0.01519 0.33982 0.02149 0.50977-0.02197-0.001242-0.05429-0.002673-0.07617-0.003907 0.01231-0.1699 0.02479-0.33987 0.03711-0.50976zm2.3984 0.30859c0.01704 0.00204 0.03566 0.003819 0.05274 0.00586 0.02201 0.11258 0.02371 0.22527 0.05859 0.33398-0.43528-0.026425-0.86462-0.045391-1.2559-0.068359 0.38247-0.099313 0.81351-0.23797 1.0547-0.26562 0.02983-0.00342 0.06001-0.002512 0.08984-0.00586zm0.76953 0.087891c0.33697 0.039446 0.66519 0.077646 1.0117 0.11719-0.30238 0.059631-0.49323 0.11172-0.90039 0.17773-0.03796-0.002345-0.06399-0.003544-0.10156-0.005859-0.00277-0.096392-0.00698-0.19267-0.00977-0.28906zm-200.35 0.32422c-0.59555 0.22672-1.1451 0.50032-1.4961 0.95508-0.1081-0.026227-0.41634-0.10028-0.50195-0.12109 0.10577 1.4556 0.29039 2.9535 0.54492 4.4766 0.69806 0.049113 1.3958 0.10221 2.0938 0.15234-0.34254-1.8758-0.53252-3.6929-0.64062-5.4629zm197.24 0.1875c0.0025 0.070341 0.00732 0.14059 0.00977 0.21094-0.05868 0.006853-0.0847 0.012637-0.14453 0.019532 0.00447-0.061848 0.00919-0.1237 0.01367-0.18555 0.04249-0.015574 0.0738-0.028446 0.12109-0.044922zm-130.19 0.25781v2.2676c0.32244 0.037751 0.64748 0.054972 0.96875 0.10156 0.21313 0.03091 0.41674 0.10603 0.62305 0.16992-2.01e-4 0.10452-0.097053 0.27568 0 0.31445 0.071424 0.028531 0.17061 0.041845 0.24609 0.068359-0.027895 0.002799-0.056127 6.82e-4 -0.083984 0.003907-0.13494 0.01562-0.25298 0.11646-0.38867 0.12305-0.45451 0.022051-0.90989 0.001378-1.3652-0.021484v8.0234c0.31361 0.0263 0.77442 0.09798 0.81641 0.16406 0.7724-0.26221 1.5454-0.52164 2.3223-0.76367 0.096999 0.005278 0.19402 0.010326 0.29102 0.015625 1.0619 0.18225 2.1183 0.39287 3.1777 0.58789-0.66197 0.38217-1.0919 0.7614-0.60547 1.1309 0.14632 0.11114 0.30826 0.18681 0.46289 0.2793-2.8871-0.11852-3.4633-0.12574-6.4648-0.24024v2.5508c2.2133 0.08211 4.4266 0.17558 6.6406 0.23243v-13.74c-0.54979-0.046762-1.1065-0.002736-1.6562-0.050781-0.04214-0.0037 0.061567-0.05828 0.091797-0.08789 0.013149-0.18957 0.19668-0.46221 0.039062-0.56836-0.3541-0.23848-0.83158-0.20458-1.2559-0.25195-1.2085-0.13493-2.4236-0.21061-3.6367-0.29492-0.074183-0.005155-0.14847-0.00856-0.22266-0.013672zm0.81641 11.215c-0.2416 0.08201-0.48448 0.15847-0.72656 0.23828 0.073493 0.15313 0.13872 0.32019 0.23047 0.44336 0.37601-0.40785 0.55631-0.58686 0.49609-0.68164zm-0.72656 0.23828c-0.028779-0.05996-0.061715-0.1128-0.089843-0.17383v0.20117c0.029778-0.00976 0.060076-0.01753 0.089843-0.02734zm-79.291-9.8477v3.2969c0.032538 0.011749 0.12069 0.036822 0.1582 0.050781-0.060378 0.034381-0.10523 0.083459-0.1582 0.125v46.594c0.017035-0.00566 0.032877-0.01103 0.050781-0.01758 0.28678 0.03754 0.5721 0.08327 0.85938 0.11719 0.003529 0.11003 0.007909 0.22005 0.011719 0.33008 0.16395-0.12706 0.23624-0.14027 0.35352-0.20899-0.023821 0.5957-0.026213 1.2664-0.05664 1.7656-0.003336 0.05472-0.04731 0.1373-0.060547 0.19922h3.3633c0.28618-0.45732 0.016927-1.1356-0.017578-1.7207 0.37706 0.03215 0.75397 0.07273 1.1309 0.10352 0.31821 0.02072 0.63685 0.0343 0.95508 0.05469 0.084631 0.52185 0.18372 1.0412 0.27148 1.5625h3.1426c-0.08807-0.46217-0.17709-0.92394-0.26172-1.3867 1.7229 0.10445 3.4465 0.19576 5.1699 0.29101 0.004133 0.22725-0.011288 0.45439-0.005859 0.68164 0.002505 0.1049 0.016659 0.30066 0.019531 0.41407h3.0625c-0.014146-0.30926-0.040993-0.64503-0.050781-0.92578 2.192 0.11461 4.3835 0.23855 6.5762 0.33984-0.23342 0.16726-0.52143 0.39705-0.77539 0.58594h1.4062c0.31641-0.16997 0.62934-0.34429 0.94141-0.52149 4.243 0.19015 8.4857 0.37388 12.73 0.52149h0.63477c0.37387-0.14899 0.75452-0.28448 1.1328-0.42383 0.18709 0.03059 0.37697 0.04481 0.5625 0.08398 0.198 0.0418 0.43761 0.42883 0.54883 0.25977 0.17528-0.26644 0.26273-0.57422 0.33984-0.88672 0.20954-0.07783 0.40894-0.17717 0.61719-0.25781 1.1683 0.05101 2.5429 0.14735 3.918 0.04687 0.55428 0.10447 1.0966 0.1294 1.6016-0.08594 0.14147-0.06033 0.30136-0.18204 0.45898-0.30273 0.60589-0.20303 1.1787-0.47508 1.666-0.89258h-47.584v-49.508c-0.46282-0.029227-0.92585-0.056921-1.3887-0.085937-0.43692-0.027392-0.8809-0.12034-1.3242-0.19922zm252.28 0.12305c-0.22148 1.293-0.45285 2.5845-0.67774 3.877 0.01321-0.55006 0.0124-1.1004 0.02735-1.6504 0.01748-0.64288 0.05371-1.285 0.07422-1.9277 0.1318-0.048573 0.26903-0.083217 0.40039-0.13281 0.06201-0.023415 0.11207-0.11518 0.17578-0.16602zm-87.357 0.070312c1.3318 0.2164 2.6704 0.38718 4.0039 0.5918-0.07789 0.16719-0.16122 0.3285-0.23828 0.49609-0.15975 0.029607-0.33612 0.037677-0.49023 0.085938-0.52618-0.008829-1.033 0.05645-1.4238 0.38281-0.50351-0.11614-1.193-0.31394-1.7031-0.43555-0.0475-0.37817-0.11025-0.73209-0.14844-1.1211zm-149.78 0.046876a3.7004 3.7004 0 0 1 1.6074 1.4766 3.7555 3.7555 0 0 1 0.49609 2.1152h-0.009766a3.6784 3.6784 0 0 1-2.0938-3.5918zm32.35 0.62891a3.7555 3.7555 0 0 1-0.027344 0.23438c0.31046 0.007484 0.62198 0.005188 0.93164 0.019531a4.6696 4.6696 0 0 0 0.009765-0.097656c-0.003905-6.6e-4 -0.007814-0.001294-0.011719-0.001953 0.003927 6e-6 0.007793-4e-6 0.011719 0a4.6696 4.6696 0 0 0 0.015625-0.15039c-0.29421-0.004736-0.63785 0.002028-0.92969-0.003906zm168.14 0.076172c0.00579 0.20214 0.02114 0.40319 0.02539 0.60547-0.03911-0.11919-0.02542-0.25123-0.10352-0.36133-0.00321-0.004538-0.01039-0.003353-0.01367-0.007812 0.03383-0.082806 0.05565-0.15104 0.0918-0.23633zm-89.891 0.15234 0.7168 1.8672c1.3553 0.10283 1.9814 0.1579 3.3691 0.26367l-0.12695-1.7754c-1.3224-0.11139-2.6377-0.24046-3.959-0.35547zm-75.391 0.23828c-0.40157 3.0237-1.1622 6.1679-2.4746 9.2363 0.70308 0.025 1.4063 0.05568 2.1094 0.07422 1.199-3.013 1.8835-6.0689 2.2695-9.0059-0.63443-0.10374-1.2701-0.19923-1.9043-0.30469zm-7.5293 0.79883a3.7004 3.7004 0 0 1 0.9043 1.9824 3.5793 3.5793 0 0 1-0.36328 2.1367 3.6784 3.6784 0 0 1-0.89648-1.9648 3.7445 3.7445 0 0 1 0.35547-2.1543zm172.88 0.375c0.00309 0.28174 7.5e-4 0.56382 0.00195 0.8457-0.01626-0.003734-0.00896-0.002075-0.02539-0.00586-0.06034-0.013903-0.12126-0.025322-0.18164-0.039062 0.10252-0.27497 0.14823-0.53646 0.20508-0.80078zm-89.004 1.0801 1.1699 3.0488h2.2031l-0.16406-2.2988c-1.0657-0.26606-2.139-0.50159-3.209-0.75zm-115.78 0.96289c0.28009 1.3996 0.6664 2.8096 1.1289 4.2188 0.022869-0.028434 0.062832-0.078763 0.085937-0.10742 0.51139 0.041101 1.0304 0.070252 1.5781 0.054687 0.17546 0.043414 0.35126 0.085443 0.5293 0.11914-0.43082-1.2055-0.78632-2.4129-1.0684-3.6191-0.68356-0.44543-1.5727-0.56099-2.2539-0.66602zm243.36 0.060546c0.23042 0.47222 0.59732 0.91135 1.0898 1.3379-0.43434-0.040484-0.86839-0.082371-1.3027-0.12305 0.07073-0.40487 0.14259-0.80984 0.21289-1.2148zm-48.379 0.052735c-0.00328 0.04618-0.00455 0.092491-0.00782 0.13867-0.02114 0.002424-0.08288 0.01108-0.10547 0.013671 0.0408-0.052299 0.0743-0.096698 0.11329-0.15234zm-95.91 0.068359v6.8691c0.34788 0.05645 0.91011 0.14939 1.2285 0.20117-0.40948 0.00965-0.819 0.01481-1.2285 0.02344v2.334c0.74533 0.09483 1.1068 0.14195 1.7559 0.22461-0.2543 0.02627-1.2559 0.12875-1.5312 0.1582-0.07412-0.01081-0.15054-0.0204-0.22461-0.03124v2.8711c1.1304 0.06076 2.2606 0.10313 3.3906 0.15039-0.78665-0.00303-2.185 0.02022-3.3906 0.03516v1.1289l-5.1914 0.75391c0.087 0.0743 0.15057 0.15864 0.24414 0.23047-0.23774 0.02857-0.47697 0.0413-0.71484 0.06836l0.28711 1.9746 8.7227-0.18555 20.107 0.14844c-0.54612-0.05571-1.0924-0.1144-1.6387-0.16993-0.06132-0.12312-0.08033-0.19231-0.13476-0.30664-0.90891 0.00142-1.8177 0.00778-2.7266 0.00977-5.367-0.54801-10.733-1.1093-16.082-1.8066 0.71998 0.00919 1.4404 0.02879 2.1602 0.02539 3.5753-0.0169 7.1522-0.03229 10.727-0.11914 1.7373-0.04222 3.495 0.0475 5.2363 0.00781-0.00328-0.02267-0.01524-0.05667-0.01758-0.07812 0.1537 0.01958 0.3282 0.04309 0.48047 0.0625 0.4334-0.01712 0.86507-0.04612 1.2949-0.08985 0.13712 0.08449 0.31111 0.21741 0.45899 0.31641 0.41117 0.05246 0.9503 0.12501 1.3477 0.17578 1.3625 0.14467 2.7458 0.53039 4.1211 0.82031l1.7168-9.125c-0.90795-0.08083-1.8168-0.14946-2.7246-0.23242l-3.7324 7.3867-17.4 0.19922v-13.77c-1.0672-0.21788-2.1341-0.37285-3.207-0.25195-0.21509 0.024237-0.51454 0.12606-0.80273 0.2207-0.79594-0.06838-1.9809-0.18286-2.5312-0.23047zm23.213 14.807c-0.53503-0.06827-1.1981-0.15572-1.7539-0.22656-0.15422 0.00609-0.30833 0.0121-0.46289 0.01562 0.05969 0.41199 0.27629 1.0231 0.68555 1.8828 1.2631-0.00197 2.526-0.00975 3.7891-0.01171-0.83654-0.66543-1.5598-1.1928-2.2578-1.6602zm2.2578 1.6602c0.21799 0.17339 0.41257 0.32981 0.63281 0.50781l2.3535 0.01758 0.10156-0.53516c-1.0294 0.00237-2.0585 0.00816-3.0879 0.00977zm30.447-15.57c0.31382 0.016224 0.62609 0.040008 0.94336 0.039063-0.07685 0.085641-0.10802 0.13948-0.19141 0.22852-0.3166 0.058895-0.69361 0.15157-1.0332 0.22266 0.12029-0.14926 0.2076-0.31571 0.28125-0.49024zm-149.31 0.94336a3.7115 3.7115 0 0 1 1.8711 1.0996 3.6344 3.6344 0 0 1 0.91602 1.9727 3.7445 3.7445 0 0 1-1.873-1.1016v0.011719a3.7665 3.7665 0 0 1-0.91406-1.9824zm29.471 0.076172a3.6894 3.6894 0 0 1-0.91406 1.9824l-0.009765-0.011719a3.7445 3.7445 0 0 1-1.873 1.1016 3.6564 3.6564 0 0 1 0.92578-1.9707 3.7115 3.7115 0 0 1 1.8711-1.1016zm169.64 0.30469c-0.00103 0.4063 0.01239 0.8109 0.01367 1.2168-0.40818-0.041778-0.8164-0.083531-1.2246-0.125 0.04278-0.28585 0.08703-0.57145 0.12891-0.85742 0.36236-0.071286 0.72753-0.12869 1.082-0.23438zm-194.17 0.48828a3.6894 3.6894 0 0 1 0.33008 4.1523 3.7115 3.7115 0 0 1-0.80469-2.0274 3.7555 3.7555 0 0 1 0.47461-2.125zm232.17 0.41797c0.62719 0.062646 2.5689 0.25143 3.4941 0.3457-0.10869 0.17205-0.19915 0.3461-0.31054 0.51953-0.34239 0.011306-0.49938 0.007258-1.1133 0.027343-1.319 0.26642-0.93663 0.19485-1.5527 0.83203-0.00775-0.0204 0.00691-0.04502-0.00586-0.06445-0.1727-0.26275-0.44999-0.27764-0.75781-0.22266 0.08533-0.51074 0.10125-0.60944 0.24609-1.4375zm-241.63 1.0098c0.19289 0.5816 0.37418 1.1632 0.60352 1.7422 0.36378-0.21712 0.73989-0.41608 1.0859-0.66015 0.15781-0.1113 0.021-0.45106-0.13672-0.5625-0.38271-0.27039-0.88261-0.31399-1.3242-0.4707-0.098132-0.022794-0.13617-0.027317-0.22852-0.048828zm24.365 0.38281c-0.055457 0.07839-0.12292 0.13073-0.17578 0.21484-0.002559 0.00408 4.33e-4 0.00578-0.001953 0.00977-0.50241-0.0265-1.0054-0.04677-1.5078-0.07227l2.2422 1.627a0 0 0 0 0 0-0.05469l-0.30664-0.95117c-0.12777-0.01128-0.29377-0.00934-0.38476-0.03321-0.016971-0.00232-0.033811-0.00549-0.050782-0.00781 0.1315-0.02685 0.26305-0.05312 0.39453-0.08008l-0.20898-0.65234zm101.8 0.76562-0.41406 0.81836c0.16526-0.02542 0.3297-0.04528 0.4961-0.07421 0.70466 0.11419 1.4084 0.23454 2.1133 0.34765l0.20508-1.0918h-2.4004zm-123.55 0.07227c-0.020907 0.23336-0.054186 0.44547-0.078125 0.67188-0.15177 0.05008-0.30068 0.11311-0.45312 0.16015 0.27162 0.0396 0.22508 0.029 0.42774 0.05859-0.04631 0.41838-0.089713 0.84631-0.14453 1.252-0.40054-0.17466-0.80004-0.35452-1.2285-0.43164 0.71694 1.6109 1.5496 3.2066 2.6133 4.748a28.711 28.711 0 0 0 0.8125 0.9629c-0.002708-0.17058-0.0071-0.34115-0.009766-0.51172 0.44943-0.01923 0.90683-0.0701 1.3438-0.04102 0.4125 0.02746 0.57193 0.04273 0.95312 0.06836a25.958 25.958 0 0 1-1.4258-1.6777c-1.1677-1.7014-2.08-3.4697-2.8105-5.2598zm204.62 0.5625c0.06582 0.01142 0.13148 0.02354 0.19727 0.03516-0.17329 0.11779-0.27917 0.15399-0.53321 0.33789-0.06846-0.00599-0.12245-0.01303-0.18554-0.01953-4.9e-4 -0.02019-0.00147-0.04036-0.00196-0.06055-0.00373-0.059-3.7e-4 -0.11871-0.0039-0.17774 0.18201-0.04591 0.30234-0.05158 0.52734-0.11523zm-169.33 0.00391c-0.14384 0.0333-0.26331 0.06054-0.41797 0.0957 0.1253-0.00884 0.25152-0.00304 0.37695-0.00977 0.011661-0.02902 0.02945-0.0569 0.041016-0.08593zm-0.41797 0.0957c-0.14545 0.01026-0.29226 9e-5 -0.4375 0.01367-0.47932 0.04481-1.856 0.50475-1.3848 0.40625 0.90917-0.19005 1.1478-0.26658 1.8223-0.41992zm-25.629 0.07031-0.23047 0.47461a4.6916 4.6916 0 0 0-0.125 0.62109c0.66071 0.06504 1.3217 0.12895 1.9824 0.19336a4.7026 4.7026 0 0 0-1.1641-1.0137l-0.46289-0.27539zm15.076 0-0.45117 0.27539a4.6806 4.6806 0 0 0-1.5371 1.5254c0.84005 0.15334-0.1427-0.02581 1.0234 0.1875a3.6894 3.6894 0 0 1 0.32617-0.49023 3.6784 3.6784 0 0 1 0.13086 0.57422c1.5858 0.29026-0.9064-0.1663 1.2266 0.22461a4.6476 4.6476 0 0 0-0.48633-1.8223l-0.23242-0.47461zm195.03 0.05078c-0.02094 0.36594-0.04343 0.73172-0.06445 1.0977-0.42455 0.22353-0.75268 0.53283-0.97852 0.91797-1.0871-0.00866-2.1748-0.01392-3.2656 0.00781l0.7539 4.6016c0.06499 0.0098 0.13033 0.01744 0.19531 0.02735-0.05692 0.04061-0.11313 0.08222-0.16992 0.12304l0.13282 0.81641a19.736 19.736 0 0 0 7.957 3.7715c0.28849-0.36468 0.57017-0.72893 0.82031-1.0254 0.11926 0.41102 0.24086 0.82179 0.3457 1.2363a19.736 19.736 0 0 0 3.9824 0.31446c0.42854-0.08857 0.7733-0.21158 1.1816-0.3086 1e-4 -0.8565-0.00303-1.3086-0.0039-2.209 0.11589 0.7638 0.20192 1.5268 0.25195 2.084 0.00175 0.01944 2.3e-4 0.03915 0.00195 0.0586 2.0469-0.50028 3.8694-1.0905 5.4277-1.7832 0.09951-0.10304 0.29689-0.33759 0.41016-0.45898 0.19011 0.00411 0.38019 0.00953 0.57031 0.01367 1.7634-0.87993 3.1983-1.8793 4.3379-2.9668-0.10484-0.00816-0.20961-0.01724-0.31446-0.02539-0.05919 0.05368-0.0347 0.02703-0.09179 0.07813-0.50274-0.16114-1.3612-0.04107-2.2891 0.12304-0.01393-0.13018-0.04206-0.26359-0.09375-0.40429-0.06783-0.79187-0.16899-1.6014-0.35352-1.5645-0.01461 0.00293-0.02066 0.00684-0.03516 0.00977-0.00195-0.01101-0.00585-0.02215-0.00781-0.0332 0.74373-0.8619 1.3935-1.6457-0.08789-0.44922-0.00944-0.05197-0.01968-0.09781-0.0293-0.15039-1.225 2.7151-3.9341 4.5059-7.8496 4.5059a11.872 11.872 0 0 1-8.9219-3.9883l-1.8125-4.4199zm-194.21 0.08594a4.6806 4.6806 0 0 0 0.76758 1.7129 4.7137 4.7137 0 0 0-0.43555 0.52539c0.67432 0.12363-0.37129-0.06846 0.35352 0.06446 0.22014 0.04036 0.44006 0.08246 0.66016 0.12304a3.6454 3.6454 0 0 1 0.12695-0.17187 3.7115 3.7115 0 0 1 2.0605-0.69532 3.6454 3.6454 0 0 1-1.3105 1.7402h0.009766a3.6784 3.6784 0 0 1-2.0586 0.70508 3.6454 3.6454 0 0 1 0.53906-0.72657c-0.77178-0.02203-1.4856 0.0079-2.0977 0.02344a3.6784 3.6784 0 0 1-0.072265 0.26367 3.6894 3.6894 0 0 1-1.1777 1.7949 3.6894 3.6894 0 0 1-0.027343-2.0176c-0.2388 0.02701-0.52599 0.12261-0.76758 0.16601a4.6806 4.6806 0 0 0 0.35352 2.7871 4.5374 4.5374 0 0 0-1.0996 0.83789 4.7357 4.7357 0 0 0 0-2.4668l-0.13281-0.50782-0.50586 0.17578a4.6916 4.6916 0 0 0-2.7344 2.7051c0.2986 0.02263 0.4693 0.03262 0.78711 0.05664a3.6564 3.6564 0 0 1 1.5508-1.5273 3.7115 3.7115 0 0 1-0.92578 2.8359c0.038468 0.1622 0.08769 0.2983 0.13867 0.43164-0.15755-0.03647-0.31511-0.07288-0.47266-0.10938a3.7115 3.7115 0 0 1-0.72266 0.50977 3.7115 3.7115 0 0 1 0.12891-0.64649c-0.26307-0.06097-0.52599-0.12262-0.78906-0.18359a4.6916 4.6916 0 0 0-0.023437 1.4356l-0.47266 0.33008-0.47461-0.33008a4.6696 4.6696 0 0 0 0.070313-1.6426c-0.16216-0.03753-0.32416-0.0758-0.48633-0.11328-0.066669-0.01753-0.5753-0.1489-0.73242-0.1875a3.6564 3.6564 0 0 1 0.10156 1.3379 3.7115 3.7115 0 0 1-1.582-1.7168c-1.2197-0.30755-2.316-0.59857-3.6465-1.0293 0.5555 0.04038 1.3628 0.09769 1.9141 0.13867a4.2621 4.2621 0 0 0-0.43945-0.33399 4.7026 4.7026 0 0 0 0.15625-3.8652c-0.20278 0.00668-0.4217 0.04987-0.61523 0.03515-0.19326-0.01469-0.38678-0.02495-0.58008-0.03906a3.7004 3.7004 0 0 1 0.28906 2.9551 3.6784 3.6784 0 0 1-1.2012-1.8164h0.033203a3.7335 3.7335 0 0 1 0-1.1992c-0.32492-0.02256-0.64964-0.04656-0.97461-0.06836a4.6916 4.6916 0 0 0-0.09375 0.46289 4.7357 4.7357 0 0 0-0.41211-0.49805c-0.60952-0.04055-1.2187-0.08338-1.8281-0.125a3.6784 3.6784 0 0 1 0.34766 0.11719 3.6344 3.6344 0 0 1 1.3105 1.75 3.6784 3.6784 0 0 1-2.0605-0.63867v-0.06641a3.6784 3.6784 0 0 1-0.94727-1.2578c-0.39778-0.0287-0.79563-0.05853-1.1934-0.08789a4.7026 4.7026 0 0 0 1.5234 2.084 4.6476 4.6476 0 0 0 2.7422 0.89258 4.5374 4.5374 0 0 0 0.5957 0l0.46289-0.06641a4.4053 4.4053 0 0 0 0.69336 0.89258 4.7907 4.7907 0 0 0-2.2031 0.19727l-0.49609 0.17773 0.21094 0.48438a4.6916 4.6916 0 0 0 2.4121 2.4551 4.5925 4.5925 0 0 0 1.8594 0.39649 4.9009 4.9009 0 0 0 1.543-0.26367l0.36328-0.13282a28.106 28.106 0 0 0 2.291 1.7852l-1.4434 0.93555 0.92578 0.58398 1.4414-1.0254 1.4102 0.92578 0.92578-0.58398-1.4434-0.93555a28.106 28.106 0 0 0 2.2031-1.6856l0.36328 0.14258a4.9119 4.9119 0 0 0 1.541 0.26563 4.6256 4.6256 0 0 0 0.21289-0.04493c-0.01545-0.00253-0.039594-0.00521-0.054687-0.00781 0.49918-0.29195 0.9776-0.66578 1.4258-1.125 0.08275 0.00799 0.12746 0.00994 0.20703 0.01758 0.26075 0.13094 0.54901 0.20164 0.87109 0.19531a4.7467 4.7467 0 0 0 1.5566-1.877l0.19922-0.48438-0.49609-0.17578a4.7687 4.7687 0 0 0-2.2031-0.19922 4.7797 4.7797 0 0 0 0.70508-0.89257l0.46289 0.0664a4.4604 4.4604 0 0 0 0.58398 0 4.6916 4.6916 0 0 0 4.5918-3.7988l0.099609-0.51757-0.51758-0.06641a4.9119 4.9119 0 0 0-0.5957 0 4.7357 4.7357 0 0 0-1.6289 0.28711 4.6696 4.6696 0 0 0 0.23438-0.47266c-0.51498-0.08821-0.62557-0.11064-1.0957-0.1914a3.6784 3.6784 0 0 1-0.17383 0.44336 3.7225 3.7225 0 0 1-0.11328-0.49414c-0.3348-0.05756-0.48522-0.08657-0.79883-0.14063zm9.5254 1.0586c-0.4955 0.02355-0.99079 0.06111-1.4863 0.08008-0.18346 0.00917-0.46833 0.00958-0.69922 0.01172-0.54706 1.0971-1.1489 2.1837-1.8691 3.2402h0.054688a26.355 26.355 0 0 1-0.85742 1.0058c0.81249 0.00998 1.6527 0.02684 2.4531 0.04102 0.9648-1.4271 1.7312-2.897 2.4043-4.3789zm29.844 2.7969v3.8828l-4.0449 0.43946c1.6859 0.22601 3.373 0.4433 5.0566 0.68554-0.64789 0.02083-1.2974 0.0085-1.9434 0.0625-0.55643 0.04655-1.2301-0.04045-1.7441 0.14258-0.67462-0.27576-1.3524-0.54337-2.0273-0.81836l-2.8945 0.31445 0.13086 0.90235c1.0992 0.41558 2.2002 0.82698 3.2988 1.2441l7.5156-0.13086 2.5391 0.04687c0.42588-0.18692 0.86309-0.35624 1.3008-0.52343 0.19141 0.19979 0.37506 0.37323 0.5625 0.24804 0.22233-0.14849 0.33826-0.38553 0.42773-0.64453 0.73825-0.29198 1.4447-0.63594 2.1094-1.0508 1.1813 0.17973 2.3634 0.35293 3.5449 0.53125l0.08984-0.62305-7.2812-0.82617v-1.2363c-0.27324-0.04358-0.5471-0.08322-0.82031-0.12695-1.5489-0.24792-3.0976-0.50123-4.6465-0.75 1.4153 0.0269 3.3723 0.08284 5.4668 0.13281v-1.7324c-2.093-0.05812-4.1859-0.12232-6.2793-0.16211-0.22717-0.00432-0.1482-0.00349-0.36133-0.00781zm-51.762 0.30273-0.13281 0.50782a4.7247 4.7247 0 0 0 0 2.0117c0.26725 0.01998 0.64364 0.04575 0.91797 0.0664a3.7115 3.7115 0 0 1-0.23242-1.1621 3.7004 3.7004 0 0 1 1.2637 1.2363c0.4682 0.03542 0.98972 0.07066 1.5 0.10938a4.6696 4.6696 0 0 0-2.8105-2.5938l-0.50586-0.17578zm16.873 1.4609a26.355 26.355 0 0 1-2.4902 2.9219 38.073 38.073 0 0 1-0.095703 0.07226c0.61233 0.04912 1.6441 0.14392 2.3965 0.19922a28.711 28.711 0 0 0 2.4551-2.9082c-0.54778-0.06998-1.0965-0.13108-1.6445-0.19922-0.15746-0.02187-0.46679-0.06428-0.62109-0.08594zm131.33 1.0957c1.8909 0.15197 3.7828 0.29222 5.6738 0.44336 0.03246 0.03438 0.06335 0.06545 0.09571 0.09961-2.272 0.10687-4.4167 0.19665-6.1074 0.24024-0.01027-0.16307-0.00896-0.29295-0.01562-0.44531 0.13789-0.1124 0.2269-0.22459 0.35352-0.3379zm-152.47 0.05469a3.7115 3.7115 0 0 1 3.8008 1.6953 3.6013 3.6013 0 0 1-2.2031-0.26367h0.042968a3.6344 3.6344 0 0 1-1.6406-1.4316zm-3.6211 0.02344c-0.13452 0.27722-0.17614 0.63732 0.037109 0.79101 0.15444 0.11132 0.61705 0.26351 0.97656 0.40235a25.958 25.958 0 0 1-1.0137-1.1934zm19.932 0.00977h0.011719a3.6454 3.6454 0 0 1-1.6406 1.4316 3.5463 3.5463 0 0 1-1.498 0.33007 3.4912 3.4912 0 0 1-0.67188-0.0664 3.7115 3.7115 0 0 1 3.7988-1.6953zm106.59 1.248-3.1856 0.44727 0.16992 1.2148c0.05966-0.01519 0.12021-0.01798 0.17969-0.03515 0.37671-0.10877 0.4153-0.51427 0.3418-0.97461 1.5945-0.03608 2.812-0.20789 2.4941-0.65235zm29.551 0.8711c0.23056 0.03598 0.44252 0.04616 0.66992 0.08007-0.13811 0.02486-0.28601 0.0556-0.41015 0.07813-0.09354-0.05097-0.17307-0.10538-0.25977-0.1582zm52.34 0.08789c-0.40536 0.33504-0.76763 0.6124-1.1465 0.88086-0.05966-0.02159-0.11764-0.04798-0.17773-0.06836 0.42134-0.26915 0.89758-0.48845 1.2324-0.81055 0.0306-2.3e-4 0.06119-0.00172 0.0918-0.00195zm-3.7109 0.03515c0.01358 0.04654 0.02816 0.09587 0.04101 0.14453-0.18791-0.04686-0.36758-0.09361-0.5625-0.14062 0.17383-0.00168 0.34766-0.00227 0.52149-0.00391zm-184.32 0.93164a38.073 38.073 0 0 1-5.0566 3.3594c1.3511 0.06717 3.1934 0.18795 3.7637 0.20117a56.167 56.167 0 0 0 3.1172-2.4727c-0.10517-0.00587-0.20335-0.01172-0.30859-0.01757-0.17767-0.55212-0.77387-0.8625-1.5156-1.0703zm-18.701 0.05078c-0.33803 0.03028-0.65993 0.13574-0.98242 0.23829-0.13302-0.00672-0.24275-0.02238-0.37695-0.02735a56.09 56.09 0 0 0 7.0625 5.2188c0.1962 0.02913 0.39178 0.06218 0.58789 0.0918 6.3484 0.95891 6.2089 0.96051 6.4785 0.99219a56.167 56.167 0 0 0 4.1895-2.6465c-1.1487-0.15678-2.2951-0.33039-3.4434-0.49023a38.073 38.073 0 0 1-3.3125 1.7461 38.084 38.084 0 0 1-8.3574-5.0664c-0.62582-0.0672-1.2445-0.11048-1.8457-0.05664zm136.57 0.06055c-4.2046 0.21075-8.4208 0.09321-12.631 0.11914-0.67907 0.00419-1.358 0.00466-2.0371 0.00781l0.07812 0.5625 7.082-0.1875 7.4121 0.1875 0.09571-0.68945zm110.16 0.43555c-0.36604 0.18196-0.7348 0.36135-1.1016 0.53711-0.39178 0.18774-0.74579 0.44476-1.1074 0.6875v8.3574c0.59801 0.23874 1.2121 0.42725 1.791 0.53516 0.13787 0.02569 0.27906 0.01999 0.41797 0.03711v-8.9004c-0.23818 0.0544-0.49843 0.12079-0.76172 0.19727 0.24271-0.27221 0.4894-0.54239 0.76172-0.79102v-0.66015zm-1.9277 1.4609c0.15195-0.01331 0.33653 9.3e-4 0.37891 0.08398 0.01274 0.02496 0.00504 0.06226 0.01367 0.08984-0.19025-0.03732-0.38285-0.05616-0.57227-0.09961-0.09087-0.02085 0.02774-0.06091 0.17969-0.07421zm-186.24 8.3008-0.44531 0.05859c0.05829 0.21724 0.17692 0.41236 0.2832 0.61133-0.3517-0.04267-0.6955-0.03456-1.0312 0.02734-3.2264-0.00829-4.5661 0.01853-6.9355 0.0293-0.001141-0.0762 0.019012-0.14818 0.003907-0.22656 0.31384-0.11854 0.62238-0.2234 0.94922-0.3711h-0.97656v2.3906h0.52734l0.61719-1.6856h2.0156v7.1836c0.48123 0.0221 0.96209 0.05103 1.4434 0.07226v-7.3008h2.7305l0.48438-0.08789v8.25l-0.80273 0.13086 0.066406 0.47461h1.4199 1.2773l0.078125-0.47461-0.73828-0.13086v-3.9648l0.40625-0.2539a3.2048 3.2048 0 0 1 1.4219-0.60547c0.53965 0 0.85938 0.31983 0.85938 1.0137v3.8535l-0.66211 0.13281 0.078125 0.47266h1.2559 1.4863l0.0664-0.47266-1.0137-0.13281v-3.5781c0-1.707-0.27484-2.3574-2.0039-2.3574l-1.9727 1.2891v-4.248c-0.21146-0.00949-0.42336-0.01277-0.63476-0.02344-0.06536-0.0033-0.16368-0.04513-0.25391-0.07617zm87.223 0.04101-0.34375 0.40235c0.64516-0.03641 1.3272-0.11445 2.0391-0.22852v-0.17383h-1.6953zm5.3848 0.09961v0.58985c0.19216 0.0412 0.65692 0.14374 0.82422 0.17968 0.091 0.01992 0.17671 0.03872 0.26758 0.0586l0.05273-0.14649h2.0273v0.60156c0.474 0.10313 0.93889 0.20616 1.4102 0.3086v-0.94336h2.0254l0.54492 1.5039c0.19554 0.04265 0.39458 0.08622 0.58985 0.1289v-2.2812h-3.877-3.8652zm-71.564 0.02149-0.06641 0.47265 1.2773 0.16602v5.6055c0 1.7291-0.78047 2.666-2.2012 2.666-1.4207 0-2.2031-0.9588-2.2031-2.6328v-5.6504l1.1016-0.17578-0.0293-0.20117c-1.2565-0.02443-2.513-0.04907-3.7695-0.07618l-0.04492 0.27735 1.2109 0.17578v5.5078c0 2.1366 0.94737 3.5684 3.6016 3.5684 2.6762-0.61674 3.3926-1.7958 3.3926-3.5469v-5.5059l1.1016-0.17774-0.06641-0.47265h-1.5762-1.7285zm41.146 0.02148-0.9707 0.06641-0.14258 0.65039 0.07812 0.74804 0.36329 0.08789 0.95703-0.08789 0.15429-0.63867-0.0664-0.75976-0.37305-0.06641zm-27.881 0.00586c-0.36767 0.06594-0.68483 0.10896-1.0293 0.16406l-0.11132 0.54688 0.07812 0.74804 0.36328 0.08789 0.95899-0.08789 0.14257-0.63867-0.0664-0.75976-0.33594-0.06055zm112.86 1.0352c-0.57381 0.01452-1.1388 0.03543-1.7012 0.04882l-2.9004 7.666-1.1016 0.1543 0.06641 0.47265h1.4551 1.6074l0.06641-0.47265-1.1797-0.17578 0.92578-2.5117h3.3047l0.91406 2.5117-1.1016 0.17578 0.06445 0.45312c0.05729-0.10294 0.09208-0.20829 0.13281-0.32617 0.35938-0.08219 0.71573-0.19075 1.0801-0.33008 0.01107 1.8e-4 0.02214-1.7e-4 0.03321 0-0.07858 0.65522 1.6364 0.34613 2.4199 0.43946 0.00452 5.3e-4 0.00915-5.4e-4 0.01367 0l0.0332-0.23633-1.1016-0.1543-3.0312-7.7148zm-1.0996 0.25976 0.09961 0.72656 1.3008 3.5566h-2.875l1.4746-4.2832zm-80.209 0.08789-0.88086 0.88086v0.88086h-0.88086l-0.47266 0.47266v0.23242h1.2988v4.0078c0 1.2225 0.19822 1.752 1.707 1.752l1.6953-0.92578-0.23047-0.46289a2.7974 2.7974 0 0 1-1.1777 0.375c-0.57269 0-0.7168-0.40821-0.7168-0.80468v-4.1172h2.0274l2.1992 5.666c0.00453-1.5e-4 0.01891 1.6e-4 0.02343 0l0.51953-0.14843-0.0957 0.14453c0.17568-0.00672 0.6171-0.04632 0.79102-0.05469l0.05273-0.11328 2.2031-5.5059 0.86914-0.13281-0.06446-0.47266h-1.1016-1.1894l-0.06641 0.47266 0.61719 0.13281-1.6641 4.8789-0.10938-0.93555-1.498-3.9434 0.88086-0.13281-0.0664-0.45117h-4.3164v-1.6953h-0.35351zm100.08 0-0.87109 0.88086v0.88086h-0.83594l-0.47461 0.47266v0.23242l1.3008-0.05469v4.0078c0 0.46227 0.057 0.79544 0.17383 1.0684 0.13678-0.06845 0.27444-0.13629 0.4043-0.20703 0.32972 0.04384 0.66078 0.07239 0.99023 0.11914 0.37895 0.07667 0.76177 0.14007 1.1426 0.20899l0.57031-0.31836-0.23047-0.45313a2.2577 2.2577 0 0 1-1.1016 0.32032c-0.57269 0-0.7168-0.40821-0.7168-0.80469v-3.9082h2.0274v-0.60743h-2.0274v-1.3613c-0.08463-0.00655-0.16927-0.01295-0.2539-0.01953 0.03747-0.13189 0.0791-0.30819 0.11523-0.45703h-0.21289zm22.209 0.71875c-0.33816 0.01425-0.67694 0.0469-1.0137 0.0586-0.3902 0.01352-0.78006 0.04103-1.1699 0.0625v3.541c0.65425-0.25051 1.4019-0.60485 2.209-1.0488v-2.6113c-0.00853 3.3e-4 -0.01686-0.00232-0.02539-0.00196zm-102.55 0.39258a2.5991 2.5991 0 0 0-0.20703 0.5293v0.13281h-0.78125l-0.39648 0.47266v0.23046h1.1777v2.8398c0.14378-0.00934 0.28662-0.02525 0.42969-0.04297 0.33103 0.00866 0.52654 0.01866 0.84765 0.02734v-2.8555h1.6953v-0.62891h-1.6953l-0.0332-0.35156a2.5881 2.5881 0 0 1 0.05078-0.27149c-0.16016-0.00872-0.32031-0.01662-0.48047-0.02539-0.11528-0.00631-0.4478-0.04254-0.60742-0.05664zm49.869 0.20508v0.44531h-0.86914l-0.47461 0.47266v0.23242l1.377 0.0332v4.0078c0 1.2224 0.19821 1.752 1.707 1.752l1.5762-0.88086-0.23242-0.45117a2.2687 2.2687 0 0 1-1.1016 0.31836c-0.56168 0-0.71484-0.40822-0.71484-0.80469v-3.9961h2.0254v-0.60743h-2.0586v-0.32812c-0.41143-0.0651-0.82237-0.13221-1.2344-0.19336zm-89.592 0.11523a3.37 3.37 0 0 0-2.5039 1.9727c0.29681 0.08121 0.60972 0.16867 0.90039 0.24805 0.18778-0.88254 0.6623-1.4941 1.373-1.4941 1.0462 0 1.2441 0.71475 1.2441 1.75l-1.4316 0.07031c0.17986 0.04899 0.39717 0.11004 0.57421 0.1582-0.13062 0.0576-0.25029 0.13894-0.3789 0.20117-0.24372-0.11804-0.47521-0.20404-0.68555-0.33593l-0.77734 0.03906c0.00701-0.07009 0.03064-0.12598 0.04101-0.19336-0.18783 0.1063-0.38018 0.55364-0.57031 1.0508-0.26964-0.01072-0.53895-0.0282-0.80859-0.03906a3.37 3.37 0 0 0-0.01563 0.04101 3.0507 3.0507 0 0 0 3.1055 3.3047 8.1498 8.1498 0 0 0 2.3457-1.1016l-0.20898-0.51758a3.4802 3.4802 0 0 1-1.6856 0.56055c-1.4207 0-2.2031-1.1013-2.2031-2.6211l4.0762 0.01172v-0.5625c0-0.3538-0.039-0.68812-0.12305-0.99219-0.0718 0.03367-0.09817 0.04149-0.17187 0.07618-0.25887-0.07021-0.58062-0.16229-0.8457-0.23438 0.3285 0.04573 0.68637 0.08404 1.0058 0.13086-0.25984-0.90068-0.93071-1.5234-2.2558-1.5234zm-36.389 0.04297a3.37 3.37 0 0 0-3.0488 3.4707 3.0507 3.0507 0 0 0 3.1055 3.3027 8.293 8.293 0 0 0 2.3555-1.1016l-0.21875-0.51758a3.4471 3.4471 0 0 1-1.6855 0.5625c-1.4097 0-2.2031-1.1013-2.2031-2.6211l4.0859 0.00976v-0.56055c0-1.4207-0.60649-2.5449-2.3906-2.5449zm19.395 0-1.9922 1.3106-0.06641-1.1016h-0.58398l-1.6074 0.4082 0.06641 0.47461 0.93555-0.07813v4.9238l-0.93555 0.13086 0.06445 0.47461h1.5547l1.2656 0.02148 0.07617-0.47265-0.73633-0.13281v-3.998l0.39648-0.26367a2.7753 2.7753 0 0 1 1.4082-0.60547c0.57269 0 0.89258 0.31789 0.89258 1.0117v3.8555l-0.68164 0.13281 0.07617 0.47265h1.2891 1.541l0.06641-0.47265-1.0234-0.13281v-3.7559c0-1.6079-0.27678-2.2031-2.0059-2.2031zm28.447 0c-1.5639 0.34141-2.4336 0.85951-2.4336 1.8066a1.8172 1.8172 0 0 0 1.1016 1.5645l1.1016 0.55078c0.69384 0.36344 0.98047 0.59494 0.98047 1.1016a0.99119 0.99119 0 0 1-1.1016 1.0234 1.9604 1.9604 0 0 1-1.1016-0.3418l-0.4629-1.1016h-0.85937l0.25391 1.5195a4.6366 4.6366 0 0 0 2.0488 0.60742c1.5529-0.3304 2.5332-0.79442 2.5332-2.0059a1.8392 1.8392 0 0 0-1.2676-1.7402l-1.0352-0.52735c-0.60573-0.30837-0.94726-0.57314-0.94726-1.0137s0.49676-0.79297 1.0254-0.79297a2.2026 2.2026 0 0 1 1.0234 0.28711l0.32031 1.0234h0.71484v-1.3555a3.6564 3.6564 0 0 0-1.8945-0.60547zm58.514 0-2.3906 1.1348v1.0254h1.168l0.23242-1.1016a3.1938 3.1938 0 0 1 1.0996-0.24219c0.72687 0 0.79297 0.48315 0.79297 1.2871v0.68359l-3.0274 1.002a1.9934 1.9934 0 0 0-0.47461 1.2442 1.7511 1.7511 0 0 0 1.9824 1.7305l1.5645-1.2012 0.4082 1.0352 1.7402-0.33008-0.05665-0.47461h-0.67187a1.641 1.641 0 0 1-0.23047-1.0117v-2.6328c0-1.707-0.44069-2.1484-2.1367-2.1484zm6.4531 0c-0.19257 0.04204-0.34053 0.09666-0.51172 0.14453 0.0117 0.02038 0.02716 0.03524 0.04101 0.05274 0.19129 0.11219 0.36942 0.25394 0.57422 0.33789-0.48375-0.02853-0.96738-0.06001-1.4512-0.08789-0.68472 0.32225-1.0859 0.74466-1.0859 1.3594a1.8172 1.8172 0 0 0 1.1016 1.5645l1.1016 0.55078c0.69384 0.36344 0.98047 0.59496 0.98047 1.1016a0.99119 0.99119 0 0 1-1.1016 1.0234 1.9604 1.9604 0 0 1-1.1016-0.3418l-0.46289-1.1016h-0.85937l0.2539 1.5195a4.6586 4.6586 0 0 0 2.0606 0.60742c1.5418-0.33039 2.5312-0.79441 2.5312-2.0059 0-0.77093-0.36255-1.2887-1.2656-1.7402l-1.0352-0.52735c-0.60572-0.30837-0.94727-0.57314-0.94727-1.0137s0.4948-0.79297 1.0234-0.79297a2.2026 2.2026 0 0 1 1.0254 0.28711l0.30859 1.0684h0.71485v-1.4004a3.6454 3.6454 0 0 0-1.8945-0.60547zm8.7891 0-2.3672 1.1348v1.0254h1.166l0.23242-1.1016a3.1938 3.1938 0 0 1 1.1016-0.24219c0.72687 0 0.79297 0.48315 0.79297 1.2871v0.68359l-3.0293 1.002a1.9934 1.9934 0 0 0-0.47265 1.2442 1.7511 1.7511 0 0 0 1.9824 1.7305l1.541-1.2012 0.40821 1.0352 1.7402-0.33008-0.05664-0.47461h-0.67187a1.641 1.641 0 0 1-0.23047-1.0117v-2.6328c0-1.707-0.44069-2.1484-2.1367-2.1484zm46.09 0-1.9922 1.3106-0.06641-1.1016h-0.58399l-1.6074 0.4082 0.06641 0.47461 0.94727-0.07813v4.9238l-0.94727 0.13086 0.07617 0.47461h1.543l1.2656-0.0332 0.0664-0.47461-0.73828-0.13086v-3.9434l0.4082-0.26367a2.7093 2.7093 0 0 1 1.3984-0.60547c0.57268 0 0.89063 0.31789 0.89063 1.0117v0.23047c0.42645 0.02165 0.85288 0.04191 1.2793 0.06445v-0.19531c0-1.6079-0.27679-2.2031-2.0059-2.2031zm-124.35 0.05664-1.5312 1.8828-0.02148-1.752h-0.53906l-1.6094 0.40821 0.06641 0.47265 0.94726-0.07617v0.85742c0.13159 0.00737 0.26293 0.0165 0.39453 0.02344 0.09244 0.0175 0.18499 0.0348 0.27735 0.05273-0.09981 0.01554-0.20143 0.01533-0.30078 0.03516-0.12597 0.02514-0.24635 0.07009-0.3711 0.09961v3.8535l-0.94726 0.13282 0.07812 0.47265h1.5078 1.9492l0.07813-0.51758-1.4219-0.13085v-3.1719l0.27539-0.32031a3.0396 3.0396 0 0 1 1.2774-0.95703h0.99219v-1.3652h-1.1016zm27.787 0c-2.0925 0.35243-3.3047 1.497-3.3047 3.5234a3.0066 3.0066 0 0 0 1.9746 2.7695c0.03426-0.09633 0.08378-0.18585 0.09766-0.29101 0.14319-0.06614 0.28853-0.13019 0.43164-0.19336 0.00391-3e-5 0.00781 2e-5 0.01172 0-0.53679-0.36248-0.92194-1.0752-1.0801-1.9062-0.0358 1.1e-4 -0.07161-1.2e-4 -0.10742 0 0.03404-0.01332 0.06755-0.02762 0.10156-0.04102-0.0387-0.21587-0.09608-0.42414-0.09765-0.65234 7e-3 -1.451 0.54745-2.5488 1.6309-2.5488 1.0903 0 1.9824 1.1005 1.9824 2.8516 0 1.0363-0.29185 1.8789-0.84375 2.2891 0.35741-0.00243 0.71485-0.00345 1.0723-0.00586 0.70691-0.59771 1.125-1.4316 1.125-2.5586a3.0176 3.0176 0 0 0-2.9941-3.2363zm80.648 0c-1.5639 0.34141-2.4336 0.85755-2.4336 1.8047a1.8392 1.8392 0 0 0 1.1016 1.5644l1.1016 0.55078c0.70485 0.36343 0.98047 0.59496 0.98047 1.1016a0.99119 0.99119 0 0 1-1.1016 1.0234 1.9824 1.9824 0 0 1-1.1016-0.34179l-0.4629-1.0996h-0.85937l0.25391 1.5195a4.6366 4.6366 0 0 0 1.5273 0.45117c0.32883 0.0085 0.65748 0.02157 0.98633 0.0293 1.2572-0.32648 2.0684-0.80194 2.0684-1.8789a1.8392 1.8392 0 0 0-1.2891-1.7852l-1.0352-0.5293c-0.60573-0.30837-0.93555-0.57119-0.93555-1.0117s0.4941-0.79297 1.0117-0.79297a2.2026 2.2026 0 0 1 1.0254 0.28516l0.33008 0.96875h0.70508v-1.3106a3.6894 3.6894 0 0 0-1.873-0.54883zm-65.473 0.02344v5.7012c0.47001-8.1e-4 0.94015-0.00144 1.4102-0.00195v-5.6445c-0.47002-0.0193-0.94008-0.03665-1.4102-0.05469zm61.199 0.05273-0.66992 0.05469-1.4883 0.35352 0.06641 0.51758 0.80468-0.06641v3.7891l-0.26562 0.17578a3.304 3.304 0 0 1-1.4648 0.68164c-0.66077 0-0.95703-0.30688-0.95703-1.0117v-4.4609l-0.68359 0.05469-1.6191 0.35351 0.07812 0.51758 0.93555-0.06641v3.5137c0 0.8924 0.13627 1.4542 0.54883 1.7969 0.67322 0.0422 1.3467 0.08482 2.0215 0.10742l1.4824-0.88086 0.32226 0.94727c0.25059 0.00986 0.50135 0.01234 0.75195 0.02148l1.041-0.19726-0.05469-0.47461h-0.67187a2.2026 2.2026 0 0 1-0.16602-1.0137l-0.01172-4.7129zm-51.254 0.01172-0.06641 0.48438 0.83594 0.13086 1.9492 2.6777-1.9922 2.4551-0.9375 0.13281 0.06641 0.47266h1.3887 1.1016l0.06641-0.47266-0.51758-0.02344 1.4199-2.0586 0.10937 0.32031 1.1133 1.6836-0.55079 0.13281 0.06641 0.47266h1.2774 1.541l0.06641-0.47266-0.83594-0.13281-2.1152-2.9844 1.7734-2.2031 0.96875-0.13086-0.0664-0.48438h-1.3867-1.1016l-0.0664 0.48438 0.65039 0.13086-1.2773 1.8516-0.11133-0.36328-0.99024-1.4883 0.51758-0.13086-0.0664-0.48438h-1.2891-1.541zm-70.045 0.00977-0.06641 0.47461 0.81445 0.12695c0.44635 0.00572 0.94967 0.02468 1.3867 0.0293l-0.00976-0.02539 0.89257-0.13086-0.0664-0.47461h-1.4082-1.543zm-1.0469 0.01172-0.67188 0.05469-1.6172 0.4082 0.00781 0.04297c0.7671 0.01379 1.5303 0.03535 2.2812 0.04687v-0.55273zm27.887 0-0.67188 0.05469-1.6191 0.4082 0.06641 0.47265 0.94727-0.07617v4.9219l-0.94727 0.13281 0.07617 0.47266h1.543l1.541 0.01171 0.07812-0.47265-1.0137-0.13281v-5.793zm108.82 0-0.67187 0.05469-1.6172 0.4082 0.07617 0.47265 0.93555-0.07617v4.9219l-0.93555 0.13281 0.06641 0.47266h1.541l1.5527-0.03321 0.0664-0.47265-1.0137-0.13282v-5.748zm-130.86 0.01172-0.06641 0.47265 0.61719 0.13282-0.1543 0.46093c0.28562 0.07857 0.5429 0.15127 0.82422 0.22852l0.27539-0.68945 0.85938-0.13282-0.06641-0.47265h-1.0996-1.1894zm61.744 0.15234a3.37 3.37 0 0 0-2.4824 3.1836 3.0507 3.0507 0 0 0 3.1055 3.3047 8.2709 8.2709 0 0 0 2.3574-1.1016l-0.2207-0.51758a3.4471 3.4471 0 0 1-1.6856 0.56055c-1.4097 0-2.2031-1.1013-2.2031-2.6211l4.0762 0.01172v-0.5625c0-0.95441-0.31262-1.7405-1.0332-2.1758-0.63803-0.02665-1.276-0.05529-1.9141-0.08203zm-69.875 0.34961 0.06641 0.41211c0.25034-0.12832 0.32524-0.19905 0.69726-0.36719-0.20591-0.01167-0.54128-0.03235-0.76367-0.04492zm-23.115 0.00391c1.0352 0 1.2344 0.71475 1.2344 1.75l-2.6992 0.13281c0.11013-1.1013 0.62785-1.8828 1.4648-1.8828zm93.305 0.04296c1.0352 0 1.2344 0.71672 1.2344 1.752l-2.6992 0.13281c0.11013-1.1013 0.63885-1.8848 1.4648-1.8848zm-64.617 0.35157c-0.39737 0.05302-0.83041 0.12193-1.2715 0.1914l2.1445 5.4277 0.98047-0.40821 1.1973-2.9961c-0.25594-0.01076-0.51165-0.02611-0.76758-0.03711l-0.80469 2.4062-0.13281-0.95898-0.56641-1.5215c-0.37769-0.01705-0.75516-0.03885-1.1328-0.05664 0.31199-0.13469 0.62181-0.30378 0.92969-0.49219l-0.57617-1.5547zm-3.291 0.49414c-0.47098 0.07643-0.86563 0.12876-1.2773 0.1875v0.07031c0.03533 0.02004 0.07006 0.03574 0.10546 0.05664-0.03016 0.00231-0.0617 0.01381-0.09179 0.01563-0.00434 2.6e-4 -0.00933-2.7e-4 -0.01367 0v4.0449l-0.93555 0.13281 0.06641 0.47266h1.5527l1.5312 0.01171 0.06641-0.47265-1.0039-0.13281v-4.3867zm152.31 0.6914c-0.02878 0.06064-0.06886 0.14946-0.05078 0.09375 0.01446-0.04458 0.00793-0.0438 0.02148-0.08593 0.00912-0.00372 0.02021-0.00405 0.0293-0.00782zm-138.95 0.18946c-0.0056 0.02396-0.03111 0.05868-0.03907 0.08398-0.01931-6.1e-4 -0.0392-0.00495-0.05859-0.00586 0.04715-0.03493 0.04282-0.03732 0.09766-0.07812zm129.9 0.09375v2.8965c0.4266 0.02485 0.85208 0.04463 1.2793 0.07617v-2.9043c-0.42649-0.02185-0.8528-0.0464-1.2793-0.06836zm8.0664 0.5v1.2051c0.70424-0.36386 1.403-0.74729 2.123-1.0605-0.70679-0.0633-1.4156-0.09217-2.123-0.14453zm-69.211 0.3125v1.752l-0.5625 0.39648a1.6079 1.6079 0 0 1-0.88085 0.35157c-0.39647 0-0.78125-0.24171-0.78126-0.93555a1.0242 1.0242 0 0 1 0.2754-0.75l1.9492-0.81445zm15.254 0 0.00977 1.752-0.56055 0.39648a1.6079 1.6079 0 0 1-0.88086 0.35157c-0.39648 0-0.7832-0.24171-0.7832-0.93555a1.0132 1.0132 0 0 1 0.26562-0.75l1.9492-0.81445zm-45.342 0.54883c-0.42576 0.00277-0.85157 0.00519-1.2773 0.00781v1.9199c0.42578-0.0027 0.85157-0.00521 1.2773-0.00781v-1.9199zm-7.2871 1.959c0.10286-7.1e-4 0.20574 7.1e-4 0.3086 0-0.01369-7e-5 -0.20682 0.05449-0.29688 0.08203 0.00145-0.0251-0.01195-0.05643-0.01172-0.08203zm-82.742 0.09961c-0.42303 0.18982-0.84361 0.38056-1.1992 0.63086h0.30273 2.2031l0.066406-0.47461-1.373-0.15625zm180.77 0.08789-0.19336 0.03711 0.07618 0.47265h0.42382c0.02262-0.18656-0.11993-0.35173-0.30664-0.50976zm-79.277 0.00976c-0.3257 0.17012-0.64888 0.34217-0.96875 0.52149h1.5273l0.05665-0.45117-0.61524-0.07032zm-27.377 0.59766-1.1172 1.6973h-1.1562v1.3438l1.6856-0.04297 1.3496-2.9102c-0.25397-0.0287-0.50768-0.05987-0.76172-0.08789zm115.21 3.875v3.9297c0.26722-0.05483 0.54019-0.08281 0.80664-0.14063 0.47277-0.10257 1.0137-0.12576 1.4024-0.39257v-3.293c-0.73586-0.04177-1.4726-0.0723-2.209-0.10352zm-197.28 4.9629c-0.99861 0.34385-1.9563 0.75382-2.7969 1.3281-1.0962 0.74892 2.6548 0.01452 3.9824 0.01562 5.3412 5e-3 4.7672-0.00505 10.197-0.06445 3.4668-0.08782 4.2327 0.06394 5.9355-0.6543 0.03901 0.01001 0.08026 0.00885 0.11914 0.01953 0.0558 0.0153 0.0312 0.21081 0.0625 0.16211 0.06677-0.10387 0.20546-0.24058 0.3125-0.36133 0.04118-0.01954 0.11574-0.06151 0.1582-0.08203 1.291-0.0482 2.5821-0.10031 3.873-0.15039 0.10151-0.08376 0.21159-0.13948 0.3164-0.21289h-22.16zm24.943 0c0.80148 0.93951 2.3017 0.70962 4.0859 0h-4.0859zm7.0664 0c1.2351 0.17895 2.4386 0.25051 3.541 0h-3.541zm25.354 0c0.30793 0.01177 0.6159 0.02333 0.92383 0.03516-1.3249 0.15526-2.6545 0.27593-3.9805 0.42187-17.767 1.9555 3.2211-0.45147-13.316 1.4629-0.50557 0.19325-1.0225 0.36175-1.5352 0.53907h12c0.12193-0.01331 0.05455-0.00564 0.18164-0.01954 1.9964-0.21824 4.0072-0.33239 5.9883-0.6621 0.72016-0.11985 2.273 0.02298 2.082-0.68164-0.095-0.35049-0.24972-0.69163-0.43164-1.0215 1.0175 0.03929 2.0352 0.07524 3.0527 0.11523 2.1279 0.08365 4.255 0.17564 6.3828 0.26172-0.524 0.23371-0.92245 0.53797-1.1406 0.93555-0.49808 0.90762 1.0002 0.61851 2.5449 0.31055 0.05915 0.05233 0.08591 0.14803 0.16211 0.17383 0.97453 0.32987 1.9856 0.48681 3.0078 0.58789h63.148c-0.13988-0.01661-0.28006-0.03011-0.41992-0.04688-2.7539-0.33015-3.4264-0.36074-4.2578-0.43945 0.36391-0.13701 0.72996-0.26971 1.0801-0.44141 0.2529-0.12402 0.02918-0.14746-0.3125-0.14453 0.50838-0.09336 1.0153-0.20769 1.5254-0.26562 2.8027-0.31833 5.614-0.56179 8.4199-0.84961 1.5941-0.16352 3.233-0.12806 4.832-0.27149h-22.062c-0.0042 0.04486-0.0231 0.08328-0.02539 0.12891-0.02148 0.4288 0.34473 0.64653 0.80273 0.82031-2.3003-0.28403-4.5929-0.61269-6.8848-0.94922h-10.949c1.6746 0.37329 3.4616 0.79641 5.043 1.1309-0.95072-0.0157-1.9009-0.03663-2.8516-0.05469-0.35459 0.04691-0.71202 0.07999-1.0645 0.14063 0.08372-0.5159 0.05278-0.60057-0.61328-0.73438-1.2291-0.24692-3.493-0.38859-4.9766-0.48242h-46.355zm97.91 0c-0.1481 0.12314-0.31663 0.22299-0.45899 0.35156-0.2553 0.23059 0.27653 0.05871 0.8086-0.11718 0.60702 0.51881 1.4703 0.14521 2.3379-0.23438h-2.6875zm24.975 0c-0.70334 0.41484-1.3261 0.82656-1.8672 1.3027 0.52722-0.26269 1.4844-0.39426 1.9883-0.66407 0.47961-0.21268 0.96074-0.42388 1.4394-0.63867h-1.5605zm-1.8672 1.3027c-0.1942 0.09675-0.36167 0.20209-0.37695 0.35351 0.11465-0.1203 0.24287-0.23553 0.37695-0.35351zm-0.37695 0.35351c-0.25137 0.26374-0.4411 0.53229-0.57032 0.80274h8.5371c0.12805-0.10377 0.25596-0.20774 0.38477-0.31055 0.0095 0.10368 0.02558 0.20714 0.01758 0.31055h3.0625c0.11065-0.58147 0.23765-1.1659 0.20703-1.7539-0.01116-0.21419-0.08353-0.41601-0.16993-0.61523 0.35155-0.03233 0.70358-0.0522 1.0547-0.08985h-6.5859c0.56939 0.284 1.3914 0.20396 2.0312 0.38672 0.65671-0.02679 1.3104-0.12224 1.9668-0.16797-1.0038 0.56909-2.0147 1.1245-2.9863 1.7461-0.04403 0.02817-0.37919 0.30404-0.52734 0.41796-0.61198-0.1213-1.2341-0.19133-1.8359-0.35351-0.68151-0.18365-1.232-0.83463-1.9375-0.85742-0.89904-0.029-2.1832 1.5043-2.6035 0.70898-0.04469-0.08456-0.05187-0.15582-0.04492-0.22461zm14.385-1.6562c-0.05668 0.81951-0.10719 1.6389-0.1582 2.459h3.0644c0.03342-0.82041 0.08896-1.6392 0.14258-2.459h-3.0488zm-94.9 1.7891c0.80094 0.04486 1.4652 0.0788 2.3867 0.12891 0.59441 0.05293 1.3956 0.11557 2.1777 0.18164-1.5827-0.10594-3.1875-0.20666-4.5644-0.31055z"/>
</svg>
