<?xml version="1.0" encoding="UTF-8"?>
<svg overflow="hidden" version="1.1" viewBox="0 0 1700 700" xmlns="http://www.w3.org/2000/svg">
	<title>d2-value-proposition</title>
	<defs>
		<marker id="marker5751" style="overflow:visible;fill:none;" markerHeight="7" markerWidth="4.21" orient="auto-start-reverse" preserveAspectRatio="xMidYMid" viewBox="0 0 4.21 7">
			<path transform="rotate(180 .125 0)" d="m3-3-3 3 3 3" style="stroke-linecap:round;stroke:black"/>
		</marker>
	</defs>
	<g transform="matrix(1.6 0 0 1.6 -155 -288)" fill-rule="evenodd">
		<path d="m640 209c96.4 0 174 78.1 174 174 0 36.8-11.7 72.8-33.3 103l-141-103z" fill="#4472c4" style="fill:none;stroke-width:6.25;stroke:#000"/>
		<path d="m781 486c-30.6 42.1-78.3 68.3-130 71.6l-11-174z" fill="#ed7d31" style="fill:none;stroke-width:6.25;stroke:#000"/>
		<path d="m651 557c-67.5 4.24-131-30.9-164-90.1l153-84.1z" fill="#a5a5a5" style="fill:none;stroke-width:6.25;stroke:#000"/>
		<path d="m487 467c-46.4-84.4-15.6-191 68.8-237 25.8-14.2 54.7-21.6 84.1-21.6v174z" fill="#ffc000" style="fill:none;stroke-width:6.25;stroke:#000"/>
	</g>
	<g>
		<path d="m1095 469c-4.8 1.26-9.59 2.53-14.4 3.79-0.324 0.0883-1.2 0.512-0.971 0.265 6.38-6.96 0.893 4.23 15.4-4.06 6.63-3.8 11.4-10.2 17.1-15.3 1.26-1.09 4.49-2.03 3.62-3.44-1.8-2.91-36.2 14.4-39.9 16.2-1.12 0.548-2.87 2.83-3.35 1.68-0.553-1.31 1.59-2.4 2.65-3.35 7.74-6.99 18.3-14.3 26.5-20.2 3.81-2.75 7.67-5.44 11.5-8.21 1.05-0.765 4.31-1.93 3.09-2.38-1.36-0.509-2.54 1.39-3.8 2.12-4.45 2.57-31.4 18.4-35.1 20.2-39.1 19-9.72-4.56 5.74-14.9 9.16-6.13 11.2-6.45 19.3-10.1 0.696-0.318-1.43 0.544-2.12 0.883-3.91 1.93-7.78 3.92-11.6 5.91-8.87 4.57-17.6 9.33-26.6 13.8-2.31 1.15-4.65 3.64-7.15 3-1.79-0.461 2.6-2.65 4.06-3.79 4.76-3.74 9.6-7.39 14.6-10.9 42.4-29.7-0.116 0.754 31.3-20.2 3.17-2.12 12.1-9.02 8.56-7.59-7.97 3.23-54.8 29.3-60.2 27.6-2.07-0.637 1.7-4.17 3.35-5.56 5.37-4.53 11.7-7.79 17.4-11.9 22.1-16 2.11-3.37 24.4-17.6 4.02-2.56 8.16-4.94 12.2-7.5 1.1-0.703 4.47-2.51 3.18-2.29-20.7 3.47-40.4 18.4-58.3 28.2-3.28 1.8-6.19 4.49-9.8 5.47-1.69 0.458 2.24-2.72 3.62-3.79 4.06-3.17 8.3-6.1 12.6-8.91 14.4-9.37 29.1-18.2 43.5-27.6 5.77-3.76 11.3-7.9 16.9-11.8 1.67-1.16 6.9-4.23 5.03-3.44-3.68 1.54-6.93 3.96-10.5 5.74-5.78 2.88-46.8 22.4-52.3 24.9-5.02 2.27-9.84 5.42-15.3 6.35-1.26 0.216-2.53-2.49-1.68-3.44 12.2-13.6 42-30.7 58.2-40.9 6.2-3.9 12.5-7.66 18.6-11.6 2.16-1.4 4.82-2.37 6.27-4.5 2.58-3.8-9.09 1.63-13.4 3.18-25.8 9.22-19.9 6.93-50.8 22.2-9.07 4.46-17.9 9.49-27 13.8-3.69 1.73-13.4 7.85-11.5 4.24 2.69-5.14 9.56-6.57 14.4-9.8 37.6-25.1 18.3-12.7 61.1-37.5 4.35-2.53 17.4-10 12.9-7.85-5.99 2.83-12 5.73-17.9 8.65-49.7 24.3-14 6.37-65 34.4-7.17 3.95-14.4 7.83-21.7 11.5-1.51 0.749-5.99 2.84-4.77 1.68 23.3-22.1 61.7-42.3 89.8-59.2 6.23-3.74 12.6-7.24 18.8-11 0.64-0.392 2.35-1.82 1.68-1.5-29.1 13.8-57.2 30-84.3 47.3-9.98 6.39-19.7 13.2-29.7 19.6-1.74 1.11-7.05 4.24-5.47 2.91 19.3-16.3 46.4-35.8 66.6-49.9 11.2-7.76 22.8-14.8 33.9-22.7 7.67-5.49 15.4-11 22.2-17.5 0.624-0.585-0.33-2.55-1.15-2.29-6.91 2.12-13.3 5.59-19.9 8.74-15.6 7.53-31 15.3-46.3 23.3-11.2 5.85-22.1 12.2-33.2 18.3-4.36 2.37-10.7 11.3-13.2 6.97-2.47-4.42 7.31-7.09 11.5-9.97 21.8-15.1 44.1-29.5 66.4-43.9 7.83-5.06 16-9.61 23.9-14.5 2-1.22 8.07-4.71 5.91-3.79-7.96 3.38-15.8 7.12-23.4 11.2-13.3 7.1-26.2 14.8-39.2 22.3-27.3 15.9-53.4 34.2-81.9 47.7-1.58 0.75 1.05-3.55 2.38-4.68 9.46-8.03 19.5-15.3 29.7-22.5 40.7-28.8 57.2-39.1 95.5-63.7 5.5-3.54 18.5-4.35 16.5-10.6-1.92-6.13-11.3 6.08-16.9 9.18-45.9 25.3-91.1 52.6-138 76.8-5.21 2.7-11.1 8.81-16.4 6.35-3.98-1.83 5.2-7.16 8.56-9.97 14.6-12.2 29.7-23.8 45.1-34.9 20.8-15.1 68-50.1 95.6-59.7 4.4-1.52-7.76 5.17-11.7 7.59-12.8 7.81-26 15.1-38.7 23.1-24.2 15.3-48 31.4-72.1 47-13.2 8.48-26.1 17.3-39.7 25.1-1.82 1.04-7.67 2.71-6.18 1.24 50.4-49.9 112-87 170-127 4.7-3.21-9.65 6.04-14.6 8.91-27 15.8-54.2 31.2-81.4 46.7-10 5.72-19.6 12.2-30.1 17-1.95 0.896-8.13 1.07-6.44-0.265 30.8-24.4 61.7-44.7 94.8-64.7 14-8.48 28.3-16.5 42.3-25.1 1.41-0.862 5.4-3.57 3.8-3.18-40.3 9.85-93.2 44.5-127 66.2-18.1 11.6-35.4 24.4-53.3 36.4-2.05 1.37-8.29 5.25-6.44 3.62 40.8-35.9 86-67.7 131-98.1 8.5-5.77 17.6-10.6 26-16.5 2.91-2.06-6.48 3.02-9.53 4.85-12.7 7.64-25.4 15.4-37.8 23.6-18.4 12.1-36.6 24.5-54.7 37-15.4 10.5-30.4 21.6-45.8 32-5.93 4.03-11.2 9.87-18.2 11.5-3.3 0.756 2.96-6.29 5.47-8.56 14.8-13.3 30.5-25.7 46.2-37.9 30.4-23.8 71.4-50 102-69.8 3.5-2.29 14.4-8.53 10.8-6.44-45.4 26.1-87.9 56-132 83.7-9.27 5.78-18.9 11-28.7 15.9-1.89 0.932-7.5 2.96-6.18 1.32 19-23.5 80.4-65.4 99.6-79.6 12.7-9.37 25.7-18.3 38.2-27.8 2.37-1.8 9.2-5.06 6.44-6.18-3.7-1.51-7.72 2.29-11.2 4.24-46.9 26.2-44.9 27.1-84.7 53.1-17.5 11.4-34.7 23.2-52.6 33.9-2.58 1.55-9.7 5.6-8.56 2.82 3.67-8.95 35.7-33.4 38.7-35.7 33.5-25.6 66.4-48.8 101-72.6 10.5-7.22 22.7-12.3 31.8-21.3 5.46-5.37-13.8 6.62-20.6 10.2-130 69.7 49.7-24.6-123 68.3-9.08 4.89-17.9 10.8-27.9 13.4-1.91 0.5-2.77-4.22-1.5-5.74 7.46-8.91 16.8-16.1 25.9-23.4 31.1-24.8 64.8-47.7 101-64.5 3.98-1.86-6.56 5.89-10.2 8.3-12.8 8.38-26 16.3-39.2 24-18.2 10.6-36.5 21.2-55.2 31-5.95 3.12-11.9 7.32-18.6 7.68-2.37 0.127 0.476-5.08 2.12-6.8 7.48-7.8 16-14.6 24.6-21.1 40.5-30.3 42.3-30.7 75.5-50.3 4.29-2.53 8.58-5.08 12.9-7.59 0.785-0.458 3.15-1.8 2.38-1.32-28.1 17.5-57.4 33.8-86 50.3-11.4 6.59-22.3 14.2-34.4 19.3-1.46 0.613-4.05-2.36-3.09-3.62 14.6-19 96.3-67.7 105-73 1.78-1.1 7.23-4.03 5.74-2.56-3.03 2.98-6.91 4.96-10.5 7.24-28 17.8-57.7 36.4-86.9 52.4-5.25 2.87-10.7 5.42-16.2 7.68-2.28 0.929-6.76 4.28-7.15 1.85-0.532-3.29 3.7-5.62 6.18-7.85 16.9-15.2 41.2-32.4 59.5-44.7 7.86-5.3 16.1-10 24.1-15.1 1.8-1.15 7.42-3.85 5.3-3.62-3.92 0.422-7.5 2.5-11 4.24-10.6 5.21-20.7 11.3-31.2 16.6-11.2 5.66-22.4 11.4-33.9 16.3-5.71 2.44-11.5 6.2-17.7 5.74-2.56-0.192 1.83-4.95 3.62-6.8 4.22-4.35 9.23-7.89 14.1-11.5 21.1-15.4 43.6-31.9 67.6-42.6 6.15-2.74-11.3 7.29-17.2 10.6-10.9 6.14-21.9 12.2-33 18-10.9 5.62-21.7 11.4-32.9 16.2-1.07 0.448-3.95 0.11-3.35-0.883 1.98-3.33 5.6-5.36 8.56-7.85 20.8-17.5 44.5-30.6 66.6-46.2 1-0.707-2.28 0.909-3.35 1.5-5.76 3.18-11.2 6.88-17.1 9.8-2.25 1.11-32.5 15.3-39.5 15.3-1.91 0 1.45-3.71 2.91-4.94 16-13.4 32.1-22.7 49.9-32.8 0.914-0.522-1.9 0.917-2.82 1.41-6.78 3.61-42.7 23.1-50.9 26.8-3.66 1.67-9.99 7.54-11.5 3.79-1.57-3.97 6.23-5.88 9.62-8.47 19-14.6 17.4-12.6 37-23.2 1.27-0.69 5.22-2.4 3.79-2.12-20.8 4.17-37.9 18.3-57.5 25.5-2.46 0.904-8.21 3.04-7.85 0.441 0.838-6.16 29.6-23.1 33.2-25.5 5.15-3.37 10.3-6.69 15.5-9.97 1.65-1.04 6.9-3.55 5.03-3-4.66 1.36-52.4 22.7-53.5 14.7-0.428-3.21 11.5-9.91 16.2-12.9" style="fill:none;mix-blend-mode:normal;stroke-linecap:round;stroke-width:12;stroke:#4472c4"/>
		<path d="m879 340c41.3-6.04-6.88 13.9-3.09 18 2.62 2.82 33.9-6.99 19.9 2.12-2.13 1.38-4.3 2.71-6.44 4.06-4.04 2.55-9.32 5.25-12.9 8.47-2.41 2.18 6.12-2.29 9-3.79 5.77-2.86 11.1-6.54 16.8-9.53 1.53-0.808 5.88-2.83 5.03-1.32-5.73 10.1-17.7 15.8-26.3 23.1-5.09 4.3-6.84 6.97-6.71 7.06 8.39 5.66 28.3-12.1 36.5-14.7 2.37-0.723 8.9-1.63 7.41 0.353-7.01 9.35-47.1 30.8-47.5 36.5-0.103 1.44 2.78-0.834 4.06-1.5 4.44-2.31 8.7-4.96 13.1-7.41 12.2-6.89 15.9-9.46 28.7-14.4 5.82-2.24 18.2-6.07 13.9-1.06-6.02 6.89-48.5 33-49.2 37.5-0.205 1.4 2.93 0.203 4.24-0.353 4.58-1.95 8.77-4.7 13.2-7.06 12.2-6.58 24.1-13.6 36.5-19.8 3.55-1.76 7.39-2.92 11.2-3.97 1.02-0.282 3.82-0.839 3.18 0-13.4 17.4-35.9 28-53.6 40.3-4.49 3.12-9.16 6-13.3 9.53-1.14 0.966-3.82 4.21-2.38 3.79 4.81-1.4 8.93-4.56 13.3-6.97 14.6-8 56.1-34.3 69-34.9 2.75-0.113-2.93 4.74-4.94 6.62-4.63 4.34-9.74 8.13-14.8 11.9-6.62 4.92-46.6 31.4-53.7 40.5-1.04 1.32 3.31-0.823 4.77-1.68 4.94-2.9 9.42-6.53 14.3-9.53 5.22-3.21 31.1-18 37.5-20.8 10.1-4.36 16.1-5.2 14.6-2.56-9.34 15.7-30 25.6-43.4 36.5-0.229 0.187-33.6 30.7-36.3 33.7-0.566 0.638 1.83 0.438 2.56 0 5.18-3.1 9.88-6.95 14.8-10.4 17.7-12.4 35.3-24.9 53-37.2 6.21-4.29 26.8-17.3 28.9-18.4 3.87-2.15 8.01-3.81 12.2-5.3 0.491-0.174 1.75-0.0152 1.5 0.441-6.94 12.6-51.3 43.4-64.3 53.5-16.8 13.1-33.6 26.1-50.4 39.3-0.836 0.656-3.28 2.69-2.38 2.12 7.62-4.91 14.5-11 21.9-16.2 19.3-13.5 55.3-37.3 74-48.2 3.03-1.76 27.5-15.3 32-12.5 1.85 1.13 0.158 4.86-1.41 6.35-7.66 7.31-16.8 12.9-25.3 19.2-31.5 23.1-72.3 48-97.7 77.7-0.749 0.874 1.98-1.18 2.91-1.85 3.6-2.57 7.13-5.22 10.7-7.85 31.5-23.4 53.3-40.6 89.3-63.5 8.96-5.7 18.7-10.2 28.4-14.4 1.04-0.452 4.06-0.276 3.35 0.618-22.6 28.8-54.3 49.8-81.2 74.3-8.53 7.78-19.3 14.2-24.5 24.4-0.552 1.08 2.12-1.2 3.09-1.94 6.75-5.15 13.3-10.6 20-15.7 23-17.5 46-33.6 70.4-48.8 8.31-5.19 32.3-21.5 43.2-23.4 2-0.352 0.266 4.4-0.971 6-4.19 5.43-33.1 29.6-34.9 31.2-20.4 17.8-40.2 36.3-59 55.9-4.14 4.32 9.62-7.12 14.3-10.9 24-19.2 47.5-38.5 74-54.1 3.77-2.22 7.33-4.97 11.5-6.35 2.68-0.892-1.33 5.81-3.35 7.77-8.19 7.92-16.7 15.5-25.3 22.9-58.2 50.6 4.66-6.42-48 41.7-4.4 4.01-8.81 8.02-13.2 12.1-1.31 1.22-5.37 4.65-3.8 3.79 11.9-6.49 21.9-16.1 33.2-23.6 21-13.8 42.5-26.8 63.5-40.5" style="fill:none;mix-blend-mode:normal;stroke-linecap:round;stroke-width:12;stroke:#ed7d31"/>
		<path d="m836 337c3.32-0.706 32 12.6 32 12.9 0.363 2.3-4.67 0.174-6.97-0.177-11.5-1.76-23.2-2.95-34.4-6.18-2.92-0.842-5.67-4.14-8.56-3.18-0.558 0.186 0.894 0.78 1.41 1.06 3.7 1.99 7.38 4.02 11.2 5.74 11 4.93 22.6 7.44 32.3 14.9 1.37 1.06 4.64 2.82 3.35 3.97-0.365 0.326-36.8-6.1-40.2-6.35-5.08-0.38-10.2-0.674-15.3-0.794-1.17-0.0278-4.38 0.491-3.35 1.06 5.25 2.91 11 3.83 16.7 5.65 9.87 3.14 26.4 8.96 35.1 13 2.81 1.29 5.28 3.23 7.85 4.94 0.608 0.405 2.26 0.976 1.68 1.41-6.29 4.67-49.9-12.9-60.4-15.7-4.49-1.19-17.9-5.54-20.1-3.18-0.494 0.525 5.48 3.96 9.62 5.74 16.6 7.14 34.4 12.4 51.3 18.9 7.67 2.93 16.1 8.43 12.2 8.12-22.4-1.78-44.8-9.86-66.6-14.9-1.89-0.437-20.7-5.43-23.1-3.79-2.2 1.47 4.28 3.2 6.71 4.24 3.27 1.4 6.8 2.08 10.2 3 19.7 5.29 22.6 5.3 43 11.6 5.33 1.66 10.6 3.54 15.8 5.56 2.69 1.04 5.26 2.36 7.85 3.62 0.44 0.214 1.7 0.63 1.24 0.794-9.64 3.43-58.6-10.3-71-12.1-6.9-1-13.9-1.69-20.8-1.94-3.38-0.122-12.2 1.38-9.53 3.44 11.9 9.17 46.5 14.7 57.5 17.7 7.94 2.14 15.8 4.6 23.7 6.97 6.87 2.07 13.8 3.87 20.6 6.35 3.57 1.32 12.5 6.35 8.83 7.24-2.11 0.507-4.3-0.528-6.44-0.883-6.92-1.15-13.9-2.23-20.7-3.62-32.2-6.52-63.5-16.2-95.3-24.2-9.67-2.44-19.4-4.62-29.1-6.8-1.57-0.352-6.08-1.72-4.77-0.794 10.6 7.45 24.3 8.84 36.5 12.9 54.8 18.1 44.7 12.7 83.3 30.6 5.64 2.63 11.3 5.31 16.8 8.21 2.15 1.13 8.45 3.01 6.18 3.88-7.39 2.84-56.4-15.9-62.8-17.7-31.9-8.49-45.6-11.2-77.4-15.3-4.56-0.581-9.17-1.1-13.8-0.883-2.87 0.137-10.7 0.193-8.38 1.94 1.73 1.33 32 6.2 32.7 6.35 44.1 9.45 44.3 9.34 83.3 22.3 8.64 2.88 17.3 5.83 25.8 9.09 6.47 2.48 13 4.88 19.2 8.12 0.552 0.291 0.359 1.87-0.265 1.85-13-0.358-47.7-10.1-53-11.5-36.2-9.34-22.1-7.78-72.5-18.9-10.3-2.28-20.9-3.67-31.3-5.3-3.57-0.554-7.17-0.857-10.8-1.24-0.322-0.0339-1.28-0.0917-0.971 0 41.6 12.3 84.9 18.4 127 30.1 8.08 2.25 16.1 4.93 23.9 7.85 4.74 1.76 9.5 3.6 13.9 6.18 1.07 0.632 3.09 2.7 1.94 3.18-7.7 3.18-50.2-5.93-55.7-6.8-39.8-6.24-36.8-6.56-79.8-10.9-12.2-1.21-24.3-2.16-36.5-2.91-7.32-0.452-14.6-0.706-22-0.706-1.69 0-6.68 0.343-5.03 0.706 17.8 3.91 36.4 3.44 54.5 5.91 32.3 4.41 60.6 10.9 92.7 18.7 10.5 2.55 20.9 5.5 31.3 8.47 5.13 1.47 10.2 3.14 15.3 4.85 1.39 0.469 4.86 0.452 4.06 1.68-1.19 1.81-15.1 0.33-18.6 0-8.45-0.801-16.9-1.75-25.3-2.74-37.2-4.35-74.3-10.1-112-12.5-9.46-0.613-18.9-0.599-28.4-0.794-0.503-0.0104-1.99 0.0513-1.5 0.177 14.2 3.66 41.8 6.6 50.7 7.85 40.5 5.78 80.8 12 120 23.7 10.7 3.21 21.3 7.04 31.8 10.9 2.23 0.808 8.37 1.63 6.44 3-3.16 2.25-60-10.1-62-10.4-26.8-4.43-52.3-8.16-79.3-9.09-4.62-0.158-9.25 0.249-13.9 0.618-1.29 0.103-4.41-0.345-3.79 0.794 2.14 3.98 19 4.22 22.4 4.68 44 5.84 88.5 12.6 131 27 4.3 1.47 8.25 3.79 12.4 5.74 0.987 0.468 3.72 0.768 2.91 1.5-0.344 0.311-39-4.31-41.1-4.5-49.9-4.55-61.5-5.75-105-6.97-2.27-0.0631-17.4-0.409-22.4 0.618-0.425 0.0876 0.716 0.568 1.15 0.618 10.6 1.22 21.2 1.7 31.8 3.18 32.3 4.53 63.4 12.1 94.6 21.4 3.45 1.03 21 6.26 26.9 9.18 0.717 0.353-1.59-0.172-2.38-0.265-4.77-0.555-9.54-1.04-14.3-1.68-19.6-2.62-39.1-5.9-59-6.97-3.07-0.166-10.9-0.585-11.3 0.177-0.529 1.01 2.08 0.953 3.18 1.24 4.41 1.13 8.85 2.2 13.3 3 9.21 1.66 31.2 4.47 43 7.41 6.82 1.71 13.7 3.41 20.3 5.74 21.8 7.66-45.1 0.281-45.8 0.441-6.78 1.58-2.44 4.02-1.24 4.85" style="fill:none;mix-blend-mode:normal;stroke-linecap:round;stroke-width:12;stroke:#a5a5a5"/>
		<path d="m641 438c3.56 21.4 0.824 0.662 0 0-3.62-2.91-9.29-1.65-13.4-3.79-2.54-1.32-11.5-10.9-13.9-13.6-0.554-0.643-2.05-1.56-1.41-2.12 0.651-0.57 1.33 1.15 2.12 1.5 3.12 1.37 11 3.98 14.6 5.03 8.32 2.47 16.6 5.31 25.1 7.06 1.41 0.291 4.56 1.6 4.32 0.177-0.367-2.2-3.15-3.21-5.03-4.41-4.68-2.99-9.75-5.34-14.6-8.12-19.9-11.5-5.01-3.06-24.4-15.9-4.13-2.74-8.35-5.35-12.6-7.85-1.43-0.841-6.18-2.41-4.59-1.94 18.8 5.53 36 15.7 53.6 24.2 4.61 2.21 9.18 4.58 14 6.18 0.943 0.309 3.51 0.174 2.91-0.618-2.23-2.95-5.71-4.72-8.65-6.97-8.62-6.6-17.2-13.3-26-19.6-9.77-6.92-25.5-19.1-37.9-23.3-0.712-0.237 1.06 1.08 1.68 1.5 3.53 2.41 7.04 4.88 10.8 6.97 16.6 9.31 34.7 18.8 52.8 25.1 3.41 1.18 12.4 4.47 10.8 1.24-3.04-6.09-27.5-19.8-33-23.7-7.47-5.31-14.8-10.7-22.2-16.2-4.6-3.36-9.23-6.7-13.8-10.1-0.879-0.669-3.57-2.32-2.47-2.21 6.72 0.672 26 11.6 27.5 12.4 33.6 17.7 16.8 10.1 47 24.2 3.06 1.43 6.92 6.48 9.27 4.06 2.2-2.27-4.15-4.82-6.62-6.8-7.82-6.25-16.1-11.9-24.2-17.8-18.6-13.8-38.9-27.9-53.7-45.6-0.625-0.747 1.86 0.665 2.65 1.24 3.05 2.21 5.76 4.87 8.83 7.06 11 7.83 74.8 57.2 95.1 60.5 1.36 0.22 0.246-3.07-0.706-4.06-5.77-6-12.3-11.2-18.9-16.3-19.3-14.9-39.5-28.7-59.2-43.1-5.41-3.92-10.9-7.7-16.4-11.5-1.02-0.701-4.2-2.65-3.18-1.94 25.9 17.8 53 33.7 81 48 4.97 2.54 30.1 16.7 37 13.1 7.83-4.08-10.7-14.4-17.9-19.5-31.2-22.2-62.6-43.2-91.4-68.6-0.597-0.525 1.19 1.07 1.85 1.5 14.2 9.18 14.8 8.53 33.4 19.1 29.8 16.8 59.9 38.7 92.9 48.8 5.52 1.69 12.3 7.1 16.9 3.62 7.74-5.85-52.9-43.3-58-46.9-19-13.4-37-28.2-56-41.7-4.92-3.48-10-6.75-15.3-9.71-1.31-0.74-4.8-2.75-4.32-1.32 0.921 2.76 3.78 4.47 6 6.35 5.54 4.72 11.3 9.11 17.2 13.4 30.9 22.7 70.6 52.5 105 69 9.23 4.4 19 7.98 28.9 10.1 1.64 0.356 5.05-1.64 4.06-3-3.8-5.2-9.89-8.29-15.1-12.1-9.63-7.03-19.6-13.6-29.4-20.4-60.5-41.9-43.7-29.3-87.8-62.4-8.96-6.72-18.4-12.9-26.6-20.6-0.85-0.799-4.24-6.82-1.85-7.68 13.6-4.89 50.4 21 57 24.9 22.8 13.5 66 40 91.5 53.7 6.73 3.61 30.1 14.7 38.4 13.6 3.17-0.439-4.07-5.03-6.62-6.97-8.38-6.36-17.3-12-26-17.8-42.1-27.8-85.2-53.9-127-82.4-2.32-1.59 4.89 2.8 7.41 4.06 3.7 1.85 7.34 3.83 11.2 5.3 2.38 0.901 5.05 0.826 7.41 1.77 13 5.16 37.7 18.7 47.5 23.9 10.2 5.43 83.9 49.9 104 50.3 2.71 0.0562-1.27-5.67-3.35-7.41-7.97-6.68-17.3-11.5-26-17.2-65.5-42.9-20-11.9-92.7-63.6-13.5-9.61-33.5-21.2-45.8-33.5-0.233-0.233 0.595 0.281 0.883 0.441 3.77 2.11 7.58 4.15 11.3 6.35 9.02 5.36 17.9 11 26.9 16.3 19.5 11.4 94.6 58.6 117 53.7 1.7-0.374-0.525-3.84-1.94-4.85-14.5-10.4-30.1-19.1-45.1-28.9-29.4-19.1-40.7-26.4-68.1-47-9.6-7.18-18.9-14.7-28.4-22.1-1.88-1.45-7.74-2.96-5.74-4.24 2.14-1.36 4.48 2.39 6.71 3.62 5.89 3.25 11.8 6.55 17.7 9.8 22 12.1 61.5 34.3 84.8 45.2 0.17 0.079 39 18.5 49 15.7 2.29-0.631 0.396-5.44-1.41-6.97-10.9-9.26-23.6-16.2-35.4-24.3-27.8-18.9-56.5-37.3-82.9-58.2-0.263-0.208 0.664 0.128 0.971 0.265 4.32 1.92 8.71 3.71 12.9 5.91 35.7 18.9 70.6 39.2 108 54.5 7.24 2.95 14.9 5.73 22.7 6 1.92 0.0669 3.91-3.67 2.65-5.12-5.95-6.84-14.2-11.3-21.5-16.6-27.1-19.4-40-25.9-66.4-46.1-0.636-0.486-18.4-19.9-27.7-19.9-0.789 0 1.43 0.671 2.12 1.06 4.73 2.67 9.32 5.58 14.1 8.12 22.2 11.7 44.4 23.6 67.1 34.3 8.62 4.09 17.5 7.83 26.6 10.7 1.97 0.616 7.38 1.24 6.18-0.441-3.26-4.58-8.85-6.96-13.6-9.97-12.3-7.82-25.1-14.9-37.5-22.5-9.54-5.84-19-11.8-28.4-17.8-6.75-4.33-15.4-6.92-19.9-13.6-0.15-0.226 0.538 0.0887 0.794 0.177 1.98 0.678 3.98 1.31 5.91 2.12 9.6 4.03 62.6 30.5 69.7 24.4 1.49-1.26-8.61-8.94-14.3-12.7-20.1-13.3-41.2-25.1-61.9-37.4-0.834-0.498 1.53 1.22 2.38 1.68 5.36 2.87 10.7 5.7 16.2 8.3 21.8 10.3 43.4 21 65.9 29.7 2.97 1.15 9.83 5.09 9.36 1.94-0.829-5.49-44-35.5-51.6-42.1-2.73-2.34-11.4-7.02-7.85-7.41 5.43-0.604 9.99 4.44 15 6.62 11.1 4.83 22.1 10 33.4 14.4 4.15 1.6 8.44 3.57 12.9 3.44 1.29-0.0373 0.173-2.86-0.706-3.79-8.27-8.84-17.6-16.6-26.3-25.1-2.1-2.04-8.03-7.81-5.21-7.06 10.5 2.79 25.7 14.9 35.8 13.6 2.24-0.286 3.82-2.41 5.74-3.62" style="fill:none;mix-blend-mode:normal;stroke-linecap:round;stroke-width:12;stroke:#ffc000"/>
	</g>
	<g>
		<text x="1066.8944" y="93.344978" style="fill:#000000;font-family:'Bradley Hand ITC';font-size:107px;stroke-linecap:round;stroke:#000000" xml:space="preserve"><tspan x="1066.8944" y="93.344978">base salary</tspan></text>
		<text x="1238.7885" y="639.82404" style="fill:#000000;font-family:'Bradley Hand ITC';font-size:107px;stroke-linecap:round;stroke:#000000" xml:space="preserve"><tspan x="1238.7885" y="639.82404">benefits</tspan></text>
		<text x="203.26549" y="670.14374" style="fill:#000000;font-family:'Bradley Hand ITC';font-size:107px;stroke-linecap:round;stroke:#000000" xml:space="preserve"><tspan x="203.26549" y="670.14374">leave</tspan></text>
		<text x="18.677094" y="91.539772" style="fill:#000000;font-family:'Bradley Hand ITC';font-size:107px;stroke-linecap:round;stroke:#000000" xml:space="preserve"><tspan x="18.677094" y="91.539772">non-</tspan><tspan x="18.677094" y="224.87352">productive</tspan></text>
	</g>
	<g>
		<path d="m1100 314c51-8.6 93.8-31.3 123-67.8 28.5-35.6 36.9-123 38.3-131" style="fill:none;marker-end:url(#marker5751);stroke-linecap:round;stroke-width:10;stroke:#000"/>
		<path d="m982 527c10.4 14.7 54.9 46 88.1 57 45.9 15.2 96.8 12.4 145 9.48" style="fill:none;marker-end:url(#marker5751);stroke-linecap:round;stroke-width:10;stroke:#000"/>
		<path d="m741 526c-5.09 10.9-65.9 65.3-107 84.9-38.4 18.3-82 26.7-124 27.8" style="fill:none;marker-end:url(#marker5751);stroke-linecap:round;stroke-width:10;stroke:#000"/>
		<path d="m618 385c-108 0-232-1.31-232-131" style="fill:none;marker-end:url(#marker5751);stroke-linecap:round;stroke-width:10;stroke:#000"/>
	</g>
</svg>
