<?xml version="1.0" encoding="UTF-8"?>
<?xml-stylesheet type="text/css" href="valueSVG.css" ?>
<svg overflow="hidden" version="1.1" viewBox="0 0 1700 860" xmlns="http://www.w3.org/2000/svg" xmlns:cc="http://creativecommons.org/ns#" xmlns:dc="http://purl.org/dc/elements/1.1/" xmlns:rdf="http://www.w3.org/1999/02/22-rdf-syntax-ns#">
    <title>d2-value-comparison</title>
	<g id="comparison-group" class="comparison">
		<defs>
			<marker class="arrowHeads proposition" id="marker1" markerHeight="7" markerWidth="4.21" orient="auto-start-reverse" preserveAspectRatio="xMidYMid" viewBox="0 0 4.21 7">
				<path class="arrows prop ends" transform="rotate(180 .125 0)" d="m3-3-3 3 3 3" pathLength="1"/>
			</marker>
		</defs>
		<circle id="fullPie" class="compare" cx="869.94" cy="325.76" r="283.08" pathLength="1"/>
		<g class="scribble comparison">
			<path id="compareScribble" class="compare scribble" d="m672.11 152.58c-17.697 9.5534-0.65162 0.6226 0 0 6.6314-6.3361 11.931-13.959 18.426-20.434 4.2759-4.263 9.3463-7.6471 13.973-11.527 14.287-11.982 29.366-22.709 45.061-32.748 10.78-6.895 21.025-13.897 32.923-18.688 1.5791-0.63586 10.231-2.9007 9.6934-1.4846-5.4107 14.264-43.358 44.426-54.144 54.579-34.951 32.902-72.39 63.632-104.27 99.552-2.4805 2.7949-28.069 30.539-26.635 31.7 3.9657 3.2102 9.1819-4.6106 13.187-7.7721 16.786-13.252 33.767-26.45 50.126-40.258 48.821-41.205 92.668-88.078 143.66-126.71 13.951-10.57 28.765-19.778 45.411-25.412 1.711-0.57911 6.9204-1.701 7.3356 0.87327 1.127 6.987-20.969 27.988-25.587 32.748-60.153 61.993-123.25 121.12-180.77 185.66-2.1702 2.4348-4.3073 4.9004-6.375 7.4228-10.132 12.36-19.244 24.758-28.382 37.812-2.2728 3.2468-10.954 12.907-8.0342 14.234 4.2784 1.9447 8.4107-4.4236 11.877-7.5974 12.418-11.371 24.453-24.748 36.329-36.677 56.779-57.038 114.41-112.7 175.62-164.96 21.654-18.487 45.045-34.577 68.553-50.562 12.049-8.1935 38.711-28.592 31.438-16.417-12.272 20.541-44.279 43.571-59.82 57.374-10.787 9.5806-21.4 19.355-32.137 28.992-49.172 44.136-95.164 91.915-139.9 140.51-26.657 28.955-50.716 59.107-71.871 92.392-4.7025 7.3986-22.357 32.995-25.5 44.1-0.74263 2.6239 5.6398-0.68642 7.8596-2.2705 11.545-8.2391 23.968-21.136 33.971-30.914 29.747-29.077 59.089-58.575 88.9-87.589 30.807-29.983 61.308-59.259 91.695-89.859 33.271-33.504 66.231-67.067 104.44-94.924 6.0941-4.4425 30.137-24.062 40.608-21.22 4.0666 1.1038-3.5099 7.8261-6.375 10.916-15.821 17.062-21.037 21.732-34.757 35.018-19.952 19.321-40.433 38.095-60.257 57.548-49.547 48.621-96.786 99.691-144.09 150.46-40.119 43.06-77.068 80.21-107.33 130.64-3.0198 5.033 7.0765-9.3715 10.829-13.885 4.4447-5.3464 9.1957-10.431 13.711-15.719 22.026-25.794 44.168-50.94 68.291-74.839 53.563-53.067 109.43-103.19 165.92-153.08 21.836-19.283 43.1-39.218 65.234-58.16 17.98-15.387 36.425-30.361 56.676-42.703 0.8093-0.49321 18.34-11.513 19.649-10.479 3.5335 2.7896-9.2419 12.078-19.125 21.22-23.878 22.088-47.686 44.179-71.871 65.932-57.963 52.134-115.17 104.67-164.7 165.13-2.1312 2.6013-27.479 33.338-35.717 45.148-18.322 26.264-35.457 53.159-52.222 80.428-5.7388 9.334-4.6572 7.3148-11.091 19.998-0.98938 1.9505-3.2281 7.0971-1.1353 6.4622 11.49-3.4858 45.868-48.967 48.904-52.483 14.734-17.064 29.524-34.084 44.625-50.824 66.112-73.286 137.88-141.01 212.21-205.83 16.831-14.678 14.405-12.948 39.298-32.136 4.737-3.6516 24.417-20.172 33.272-20.172 0.7685 0-0.8387 1.3061-1.3973 1.8339-3.147 2.9735-6.4623 5.7636-9.6934 8.6453-2.911 3.3475-5.626 6.876-8.7329 10.043-25.36 25.847-53.072 49.368-78.246 75.45-65.097 67.446-127.81 135.44-180.77 213.16-6.8508 10.055-14.156 19.829-20.348 30.302-8.1767 13.832-12.831 26.871-19.387 41.131-11.473 24.953-2.4934 2.9051-13.449 30.477-0.77961 1.9621-3.5822 6.9846-1.6592 6.1129 8.9278-4.0472 21.218-24.063 25.063-28.818 19.415-24.006 39.644-47.409 60.257-70.385 40.534-45.182 83.381-86.704 126.71-129.16 34.563-33.861 69.154-68.002 105.32-100.16 3.2096-2.8545 27.891-23.992 39.036-31.962 5.1973-3.7168 8.6951-5.6518 8.9949-5.2396 0.6403 0.88046-9.116 12.946-12.575 16.417-72.87 73.132 50.681-52.173-50.039 49.514-68.238 68.893-133.94 139.51-190.46 218.49-16.871 23.576-33.123 49.243-44.188 76.062-0.62917 1.525-10.96 20.522-0.96061 20.522 4.5827 0 8.8998-3.1352 12.226-6.2875 13.736-13.017 37.236-45.797 47.507-58.16 52.966-63.751 106.75-126.82 162.17-188.45 24.136-26.841 49.862-51.082 77.46-74.315 7.5148-6.3262 21.87-22.232 32.836-23.578 4.4045-0.5409-4.4937 12.505-5.1524 13.448-15.321 21.949-34.931 40.124-53.445 59.295-47.832 49.529-90.642 97.751-131.6 153.08-1.2395 1.6743-20.599 28.148-25.063 35.28-3.577 5.7154-42.346 58.07-34.931 75.625 4.4949 10.642 18.427-3.2826 20.26-5.0649 17.287-16.81 30.172-37.101 45.411-55.627 41.793-50.806 83.847-102.45 133.79-145.57 13.666-11.801 47.691-40.365 64.972-47.069 2.3187-0.89948-1.0283 5.075-2.6198 6.9861-12.118 14.552-25.371 28.562-38.512 42.179-40.731 42.208-83.92 85.961-114.84 136.14-13.741 22.303-15.219 24.524-23.142 45.759-1.4686 3.9364-5.3898 13.861-0.26198 16.155 0.48779 0.21821 1.0621-0.36973 1.3972-0.78594 3.3008-4.0992 6.2966-8.4349 9.4315-12.662 3.8805-5.233 7.6572-10.544 11.615-15.719 30.562-39.965 62.589-80.235 100.86-113.18 0.841-0.72379 38.412-31.069 39.036-22.094 0.1263 1.8193-1.673 3.2444-2.6199 4.803-2.8387 4.6729-5.5436 9.4438-8.7328 13.885-16.058 22.362-34.772 43.023-51.524 64.884-3.9951 5.2134-8.9461 9.9411-11.527 15.981-0.7418 1.7357 0.6853 4.6768 2.5325 5.0649 6.0079 1.2625 22.457-10.067 24.365-11.178" pathLength="1"/>
		</g>
		<g class="label comparison">
			<text id="compareLabel" class="compare label" xml:space="preserve">
                <tspan x="200" y="450">100%</tspan>
                <tspan x="30" y="530">productive work</tspan>
            </text>
		</g>
		<g class="arrows comparison">
			<path id="compareArrow" class="compare arrows" d="m748.38 545.47c-38.908 23.408-81.953 49.921-128.15 54.664-55.101 5.6572-128.1-18.083-162.91-32.779" pathLength="1"/>
		</g>
		<g class="captions comparison">
			<text id="compareCaption" class="compare captions" x="400" y="760" xml:space="preserve">At D2, we charge only for what we build</text>
		</g>
	</g>
</svg>
